<svg width="152" height="103" viewBox="0 0 152 103" fill="none" xmlns="http://www.w3.org/2000/svg">
<g filter="url(#filter0_b_26_1097)">
<rect width="160" height="101" fill="black" fill-opacity="0.02"/>
</g>
<g filter="url(#filter1_b_26_1097)">
<rect x="20" y="20" width="160" height="101" fill="black" fill-opacity="0.03"/>
</g>
<g clip-path="url(#clip0_26_1097)">
<path d="M114.658 86.9255H108.253V86.9739H114.658V86.9255Z" fill="#EBEBEB"/>
<path d="M91.7069 87.4515H90.0264V87.4999H91.7069V87.4515Z" fill="#EBEBEB"/>
<path d="M108.06 85.1309H104.349V85.1793H108.06V85.1309Z" fill="#EBEBEB"/>
<path d="M46.1516 85.4558H37.7993V85.5042H46.1516V85.4558Z" fill="#EBEBEB"/>
<path d="M49.0986 85.4558H47.8745V85.5042H49.0986V85.4558Z" fill="#EBEBEB"/>
<path d="M71.1948 86.2719H53.0786V86.3203H71.1948V86.2719Z" fill="#EBEBEB"/>
<path d="M73.4863 75.1891H36.1457C35.8532 75.1885 35.5729 75.072 35.3662 74.865C35.1595 74.6579 35.0435 74.3774 35.0435 74.0848V21.5946C35.046 21.3037 35.1632 21.0256 35.3696 20.8207C35.576 20.6157 35.8549 20.5005 36.1457 20.5H73.4863C73.7792 20.5 74.06 20.6163 74.2671 20.8234C74.4742 21.0305 74.5905 21.3114 74.5905 21.6042V74.0848C74.5905 74.3777 74.4742 74.6586 74.2671 74.8656C74.06 75.0727 73.7792 75.1891 73.4863 75.1891ZM36.1457 20.5387C35.866 20.5392 35.598 20.6507 35.4004 20.8486C35.2028 21.0466 35.0918 21.3149 35.0918 21.5946V74.0848C35.0918 74.3645 35.2028 74.6328 35.4004 74.8308C35.598 75.0287 35.866 75.1402 36.1457 75.1407H73.4863C73.7662 75.1402 74.0345 75.0288 74.2324 74.8309C74.4303 74.633 74.5417 74.3647 74.5422 74.0848V21.5946C74.5417 21.3147 74.4303 21.0464 74.2324 20.8485C74.0345 20.6506 73.7662 20.5392 73.4863 20.5387H36.1457Z" fill="#EBEBEB"/>
<path d="M115.317 75.1891H77.9748C77.6821 75.1885 77.4016 75.072 77.1946 74.8651C76.9876 74.6581 76.8711 74.3775 76.8706 74.0848V21.5946C76.8737 21.3035 76.9913 21.0254 77.198 20.8206C77.4047 20.6157 77.6838 20.5005 77.9748 20.5H115.317C115.608 20.501 115.886 20.6165 116.092 20.8214C116.298 21.0262 116.415 21.304 116.418 21.5946V74.0848C116.418 74.377 116.302 74.6573 116.096 74.8643C115.889 75.0712 115.61 75.188 115.317 75.1891ZM77.9748 20.5387C77.6949 20.5392 77.4267 20.6506 77.2288 20.8485C77.0309 21.0464 76.9195 21.3147 76.919 21.5946V74.0848C76.9195 74.3647 77.0309 74.633 77.2288 74.8309C77.4267 75.0288 77.6949 75.1402 77.9748 75.1407H115.317C115.597 75.1402 115.865 75.0288 116.063 74.8309C116.261 74.633 116.373 74.3647 116.373 74.0848V21.5946C116.373 21.3147 116.261 21.0464 116.063 20.8485C115.865 20.6506 115.597 20.5392 115.317 20.5387H77.9748Z" fill="#EBEBEB"/>
<path d="M124.346 83.814H27.6543V83.8623H124.346V83.814Z" fill="#EBEBEB"/>
<path d="M56.5032 56.7827H52.1714V75.1465H56.5032V56.7827Z" fill="#E6E6E6"/>
<path d="M63.7244 50.521H59.3926V75.1465H63.7244V50.521Z" fill="#E0E0E0"/>
<path d="M70.9451 56.7827H66.6133V75.1465H70.9451V56.7827Z" fill="#EBEBEB"/>
<path d="M42.0613 63.0426H37.7295V75.1446H42.0613V63.0426Z" fill="#F0F0F0"/>
<path d="M49.2825 60.02H44.9507V75.1446H49.2825V60.02Z" fill="#EBEBEB"/>
<path d="M78.1663 63.0426H73.8345V75.1446H78.1663V63.0426Z" fill="#F5F5F5"/>
<path d="M114.269 44.2592H109.938V75.1465H114.269V44.2592Z" fill="#E0E0E0"/>
<path d="M85.387 56.7827H81.0552V75.1465H85.387V56.7827Z" fill="#F0F0F0"/>
<path d="M107.048 50.521H102.716V75.1465H107.048V50.521Z" fill="#E6E6E6"/>
<path d="M99.8294 53.7582H95.4976V75.1446H99.8294V53.7582Z" fill="#EBEBEB"/>
<path d="M92.6082 60.02H88.2764V75.1446H92.6082V60.02Z" fill="#F0F0F0"/>
<path d="M43.7287 51.6323C44.1122 50.0076 43.106 48.3797 41.4813 47.9962C39.8566 47.6127 38.2287 48.619 37.8452 50.2437C37.4617 51.8683 38.468 53.4963 40.0926 53.8797C41.7173 54.2632 43.3453 53.257 43.7287 51.6323Z" fill="#E0E0E0"/>
<path d="M43.2874 53.0761C44.4678 51.8957 44.4678 49.9819 43.2874 48.8015C42.107 47.6211 40.1932 47.6211 39.0128 48.8015C37.8324 49.9819 37.8324 51.8957 39.0128 53.0761C40.1932 54.2565 42.107 54.2565 43.2874 53.0761Z" fill="#E6E6E6"/>
<path d="M41.1508 53.2013C42.4004 53.2013 43.4134 52.1883 43.4134 50.9387C43.4134 49.6891 42.4004 48.6761 41.1508 48.6761C39.9012 48.6761 38.8882 49.6891 38.8882 50.9387C38.8882 52.1883 39.9012 53.2013 41.1508 53.2013Z" fill="#F0F0F0"/>
<path d="M112.753 25.4274H97.0134C96.2134 25.4274 95.5649 26.0759 95.5649 26.8759V32.8244C95.5649 33.6243 96.2134 34.2728 97.0134 34.2728H112.753C113.553 34.2728 114.201 33.6243 114.201 32.8244V26.8759C114.201 26.0759 113.553 25.4274 112.753 25.4274Z" fill="#F0F0F0"/>
<path d="M100.404 26.6322H99.0924C99.0155 26.6322 98.9531 26.6945 98.9531 26.7714V33.0526C98.9531 33.1295 99.0155 33.1918 99.0924 33.1918H100.404C100.48 33.1918 100.543 33.1295 100.543 33.0526V26.7714C100.543 26.6945 100.48 26.6322 100.404 26.6322Z" fill="white"/>
<path d="M111.136 26.6322H109.825C109.748 26.6322 109.686 26.6945 109.686 26.7714V33.0526C109.686 33.1295 109.748 33.1918 109.825 33.1918H111.136C111.213 33.1918 111.276 33.1295 111.276 33.0526V26.7714C111.276 26.6945 111.213 26.6322 111.136 26.6322Z" fill="white"/>
<path d="M105.956 28.7962H104.645C104.568 28.7962 104.505 28.8585 104.505 28.9354V33.0545C104.505 33.1314 104.568 33.1938 104.645 33.1938H105.956C106.033 33.1938 106.095 33.1314 106.095 33.0545V28.9354C106.095 28.8585 106.033 28.7962 105.956 28.7962Z" fill="white"/>
<path d="M103.204 29.8501H101.893C101.816 29.8501 101.753 29.9124 101.753 29.9893V33.0525C101.753 33.1294 101.816 33.1918 101.893 33.1918H103.204C103.281 33.1918 103.343 33.1294 103.343 33.0525V29.9893C103.343 29.9124 103.281 29.8501 103.204 29.8501Z" fill="white"/>
<path d="M108.547 32.4183H107.236C107.159 32.4183 107.097 32.4806 107.097 32.5575V33.0526C107.097 33.1295 107.159 33.1918 107.236 33.1918H108.547C108.624 33.1918 108.686 33.1295 108.686 33.0526V32.5575C108.686 32.4806 108.624 32.4183 108.547 32.4183Z" fill="white"/>
<path d="M110.504 26.5935C110.486 26.5849 110.467 26.58 110.448 26.579C110.429 26.5781 110.409 26.5812 110.391 26.5881C110.373 26.595 110.356 26.6056 110.342 26.6191C110.329 26.6327 110.318 26.649 110.31 26.667L107.99 31.695C107.98 31.7192 107.963 31.7401 107.942 31.7555C107.921 31.7709 107.896 31.7801 107.87 31.7821C107.844 31.7841 107.818 31.7788 107.795 31.7668C107.771 31.7549 107.752 31.7367 107.738 31.7143L105.588 28.4423C105.568 28.4109 105.537 28.3886 105.5 28.3803C105.464 28.372 105.426 28.3783 105.395 28.3978L102.687 29.4807C102.665 29.4941 102.64 29.5011 102.615 29.5011C102.589 29.5011 102.564 29.4941 102.542 29.4807L99.593 26.5104C99.5762 26.5012 99.5576 26.4957 99.5385 26.4941C99.5194 26.4925 99.5001 26.4948 99.482 26.501C99.4638 26.5072 99.4471 26.517 99.433 26.53C99.4188 26.5429 99.4075 26.5586 99.3996 26.5761V26.5916C99.3855 26.6236 99.3839 26.6598 99.3949 26.6931C99.406 26.7263 99.4291 26.7542 99.4596 26.7714L102.567 29.8327C102.589 29.8465 102.614 29.8538 102.64 29.8538C102.665 29.8538 102.691 29.8465 102.712 29.8327L105.3 28.8155C105.315 28.8056 105.333 28.7988 105.351 28.7957C105.369 28.7926 105.388 28.7931 105.406 28.7972C105.424 28.8014 105.441 28.8091 105.456 28.8198C105.471 28.8306 105.484 28.8442 105.493 28.86L107.781 32.3544C107.794 32.3769 107.814 32.3952 107.837 32.4073C107.86 32.4194 107.886 32.4248 107.912 32.423C107.938 32.4212 107.963 32.4122 107.984 32.3971C108.006 32.3819 108.022 32.3611 108.032 32.337L110.566 26.7772C110.58 26.7444 110.582 26.7073 110.571 26.6733C110.559 26.6393 110.535 26.6108 110.504 26.5935Z" fill="#E0E0E0"/>
<path d="M70.431 34.0543C72.1729 34.0543 73.585 32.6421 73.585 30.9002C73.585 29.1582 72.1729 27.7461 70.431 27.7461C68.689 27.7461 67.2769 29.1582 67.2769 30.9002C67.2769 32.6421 68.689 34.0543 70.431 34.0543Z" fill="#E0E0E0"/>
<path opacity="0.8" d="M70.3942 33.4316C71.7922 33.4316 72.9256 32.2982 72.9256 30.9002C72.9256 29.5021 71.7922 28.3688 70.3942 28.3688C68.9961 28.3688 67.8628 29.5021 67.8628 30.9002C67.8628 32.2982 68.9961 33.4316 70.3942 33.4316Z" fill="white"/>
<path d="M70.3866 31.3682C70.5286 31.3682 70.6438 31.2531 70.6438 31.111C70.6438 30.969 70.5286 30.8538 70.3866 30.8538C70.2445 30.8538 70.1294 30.969 70.1294 31.111C70.1294 31.2531 70.2445 31.3682 70.3866 31.3682Z" fill="#E0E0E0"/>
<path d="M70.3573 31.2057L69.2686 30.1808L69.3749 30.0686L70.3612 30.9969L72.1287 29.4343L72.2312 29.5504L70.3573 31.2057Z" fill="#E0E0E0"/>
<path d="M76.0002 92.4408C96.7082 92.4408 113.495 91.4607 113.495 90.2517C113.495 89.0427 96.7082 88.0626 76.0002 88.0626C55.2921 88.0626 38.5049 89.0427 38.5049 90.2517C38.5049 91.4607 55.2921 92.4408 76.0002 92.4408Z" fill="#F5F5F5"/>
<path d="M82.4249 56.7982H69.6577V90.3949H82.4249V56.7982Z" fill="#9BB0C6"/>
<path opacity="0.5" d="M82.4656 56.7982H72.9453V90.3949H82.4656V56.7982Z" fill="black"/>
<path d="M99.1041 68.2524H86.3369V90.3929H99.1041V68.2524Z" fill="#9BB0C6"/>
<path opacity="0.3" d="M99.1043 68.2001H89.584V90.3948H99.1043V68.2001Z" fill="black"/>
<path d="M65.6642 62.7892H52.897V90.3929H65.6642V62.7892Z" fill="#9BB0C6"/>
<path opacity="0.4" d="M65.6643 62.7216H56.144V90.3929H65.6643V62.7216Z" fill="black"/>
<path d="M57.8664 90.4297C57.849 90.8416 59.1505 91.2303 60.7671 91.2999C62.3838 91.3695 63.7201 91.091 63.7375 90.6791C63.7549 90.2672 62.4535 89.8805 60.8368 89.8108C59.2201 89.7412 57.8838 90.0197 57.8664 90.4297Z" fill="#9BB0C6"/>
<path d="M57.8983 89.6834L57.8667 90.4272L63.7442 90.6767L63.7757 89.9328L57.8983 89.6834Z" fill="#9BB0C6"/>
<path d="M57.8976 89.6851C57.8802 90.097 59.1817 90.4857 60.7984 90.5553C62.4151 90.625 63.7514 90.3465 63.7688 89.9346C63.7862 89.5227 62.4847 89.1359 60.868 89.0663C59.2513 88.9967 57.915 89.2751 57.8976 89.6851Z" fill="#9BB0C6"/>
<path opacity="0.4" d="M57.8976 89.6851C57.8802 90.097 59.1817 90.4857 60.7984 90.5553C62.4151 90.625 63.7514 90.3465 63.7688 89.9346C63.7862 89.5227 62.4847 89.1359 60.868 89.0663C59.2513 88.9967 57.915 89.2751 57.8976 89.6851Z" fill="white"/>
<path d="M58.2729 89.6735C58.2729 89.7001 58.2818 89.726 58.2981 89.747C58.4915 89.5053 59.5686 89.3602 60.8527 89.4163C62.1368 89.4724 63.1984 89.7045 63.3667 89.9617C63.3859 89.9427 63.3969 89.9171 63.3976 89.8901C63.4092 89.6116 62.2721 89.3332 60.8546 89.2732C59.4371 89.2133 58.2846 89.3951 58.2729 89.6735Z" fill="#9BB0C6"/>
<path opacity="0.4" d="M58.2729 89.6735C58.2729 89.7001 58.2818 89.726 58.2981 89.747C58.4915 89.5053 59.5686 89.3602 60.8527 89.4163C62.1368 89.4724 63.1984 89.7045 63.3667 89.9617C63.3859 89.9427 63.3969 89.9171 63.3976 89.8901C63.4092 89.6116 62.2721 89.3332 60.8546 89.2732C59.4371 89.2133 58.2846 89.3951 58.2729 89.6735Z" fill="#9BB0C6"/>
<path opacity="0.4" d="M58.2979 89.747C58.4738 90.0042 59.5316 90.2363 60.8118 90.2904C62.092 90.3446 63.1731 90.2034 63.3665 89.9617C63.1943 89.7045 62.1365 89.4724 60.8525 89.4163C59.5684 89.3602 58.4951 89.5053 58.2979 89.747Z" fill="#9BB0C6"/>
<path d="M57.2419 89.3022C57.2245 89.7141 58.5259 90.1028 60.1426 90.1725C61.7593 90.2421 63.0956 89.9636 63.113 89.5536C63.1304 89.1437 61.8289 88.753 60.2123 88.6834C58.5956 88.6138 57.267 88.8923 57.2419 89.3022Z" fill="#9BB0C6"/>
<path d="M57.2816 88.5598L57.25 89.3036L63.1275 89.5531L63.159 88.8092L57.2816 88.5598Z" fill="#9BB0C6"/>
<path d="M57.2804 88.5596C57.263 88.9696 58.5645 89.3583 60.1812 89.4279C61.7979 89.4975 63.1342 89.219 63.1516 88.8091C63.169 88.3991 61.8675 88.0084 60.2508 87.9388C58.6341 87.8692 57.2979 88.1477 57.2804 88.5596Z" fill="#9BB0C6"/>
<path opacity="0.4" d="M57.2804 88.5596C57.263 88.9696 58.5645 89.3583 60.1812 89.4279C61.7979 89.4975 63.1342 89.219 63.1516 88.8091C63.169 88.3991 61.8675 88.0084 60.2508 87.9388C58.6341 87.8692 57.2979 88.1477 57.2804 88.5596Z" fill="white"/>
<path d="M57.6558 88.5461C57.655 88.5728 57.6639 88.5989 57.681 88.6196C57.8743 88.3778 58.9515 88.2328 60.2356 88.2908C61.5196 88.3488 62.5813 88.577 62.7496 88.8342C62.7672 88.815 62.778 88.7906 62.7805 88.7646C62.7921 88.4861 61.655 88.2057 60.2375 88.1458C58.82 88.0858 57.6674 88.2676 57.6558 88.5461Z" fill="#9BB0C6"/>
<path opacity="0.4" d="M57.6558 88.5461C57.655 88.5728 57.6639 88.5989 57.681 88.6196C57.8743 88.3778 58.9515 88.2328 60.2356 88.2908C61.5196 88.3488 62.5813 88.577 62.7496 88.8342C62.7672 88.815 62.778 88.7906 62.7805 88.7646C62.7921 88.4861 61.655 88.2057 60.2375 88.1458C58.82 88.0858 57.6674 88.2676 57.6558 88.5461Z" fill="#9BB0C6"/>
<path opacity="0.4" d="M57.6812 88.6196C57.8552 88.8768 58.9149 89.1088 60.1951 89.163C61.4754 89.2171 62.5564 89.076 62.7498 88.8342C62.5776 88.577 61.5198 88.345 60.2358 88.2908C58.9517 88.2367 57.8765 88.3778 57.6812 88.6196Z" fill="#9BB0C6"/>
<path d="M57.3288 87.9447C57.3114 88.3566 58.6129 88.7453 60.2295 88.8149C61.8462 88.8845 63.1825 88.6061 63.1999 88.1941C63.2173 87.7822 61.9159 87.3955 60.2992 87.3259C58.6825 87.2562 57.3462 87.5347 57.3288 87.9447Z" fill="#9BB0C6"/>
<path d="M57.3612 87.2008L57.3296 87.9447L63.2071 88.1941L63.2386 87.4503L57.3612 87.2008Z" fill="#9BB0C6"/>
<path d="M57.36 87.2001C57.3426 87.612 58.6441 88.0007 60.2608 88.0703C61.8775 88.14 63.2118 87.8615 63.2292 87.4515C63.2467 87.0415 61.9452 86.6509 60.3285 86.5813C58.7118 86.5117 57.3774 86.7901 57.36 87.2001Z" fill="#9BB0C6"/>
<path opacity="0.4" d="M57.36 87.2001C57.3426 87.612 58.6441 88.0007 60.2608 88.0703C61.8775 88.14 63.2118 87.8615 63.2292 87.4515C63.2467 87.0415 61.9452 86.6509 60.3285 86.5813C58.7118 86.5117 57.3774 86.7901 57.36 87.2001Z" fill="white"/>
<path d="M57.7354 87.1885C57.7353 87.2152 57.7442 87.241 57.7605 87.262C57.9539 87.0203 59.031 86.8753 60.3151 86.9333C61.5992 86.9913 62.6608 87.2195 62.8291 87.4767C62.8481 87.4584 62.8592 87.4334 62.86 87.4071C62.8716 87.1286 61.7345 86.8482 60.317 86.7882C58.8995 86.7283 57.747 86.9101 57.7354 87.1885Z" fill="#9BB0C6"/>
<path opacity="0.4" d="M57.7354 87.1885C57.7353 87.2152 57.7442 87.241 57.7605 87.262C57.9539 87.0203 59.031 86.8753 60.3151 86.9333C61.5992 86.9913 62.6608 87.2195 62.8291 87.4767C62.8481 87.4584 62.8592 87.4334 62.86 87.4071C62.8716 87.1286 61.7345 86.8482 60.317 86.7882C58.8995 86.7283 57.747 86.9101 57.7354 87.1885Z" fill="#9BB0C6"/>
<path opacity="0.4" d="M57.7603 87.262C57.9362 87.5192 58.994 87.7513 60.2742 87.8054C61.5545 87.8596 62.6355 87.7184 62.8289 87.4767C62.6567 87.2195 61.5989 86.9874 60.3149 86.9333C59.0308 86.8791 57.9575 87.0242 57.7603 87.262Z" fill="#9BB0C6"/>
<path d="M56.7121 86.8192C56.6947 87.2291 57.9962 87.6178 59.6129 87.6875C61.2295 87.7571 62.5658 87.4786 62.5832 87.0686C62.6006 86.6587 61.2992 86.268 59.6825 86.1984C58.0658 86.1288 56.7295 86.4073 56.7121 86.8192Z" fill="#9BB0C6"/>
<path d="M56.7425 86.0695L56.7109 86.8134L62.5884 87.0628L62.62 86.3189L56.7425 86.0695Z" fill="#9BB0C6"/>
<path d="M56.7428 86.0746C56.7254 86.4846 58.0269 86.8733 59.6436 86.9429C61.2603 87.0125 62.5966 86.7341 62.614 86.3241C62.6314 85.9141 61.3299 85.5235 59.7132 85.4539C58.0965 85.3843 56.7603 85.6705 56.7428 86.0746Z" fill="#9BB0C6"/>
<path opacity="0.4" d="M56.7428 86.0746C56.7254 86.4846 58.0269 86.8733 59.6436 86.9429C61.2603 87.0125 62.5966 86.7341 62.614 86.3241C62.6314 85.9141 61.3299 85.5235 59.7132 85.4539C58.0965 85.3843 56.7603 85.6705 56.7428 86.0746Z" fill="white"/>
<path d="M57.1183 86.0572C57.1171 86.084 57.1261 86.1103 57.1434 86.1307C57.3368 85.889 58.4139 85.7439 59.698 85.8019C60.9821 85.86 62.0438 86.0882 62.212 86.3454C62.2296 86.3261 62.2405 86.3017 62.2429 86.2757C62.2546 85.9973 61.1175 85.7169 59.6999 85.6569C58.2824 85.597 57.1299 85.7826 57.1183 86.0572Z" fill="#9BB0C6"/>
<path opacity="0.4" d="M57.1183 86.0572C57.1171 86.084 57.1261 86.1103 57.1434 86.1307C57.3368 85.889 58.4139 85.7439 59.698 85.8019C60.9821 85.86 62.0438 86.0882 62.212 86.3454C62.2296 86.3261 62.2405 86.3017 62.2429 86.2757C62.2546 85.9973 61.1175 85.7169 59.6999 85.6569C58.2824 85.597 57.1299 85.7826 57.1183 86.0572Z" fill="#9BB0C6"/>
<path opacity="0.4" d="M57.1436 86.1346C57.3176 86.3918 58.3773 86.6238 59.6575 86.678C60.9378 86.7321 62.0188 86.591 62.2122 86.3492C62.04 86.092 60.9822 85.86 59.6982 85.8058C58.4141 85.7517 57.3389 85.8929 57.1436 86.1346Z" fill="#9BB0C6"/>
<path d="M57.654 85.8639C57.6366 86.2738 58.9381 86.6625 60.5547 86.7321C62.1714 86.8018 63.5077 86.5233 63.5251 86.1133C63.5425 85.7033 62.2411 85.3127 60.6244 85.2431C59.0077 85.1735 57.6714 85.4519 57.654 85.8639Z" fill="#9BB0C6"/>
<path d="M57.6864 85.1191L57.6548 85.8629L63.5322 86.1123L63.5638 85.3685L57.6864 85.1191Z" fill="#9BB0C6"/>
<path d="M57.6867 85.1193C57.6693 85.5293 58.9708 85.918 60.5875 85.9876C62.2042 86.0573 63.5404 85.7788 63.5578 85.3688C63.5752 84.9588 62.2738 84.5682 60.6571 84.4986C59.0404 84.429 57.7041 84.7036 57.6867 85.1193Z" fill="#9BB0C6"/>
<path opacity="0.4" d="M57.6867 85.1193C57.6693 85.5293 58.9708 85.918 60.5875 85.9876C62.2042 86.0573 63.5404 85.7788 63.5578 85.3688C63.5752 84.9588 62.2738 84.5682 60.6571 84.4986C59.0404 84.429 57.7041 84.7036 57.6867 85.1193Z" fill="white"/>
<path d="M58.0601 85.1058C58.0607 85.1323 58.0695 85.1579 58.0852 85.1793C58.2786 84.9375 59.3577 84.7925 60.6398 84.8505C61.9219 84.9085 62.9875 85.1367 63.1538 85.3939C63.1726 85.3753 63.1843 85.3507 63.1867 85.3243C63.1983 85.0458 62.0612 84.7654 60.6437 84.7055C59.2262 84.6455 58.0736 84.8273 58.0601 85.1058Z" fill="#9BB0C6"/>
<path opacity="0.4" d="M58.0601 85.1058C58.0607 85.1323 58.0695 85.1579 58.0852 85.1793C58.2786 84.9375 59.3577 84.7925 60.6398 84.8505C61.9219 84.9085 62.9875 85.1367 63.1538 85.3939C63.1726 85.3753 63.1843 85.3507 63.1867 85.3243C63.1983 85.0458 62.0612 84.7654 60.6437 84.7055C59.2262 84.6455 58.0736 84.8273 58.0601 85.1058Z" fill="#9BB0C6"/>
<path opacity="0.4" d="M58.085 85.1793C58.2609 85.4365 59.3188 85.6685 60.599 85.7227C61.8792 85.7768 62.9621 85.6357 63.1536 85.3939C62.9834 85.1367 61.9236 84.9047 60.6396 84.8505C59.3555 84.7964 58.2822 84.9375 58.085 85.1793Z" fill="#9BB0C6"/>
<path d="M57.0368 84.7364C57.0194 85.1464 58.3209 85.537 59.9376 85.6047C61.5542 85.6724 62.8905 85.3958 62.9079 84.9859C62.9253 84.5759 61.6239 84.1852 60.0072 84.1156C58.3905 84.046 57.0484 84.3168 57.0368 84.7364Z" fill="#9BB0C6"/>
<path d="M57.0677 83.9897L57.0361 84.7335L62.9136 84.9829L62.9452 84.2391L57.0677 83.9897Z" fill="#9BB0C6"/>
<path d="M57.068 83.9919C57.0506 84.4019 58.3521 84.7925 59.9688 84.8602C61.5855 84.9279 62.9218 84.6533 62.9392 84.2414C62.9566 83.8295 61.6551 83.4408 60.0384 83.3711C58.4217 83.3015 57.0854 83.58 57.068 83.9919Z" fill="#9BB0C6"/>
<path opacity="0.4" d="M57.068 83.9919C57.0506 84.4019 58.3521 84.7925 59.9688 84.8602C61.5855 84.9279 62.9218 84.6533 62.9392 84.2414C62.9566 83.8295 61.6551 83.4408 60.0384 83.3711C58.4217 83.3015 57.0854 83.58 57.068 83.9919Z" fill="white"/>
<path d="M57.4356 83.9784C57.4349 84.0051 57.4439 84.0311 57.4607 84.0518C57.6541 83.8101 58.7313 83.6651 60.0153 83.7231C61.2994 83.7811 62.3611 84.0093 62.5293 84.2684C62.5482 84.2493 62.5592 84.2238 62.5603 84.1969C62.5719 83.9184 61.4348 83.6399 60.0173 83.5781C58.5998 83.5162 57.4549 83.6999 57.4356 83.9784Z" fill="#9BB0C6"/>
<path opacity="0.4" d="M57.4356 83.9784C57.4349 84.0051 57.4439 84.0311 57.4607 84.0518C57.6541 83.8101 58.7313 83.6651 60.0153 83.7231C61.2994 83.7811 62.3611 84.0093 62.5293 84.2684C62.5482 84.2493 62.5592 84.2238 62.5603 84.1969C62.5719 83.9184 61.4348 83.6399 60.0173 83.5781C58.5998 83.5162 57.4549 83.6999 57.4356 83.9784Z" fill="#9BB0C6"/>
<path opacity="0.4" d="M57.4683 84.0518C57.6442 84.309 58.7021 84.5411 59.9823 84.5972C61.2625 84.6533 62.3435 84.5101 62.5369 84.2684C62.3648 84.0093 61.3069 83.7772 60.0229 83.7231C58.7388 83.6689 57.6655 83.8101 57.4683 84.0518Z" fill="#9BB0C6"/>
<path d="M49.1023 90.0699C49.0829 90.4818 50.3844 90.8705 52.003 90.9382C53.6217 91.0059 54.9541 90.7313 54.9715 90.3194C54.9889 89.9075 53.6893 89.5188 52.0707 89.4511C50.4521 89.3834 49.1197 89.658 49.1023 90.0699Z" fill="#9BB0C6"/>
<path d="M49.1322 89.3218L49.1006 90.0656L54.978 90.315L55.0096 89.5712L49.1322 89.3218Z" fill="#9BB0C6"/>
<path d="M49.1335 89.3254C49.1161 89.7373 50.4175 90.126 52.0342 90.1957C53.6509 90.2653 54.9872 89.9868 55.0046 89.5749C55.022 89.163 53.7205 88.7743 52.1039 88.7066C50.4872 88.6389 49.1509 88.9135 49.1335 89.3254Z" fill="#9BB0C6"/>
<path opacity="0.4" d="M49.1335 89.3254C49.1161 89.7373 50.4175 90.126 52.0342 90.1957C53.6509 90.2653 54.9872 89.9868 55.0046 89.5749C55.022 89.163 53.7205 88.7743 52.1039 88.7066C50.4872 88.6389 49.1509 88.9135 49.1335 89.3254Z" fill="white"/>
<path d="M49.5065 89.3119C49.5049 89.3387 49.514 89.3651 49.5317 89.3854C49.725 89.1436 50.8022 88.9986 52.0863 89.0566C53.3703 89.1146 54.432 89.3448 54.6003 89.602C54.6179 89.582 54.6287 89.5569 54.6312 89.5304C54.6428 89.2519 53.5057 88.9735 52.0882 88.9135C50.6707 88.8536 49.5201 89.0334 49.5065 89.3119Z" fill="#9BB0C6"/>
<path opacity="0.4" d="M49.5065 89.3119C49.5049 89.3387 49.514 89.3651 49.5317 89.3854C49.725 89.1436 50.8022 88.9986 52.0863 89.0566C53.3703 89.1146 54.432 89.3448 54.6003 89.602C54.6179 89.582 54.6287 89.5569 54.6312 89.5304C54.6428 89.2519 53.5057 88.9735 52.0882 88.9135C50.6707 88.8536 49.5201 89.0334 49.5065 89.3119Z" fill="#9BB0C6"/>
<path opacity="0.4" d="M49.5337 89.3853C49.7077 89.6425 50.7675 89.8765 52.0477 89.9307C53.3279 89.9848 54.4089 89.8437 54.6023 89.6019C54.4302 89.3447 53.3724 89.1107 52.0883 89.0566C50.8042 89.0025 49.729 89.1514 49.5337 89.3853Z" fill="#9BB0C6"/>
<path d="M51.6588 89.3448C51.5621 89.7451 52.7668 90.3736 54.3468 90.7488C55.9267 91.1239 57.2862 91.1046 57.381 90.7043C57.4758 90.304 56.271 89.6755 54.691 89.3003C53.1111 88.9251 51.7535 88.9445 51.6588 89.3448Z" fill="#9BB0C6"/>
<path d="M51.831 88.6241L51.6587 89.3484L57.3818 90.7098L57.5541 89.9854L51.831 88.6241Z" fill="#9BB0C6"/>
<path d="M51.8272 88.6196C51.7305 89.0199 52.9353 89.6484 54.5153 90.0255C56.0952 90.4026 57.4547 90.3813 57.5495 89.981C57.6442 89.5807 56.4452 88.958 54.8633 88.5712C53.2815 88.1845 51.9258 88.2193 51.8272 88.6196Z" fill="#9BB0C6"/>
<path opacity="0.4" d="M51.8272 88.6196C51.7305 89.0199 52.9353 89.6484 54.5153 90.0255C56.0952 90.4026 57.4547 90.3813 57.5495 89.981C57.6442 89.5807 56.4452 88.958 54.8633 88.5712C53.2815 88.1845 51.9258 88.2193 51.8272 88.6196Z" fill="white"/>
<path d="M52.2003 88.6776C52.1945 88.7039 52.1987 88.7315 52.2119 88.755C52.4497 88.5616 53.5327 88.6196 54.7819 88.9174C56.0312 89.2152 57.031 89.6445 57.1509 89.9288C57.1727 89.9134 57.1885 89.8908 57.1954 89.865C57.2592 89.5943 56.1956 89.105 54.8148 88.7762C53.4341 88.4475 52.266 88.4069 52.2003 88.6776Z" fill="#9BB0C6"/>
<path opacity="0.4" d="M52.2003 88.6776C52.1945 88.7039 52.1987 88.7315 52.2119 88.755C52.4497 88.5616 53.5327 88.6196 54.7819 88.9174C56.0312 89.2152 57.031 89.6445 57.1509 89.9288C57.1727 89.9134 57.1885 89.8908 57.1954 89.865C57.2592 89.5943 56.1956 89.105 54.8148 88.7762C53.4341 88.4475 52.266 88.4069 52.2003 88.6776Z" fill="#9BB0C6"/>
<path opacity="0.4" d="M52.2139 88.7646C52.3376 89.0508 53.3316 89.4801 54.5828 89.776C55.834 90.0719 56.917 90.1396 57.1529 89.9385C57.033 89.6542 56.0371 89.2249 54.7839 88.9271C53.5308 88.6292 52.4498 88.5538 52.2139 88.7646Z" fill="#9BB0C6"/>
<path d="M59.1176 84.4908C60.5808 84.4908 61.767 83.3046 61.767 81.8414C61.767 80.3782 60.5808 79.1921 59.1176 79.1921C57.6544 79.1921 56.4683 80.3782 56.4683 81.8414C56.4683 83.3046 57.6544 84.4908 59.1176 84.4908Z" fill="#9BB0C6"/>
<path d="M59.435 84.4908C60.8982 84.4908 62.0844 83.3046 62.0844 81.8414C62.0844 80.3782 60.8982 79.1921 59.435 79.1921C57.9718 79.1921 56.7856 80.3782 56.7856 81.8414C56.7856 83.3046 57.9718 84.4908 59.435 84.4908Z" fill="#9BB0C6"/>
<path opacity="0.5" d="M59.435 84.4908C60.8982 84.4908 62.0844 83.3046 62.0844 81.8414C62.0844 80.3782 60.8982 79.1921 59.435 79.1921C57.9718 79.1921 56.7856 80.3782 56.7856 81.8414C56.7856 83.3046 57.9718 84.4908 59.435 84.4908Z" fill="white"/>
<path d="M60.8384 83.2443C61.6132 82.4694 61.6132 81.2132 60.8384 80.4383C60.0635 79.6635 58.8072 79.6635 58.0324 80.4383C57.2575 81.2132 57.2575 82.4694 58.0324 83.2443C58.8072 84.0191 60.0635 84.0191 60.8384 83.2443Z" fill="#9BB0C6"/>
<path d="M96.5513 90.7932C96.5359 91.2032 95.2093 91.4894 93.5848 91.4314C91.9604 91.3734 90.6589 90.9924 90.6725 90.5824C90.686 90.1724 92.0165 89.8843 93.639 89.9423C95.2615 90.0003 96.5668 90.3813 96.5513 90.7932Z" fill="#9BB0C6"/>
<path d="M90.6966 89.8316L90.6699 90.5756L96.5489 90.7861L96.5755 90.042L90.6966 89.8316Z" fill="#9BB0C6"/>
<path d="M96.5782 90.0487C96.5627 90.4587 95.2361 90.7449 93.6117 90.6869C91.9873 90.6288 90.6858 90.2479 90.6993 89.8379C90.7129 89.4279 92.0414 89.1398 93.6658 89.1978C95.2903 89.2558 96.5937 89.6368 96.5782 90.0487Z" fill="#9BB0C6"/>
<path opacity="0.4" d="M96.5782 90.0487C96.5627 90.4587 95.2361 90.7449 93.6117 90.6869C91.9873 90.6288 90.6858 90.2479 90.6993 89.8379C90.7129 89.4279 92.0414 89.1398 93.6658 89.1978C95.2903 89.2558 96.5937 89.6368 96.5782 90.0487Z" fill="white"/>
<path d="M96.2052 90.0061C96.2042 90.033 96.1931 90.0585 96.1743 90.0777C95.9983 89.8205 94.9386 89.5942 93.6603 89.5497C92.382 89.5053 91.2991 89.6522 91.1076 89.894C91.0906 89.8739 91.0811 89.8487 91.0806 89.8224C91.0922 89.5439 92.2409 89.3544 93.6642 89.4047C95.0875 89.455 96.2149 89.7315 96.2052 90.0061Z" fill="#9BB0C6"/>
<path opacity="0.4" d="M96.2052 90.0061C96.2042 90.033 96.1931 90.0585 96.1743 90.0777C95.9983 89.8205 94.9386 89.5942 93.6603 89.5497C92.382 89.5053 91.2991 89.6522 91.1076 89.894C91.0906 89.8739 91.0811 89.8487 91.0806 89.8224C91.0922 89.5439 92.2409 89.3544 93.6642 89.4047C95.0875 89.455 96.2149 89.7315 96.2052 90.0061Z" fill="#9BB0C6"/>
<path opacity="0.4" d="M96.1741 90.0777C95.9807 90.3194 94.9055 90.4644 93.6214 90.4219C92.3373 90.3794 91.2737 90.1512 91.1074 89.894C91.3008 89.6522 92.3722 89.5072 93.6601 89.5497C94.948 89.5923 95.9981 89.8205 96.1741 90.0777Z" fill="#9BB0C6"/>
<path d="M97.255 89.718C97.2395 90.1279 95.9129 90.4141 94.2884 90.3561C92.664 90.2981 91.3625 89.9171 91.3761 89.5052C91.3896 89.0933 92.7201 88.8091 94.3426 88.8671C95.9651 88.9251 97.2724 89.3061 97.255 89.718Z" fill="#9BB0C6"/>
<path d="M91.4066 88.7669L91.3799 89.5109L97.2588 89.7224L97.2856 88.9783L91.4066 88.7669Z" fill="#9BB0C6"/>
<path d="M97.2823 88.9735C97.2669 89.3834 95.9402 89.6696 94.3158 89.6116C92.6914 89.5536 91.388 89.1726 91.4035 88.7607C91.4189 88.3488 92.7455 88.0645 94.37 88.1226C95.9944 88.1806 97.2959 88.5712 97.2823 88.9735Z" fill="#9BB0C6"/>
<path opacity="0.4" d="M97.2823 88.9735C97.2669 89.3834 95.9402 89.6696 94.3158 89.6116C92.6914 89.5536 91.388 89.1726 91.4035 88.7607C91.4189 88.3488 92.7455 88.0645 94.37 88.1226C95.9944 88.1806 97.2959 88.5712 97.2823 88.9735Z" fill="white"/>
<path d="M96.9089 88.9309C96.9081 88.9573 96.897 88.9823 96.8779 89.0005C96.7019 88.7453 95.6422 88.519 94.3639 88.4745C93.0857 88.4301 92.0008 88.577 91.8113 88.8188C91.7943 88.7987 91.7847 88.7735 91.7842 88.7472C91.7958 88.4687 92.9445 88.2792 94.3678 88.3295C95.7911 88.3798 96.9185 88.6524 96.9089 88.9309Z" fill="#9BB0C6"/>
<path opacity="0.4" d="M96.9089 88.9309C96.9081 88.9573 96.897 88.9823 96.8779 89.0005C96.7019 88.7453 95.6422 88.519 94.3639 88.4745C93.0857 88.4301 92.0008 88.577 91.8113 88.8188C91.7943 88.7987 91.7847 88.7735 91.7842 88.7472C91.7958 88.4687 92.9445 88.2792 94.3678 88.3295C95.7911 88.3798 96.9185 88.6524 96.9089 88.9309Z" fill="#9BB0C6"/>
<path opacity="0.4" d="M96.8855 89.0005C96.6921 89.2442 95.6169 89.3873 94.3328 89.3467C93.0488 89.3061 91.9852 89.076 91.8188 88.8188C92.0122 88.577 93.0836 88.432 94.3715 88.4745C95.6595 88.5171 96.7018 88.7453 96.8855 89.0005Z" fill="#9BB0C6"/>
<path d="M97.2823 88.3566C97.2669 88.7685 95.9383 89.0547 94.3158 88.9967C92.6933 88.9387 91.388 88.5577 91.4035 88.1458C91.4189 87.7339 92.7455 87.4496 94.37 87.5076C95.9944 87.5656 97.2959 87.9466 97.2823 88.3566Z" fill="#9BB0C6"/>
<path d="M91.4315 87.4068L91.4048 88.1509L97.2837 88.3623L97.3105 87.6183L91.4315 87.4068Z" fill="#9BB0C6"/>
<path d="M97.3092 87.6043C97.2937 88.0162 95.9652 88.3024 94.3427 88.2444C92.7202 88.1864 91.4148 87.8054 91.4303 87.3935C91.4458 86.9816 92.7724 86.6973 94.3949 86.7553C96.0174 86.8133 97.3227 87.202 97.3092 87.6043Z" fill="#9BB0C6"/>
<path opacity="0.4" d="M97.3092 87.6043C97.2937 88.0162 95.9652 88.3024 94.3427 88.2444C92.7202 88.1864 91.4148 87.8054 91.4303 87.3935C91.4458 86.9816 92.7724 86.6973 94.3949 86.7553C96.0174 86.8133 97.3227 87.202 97.3092 87.6043Z" fill="white"/>
<path d="M96.9363 87.5714C96.9338 87.5974 96.9229 87.6218 96.9053 87.6411C96.7274 87.3858 95.6677 87.1595 94.3913 87.1131C93.115 87.0667 92.0301 87.2156 91.8386 87.4593C91.8218 87.4385 91.8129 87.4125 91.8135 87.3858C91.8135 87.1073 92.9738 86.9197 94.3971 86.97C95.8204 87.0203 96.9459 87.293 96.9363 87.5714Z" fill="#9BB0C6"/>
<path opacity="0.4" d="M96.9363 87.5714C96.9338 87.5974 96.9229 87.6218 96.9053 87.6411C96.7274 87.3858 95.6677 87.1595 94.3913 87.1131C93.115 87.0667 92.0301 87.2156 91.8386 87.4593C91.8218 87.4385 91.8129 87.4125 91.8135 87.3858C91.8135 87.1073 92.9738 86.9197 94.3971 86.97C95.8204 87.0203 96.9459 87.293 96.9363 87.5714Z" fill="#9BB0C6"/>
<path opacity="0.4" d="M96.905 87.6411C96.7117 87.8847 95.6364 88.0278 94.3524 87.9872C93.0683 87.9466 92.0047 87.7165 91.8384 87.4593C92.0318 87.2156 93.1031 87.0725 94.3911 87.1131C95.679 87.1537 96.7271 87.3858 96.905 87.6411Z" fill="#9BB0C6"/>
<path d="M97.9859 87.2813C97.9705 87.6932 96.6419 87.9795 95.0194 87.9214C93.3969 87.8634 92.0916 87.4825 92.1071 87.0705C92.1225 86.6586 93.4492 86.3744 95.0736 86.4324C96.698 86.4904 97.9995 86.8714 97.9859 87.2813Z" fill="#9BB0C6"/>
<path d="M92.1292 86.3226L92.1025 87.0667L97.9815 87.2771L98.0082 86.533L92.1292 86.3226Z" fill="#9BB0C6"/>
<path d="M98.0114 86.5368C97.9978 86.9487 96.6693 87.2349 95.0468 87.1769C93.4243 87.1189 92.1189 86.7379 92.1344 86.326C92.1499 85.9141 93.4765 85.6299 95.099 85.6879C96.7215 85.7459 98.0268 86.1269 98.0114 86.5368Z" fill="#9BB0C6"/>
<path opacity="0.4" d="M98.0114 86.5368C97.9978 86.9487 96.6693 87.2349 95.0468 87.1769C93.4243 87.1189 92.1189 86.7379 92.1344 86.326C92.1499 85.9141 93.4765 85.6299 95.099 85.6879C96.7215 85.7459 98.0268 86.1269 98.0114 86.5368Z" fill="white"/>
<path d="M97.6399 86.4962C97.6374 86.5222 97.6265 86.5466 97.6089 86.5659C97.431 86.3106 96.3713 86.0843 95.0949 86.0379C93.8186 85.9915 92.7337 86.1404 92.5423 86.3841C92.5254 86.3634 92.5165 86.3373 92.5171 86.3106C92.5268 86.0321 93.6774 85.8445 95.1007 85.8948C96.524 85.9451 97.6592 86.2178 97.6399 86.4962Z" fill="#9BB0C6"/>
<path opacity="0.4" d="M97.6399 86.4962C97.6374 86.5222 97.6265 86.5466 97.6089 86.5659C97.431 86.3106 96.3713 86.0843 95.0949 86.0379C93.8186 85.9915 92.7337 86.1404 92.5423 86.3841C92.5254 86.3634 92.5165 86.3373 92.5171 86.3106C92.5268 86.0321 93.6774 85.8445 95.1007 85.8948C96.524 85.9451 97.6592 86.2178 97.6399 86.4962Z" fill="#9BB0C6"/>
<path opacity="0.4" d="M97.6091 86.5658C97.4158 86.8095 96.3405 86.9526 95.0565 86.912C93.7724 86.8713 92.7088 86.6412 92.5425 86.384C92.7359 86.1404 93.8072 85.9972 95.0951 86.0379C96.3831 86.0785 97.4312 86.3105 97.6091 86.5658Z" fill="#9BB0C6"/>
<path d="M74.6467 89.9655C74.6293 90.3774 75.9288 90.7661 77.5474 90.8357C79.166 90.9054 80.4985 90.6269 80.5159 90.215C80.5333 89.8031 79.2337 89.4144 77.6151 89.3467C75.9965 89.279 74.6583 89.5555 74.6467 89.9655Z" fill="#9BB0C6"/>
<path d="M74.6683 89.2184L74.6367 89.9623L80.5142 90.2117L80.5457 89.4678L74.6683 89.2184Z" fill="#9BB0C6"/>
<path d="M74.6716 89.221C74.6542 89.6329 75.9556 90.0216 77.5723 90.0912C79.189 90.1608 80.5253 89.8824 80.5427 89.4705C80.5601 89.0586 79.2586 88.6699 77.6419 88.6022C76.0252 88.5345 74.689 88.811 74.6716 89.221Z" fill="#9BB0C6"/>
<path opacity="0.4" d="M74.6716 89.221C74.6542 89.6329 75.9556 90.0216 77.5723 90.0912C79.189 90.1608 80.5253 89.8824 80.5427 89.4705C80.5601 89.0586 79.2586 88.6699 77.6419 88.6022C76.0252 88.5345 74.689 88.811 74.6716 89.221Z" fill="white"/>
<path d="M75.047 89.2094C75.0459 89.2356 75.0549 89.2612 75.0721 89.281C75.2655 89.0392 76.3426 88.8942 77.6267 88.9522C78.9108 89.0102 79.9725 89.2404 80.1407 89.4976C80.1583 89.4776 80.1692 89.4525 80.1716 89.426C80.1832 89.1475 79.0461 88.8691 77.6286 88.8091C76.2111 88.7492 75.0586 88.9309 75.047 89.2094Z" fill="#9BB0C6"/>
<path opacity="0.4" d="M75.047 89.2094C75.0459 89.2356 75.0549 89.2612 75.0721 89.281C75.2655 89.0392 76.3426 88.8942 77.6267 88.9522C78.9108 89.0102 79.9725 89.2404 80.1407 89.4976C80.1583 89.4776 80.1692 89.4525 80.1716 89.426C80.1832 89.1475 79.0461 88.8691 77.6286 88.8091C76.2111 88.7492 75.0586 88.9309 75.047 89.2094Z" fill="#9BB0C6"/>
<path opacity="0.4" d="M75.0718 89.281C75.2458 89.5401 76.3056 89.7721 77.5858 89.8263C78.866 89.8804 79.947 89.7393 80.1404 89.4975C79.9683 89.2403 78.9105 89.0083 77.6264 88.9522C76.3423 88.8961 75.2671 89.0392 75.0718 89.281Z" fill="#9BB0C6"/>
<path d="M74.0221 88.8381C74.0047 89.25 75.3062 89.6387 76.9229 89.7083C78.5396 89.7779 79.8759 89.4994 79.8933 89.0875C79.9107 88.6756 78.6092 88.2869 76.9925 88.2192C75.3758 88.1516 74.0395 88.4281 74.0221 88.8381Z" fill="#9BB0C6"/>
<path d="M74.0535 88.0968L74.022 88.8406L79.8994 89.0901L79.931 88.3462L74.0535 88.0968Z" fill="#9BB0C6"/>
<path d="M74.0549 88.0936C74.0375 88.5055 75.3389 88.8942 76.9556 88.9638C78.5723 89.0334 79.9086 88.7549 79.926 88.343C79.9434 87.9311 78.6419 87.5443 77.0252 87.4747C75.4085 87.4051 74.0665 87.6836 74.0549 88.0936Z" fill="#9BB0C6"/>
<path opacity="0.4" d="M74.0549 88.0936C74.0375 88.5055 75.3389 88.8942 76.9556 88.9638C78.5723 89.0334 79.9086 88.7549 79.926 88.343C79.9434 87.9311 78.6419 87.5443 77.0252 87.4747C75.4085 87.4051 74.0665 87.6836 74.0549 88.0936Z" fill="white"/>
<path d="M74.4282 88.0819C74.4292 88.1084 74.438 88.1339 74.4534 88.1554C74.6467 87.9137 75.7258 87.7686 77.008 87.8247C78.2901 87.8808 79.3557 88.1129 79.522 88.3701C79.5409 88.3508 79.5526 88.3255 79.5548 88.2985C79.5664 88.02 78.4293 87.7416 77.0118 87.6816C75.5943 87.6217 74.4418 87.7977 74.4282 88.0819Z" fill="#9BB0C6"/>
<path opacity="0.4" d="M74.4282 88.0819C74.4292 88.1084 74.438 88.1339 74.4534 88.1554C74.6467 87.9137 75.7258 87.7686 77.008 87.8247C78.2901 87.8808 79.3557 88.1129 79.522 88.3701C79.5409 88.3508 79.5526 88.3255 79.5548 88.2985C79.5664 88.02 78.4293 87.7416 77.0118 87.6816C75.5943 87.6217 74.4418 87.7977 74.4282 88.0819Z" fill="#9BB0C6"/>
<path opacity="0.4" d="M74.4531 88.1555C74.6291 88.4127 75.6869 88.6447 76.9671 88.6989C78.2473 88.753 79.3303 88.6118 79.5217 88.3701C79.3515 88.1129 78.2918 87.8809 77.0077 87.8248C75.7237 87.7687 74.6465 87.9137 74.4531 88.1555Z" fill="#9BB0C6"/>
<path d="M74.1032 87.4805C74.0858 87.8924 75.3873 88.2811 77.004 88.3507C78.6207 88.4204 79.9569 88.1419 79.9743 87.73C79.9917 87.3181 78.6903 86.9294 77.0736 86.8617C75.4569 86.794 74.1206 87.0705 74.1032 87.4805Z" fill="#9BB0C6"/>
<path d="M74.1336 86.7359L74.1021 87.4797L79.9795 87.7292L80.0111 86.9853L74.1336 86.7359Z" fill="#9BB0C6"/>
<path d="M74.134 86.736C74.1166 87.1479 75.418 87.5366 77.0347 87.6062C78.6514 87.6759 79.9877 87.3974 80.0051 86.9855C80.0225 86.5736 78.721 86.1849 77.1043 86.1172C75.4877 86.0495 74.1514 86.326 74.134 86.736Z" fill="#9BB0C6"/>
<path opacity="0.4" d="M74.134 86.736C74.1166 87.1479 75.418 87.5366 77.0347 87.6062C78.6514 87.6759 79.9877 87.3974 80.0051 86.9855C80.0225 86.5736 78.721 86.1849 77.1043 86.1172C75.4877 86.0495 74.1514 86.326 74.134 86.736Z" fill="white"/>
<path d="M74.5094 86.7244C74.5083 86.7506 74.5173 86.7762 74.5345 86.7959C74.7279 86.5562 75.805 86.4092 77.0891 86.4672C78.3732 86.5252 79.4349 86.7553 79.6031 87.0125C79.6207 86.9926 79.6316 86.9675 79.634 86.941C79.6457 86.6625 78.5086 86.384 77.091 86.3241C75.6735 86.2641 74.521 86.444 74.5094 86.7244Z" fill="#9BB0C6"/>
<path opacity="0.4" d="M74.5094 86.7244C74.5083 86.7506 74.5173 86.7762 74.5345 86.7959C74.7279 86.5562 75.805 86.4092 77.0891 86.4672C78.3732 86.5252 79.4349 86.7553 79.6031 87.0125C79.6207 86.9926 79.6316 86.9675 79.634 86.941C79.6457 86.6625 78.5086 86.384 77.091 86.3241C75.6735 86.2641 74.521 86.444 74.5094 86.7244Z" fill="#9BB0C6"/>
<path opacity="0.4" d="M74.5342 86.7959C74.7082 87.0551 75.768 87.2871 77.0482 87.3413C78.3284 87.3954 79.4094 87.2542 79.6028 87.0125C79.4307 86.7553 78.3729 86.5233 77.0888 86.4672C75.8047 86.4111 74.7295 86.5561 74.5342 86.7959Z" fill="#9BB0C6"/>
<path d="M73.4865 86.3531C73.4691 86.765 74.7706 87.1537 76.3873 87.2234C78.004 87.293 79.3402 87.0145 79.3576 86.6026C79.375 86.1907 78.0736 85.8039 76.4569 85.7343C74.8402 85.6647 73.502 85.9432 73.4865 86.3531Z" fill="#9BB0C6"/>
<path d="M73.5145 85.6066L73.4829 86.3505L79.3604 86.5999L79.3919 85.856L73.5145 85.6066Z" fill="#9BB0C6"/>
<path d="M73.5173 85.6086C73.4999 86.0205 74.8013 86.4092 76.418 86.4788C78.0347 86.5484 79.371 86.2699 79.3884 85.858C79.4058 85.4461 78.1043 85.0594 76.4876 84.9897C74.871 84.9201 73.5347 85.1986 73.5173 85.6086Z" fill="#9BB0C6"/>
<path opacity="0.4" d="M73.5173 85.6086C73.4999 86.0205 74.8013 86.4092 76.418 86.4788C78.0347 86.5484 79.371 86.2699 79.3884 85.858C79.4058 85.4461 78.1043 85.0594 76.4876 84.9897C74.871 84.9201 73.5347 85.1986 73.5173 85.6086Z" fill="white"/>
<path d="M73.8926 85.597C73.8919 85.6234 73.9001 85.6493 73.9158 85.6705C74.1092 85.4287 75.1883 85.2837 76.4724 85.3417C77.7564 85.3997 78.8181 85.6279 78.9864 85.8851C79.0044 85.8654 79.0152 85.8402 79.0173 85.8136C79.0289 85.537 77.8918 85.2566 76.4743 85.1967C75.0568 85.1367 73.9042 85.3185 73.8926 85.597Z" fill="#9BB0C6"/>
<path opacity="0.4" d="M73.8926 85.597C73.8919 85.6234 73.9001 85.6493 73.9158 85.6705C74.1092 85.4287 75.1883 85.2837 76.4724 85.3417C77.7564 85.3997 78.8181 85.6279 78.9864 85.8851C79.0044 85.8654 79.0152 85.8402 79.0173 85.8136C79.0289 85.537 77.8918 85.2566 76.4743 85.1967C75.0568 85.1367 73.9042 85.3185 73.8926 85.597Z" fill="#9BB0C6"/>
<path opacity="0.4" d="M73.9155 85.6705C74.0915 85.9277 75.1493 86.1597 76.4295 86.2139C77.7097 86.268 78.7927 86.1269 78.9861 85.8851C78.814 85.6279 77.7542 85.3959 76.4721 85.3417C75.1899 85.2876 74.1128 85.4287 73.9155 85.6705Z" fill="#9BB0C6"/>
<path d="M74.4279 85.3978C74.4105 85.8097 75.712 86.1984 77.3287 86.268C78.9454 86.3377 80.2817 86.0592 80.2991 85.6473C80.3165 85.2354 79.015 84.8486 77.3983 84.779C75.7816 84.7094 74.453 84.9878 74.4279 85.3978Z" fill="#9BB0C6"/>
<path d="M74.4603 84.6541L74.4287 85.398L80.3062 85.6474L80.3377 84.9036L74.4603 84.6541Z" fill="#9BB0C6"/>
<path d="M74.4533 84.6532C74.4359 85.0651 75.7374 85.4538 77.3541 85.5235C78.9708 85.5931 80.307 85.3146 80.3244 84.9027C80.3418 84.4908 79.0404 84.104 77.4237 84.0344C75.807 83.9648 74.4765 84.2433 74.4533 84.6532Z" fill="#9BB0C6"/>
<path opacity="0.4" d="M74.4533 84.6532C74.4359 85.0651 75.7374 85.4538 77.3541 85.5235C78.9708 85.5931 80.307 85.3146 80.3244 84.9027C80.3418 84.4908 79.0404 84.104 77.4237 84.0344C75.807 83.9648 74.4765 84.2433 74.4533 84.6532Z" fill="white"/>
<path d="M74.8398 84.6417C74.8398 84.6683 74.8487 84.6941 74.865 84.7152C75.0584 84.4734 76.1355 84.3284 77.4196 84.3864C78.7037 84.4444 79.7653 84.6726 79.9336 84.9298C79.9432 84.9205 79.951 84.9094 79.9563 84.8972C79.9616 84.8849 79.9644 84.8716 79.9645 84.8583C79.9761 84.5817 78.839 84.3013 77.4215 84.2414C76.004 84.1814 74.8398 84.3632 74.8398 84.6417Z" fill="#9BB0C6"/>
<path opacity="0.4" d="M74.8398 84.6417C74.8398 84.6683 74.8487 84.6941 74.865 84.7152C75.0584 84.4734 76.1355 84.3284 77.4196 84.3864C78.7037 84.4444 79.7653 84.6726 79.9336 84.9298C79.9432 84.9205 79.951 84.9094 79.9563 84.8972C79.9616 84.8849 79.9644 84.8716 79.9645 84.8583C79.9761 84.5817 78.839 84.3013 77.4215 84.2414C76.004 84.1814 74.8398 84.3632 74.8398 84.6417Z" fill="#9BB0C6"/>
<path opacity="0.4" d="M74.8594 84.7152C75.0354 84.9724 76.0932 85.2044 77.3734 85.2586C78.6536 85.3127 79.7346 85.1715 79.928 84.9298C79.7559 84.6726 78.6981 84.4405 77.414 84.3864C76.1299 84.3323 75.0566 84.4734 74.8594 84.7152Z" fill="#9BB0C6"/>
<path d="M73.8112 84.2723C73.7938 84.6823 75.0953 85.071 76.712 85.1406C78.3287 85.2102 79.663 84.9317 79.6824 84.5218C79.7017 84.1118 78.3983 83.7212 76.7816 83.6515C75.1649 83.5819 73.8286 83.8604 73.8112 84.2723Z" fill="#9BB0C6"/>
<path d="M73.8397 83.5248L73.8081 84.2687L79.6856 84.5181L79.7171 83.7742L73.8397 83.5248Z" fill="#9BB0C6"/>
<path d="M73.842 83.5277C73.8246 83.9377 75.126 84.3264 76.7427 84.396C78.3594 84.4656 79.6957 84.1872 79.7131 83.7772C79.7305 83.3672 78.429 82.9766 76.8124 82.907C75.1957 82.8374 73.8594 83.1158 73.842 83.5277Z" fill="#9BB0C6"/>
<path opacity="0.4" d="M73.842 83.5277C73.8246 83.9377 75.126 84.3264 76.7427 84.396C78.3594 84.4656 79.6957 84.1872 79.7131 83.7772C79.7305 83.3672 78.429 82.9766 76.8124 82.907C75.1957 82.8374 73.8594 83.1158 73.842 83.5277Z" fill="white"/>
<path d="M74.2174 83.5142C74.2162 83.541 74.2252 83.5673 74.2425 83.5877C74.4359 83.346 75.5131 83.2009 76.7971 83.259C78.0812 83.317 79.1429 83.5452 79.3111 83.8024C79.3287 83.7831 79.3396 83.7587 79.3421 83.7328C79.3537 83.4543 78.2166 83.1739 76.7991 83.1139C75.3816 83.054 74.229 83.2358 74.2174 83.5142Z" fill="#9BB0C6"/>
<path opacity="0.4" d="M74.2174 83.5142C74.2162 83.541 74.2252 83.5673 74.2425 83.5877C74.4359 83.346 75.5131 83.2009 76.7971 83.259C78.0812 83.317 79.1429 83.5452 79.3111 83.8024C79.3287 83.7831 79.3396 83.7587 79.3421 83.7328C79.3537 83.4543 78.2166 83.1739 76.7991 83.1139C75.3816 83.054 74.229 83.2358 74.2174 83.5142Z" fill="#9BB0C6"/>
<path opacity="0.4" d="M74.2422 83.5877C74.4162 83.8449 75.476 84.077 76.7562 84.1311C78.0364 84.1853 79.1174 84.0441 79.3108 83.8024C79.1387 83.5452 78.0809 83.3131 76.7968 83.2589C75.5127 83.2048 74.4375 83.3498 74.2422 83.5877Z" fill="#9BB0C6"/>
<path d="M80.3031 83.4717C80.3205 83.8817 79.0191 84.2723 77.4024 84.34C75.7857 84.4077 74.4533 84.1234 74.4262 83.7212C74.3991 83.3189 75.7083 82.9206 77.327 82.8509C78.9456 82.7813 80.2838 83.0598 80.3031 83.4717Z" fill="#9BB0C6"/>
<path d="M80.1401 82.9211L74.2573 83.1564L74.2871 83.9009L80.1699 83.6656L80.1401 82.9211Z" fill="#9BB0C6"/>
<path d="M80.2702 82.7271C80.2876 83.1371 78.9862 83.5277 77.3695 83.5954C75.7528 83.6631 74.4165 83.3885 74.3991 82.9766C74.3817 82.5647 75.6832 82.176 77.2999 82.1064C78.9166 82.0368 80.2548 82.3152 80.2702 82.7271Z" fill="#9BB0C6"/>
<path opacity="0.4" d="M80.2702 82.7271C80.2876 83.1371 78.9862 83.5277 77.3695 83.5954C75.7528 83.6631 74.4165 83.3885 74.3991 82.9766C74.3817 82.5647 75.6832 82.176 77.2999 82.1064C78.9166 82.0368 80.2548 82.3152 80.2702 82.7271Z" fill="white"/>
<path d="M79.8948 82.7136C79.8964 82.7405 79.8873 82.7669 79.8697 82.7871C79.6763 82.5454 78.5991 82.4003 77.315 82.4584C76.031 82.5164 74.9693 82.7446 74.801 83.0037C74.7837 82.9835 74.773 82.9586 74.7701 82.9321C74.7585 82.6537 75.8956 82.3752 77.3131 82.3152C78.7306 82.2553 79.8832 82.4351 79.8948 82.7136Z" fill="#9BB0C6"/>
<path opacity="0.4" d="M79.8948 82.7136C79.8964 82.7405 79.8873 82.7669 79.8697 82.7871C79.6763 82.5454 78.5991 82.4003 77.315 82.4584C76.031 82.5164 74.9693 82.7446 74.801 83.0037C74.7837 82.9835 74.773 82.9586 74.7701 82.9321C74.7585 82.6537 75.8956 82.3752 77.3131 82.3152C78.7306 82.2553 79.8832 82.4351 79.8948 82.7136Z" fill="#9BB0C6"/>
<path opacity="0.4" d="M79.8679 82.7871C79.6939 83.0443 78.6341 83.2764 77.3539 83.3325C76.0737 83.3885 74.9927 83.2454 74.7993 83.0037C74.9714 82.7446 76.0292 82.5125 77.3133 82.4584C78.5974 82.4042 79.6745 82.5454 79.8679 82.7871Z" fill="#9BB0C6"/>
<path d="M80.9201 82.3442C80.9376 82.7561 79.6361 83.1448 78.0194 83.2125C76.4027 83.2802 75.0664 83.0056 75.049 82.5937C75.0316 82.1818 76.3331 81.7931 77.9498 81.7254C79.5665 81.6577 80.9027 81.9323 80.9201 82.3442Z" fill="#9BB0C6"/>
<path d="M80.8887 81.5979L75.0112 81.8473L75.0428 82.5912L80.9203 82.3417L80.8887 81.5979Z" fill="#9BB0C6"/>
<path d="M80.887 81.6094C80.9044 82.0213 79.6048 82.41 77.9862 82.4796C76.3676 82.5492 75.0352 82.2708 75.0178 81.8589C75.0003 81.447 76.2999 81.0582 77.9185 80.9906C79.5371 80.9229 80.8696 81.1878 80.887 81.6094Z" fill="#9BB0C6"/>
<path opacity="0.4" d="M80.887 81.6094C80.9044 82.0213 79.6048 82.41 77.9862 82.4796C76.3676 82.5492 75.0352 82.2708 75.0178 81.8589C75.0003 81.447 76.2999 81.0582 77.9185 80.9906C79.5371 80.9229 80.8696 81.1878 80.887 81.6094Z" fill="white"/>
<path d="M80.514 81.5862C80.5135 81.6127 80.5047 81.6384 80.4888 81.6597C80.2954 81.4179 79.2164 81.2729 77.9342 81.3309C76.6521 81.3889 75.5865 81.619 75.4202 81.8762C75.4011 81.8573 75.39 81.8316 75.3893 81.8047C75.3757 81.5262 76.5148 81.2478 77.9304 81.1878C79.3459 81.1279 80.5004 81.3077 80.514 81.5862Z" fill="#9BB0C6"/>
<path opacity="0.4" d="M80.514 81.5862C80.5135 81.6127 80.5047 81.6384 80.4888 81.6597C80.2954 81.4179 79.2164 81.2729 77.9342 81.3309C76.6521 81.3889 75.5865 81.619 75.4202 81.8762C75.4011 81.8573 75.39 81.8316 75.3893 81.8047C75.3757 81.5262 76.5148 81.2478 77.9304 81.1878C79.3459 81.1279 80.5004 81.3077 80.514 81.5862Z" fill="#9BB0C6"/>
<path opacity="0.4" d="M80.4885 81.6597C80.3125 81.9169 79.2547 82.1508 77.9745 82.205C76.6943 82.2591 75.6114 82.118 75.4199 81.8762C75.5901 81.619 76.6498 81.3851 77.9339 81.3309C79.218 81.2768 80.2913 81.416 80.4885 81.6597Z" fill="#9BB0C6"/>
<path d="M80.8347 80.9867C80.8521 81.3967 79.5526 81.7873 77.934 81.855C76.3153 81.9227 74.9829 81.6481 74.9655 81.2362C74.9481 80.8243 76.2476 80.4356 77.8663 80.366C79.4849 80.2963 80.8212 80.5748 80.8347 80.9867Z" fill="#9BB0C6"/>
<path d="M80.8076 80.2429L74.9302 80.4924L74.9617 81.2362L80.8392 80.9868L80.8076 80.2429Z" fill="#9BB0C6"/>
<path d="M80.8078 80.2422C80.8252 80.6541 79.5238 81.0428 77.9071 81.1105C76.2904 81.1782 74.9541 80.9035 74.9367 80.4916C74.9193 80.0797 76.2208 79.691 77.8375 79.6233C79.4542 79.5557 80.7904 79.8303 80.8078 80.2422Z" fill="#9BB0C6"/>
<path opacity="0.4" d="M80.8078 80.2422C80.8252 80.6541 79.5238 81.0428 77.9071 81.1105C76.2904 81.1782 74.9541 80.9035 74.9367 80.4916C74.9193 80.0797 76.2208 79.691 77.8375 79.6233C79.4542 79.5557 80.7904 79.8303 80.8078 80.2422Z" fill="white"/>
<path d="M80.4324 80.2286C80.434 80.2555 80.4249 80.2819 80.4072 80.3021C80.2139 80.0604 79.1367 79.9154 77.8526 79.9734C76.5686 80.0314 75.5069 80.2615 75.3386 80.5187C75.3213 80.4985 75.3105 80.4736 75.3077 80.4472C75.2961 80.1687 76.4332 79.8902 77.8507 79.8303C79.2682 79.7703 80.4208 79.9502 80.4324 80.2286Z" fill="#9BB0C6"/>
<path opacity="0.4" d="M80.4324 80.2286C80.434 80.2555 80.4249 80.2819 80.4072 80.3021C80.2139 80.0604 79.1367 79.9154 77.8526 79.9734C76.5686 80.0314 75.5069 80.2615 75.3386 80.5187C75.3213 80.4985 75.3105 80.4736 75.3077 80.4472C75.2961 80.1687 76.4332 79.8902 77.8507 79.8303C79.2682 79.7703 80.4208 79.9502 80.4324 80.2286Z" fill="#9BB0C6"/>
<path opacity="0.4" d="M80.4075 80.3021C80.2334 80.5593 79.1737 80.7933 77.8935 80.8474C76.6133 80.9016 75.5323 80.7604 75.3389 80.5187C75.511 80.2615 76.5688 80.0275 77.8529 79.9733C79.1369 79.9192 80.2122 80.0623 80.4075 80.3021Z" fill="#9BB0C6"/>
<path d="M81.4577 79.8689C81.4751 80.2808 80.1737 80.6695 78.557 80.7391C76.9403 80.8088 75.604 80.5303 75.5866 80.1184C75.5692 79.7065 76.8707 79.3178 78.4874 79.2501C80.1041 79.1824 81.4403 79.4473 81.4577 79.8689Z" fill="#9BB0C6"/>
<path d="M81.4209 79.1175L75.5435 79.3669L75.575 80.1107L81.4525 79.8613L81.4209 79.1175Z" fill="#9BB0C6"/>
<path d="M81.4245 79.1148C81.4419 79.5267 80.1405 79.9154 78.5238 79.985C76.9071 80.0546 75.5708 79.7761 75.5534 79.3642C75.536 78.9523 76.8375 78.5636 78.4542 78.4959C80.0709 78.4282 81.4149 78.7087 81.4245 79.1148Z" fill="#9BB0C6"/>
<path opacity="0.4" d="M81.4245 79.1148C81.4419 79.5267 80.1405 79.9154 78.5238 79.985C76.9071 80.0546 75.5708 79.7761 75.5534 79.3642C75.536 78.9523 76.8375 78.5636 78.4542 78.4959C80.0709 78.4282 81.4149 78.7087 81.4245 79.1148Z" fill="white"/>
<path d="M81.0515 79.0954C81.0508 79.1213 81.042 79.1463 81.0264 79.1669C80.833 78.9252 79.7539 78.7802 78.4718 78.8382C77.1896 78.8962 76.1241 79.1263 75.9578 79.3835C75.9388 79.3642 75.9272 79.3389 75.9249 79.312C75.9133 79.0335 77.0504 78.755 78.4679 78.6951C79.8854 78.6351 81.038 78.8246 81.0515 79.0954Z" fill="#9BB0C6"/>
<path opacity="0.4" d="M81.0515 79.0954C81.0508 79.1213 81.042 79.1463 81.0264 79.1669C80.833 78.9252 79.7539 78.7802 78.4718 78.8382C77.1896 78.8962 76.1241 79.1263 75.9578 79.3835C75.9388 79.3642 75.9272 79.3389 75.9249 79.312C75.9133 79.0335 77.0504 78.755 78.4679 78.6951C79.8854 78.6351 81.038 78.8246 81.0515 79.0954Z" fill="#9BB0C6"/>
<path opacity="0.4" d="M81.0281 79.1747C80.8521 79.4338 79.7943 79.6659 78.5141 79.72C77.2339 79.7742 76.1509 79.633 75.9595 79.3913C76.1297 79.1341 77.1894 78.9001 78.4735 78.8459C79.7575 78.7918 80.8347 78.933 81.0281 79.1747Z" fill="#9BB0C6"/>
<path d="M80.5138 78.902C80.5312 79.3139 79.2297 79.7026 77.613 79.7722C75.9963 79.8418 74.6465 79.5653 74.6465 79.1534C74.6465 78.7415 75.9306 78.3528 77.5472 78.2851C79.1639 78.2174 80.4964 78.494 80.5138 78.902Z" fill="#9BB0C6"/>
<path d="M80.4839 78.1585L74.6064 78.4079L74.638 79.1518L80.5155 78.9023L80.4839 78.1585Z" fill="#9BB0C6"/>
<path d="M80.4831 78.1594C80.5005 78.5713 79.1991 78.96 77.5824 79.0296C75.9657 79.0992 74.6294 78.8208 74.612 78.4089C74.5946 77.997 75.8961 77.6082 77.5128 77.5406C79.1294 77.4729 80.4657 77.7417 80.4831 78.1594Z" fill="#9BB0C6"/>
<path opacity="0.4" d="M80.4831 78.1594C80.5005 78.5713 79.1991 78.96 77.5824 79.0296C75.9657 79.0992 74.6294 78.8208 74.612 78.4089C74.5946 77.997 75.8961 77.6082 77.5128 77.5406C79.1294 77.4729 80.4657 77.7417 80.4831 78.1594Z" fill="white"/>
<path d="M80.1077 78.1478C80.1088 78.174 80.0998 78.1996 80.0825 78.2194C79.8892 77.9777 78.812 77.8326 77.5279 77.8906C76.2439 77.9486 75.1822 78.1788 75.0139 78.436C74.9955 78.4165 74.9846 78.3912 74.983 78.3644C74.9714 78.086 76.1085 77.8075 77.526 77.7475C78.9435 77.6876 80.0961 77.8694 80.1077 78.1478Z" fill="#9BB0C6"/>
<path opacity="0.4" d="M80.1077 78.1478C80.1088 78.174 80.0998 78.1996 80.0825 78.2194C79.8892 77.9777 78.812 77.8326 77.5279 77.8906C76.2439 77.9486 75.1822 78.1788 75.0139 78.436C74.9955 78.4165 74.9846 78.3912 74.983 78.3644C74.9714 78.086 76.1085 77.8075 77.526 77.7475C78.9435 77.6876 80.0961 77.8694 80.1077 78.1478Z" fill="#9BB0C6"/>
<path opacity="0.4" d="M80.0828 78.2194C79.9068 78.4785 78.849 78.7106 77.5688 78.7647C76.2886 78.8189 75.2075 78.6777 75.0142 78.436C75.1863 78.1788 76.2441 77.9467 77.5282 77.8906C78.8122 77.8345 79.8855 77.9776 80.0828 78.2194Z" fill="#9BB0C6"/>
<path d="M81.1326 77.7765C81.15 78.1884 79.8485 78.5772 78.2318 78.6468C76.6151 78.7164 75.2808 78.4379 75.2634 78.026C75.246 77.6141 76.5455 77.2254 78.1641 77.1577C79.7827 77.09 81.1132 77.3666 81.1326 77.7765Z" fill="#9BB0C6"/>
<path d="M81.0991 77.0349L75.2217 77.2843L75.2532 78.0282L81.1307 77.7787L81.0991 77.0349Z" fill="#9BB0C6"/>
<path d="M81.0998 77.032C81.1172 77.4439 79.8158 77.8326 78.1991 77.9022C76.5824 77.9718 75.2461 77.6933 75.2287 77.2814C75.2113 76.8695 76.5128 76.4828 78.1295 76.4131C79.7461 76.3435 81.0824 76.622 81.0998 77.032Z" fill="#9BB0C6"/>
<path opacity="0.4" d="M81.0998 77.032C81.1172 77.4439 79.8158 77.8326 78.1991 77.9022C76.5824 77.9718 75.2461 77.6933 75.2287 77.2814C75.2113 76.8695 76.5128 76.4828 78.1295 76.4131C79.7461 76.3435 81.0824 76.622 81.0998 77.032Z" fill="white"/>
<path d="M80.7249 77.0204C80.7257 77.0471 80.7167 77.0732 80.6997 77.0939C80.5063 76.8521 79.4292 76.7071 78.1451 76.7632C76.8611 76.8193 75.7994 77.0513 75.6311 77.3085C75.6135 77.2886 75.6027 77.2635 75.6002 77.237C75.5886 76.9585 76.7257 76.68 78.1432 76.6201C79.5607 76.5601 80.7133 76.7419 80.7249 77.0204Z" fill="#9BB0C6"/>
<path opacity="0.4" d="M80.7249 77.0204C80.7257 77.0471 80.7167 77.0732 80.6997 77.0939C80.5063 76.8521 79.4292 76.7071 78.1451 76.7632C76.8611 76.8193 75.7994 77.0513 75.6311 77.3085C75.6135 77.2886 75.6027 77.2635 75.6002 77.237C75.5886 76.9585 76.7257 76.68 78.1432 76.6201C79.5607 76.5601 80.7133 76.7419 80.7249 77.0204Z" fill="#9BB0C6"/>
<path opacity="0.4" d="M80.6995 77.0939C80.5254 77.3511 79.4657 77.5831 78.1855 77.6373C76.9053 77.6914 75.8242 77.5503 75.6309 77.3085C75.803 77.0513 76.8608 76.8193 78.1449 76.7632C79.4289 76.7071 80.5041 76.8521 80.6995 77.0939Z" fill="#9BB0C6"/>
<path d="M78.6835 76.9339C80.0536 76.4203 80.7479 74.8932 80.2343 73.5231C79.7207 72.153 78.1936 71.4587 76.8235 71.9724C75.4535 72.486 74.7591 74.013 75.2728 75.3831C75.7864 76.7532 77.3134 77.4475 78.6835 76.9339Z" fill="#9BB0C6"/>
<path d="M80.0628 76.3011C81.0112 75.1869 80.8766 73.5148 79.7623 72.5664C78.6481 71.6181 76.976 71.7526 76.0277 72.8669C75.0793 73.9812 75.2139 75.6533 76.3281 76.6016C77.4424 77.55 79.1145 77.4154 80.0628 76.3011Z" fill="#9BB0C6"/>
<path opacity="0.4" d="M80.0628 76.3011C81.0112 75.1869 80.8766 73.5148 79.7623 72.5664C78.6481 71.6181 76.976 71.7526 76.0277 72.8669C75.0793 73.9812 75.2139 75.6533 76.3281 76.6016C77.4424 77.55 79.1145 77.4154 80.0628 76.3011Z" fill="white"/>
<path d="M79.8506 75.3998C79.6882 75.7566 79.4237 76.0571 79.0905 76.2635C78.7573 76.4699 78.3703 76.5729 77.9786 76.5595C77.5869 76.546 77.2079 76.4167 76.8897 76.1879C76.5714 75.9592 76.3281 75.6412 76.1905 75.2741C76.053 74.9071 76.0273 74.5075 76.1168 74.1259C76.2063 73.7443 76.4069 73.3978 76.6933 73.1302C76.9796 72.8626 77.3389 72.6859 77.7257 72.6224C78.1125 72.5589 78.5094 72.6116 78.8663 72.7737C79.3449 72.9916 79.7174 73.3906 79.902 73.883C80.0866 74.3755 80.0681 74.921 79.8506 75.3998Z" fill="#9BB0C6"/>
<path d="M103.016 89.5807C102.956 89.8225 102.136 89.8244 101.185 89.5807C100.233 89.3371 99.5099 88.9522 99.5699 88.7124C99.6298 88.4726 100.452 88.4688 101.403 88.7124C102.355 88.9561 103.074 89.3448 103.016 89.5807Z" fill="#9BB0C6"/>
<path d="M99.6817 88.2828L99.5723 88.7199L103.018 89.5829L103.128 89.1459L99.6817 88.2828Z" fill="#9BB0C6"/>
<path d="M103.126 89.1514C103.064 89.3931 102.245 89.3951 101.293 89.1514C100.342 88.9077 99.6203 88.5248 99.6802 88.2831C99.7402 88.0414 100.56 88.0394 101.512 88.2831C102.463 88.5268 103.186 88.9039 103.126 89.1514Z" fill="#9BB0C6"/>
<path opacity="0.4" d="M103.126 89.1514C103.064 89.3931 102.245 89.3951 101.293 89.1514C100.342 88.9077 99.6203 88.5248 99.6802 88.2831C99.7402 88.0414 100.56 88.0394 101.512 88.2831C102.463 88.5268 103.186 88.9039 103.126 89.1514Z" fill="white"/>
<path d="M102.909 89.0721C102.908 89.0801 102.905 89.0876 102.9 89.0942C102.895 89.1009 102.889 89.1065 102.882 89.1108C102.811 88.9367 102.213 88.6699 101.461 88.4823C100.709 88.2947 100.053 88.2464 99.914 88.3663C99.9102 88.351 99.9102 88.3351 99.914 88.3199C99.9565 88.1555 100.662 88.1903 101.494 88.3972C102.325 88.6041 102.952 88.9097 102.909 89.0721Z" fill="#9BB0C6"/>
<path opacity="0.4" d="M102.909 89.0721C102.908 89.0801 102.905 89.0876 102.9 89.0942C102.895 89.1009 102.889 89.1065 102.882 89.1108C102.811 88.9367 102.213 88.6699 101.461 88.4823C100.709 88.2947 100.053 88.2464 99.914 88.3663C99.9102 88.351 99.9102 88.3351 99.914 88.3199C99.9565 88.1555 100.662 88.1903 101.494 88.3972C102.325 88.6041 102.952 88.9097 102.909 89.0721Z" fill="#9BB0C6"/>
<path opacity="0.4" d="M102.881 89.1108C102.735 89.2287 102.084 89.1823 101.333 88.9948C100.583 88.8072 99.9798 88.5384 99.9102 88.3663C100.055 88.2464 100.707 88.2928 101.457 88.4823C102.208 88.6718 102.811 88.9367 102.881 89.1108Z" fill="#9BB0C6"/>
<path d="M104.671 90.3736C104.683 90.6211 103.898 90.857 102.915 90.8976C101.933 90.9382 101.132 90.7719 101.123 90.5244C101.113 90.2769 101.896 90.0409 102.879 89.9984C103.861 89.9558 104.662 90.1183 104.671 90.3736Z" fill="#9BB0C6"/>
<path d="M104.648 89.9275L101.099 90.0781L101.118 90.5283L104.667 90.3777L104.648 89.9275Z" fill="#9BB0C6"/>
<path d="M104.652 89.9249C104.664 90.1744 103.879 90.4084 102.898 90.4509C101.918 90.4935 101.115 90.3252 101.104 90.0758C101.092 89.8263 101.877 89.5923 102.86 89.5517C103.842 89.5111 104.643 89.6755 104.652 89.9249Z" fill="#9BB0C6"/>
<path opacity="0.4" d="M104.652 89.9249C104.664 90.1744 103.879 90.4084 102.898 90.4509C101.918 90.4935 101.115 90.3252 101.104 90.0758C101.092 89.8263 101.877 89.5923 102.86 89.5517C103.842 89.5111 104.643 89.6755 104.652 89.9249Z" fill="white"/>
<path d="M104.428 89.9249C104.428 89.933 104.427 89.9412 104.425 89.9489C104.422 89.9565 104.418 89.9635 104.412 89.9694C104.294 89.8244 103.639 89.7373 102.865 89.776C102.091 89.8147 101.448 89.9501 101.343 90.1048C101.332 90.0931 101.326 90.078 101.326 90.0622C101.326 89.894 102.004 89.7257 102.861 89.689C103.718 89.6522 104.428 89.747 104.428 89.9249Z" fill="#9BB0C6"/>
<path opacity="0.4" d="M104.428 89.9249C104.428 89.933 104.427 89.9412 104.425 89.9489C104.422 89.9565 104.418 89.9635 104.412 89.9694C104.294 89.8244 103.639 89.7373 102.865 89.776C102.091 89.8147 101.448 89.9501 101.343 90.1048C101.332 90.0931 101.326 90.078 101.326 90.0622C101.326 89.894 102.004 89.7257 102.861 89.689C103.718 89.6522 104.428 89.747 104.428 89.9249Z" fill="#9BB0C6"/>
<path opacity="0.4" d="M104.41 89.9597C104.306 90.1144 103.666 90.2556 102.89 90.2885C102.115 90.3214 101.465 90.2363 101.343 90.0951C101.448 89.9404 102.088 89.7992 102.865 89.7664C103.643 89.7335 104.292 89.8147 104.41 89.9597Z" fill="#9BB0C6"/>
<path d="M102.803 89.4874C103.606 88.2642 103.266 86.6217 102.042 85.8188C100.819 85.0159 99.1766 85.3566 98.3737 86.5799C97.5708 87.8031 97.9115 89.4456 99.1348 90.2485C100.358 91.0514 102.001 90.7107 102.803 89.4874Z" fill="#9BB0C6"/>
<path d="M102.807 90.0177C102.458 90.409 102.001 90.688 101.494 90.8196C100.987 90.9511 100.452 90.9293 99.9573 90.7569C99.4624 90.5845 99.0298 90.2692 98.7142 89.8509C98.3986 89.4326 98.2141 88.9301 98.184 88.4069C98.154 87.8837 98.2798 87.3634 98.5455 86.9117C98.8112 86.4601 99.2049 86.0973 99.6768 85.8694C100.149 85.6415 100.678 85.5586 101.196 85.6313C101.715 85.704 102.201 85.9289 102.592 86.2777C103.117 86.7452 103.434 87.4019 103.474 88.1033C103.514 88.8046 103.274 89.4933 102.807 90.0177Z" fill="#9BB0C6"/>
<path opacity="0.4" d="M102.807 90.0177C102.458 90.409 102.001 90.688 101.494 90.8196C100.987 90.9511 100.452 90.9293 99.9573 90.7569C99.4624 90.5845 99.0298 90.2692 98.7142 89.8509C98.3986 89.4326 98.2141 88.9301 98.184 88.4069C98.154 87.8837 98.2798 87.3634 98.5455 86.9117C98.8112 86.4601 99.2049 86.0973 99.6768 85.8694C100.149 85.6415 100.678 85.5586 101.196 85.6313C101.715 85.704 102.201 85.9289 102.592 86.2777C103.117 86.7452 103.434 87.4019 103.474 88.1033C103.514 88.8046 103.274 89.4933 102.807 90.0177Z" fill="white"/>
<path d="M102.301 89.5749C102.04 89.868 101.697 90.077 101.317 90.1756C100.938 90.2742 100.537 90.2579 100.166 90.1288C99.7957 89.9997 99.4717 89.7635 99.2353 89.4502C98.9988 89.1369 98.8607 88.7605 98.8382 88.3687C98.8158 87.9768 98.91 87.5871 99.1091 87.2488C99.3081 86.9106 99.603 86.6389 99.9565 86.4683C100.31 86.2977 100.706 86.2357 101.095 86.2902C101.483 86.3448 101.847 86.5134 102.14 86.7747C102.335 86.9479 102.493 87.1578 102.606 87.3924C102.72 87.6269 102.786 87.8815 102.801 88.1415C102.816 88.4016 102.779 88.662 102.693 88.908C102.608 89.1539 102.474 89.3806 102.301 89.5749Z" fill="#9BB0C6"/>
<path d="M68.0289 90.6192C68.0192 90.8667 68.8024 91.1026 69.7848 91.1432C70.7672 91.1839 71.5678 91.0175 71.5775 90.77C71.5872 90.5225 70.804 90.2866 69.8235 90.244C68.843 90.2015 68.0405 90.3697 68.0289 90.6192Z" fill="#9BB0C6"/>
<path d="M68.0494 90.1705L68.0303 90.6207L71.5795 90.7713L71.5987 90.3212L68.0494 90.1705Z" fill="#9BB0C6"/>
<path d="M68.0485 90.1686C68.0369 90.4181 68.822 90.6521 69.8044 90.6946C70.7868 90.7372 71.5874 90.5689 71.5971 90.3194C71.6067 90.07 70.8235 89.836 69.8411 89.7954C68.8587 89.7548 68.0581 89.9249 68.0485 90.1686Z" fill="#9BB0C6"/>
<path opacity="0.4" d="M68.0485 90.1686C68.0369 90.4181 68.822 90.6521 69.8044 90.6946C70.7868 90.7372 71.5874 90.5689 71.5971 90.3194C71.6067 90.07 70.8235 89.836 69.8411 89.7954C68.8587 89.7548 68.0581 89.9249 68.0485 90.1686Z" fill="white"/>
<path d="M68.2744 90.1608C68.2746 90.177 68.28 90.1926 68.2899 90.2053C68.4078 90.0603 69.0634 89.9733 69.837 90.0119C70.6105 90.0506 71.2525 90.186 71.357 90.3426C71.368 90.3303 71.3748 90.3147 71.3763 90.2981C71.3763 90.1299 70.6956 89.9617 69.8408 89.9268C68.9861 89.892 68.2821 89.9926 68.2744 90.1608Z" fill="#9BB0C6"/>
<path opacity="0.4" d="M68.2744 90.1608C68.2746 90.177 68.28 90.1926 68.2899 90.2053C68.4078 90.0603 69.0634 89.9733 69.837 90.0119C70.6105 90.0506 71.2525 90.186 71.357 90.3426C71.368 90.3303 71.3748 90.3147 71.3763 90.2981C71.3763 90.1299 70.6956 89.9617 69.8408 89.9268C68.9861 89.892 68.2821 89.9926 68.2744 90.1608Z" fill="#9BB0C6"/>
<path opacity="0.4" d="M68.29 90.2054C68.3964 90.362 69.0346 90.5012 69.81 90.5341C70.5855 90.567 71.2372 90.4819 71.3571 90.3407C71.2527 90.1841 70.6145 90.0448 69.8371 90.01C69.0597 89.9752 68.408 90.0603 68.29 90.2054Z" fill="#9BB0C6"/>
<path d="M67.6558 89.9385C67.6558 90.186 68.4293 90.4219 69.4117 90.4625C70.3941 90.5031 71.1947 90.3368 71.2044 90.0893C71.214 89.8418 70.4308 89.6058 69.4504 89.5633C68.4699 89.5207 67.6674 89.6909 67.6558 89.9385Z" fill="#9BB0C6"/>
<path d="M67.6724 89.4838L67.6533 89.934L71.2026 90.0846L71.2217 89.6345L67.6724 89.4838Z" fill="#9BB0C6"/>
<path d="M67.6846 89.4879C67.6846 89.7373 68.4581 89.9713 69.4405 90.0139C70.4229 90.0564 71.2235 89.8882 71.2332 89.6387C71.2428 89.3892 70.4596 89.1552 69.4792 89.1146C68.4987 89.074 67.6846 89.2403 67.6846 89.4879Z" fill="#9BB0C6"/>
<path opacity="0.4" d="M67.6846 89.4879C67.6846 89.7373 68.4581 89.9713 69.4405 90.0139C70.4229 90.0564 71.2235 89.8882 71.2332 89.6387C71.2428 89.3892 70.4596 89.1552 69.4792 89.1146C68.4987 89.074 67.6846 89.2403 67.6846 89.4879Z" fill="white"/>
<path d="M67.9014 89.4801C67.9015 89.4962 67.9069 89.5119 67.9168 89.5246C68.0348 89.3796 68.6904 89.2945 69.4639 89.3312C70.2374 89.368 70.8795 89.5033 70.9839 89.66C70.995 89.6476 71.0017 89.632 71.0033 89.6155C71.0033 89.4492 70.3225 89.279 69.4678 89.2442C68.613 89.2094 67.9091 89.3119 67.9014 89.4801Z" fill="#9BB0C6"/>
<path opacity="0.4" d="M67.9014 89.4801C67.9015 89.4962 67.9069 89.5119 67.9168 89.5246C68.0348 89.3796 68.6904 89.2945 69.4639 89.3312C70.2374 89.368 70.8795 89.5033 70.9839 89.66C70.995 89.6476 71.0017 89.632 71.0033 89.6155C71.0033 89.4492 70.3225 89.279 69.4678 89.2442C68.613 89.2094 67.9091 89.3119 67.9014 89.4801Z" fill="#9BB0C6"/>
<path opacity="0.4" d="M67.917 89.5246C68.0234 89.6813 68.6615 89.8205 69.437 89.8534C70.2125 89.8863 70.8642 89.8012 70.9841 89.66C70.8796 89.5034 70.2415 89.3641 69.4641 89.3312C68.6867 89.2984 68.035 89.3796 67.917 89.5246Z" fill="#9BB0C6"/>
<path d="M67.7041 89.1185C67.7041 89.366 68.4776 89.602 69.46 89.6426C70.4424 89.6832 71.243 89.5169 71.2527 89.2693C71.2624 89.0218 70.4792 88.7859 69.4987 88.7433C68.5182 88.7008 67.7157 88.871 67.7041 89.1185Z" fill="#9BB0C6"/>
<path d="M67.7198 88.664L67.7007 89.1141L71.25 89.2648L71.2691 88.8146L67.7198 88.664Z" fill="#9BB0C6"/>
<path d="M67.7236 88.6679C67.7236 88.9174 68.4972 89.1514 69.4796 89.1939C70.462 89.2365 71.2626 89.0682 71.2722 88.8187C71.2819 88.5693 70.4987 88.3353 69.5182 88.2947C68.5378 88.2541 67.7352 88.4204 67.7236 88.6679Z" fill="#9BB0C6"/>
<path opacity="0.4" d="M67.7236 88.6679C67.7236 88.9174 68.4972 89.1514 69.4796 89.1939C70.462 89.2365 71.2626 89.0682 71.2722 88.8187C71.2819 88.5693 70.4987 88.3353 69.5182 88.2947C68.5378 88.2541 67.7352 88.4204 67.7236 88.6679Z" fill="white"/>
<path d="M67.9497 88.6602C67.9498 88.6763 67.9553 88.6919 67.9652 88.7046C68.0831 88.5596 68.7387 88.4745 69.5123 88.5113C70.2858 88.548 70.9278 88.6834 71.0323 88.84C71.0433 88.8276 71.0501 88.812 71.0516 88.7955C71.0516 88.6292 70.3709 88.459 69.5161 88.4242C68.6614 88.3894 67.9574 88.4938 67.9497 88.6602Z" fill="#9BB0C6"/>
<path opacity="0.4" d="M67.9497 88.6602C67.9498 88.6763 67.9553 88.6919 67.9652 88.7046C68.0831 88.5596 68.7387 88.4745 69.5123 88.5113C70.2858 88.548 70.9278 88.6834 71.0323 88.84C71.0433 88.8276 71.0501 88.812 71.0516 88.7955C71.0516 88.6292 70.3709 88.459 69.5161 88.4242C68.6614 88.3894 67.9574 88.4938 67.9497 88.6602Z" fill="#9BB0C6"/>
<path opacity="0.4" d="M67.9653 88.7047C68.0717 88.8613 68.7099 89.0006 69.4853 89.0334C70.2608 89.0663 70.9125 88.9812 71.0324 88.84C70.928 88.6834 70.2898 88.5442 69.5124 88.5113C68.735 88.4784 68.0833 88.5596 67.9653 88.7047Z" fill="#9BB0C6"/>
<path d="M67.3311 88.4378C67.3311 88.6853 68.1046 88.9212 69.087 88.9618C70.0694 89.0024 70.87 88.8361 70.8816 88.5886C70.8932 88.3411 70.1081 88.1051 69.1257 88.0626C68.1433 88.0201 67.3427 88.1844 67.3311 88.4378Z" fill="#9BB0C6"/>
<path d="M67.3487 87.985L67.3296 88.4352L70.8789 88.5858L70.898 88.1356L67.3487 87.985Z" fill="#9BB0C6"/>
<path d="M67.3502 87.9911C67.3405 88.2405 68.1237 88.4745 69.1061 88.5171C70.0885 88.5596 70.8891 88.3914 70.8988 88.1419C70.9085 87.8924 70.1252 87.6604 69.1448 87.6178C68.1643 87.5753 67.3618 87.7397 67.3502 87.9911Z" fill="#9BB0C6"/>
<path opacity="0.4" d="M67.3502 87.9911C67.3405 88.2405 68.1237 88.4745 69.1061 88.5171C70.0885 88.5596 70.8891 88.3914 70.8988 88.1419C70.9085 87.8924 70.1252 87.6604 69.1448 87.6178C68.1643 87.5753 67.3618 87.7397 67.3502 87.9911Z" fill="white"/>
<path d="M67.5767 87.9795C67.5768 87.9956 67.5822 88.0112 67.5921 88.024C67.712 87.8789 68.3657 87.7938 69.1392 87.8306C69.9127 87.8673 70.5567 88.0027 70.6592 88.1593C70.6706 88.148 70.6775 88.1329 70.6785 88.1168C70.6785 87.9485 69.9978 87.7784 69.1431 87.7436C68.2883 87.7088 67.5844 87.8132 67.5767 87.9795Z" fill="#9BB0C6"/>
<path opacity="0.4" d="M67.5767 87.9795C67.5768 87.9956 67.5822 88.0112 67.5921 88.024C67.712 87.8789 68.3657 87.7938 69.1392 87.8306C69.9127 87.8673 70.5567 88.0027 70.6592 88.1593C70.6706 88.148 70.6775 88.1329 70.6785 88.1168C70.6785 87.9485 69.9978 87.7784 69.1431 87.7436C68.2883 87.7088 67.5844 87.8132 67.5767 87.9795Z" fill="#9BB0C6"/>
<path opacity="0.4" d="M67.5918 88.0239C67.6982 88.1806 68.3363 88.3198 69.1118 88.3527C69.8873 88.3856 70.539 88.3005 70.6589 88.1593C70.5564 88.0027 69.9163 87.8634 69.1389 87.8306C68.3615 87.7977 67.7117 87.8789 67.5918 88.0239Z" fill="#9BB0C6"/>
<path d="M67.9015 87.8615C67.8899 88.1091 68.675 88.345 69.6574 88.3856C70.6398 88.4262 71.4404 88.2599 71.4501 88.0124C71.4598 87.7648 70.6766 87.5289 69.6942 87.4864C68.7118 87.4438 67.9112 87.6043 67.9015 87.8615Z" fill="#9BB0C6"/>
<path d="M67.9171 87.4061L67.8979 87.8563L71.4472 88.0069L71.4663 87.5567L67.9171 87.4061Z" fill="#9BB0C6"/>
<path d="M67.9205 87.4109C67.9089 87.6604 68.6941 87.8943 69.6745 87.9369C70.655 87.9794 71.4575 87.8112 71.4691 87.5617C71.4807 87.3123 70.6956 87.0783 69.7132 87.0377C68.7308 86.997 67.9302 87.1634 67.9205 87.4109Z" fill="#9BB0C6"/>
<path opacity="0.4" d="M67.9205 87.4109C67.9089 87.6604 68.6941 87.8943 69.6745 87.9369C70.655 87.9794 71.4575 87.8112 71.4691 87.5617C71.4807 87.3123 70.6956 87.0783 69.7132 87.0377C68.7308 86.997 67.9302 87.1634 67.9205 87.4109Z" fill="white"/>
<path d="M68.1468 87.4109C68.146 87.419 68.1469 87.4272 68.1496 87.4348C68.1523 87.4425 68.1566 87.4495 68.1622 87.4554C68.2802 87.3103 68.9358 87.2233 69.7093 87.262C70.4828 87.3007 71.1268 87.436 71.2312 87.5907C71.242 87.5791 71.2481 87.564 71.2486 87.5482C71.2486 87.38 70.5699 87.2117 69.7132 87.175C68.8565 87.1382 68.1526 87.2349 68.1468 87.4109Z" fill="#9BB0C6"/>
<path opacity="0.4" d="M68.1468 87.4109C68.146 87.419 68.1469 87.4272 68.1496 87.4348C68.1523 87.4425 68.1566 87.4495 68.1622 87.4554C68.2802 87.3103 68.9358 87.2233 69.7093 87.262C70.4828 87.3007 71.1268 87.436 71.2312 87.5907C71.242 87.5791 71.2481 87.564 71.2486 87.5482C71.2486 87.38 70.5699 87.2117 69.7132 87.175C68.8565 87.1382 68.1526 87.2349 68.1468 87.4109Z" fill="#9BB0C6"/>
<path opacity="0.4" d="M68.1626 87.4477C68.267 87.6024 68.9071 87.7435 69.6826 87.7764C70.4581 87.8093 71.1078 87.7242 71.2297 87.583C71.1252 87.4283 70.4851 87.2871 69.7077 87.2543C68.9303 87.2214 68.2806 87.3026 68.1626 87.4477Z" fill="#9BB0C6"/>
<path d="M65.399 90.5786C65.4589 90.8203 66.2808 90.8222 67.2323 90.5786C68.1837 90.3349 68.905 89.952 68.8451 89.7103C68.7851 89.4686 67.9652 89.4666 67.0137 89.7103C66.0623 89.9539 65.339 90.3388 65.399 90.5786Z" fill="#9BB0C6"/>
<path d="M68.7366 89.2786L65.2905 90.1417L65.4 90.5788L68.846 89.7157L68.7366 89.2786Z" fill="#9BB0C6"/>
<path d="M65.2908 90.1434C65.3508 90.3832 66.1707 90.3871 67.1222 90.1434C68.0736 89.8998 68.7969 89.5169 68.735 89.2771C68.6731 89.0373 67.8551 89.0334 66.9036 89.2771C65.9522 89.5207 65.2289 89.9017 65.2908 90.1434Z" fill="#9BB0C6"/>
<path opacity="0.4" d="M65.2908 90.1434C65.3508 90.3832 66.1707 90.3871 67.1222 90.1434C68.0736 89.8998 68.7969 89.5169 68.735 89.2771C68.6731 89.0373 67.8551 89.0334 66.9036 89.2771C65.9522 89.5207 65.2289 89.9017 65.2908 90.1434Z" fill="white"/>
<path d="M65.5053 90.0719C65.5095 90.087 65.5191 90.1001 65.5323 90.1086C65.6039 89.9365 66.2015 89.6696 66.9557 89.4801C67.7099 89.2906 68.3616 89.2442 68.5027 89.3641C68.5086 89.3492 68.5086 89.3326 68.5027 89.3177C68.4621 89.1552 67.7543 89.1881 66.9247 89.397C66.0951 89.6058 65.4647 89.9075 65.5053 90.0719Z" fill="#9BB0C6"/>
<path opacity="0.4" d="M65.5053 90.0719C65.5095 90.087 65.5191 90.1001 65.5323 90.1086C65.6039 89.9365 66.2015 89.6696 66.9557 89.4801C67.7099 89.2906 68.3616 89.2442 68.5027 89.3641C68.5086 89.3492 68.5086 89.3326 68.5027 89.3177C68.4621 89.1552 67.7543 89.1881 66.9247 89.397C66.0951 89.6058 65.4647 89.9075 65.5053 90.0719Z" fill="#9BB0C6"/>
<path opacity="0.4" d="M65.5322 90.1183C65.6773 90.2382 66.3309 90.1918 67.0793 90.0022C67.8277 89.8127 68.433 89.5478 68.5026 89.3737C68.3576 89.2539 67.7059 89.3022 66.9555 89.4898C66.2052 89.6774 65.6038 89.9365 65.5322 90.1183Z" fill="#9BB0C6"/>
<path d="M63.7534 90.6192C63.7534 90.8667 64.527 91.1026 65.5093 91.1432C66.4917 91.1839 67.2924 91.0175 67.302 90.77C67.3117 90.5225 66.5285 90.2866 65.548 90.244C64.5676 90.2015 63.765 90.3697 63.7534 90.6192Z" fill="#9BB0C6"/>
<path d="M63.7706 90.1647L63.7515 90.6149L67.3007 90.7655L67.3198 90.3154L63.7706 90.1647Z" fill="#9BB0C6"/>
<path d="M63.7725 90.1686C63.7629 90.4181 64.5461 90.6521 65.5285 90.6946C66.5109 90.7372 67.3115 90.5689 67.3211 90.3194C67.3308 90.07 66.5476 89.836 65.5672 89.7954C64.5867 89.7548 63.7842 89.9249 63.7725 90.1686Z" fill="#9BB0C6"/>
<path opacity="0.4" d="M63.7725 90.1686C63.7629 90.4181 64.5461 90.6521 65.5285 90.6946C66.5109 90.7372 67.3115 90.5689 67.3211 90.3194C67.3308 90.07 66.5476 89.836 65.5672 89.7954C64.5867 89.7548 63.7842 89.9249 63.7725 90.1686Z" fill="white"/>
<path d="M63.999 90.1608C63.9992 90.177 64.0046 90.1926 64.0145 90.2053C64.1325 90.0603 64.788 89.9733 65.5616 90.0119C66.3351 90.0506 66.9771 90.186 67.0816 90.3426C67.0926 90.3303 67.0994 90.3147 67.1009 90.2981C67.1009 90.1299 66.4202 89.9617 65.5654 89.9268C64.7107 89.892 64.0106 89.9926 63.999 90.1608Z" fill="#9BB0C6"/>
<path opacity="0.4" d="M63.999 90.1608C63.9992 90.177 64.0046 90.1926 64.0145 90.2053C64.1325 90.0603 64.788 89.9733 65.5616 90.0119C66.3351 90.0506 66.9771 90.186 67.0816 90.3426C67.0926 90.3303 67.0994 90.3147 67.1009 90.2981C67.1009 90.1299 66.4202 89.9617 65.5654 89.9268C64.7107 89.892 64.0106 89.9926 63.999 90.1608Z" fill="#9BB0C6"/>
<path opacity="0.4" d="M64.0103 90.2054C64.1166 90.362 64.7548 90.5012 65.5303 90.5341C66.3057 90.567 66.9574 90.4819 67.0773 90.3407C66.9729 90.1841 66.3347 90.0448 65.5573 90.01C64.7799 89.9752 64.1321 90.0603 64.0103 90.2054Z" fill="#9BB0C6"/>
<path d="M82.0841 90.5979C82.0725 90.8531 82.8809 91.0949 83.8884 91.1374C84.8959 91.18 85.7217 91.0078 85.7333 90.7506C85.7449 90.4934 84.9346 90.2556 83.9271 90.2111C82.9195 90.1666 82.0938 90.3426 82.0841 90.5979Z" fill="#9BB0C6"/>
<path d="M82.0997 90.1298L82.0801 90.5916L85.7298 90.7465L85.7494 90.2847L82.0997 90.1298Z" fill="#9BB0C6"/>
<path d="M82.1036 90.1357C82.092 90.391 82.9004 90.6327 83.9079 90.6753C84.9154 90.7178 85.7412 90.5457 85.7528 90.2885C85.7644 90.0313 84.9561 89.7934 83.9466 89.7489C82.9371 89.7045 82.1133 89.8804 82.1036 90.1357Z" fill="#9BB0C6"/>
<path opacity="0.4" d="M82.1036 90.1357C82.092 90.391 82.9004 90.6327 83.9079 90.6753C84.9154 90.7178 85.7412 90.5457 85.7528 90.2885C85.7644 90.0313 84.9561 89.7934 83.9466 89.7489C82.9371 89.7045 82.1133 89.8804 82.1036 90.1357Z" fill="white"/>
<path d="M82.3354 90.128C82.3358 90.1447 82.3412 90.1608 82.3509 90.1744C82.4727 90.0236 83.1399 89.9365 83.9386 89.9694C84.7373 90.0023 85.3948 90.1473 85.5011 90.3078C85.513 90.296 85.5199 90.2801 85.5205 90.2634C85.5205 90.0912 84.8224 89.9172 83.9425 89.8766C83.0626 89.836 82.3432 89.9559 82.3354 90.128Z" fill="#9BB0C6"/>
<path opacity="0.4" d="M82.3354 90.128C82.3358 90.1447 82.3412 90.1608 82.3509 90.1744C82.4727 90.0236 83.1399 89.9365 83.9386 89.9694C84.7373 90.0023 85.3948 90.1473 85.5011 90.3078C85.513 90.296 85.5199 90.2801 85.5205 90.2634C85.5205 90.0912 84.8224 89.9172 83.9425 89.8766C83.0626 89.836 82.3432 89.9559 82.3354 90.128Z" fill="#9BB0C6"/>
<path opacity="0.4" d="M82.3511 90.1744C82.4613 90.3329 83.1246 90.478 83.9156 90.5128C84.7065 90.5476 85.3814 90.4586 85.5013 90.3078C85.3949 90.1473 84.7374 90.0042 83.9388 89.9694C83.1401 89.9346 82.4729 90.0235 82.3511 90.1744Z" fill="#9BB0C6"/>
<path d="M81.6993 89.8979C81.6896 90.1531 82.498 90.3949 83.5055 90.4393C84.513 90.4838 85.3388 90.3098 85.3485 90.0526C85.3581 89.7954 84.5517 89.5556 83.5442 89.5111C82.5367 89.4666 81.7109 89.6426 81.6993 89.8979Z" fill="#9BB0C6"/>
<path d="M81.7183 89.4345L81.6987 89.8963L85.3485 90.0512L85.3681 89.5894L81.7183 89.4345Z" fill="#9BB0C6"/>
<path d="M81.7203 89.4356C81.7087 89.6909 82.5171 89.9326 83.5246 89.9771C84.5321 90.0216 85.3579 89.8475 85.3695 89.5903C85.3811 89.3331 84.5708 89.0934 83.5633 89.0489C82.5558 89.0044 81.73 89.1804 81.7203 89.4356Z" fill="#9BB0C6"/>
<path opacity="0.4" d="M81.7203 89.4356C81.7087 89.6909 82.5171 89.9326 83.5246 89.9771C84.5321 90.0216 85.3579 89.8475 85.3695 89.5903C85.3811 89.3331 84.5708 89.0934 83.5633 89.0489C82.5558 89.0044 81.73 89.1804 81.7203 89.4356Z" fill="white"/>
<path d="M81.9526 89.4279C81.953 89.4446 81.9584 89.4608 81.9681 89.4743C82.0899 89.3235 82.7571 89.2365 83.5539 89.2693C84.3506 89.3022 85.012 89.4473 85.1183 89.6078C85.1294 89.5954 85.1362 89.5798 85.1377 89.5633C85.1377 89.3912 84.4376 89.2171 83.5577 89.1765C82.6778 89.1359 81.9604 89.2558 81.9526 89.4279Z" fill="#9BB0C6"/>
<path opacity="0.4" d="M81.9526 89.4279C81.953 89.4446 81.9584 89.4608 81.9681 89.4743C82.0899 89.3235 82.7571 89.2365 83.5539 89.2693C84.3506 89.3022 85.012 89.4473 85.1183 89.6078C85.1294 89.5954 85.1362 89.5798 85.1377 89.5633C85.1377 89.3912 84.4376 89.2171 83.5577 89.1765C82.6778 89.1359 81.9604 89.2558 81.9526 89.4279Z" fill="#9BB0C6"/>
<path opacity="0.4" d="M81.9683 89.4744C82.0766 89.6329 82.7418 89.778 83.5308 89.8128C84.3198 89.8476 84.9986 89.7586 85.1185 89.6078C85.0121 89.4473 84.3546 89.3042 83.554 89.2694C82.7534 89.2346 82.0901 89.3235 81.9683 89.4744Z" fill="#9BB0C6"/>
<path d="M82.5231 89.3815C82.5115 89.6348 83.3198 89.8766 84.3273 89.9211C85.3349 89.9655 86.1606 89.7915 86.1722 89.5343C86.1838 89.2771 85.3736 89.0373 84.366 88.9947C83.3585 88.9522 82.5327 89.1262 82.5231 89.3815Z" fill="#9BB0C6"/>
<path d="M82.5391 88.9144L82.5195 89.3762L86.1693 89.531L86.1889 89.0693L82.5391 88.9144Z" fill="#9BB0C6"/>
<path d="M82.5426 88.9174C82.531 89.1726 83.3394 89.4144 84.3469 89.4588C85.3544 89.5033 86.1802 89.3293 86.1918 89.0721C86.2034 88.8149 85.3931 88.5751 84.3856 88.5325C83.378 88.49 82.5523 88.664 82.5426 88.9174Z" fill="#9BB0C6"/>
<path opacity="0.4" d="M82.5426 88.9174C82.531 89.1726 83.3394 89.4144 84.3469 89.4588C85.3544 89.5033 86.1802 89.3293 86.1918 89.0721C86.2034 88.8149 85.3931 88.5751 84.3856 88.5325C83.378 88.49 82.5523 88.664 82.5426 88.9174Z" fill="white"/>
<path d="M82.7686 88.9097C82.7689 88.9263 82.7743 88.9425 82.784 88.9561C82.9059 88.8052 83.573 88.7182 84.3698 88.7511C85.1665 88.784 85.8279 88.929 85.9343 89.0895C85.9453 89.0771 85.9521 89.0616 85.9536 89.045C85.9536 88.8729 85.2535 88.6989 84.3736 88.6583C83.4937 88.6177 82.7821 88.7376 82.7686 88.9097Z" fill="#9BB0C6"/>
<path opacity="0.4" d="M82.7686 88.9097C82.7689 88.9263 82.7743 88.9425 82.784 88.9561C82.9059 88.8052 83.573 88.7182 84.3698 88.7511C85.1665 88.784 85.8279 88.929 85.9343 89.0895C85.9453 89.0771 85.9521 89.0616 85.9536 89.045C85.9536 88.8729 85.2535 88.6989 84.3736 88.6583C83.4937 88.6177 82.7821 88.7376 82.7686 88.9097Z" fill="#9BB0C6"/>
<path opacity="0.4" d="M82.79 88.958C82.8983 89.1185 83.5636 89.2616 84.3526 89.2964C85.1416 89.3312 85.8204 89.2423 85.9403 89.0914C85.8339 88.9309 85.1764 88.7878 84.3758 88.753C83.5752 88.7182 82.9119 88.8052 82.79 88.958Z" fill="#9BB0C6"/>
<path d="M82.5328 88.6814C82.5212 88.9367 83.3296 89.1784 84.3371 89.221C85.3446 89.2635 86.1704 89.0914 86.182 88.8342C86.1936 88.577 85.3833 88.3372 84.3758 88.2947C83.3683 88.2521 82.5425 88.4262 82.5328 88.6814Z" fill="#9BB0C6"/>
<path d="M82.4824 87.9801L82.4639 88.4423L86.1169 88.5884L86.1354 88.1262L82.4824 87.9801Z" fill="#9BB0C6"/>
<path d="M82.5519 88.2193C82.5403 88.4745 83.3486 88.7163 84.3562 88.7588C85.3637 88.8014 86.1894 88.6293 86.201 88.3721C86.2126 88.1149 85.4024 87.8751 84.3948 87.8325C83.3873 87.79 82.5616 87.964 82.5519 88.2193Z" fill="#9BB0C6"/>
<path opacity="0.4" d="M82.5519 88.2193C82.5403 88.4745 83.3486 88.7163 84.3562 88.7588C85.3637 88.8014 86.1894 88.6293 86.201 88.3721C86.2126 88.1149 85.4024 87.8751 84.3948 87.8325C83.3873 87.79 82.5616 87.964 82.5519 88.2193Z" fill="white"/>
<path d="M82.7842 88.2115C82.7846 88.2276 82.79 88.2431 82.7997 88.256C82.9215 88.1052 83.5887 88.0181 84.3854 88.051C85.1821 88.0839 85.8435 88.2309 85.9499 88.3894C85.9618 88.3776 85.9687 88.3617 85.9692 88.345C85.9692 88.1728 85.2711 87.9988 84.3893 87.9582C83.5074 87.9176 82.7919 88.0375 82.7842 88.2115Z" fill="#9BB0C6"/>
<path opacity="0.4" d="M82.7842 88.2115C82.7846 88.2276 82.79 88.2431 82.7997 88.256C82.9215 88.1052 83.5887 88.0181 84.3854 88.051C85.1821 88.0839 85.8435 88.2309 85.9499 88.3894C85.9618 88.3776 85.9687 88.3617 85.9692 88.345C85.9692 88.1728 85.2711 87.9988 84.3893 87.9582C83.5074 87.9176 82.7919 88.0375 82.7842 88.2115Z" fill="#9BB0C6"/>
<path opacity="0.4" d="M82.7998 88.256C82.9081 88.4165 83.5733 88.5596 84.3643 88.5945C85.1552 88.6293 85.8301 88.5403 85.95 88.3895C85.8437 88.2309 85.1862 88.0859 84.3856 88.051C83.5849 88.0162 82.9216 88.1052 82.7998 88.256Z" fill="#9BB0C6"/>
<path d="M81.7823 88.1091C81.7707 88.3643 82.5791 88.6061 83.5866 88.6486C84.5942 88.6911 85.4199 88.519 85.4315 88.2618C85.4431 88.0046 84.6348 87.7648 83.6272 87.7223C82.6197 87.6797 81.8017 87.8538 81.7823 88.1091Z" fill="#9BB0C6"/>
<path d="M81.8043 87.6513L81.7847 88.113L85.4344 88.2686L85.4541 87.8068L81.8043 87.6513Z" fill="#9BB0C6"/>
<path d="M81.8019 87.6468C81.7903 87.9021 82.5986 88.1438 83.6062 88.1864C84.6137 88.2289 85.4394 88.0568 85.451 87.7996C85.4626 87.5424 84.6543 87.3026 83.6468 87.2601C82.6392 87.2175 81.8135 87.3916 81.8019 87.6468Z" fill="#9BB0C6"/>
<path opacity="0.4" d="M81.8019 87.6468C81.7903 87.9021 82.5986 88.1438 83.6062 88.1864C84.6137 88.2289 85.4394 88.0568 85.451 87.7996C85.4626 87.5424 84.6543 87.3026 83.6468 87.2601C82.6392 87.2175 81.8135 87.3916 81.8019 87.6468Z" fill="white"/>
<path d="M82.0337 87.6391C82.0341 87.6552 82.0395 87.6707 82.0492 87.6836C82.1729 87.5347 82.8401 87.4457 83.6368 87.4806C84.4336 87.5154 85.093 87.6585 85.1994 87.817C85.2111 87.8059 85.2181 87.7907 85.2187 87.7745C85.2187 87.6005 84.5206 87.4283 83.6407 87.3877C82.7608 87.3471 82.0414 87.4651 82.0337 87.6391Z" fill="#9BB0C6"/>
<path opacity="0.4" d="M82.0337 87.6391C82.0341 87.6552 82.0395 87.6707 82.0492 87.6836C82.1729 87.5347 82.8401 87.4457 83.6368 87.4806C84.4336 87.5154 85.093 87.6585 85.1994 87.817C85.2111 87.8059 85.2181 87.7907 85.2187 87.7745C85.2187 87.6005 84.5206 87.4283 83.6407 87.3877C82.7608 87.3471 82.0414 87.4651 82.0337 87.6391Z" fill="#9BB0C6"/>
<path opacity="0.4" d="M82.0493 87.6836C82.1595 87.8441 82.8229 87.9892 83.6138 88.022C84.4047 88.0549 85.0796 87.9679 85.1995 87.817C85.0932 87.6585 84.4357 87.5134 83.637 87.4806C82.8383 87.4477 82.1731 87.5347 82.0493 87.6836Z" fill="#9BB0C6"/>
<path d="M86.4931 89.5014C86.3867 89.7277 87.021 90.2479 87.9087 90.6617C88.7963 91.0756 89.6027 91.2419 89.7071 91.0098C89.8116 90.7777 89.1792 90.2653 88.2916 89.8495C87.4039 89.4337 86.5975 89.2771 86.4931 89.5014Z" fill="#9BB0C6"/>
<path d="M86.6853 89.1009L86.4937 89.5087L89.7088 91.0196L89.9005 90.6118L86.6853 89.1009Z" fill="#9BB0C6"/>
<path d="M86.6845 89.0953C86.5781 89.3196 87.2124 89.8399 88.1001 90.2556C88.9877 90.6714 89.7941 90.8358 89.8985 90.6037C90.003 90.3717 89.3706 89.8573 88.483 89.4434C87.5953 89.0296 86.7889 88.8691 86.6845 89.0953Z" fill="#9BB0C6"/>
<path opacity="0.4" d="M86.6845 89.0953C86.5781 89.3196 87.2124 89.8399 88.1001 90.2556C88.9877 90.6714 89.7941 90.8358 89.8985 90.6037C90.003 90.3717 89.3706 89.8573 88.483 89.4434C87.5953 89.0296 86.7889 88.8691 86.6845 89.0953Z" fill="white"/>
<path d="M86.8955 89.1746C86.8897 89.1895 86.8897 89.206 86.8955 89.221C87.0599 89.1339 87.6922 89.3041 88.3942 89.6348C89.0962 89.9655 89.6338 90.3426 89.6705 90.5263C89.685 90.5196 89.6967 90.5079 89.7034 90.4934C89.775 90.3407 89.2064 89.9133 88.431 89.5555C87.6555 89.1978 86.967 89.0237 86.8955 89.1746Z" fill="#9BB0C6"/>
<path opacity="0.4" d="M86.8955 89.1746C86.8897 89.1895 86.8897 89.206 86.8955 89.221C87.0599 89.1339 87.6922 89.3041 88.3942 89.6348C89.0962 89.9655 89.6338 90.3426 89.6705 90.5263C89.685 90.5196 89.6967 90.5079 89.7034 90.4934C89.775 90.3407 89.2064 89.9133 88.431 89.5555C87.6555 89.1978 86.967 89.0237 86.8955 89.1746Z" fill="#9BB0C6"/>
<path opacity="0.4" d="M86.8936 89.221C86.9303 89.4144 87.4737 89.7818 88.168 90.1125C88.8622 90.4432 89.5042 90.6153 89.6686 90.5263C89.6319 90.3426 89.0885 89.9655 88.3923 89.6348C87.6961 89.3042 87.0579 89.134 86.8936 89.221Z" fill="#9BB0C6"/>
<path d="M84.627 90.3001C84.6174 90.5476 85.4006 90.7816 86.383 90.8242C87.3654 90.8667 88.166 90.6985 88.1776 90.4509C88.1892 90.2034 87.404 89.9675 86.4217 89.9249C85.4393 89.8824 84.6386 90.0506 84.627 90.3001Z" fill="#9BB0C6"/>
<path d="M84.6441 89.8432L84.625 90.2933L88.1743 90.444L88.1934 89.9938L84.6441 89.8432Z" fill="#9BB0C6"/>
<path d="M84.6465 89.8495C84.6465 90.097 85.42 90.3329 86.4024 90.3755C87.3848 90.418 88.1854 90.2479 88.1951 90.0003C88.2048 89.7528 87.4215 89.5169 86.4411 89.4763C85.4606 89.4356 84.6581 89.602 84.6465 89.8495Z" fill="#9BB0C6"/>
<path opacity="0.4" d="M84.6465 89.8495C84.6465 90.097 85.42 90.3329 86.4024 90.3755C87.3848 90.418 88.1854 90.2479 88.1951 90.0003C88.2048 89.7528 87.4215 89.5169 86.4411 89.4763C85.4606 89.4356 84.6581 89.602 84.6465 89.8495Z" fill="white"/>
<path d="M84.8726 89.8417C84.8727 89.8579 84.8781 89.8735 84.888 89.8862C85.0079 89.7392 85.6616 89.6541 86.4351 89.6928C87.2086 89.7315 87.8526 89.8669 87.9551 90.0216C87.9669 90.0105 87.9738 89.9952 87.9744 89.979C87.9744 89.8108 87.2937 89.6425 86.439 89.6058C85.5842 89.5691 84.8803 89.6735 84.8726 89.8417Z" fill="#9BB0C6"/>
<path opacity="0.4" d="M84.8726 89.8417C84.8727 89.8579 84.8781 89.8735 84.888 89.8862C85.0079 89.7392 85.6616 89.6541 86.4351 89.6928C87.2086 89.7315 87.8526 89.8669 87.9551 90.0216C87.9669 90.0105 87.9738 89.9952 87.9744 89.979C87.9744 89.8108 87.2937 89.6425 86.439 89.6058C85.5842 89.5691 84.8803 89.6735 84.8726 89.8417Z" fill="#9BB0C6"/>
<path opacity="0.4" d="M84.896 89.8862C85.0024 90.0409 85.6405 90.1821 86.416 90.215C87.1915 90.2479 87.8432 90.1628 87.9631 90.0216C87.8606 89.8669 87.2205 89.7257 86.4431 89.6928C85.6657 89.66 85.0082 89.7315 84.896 89.8862Z" fill="#9BB0C6"/>
<path d="M53.3608 40.6119V41.7722C54.0916 41.8306 54.7853 42.1183 55.343 42.5941L56.1688 41.7684C55.389 41.0789 54.4 40.6716 53.3608 40.6119Z" fill="#9BB0C6"/>
<path d="M52.7944 48.7515C51.9677 48.6852 51.1916 48.3267 50.6051 47.7403C50.0186 47.1538 49.6602 46.3777 49.5939 45.551H48.4336C48.5018 46.686 48.9829 47.7568 49.7862 48.5616C50.5895 49.3663 51.6595 49.8493 52.7944 49.9195V48.7515Z" fill="#9BB0C6"/>
<path d="M49.5977 44.9863C49.6646 44.1605 50.0228 43.3853 50.6083 42.799C51.1938 42.2128 51.9686 41.8537 52.7943 41.7858V40.6255C51.6582 40.6943 50.5866 41.1766 49.7817 41.9814C48.9769 42.7863 48.4946 43.8579 48.4258 44.994L49.5977 44.9863Z" fill="#9BB0C6"/>
<path opacity="0.2" d="M49.5977 44.9863C49.6646 44.1605 50.0228 43.3853 50.6083 42.799C51.1938 42.2128 51.9686 41.8537 52.7943 41.7858V40.6255C51.6582 40.6943 50.5866 41.1766 49.7817 41.9814C48.9769 42.7863 48.4946 43.8579 48.4258 44.994L49.5977 44.9863Z" fill="black"/>
<path d="M56.5672 42.1803L55.7414 43.006C56.1584 43.4958 56.432 44.0912 56.5321 44.7266C56.6322 45.362 56.5549 46.0127 56.3087 46.6069C56.0624 47.2012 55.6569 47.7159 55.1367 48.0943C54.6166 48.4727 54.002 48.7001 53.3608 48.7515V49.9118C54.232 49.8585 55.0708 49.5616 55.7814 49.0549C56.4921 48.5481 57.0461 47.8519 57.3803 47.0456C57.7145 46.2393 57.8155 45.3554 57.6717 44.4944C57.528 43.6335 57.1452 42.8303 56.5672 42.1764V42.1803Z" fill="#9BB0C6"/>
<g opacity="0.8">
<path d="M53.3608 40.6119V41.7722C54.0916 41.8306 54.7853 42.1183 55.343 42.5941L56.1688 41.7684C55.389 41.0789 54.4 40.6716 53.3608 40.6119Z" fill="white"/>
</g>
<g opacity="0.6">
<path d="M52.7939 48.7515C51.9672 48.6853 51.1911 48.3268 50.6046 47.7403C50.0182 47.1539 49.6597 46.3778 49.5934 45.551H48.4331C48.5013 46.686 48.9824 47.7569 49.7857 48.5616C50.589 49.3664 51.659 49.8494 52.7939 49.9196V48.7515Z" fill="white"/>
</g>
<g opacity="0.7">
<path d="M49.5977 44.9863C49.6646 44.1605 50.0228 43.3853 50.6083 42.799C51.1938 42.2128 51.9686 41.8537 52.7943 41.7858V40.6255C51.6582 40.6943 50.5866 41.1766 49.7817 41.9814C48.9769 42.7863 48.4946 43.8579 48.4258 44.994L49.5977 44.9863Z" fill="white"/>
</g>
<path opacity="0.5" d="M56.5672 42.1803L55.7414 43.006C56.1584 43.4958 56.432 44.0912 56.5321 44.7266C56.6322 45.362 56.5549 46.0127 56.3087 46.6069C56.0624 47.2012 55.6569 47.7159 55.1367 48.0943C54.6166 48.4727 54.002 48.7001 53.3608 48.7515V49.9118C54.232 49.8585 55.0708 49.5616 55.7814 49.0549C56.4921 48.5481 57.0461 47.8519 57.3803 47.0456C57.7145 46.2393 57.8155 45.3554 57.6717 44.4944C57.528 43.6335 57.1452 42.8303 56.5672 42.1764V42.1803Z" fill="white"/>
<path d="M61.5547 39.3859L63.0341 41.3932L71.5585 37.8543L79.8682 40.8092L87.3966 35.9417L87.9362 36.6573L89.725 33.7294L85.7161 33.4161L86.3311 34.2264L78.7968 39.0494L70.6109 36.1448L61.5547 39.3859Z" fill="#9BB0C6"/>
<g opacity="0.5">
<path d="M61.5547 39.3859L63.0341 41.3932L71.5585 37.8543L79.8682 40.8092L87.3966 35.9417L87.9362 36.6573L89.725 33.7294L85.7161 33.4161L86.3311 34.2264L78.7968 39.0494L70.6109 36.1448L61.5547 39.3859Z" fill="white"/>
</g>
<path d="M96.4989 40.6352C96.1279 40.6352 95.7652 40.7452 95.4567 40.9513C95.1482 41.1574 94.9078 41.4504 94.7658 41.7932C94.6239 42.1359 94.5867 42.5131 94.6591 42.877C94.7315 43.2409 94.9101 43.5751 95.1725 43.8374C95.4348 44.0998 95.769 44.2784 96.1329 44.3508C96.4968 44.4232 96.874 44.386 97.2167 44.2441C97.5595 44.1021 97.8524 43.8617 98.0586 43.5532C98.2647 43.2447 98.3747 42.882 98.3747 42.511C98.3747 42.0135 98.1771 41.5364 97.8253 41.1846C97.4735 40.8328 96.9964 40.6352 96.4989 40.6352ZM96.4989 43.4489C96.3133 43.4493 96.1318 43.3946 95.9773 43.2918C95.8228 43.189 95.7023 43.0426 95.631 42.8713C95.5597 42.6999 95.5408 42.5113 95.5768 42.3292C95.6128 42.1472 95.702 41.9799 95.8331 41.8485C95.9641 41.7171 96.1313 41.6276 96.3133 41.5913C96.4952 41.5549 96.6839 41.5734 96.8554 41.6443C97.0269 41.7153 97.1735 41.8355 97.2767 41.9897C97.3798 42.144 97.4349 42.3254 97.4349 42.511C97.4343 42.7593 97.3356 42.9973 97.1603 43.173C96.9849 43.3487 96.7471 43.4479 96.4989 43.4489Z" fill="#9BB0C6"/>
<path d="M101.227 46.1389C100.856 46.1385 100.493 46.2482 100.184 46.4541C99.8755 46.66 99.6347 46.9528 99.4925 47.2956C99.3502 47.6383 99.3128 48.0155 99.3849 48.3795C99.4571 48.7435 99.6356 49.0779 99.8979 49.3405C100.16 49.603 100.494 49.7818 100.858 49.8544C101.222 49.9269 101.599 49.8899 101.942 49.748C102.285 49.606 102.578 49.3656 102.785 49.0571C102.991 48.7486 103.101 48.3858 103.101 48.0147C103.101 47.5176 102.903 47.0407 102.552 46.689C102.201 46.3373 101.724 46.1394 101.227 46.1389ZM101.227 48.9507C101.041 48.9511 100.86 48.8964 100.705 48.7935C100.551 48.6905 100.43 48.5441 100.359 48.3726C100.288 48.2012 100.269 48.0124 100.305 47.8303C100.341 47.6482 100.43 47.4809 100.562 47.3496C100.693 47.2183 100.86 47.129 101.042 47.0928C101.225 47.0567 101.413 47.0754 101.585 47.1467C101.756 47.2179 101.903 47.3384 102.006 47.4929C102.109 47.6475 102.163 47.8291 102.163 48.0147C102.162 48.2628 102.064 48.5006 101.888 48.676C101.713 48.8514 101.475 48.9502 101.227 48.9507Z" fill="#9BB0C6"/>
<path d="M97.2009 49.8906H95.9536L100.287 40.6352H101.535L97.2009 49.8906Z" fill="#9BB0C6"/>
<g opacity="0.5">
<path d="M96.4989 40.6352C96.1279 40.6352 95.7652 40.7452 95.4567 40.9513C95.1482 41.1574 94.9078 41.4504 94.7658 41.7932C94.6239 42.1359 94.5867 42.5131 94.6591 42.877C94.7315 43.2409 94.9101 43.5751 95.1725 43.8374C95.4348 44.0998 95.769 44.2784 96.1329 44.3508C96.4968 44.4232 96.874 44.386 97.2167 44.2441C97.5595 44.1021 97.8524 43.8617 98.0586 43.5532C98.2647 43.2447 98.3747 42.882 98.3747 42.511C98.3747 42.0135 98.1771 41.5364 97.8253 41.1846C97.4735 40.8328 96.9964 40.6352 96.4989 40.6352ZM96.4989 43.4489C96.3133 43.4493 96.1318 43.3946 95.9773 43.2918C95.8228 43.189 95.7023 43.0426 95.631 42.8713C95.5597 42.6999 95.5408 42.5113 95.5768 42.3292C95.6128 42.1472 95.702 41.9799 95.8331 41.8485C95.9641 41.7171 96.1313 41.6276 96.3133 41.5913C96.4952 41.5549 96.6839 41.5734 96.8554 41.6443C97.0269 41.7153 97.1735 41.8355 97.2767 41.9897C97.3798 42.144 97.4349 42.3254 97.4349 42.511C97.4343 42.7593 97.3356 42.9973 97.1603 43.173C96.9849 43.3487 96.7471 43.4479 96.4989 43.4489Z" fill="white"/>
<path d="M101.227 46.1389C100.856 46.1385 100.493 46.2482 100.184 46.4541C99.8755 46.66 99.6347 46.9528 99.4925 47.2956C99.3502 47.6383 99.3128 48.0155 99.3849 48.3795C99.4571 48.7435 99.6356 49.0779 99.8979 49.3405C100.16 49.603 100.494 49.7818 100.858 49.8544C101.222 49.9269 101.599 49.8899 101.942 49.748C102.285 49.606 102.578 49.3656 102.785 49.0571C102.991 48.7486 103.101 48.3858 103.101 48.0147C103.101 47.5176 102.903 47.0407 102.552 46.689C102.201 46.3373 101.724 46.1394 101.227 46.1389ZM101.227 48.9507C101.041 48.9511 100.86 48.8964 100.705 48.7935C100.551 48.6905 100.43 48.5441 100.359 48.3726C100.288 48.2012 100.269 48.0124 100.305 47.8303C100.341 47.6482 100.43 47.4809 100.562 47.3496C100.693 47.2183 100.86 47.129 101.042 47.0928C101.225 47.0567 101.413 47.0754 101.585 47.1467C101.756 47.2179 101.903 47.3384 102.006 47.4929C102.109 47.6475 102.163 47.8291 102.163 48.0147C102.162 48.2628 102.064 48.5006 101.888 48.676C101.713 48.8514 101.475 48.9502 101.227 48.9507Z" fill="white"/>
<path d="M97.2009 49.8906H95.9536L100.287 40.6352H101.535L97.2009 49.8906Z" fill="white"/>
</g>
</g>
<defs>
<filter id="filter0_b_26_1097" x="-86.4127" y="-86.4127" width="332.825" height="273.825" filterUnits="userSpaceOnUse" color-interpolation-filters="sRGB">
<feFlood flood-opacity="0" result="BackgroundImageFix"/>
<feGaussianBlur in="BackgroundImageFix" stdDeviation="43.2064"/>
<feComposite in2="SourceAlpha" operator="in" result="effect1_backgroundBlur_26_1097"/>
<feBlend mode="normal" in="SourceGraphic" in2="effect1_backgroundBlur_26_1097" result="shape"/>
</filter>
<filter id="filter1_b_26_1097" x="-66.4127" y="-66.4127" width="332.825" height="273.825" filterUnits="userSpaceOnUse" color-interpolation-filters="sRGB">
<feFlood flood-opacity="0" result="BackgroundImageFix"/>
<feGaussianBlur in="BackgroundImageFix" stdDeviation="43.2064"/>
<feComposite in2="SourceAlpha" operator="in" result="effect1_backgroundBlur_26_1097"/>
<feBlend mode="normal" in="SourceGraphic" in2="effect1_backgroundBlur_26_1097" result="shape"/>
</filter>
<clipPath id="clip0_26_1097">
<rect width="96.6921" height="76" fill="white" transform="translate(27.6543 20.5)"/>
</clipPath>
</defs>
</svg>
