<svg width="152" height="103" viewBox="0 0 152 103" fill="none" xmlns="http://www.w3.org/2000/svg">
<g filter="url(#filter0_b_26_974)">
<rect width="160" height="101" fill="black" fill-opacity="0.02"/>
</g>
<g filter="url(#filter1_b_26_974)">
<rect x="20" y="20" width="160" height="101" fill="black" fill-opacity="0.03"/>
</g>
<path d="M151.527 96H0.472732C0.347356 96 0.227107 95.9502 0.138452 95.8617C0.049798 95.7732 0 95.6531 0 95.5279V23.2319C0 23.1067 0.049798 22.9867 0.138452 22.8982C0.227107 22.8096 0.347356 22.7599 0.472732 22.7599C0.598108 22.7599 0.718342 22.8096 0.806997 22.8982C0.895651 22.9867 0.945464 23.1067 0.945464 23.2319V95.0559H151.527C151.653 95.0559 151.773 95.1056 151.862 95.1941C151.95 95.2827 152 95.4027 152 95.5279C152 95.6531 151.95 95.7732 151.862 95.8617C151.773 95.9502 151.653 96 151.527 96Z" fill="#3F3D56"/>
<path d="M32.7463 90.8074H19.0073C18.6353 90.807 18.2786 90.6593 18.0155 90.3966C17.7524 90.1339 17.6044 89.7778 17.604 89.4063V70.4943C17.6044 70.1228 17.7524 69.7667 18.0155 69.504C18.2786 69.2413 18.6353 69.0936 19.0073 69.0931H32.7463C33.1183 69.0936 33.475 69.2413 33.7381 69.504C34.0012 69.7667 34.1492 70.1228 34.1496 70.4943V89.4063C34.1492 89.7778 34.0012 90.1339 33.7381 90.3966C33.475 90.6593 33.1183 90.807 32.7463 90.8074Z" fill="#9BB0C6"/>
<path d="M57.8015 90.8074H44.0625C43.6905 90.807 43.3338 90.6593 43.0707 90.3966C42.8076 90.1339 42.6596 89.7778 42.6592 89.4063V52.5564C42.6596 52.1849 42.8076 51.8288 43.0707 51.5661C43.3338 51.3034 43.6905 51.1557 44.0625 51.1553H57.8015C58.1735 51.1557 58.5302 51.3034 58.7933 51.5661C59.0563 51.8288 59.2043 52.1849 59.2048 52.5564V89.4063C59.2043 89.7778 59.0563 90.1339 58.7933 90.3966C58.5302 90.6593 58.1735 90.807 57.8015 90.8074Z" fill="#9BB0C6"/>
<path d="M82.8562 90.8074H69.1172C68.7451 90.807 68.3885 90.6593 68.1254 90.3966C67.8623 90.1339 67.7143 89.7778 67.7139 89.4063V70.4943C67.7143 70.1228 67.8623 69.7667 68.1254 69.504C68.3885 69.2413 68.7451 69.0936 69.1172 69.0931H82.8562C83.2282 69.0936 83.5849 69.2413 83.848 69.504C84.111 69.7667 84.259 70.1228 84.2595 70.4943V89.4063C84.259 89.7778 84.111 90.1339 83.848 90.3966C83.5849 90.6593 83.2282 90.807 82.8562 90.8074Z" fill="#9BB0C6"/>
<path d="M107.911 90.8075H94.1719C93.8083 90.8153 93.4565 90.6789 93.1934 90.4281C92.9304 90.1774 92.7776 89.8328 92.7686 89.4698V45.4122C92.7776 45.0492 92.9304 44.7046 93.1934 44.4539C93.4565 44.2031 93.8083 44.0667 94.1719 44.0745H107.911C108.274 44.0667 108.626 44.2031 108.889 44.4539C109.152 44.7046 109.305 45.0492 109.314 45.4122V89.4698C109.305 89.8328 109.152 90.1774 108.889 90.4281C108.626 90.6789 108.274 90.8153 107.911 90.8075Z" fill="#9BB0C6"/>
<path d="M132.966 90.8075H119.227C118.855 90.8071 118.498 90.6593 118.235 90.3966C117.972 90.134 117.824 89.7778 117.823 89.4063V32.7304C117.824 32.3589 117.972 32.0027 118.235 31.7401C118.498 31.4774 118.855 31.3296 119.227 31.3292H132.966C133.338 31.3296 133.694 31.4774 133.957 31.7401C134.22 32.0027 134.368 32.3589 134.369 32.7304V89.4063C134.368 89.7778 134.22 90.134 133.957 90.3966C133.694 90.6593 133.338 90.8071 132.966 90.8075Z" fill="#9BB0C6"/>
<path d="M25.8769 63.4286C27.4434 63.4286 28.7133 62.1606 28.7133 60.5963C28.7133 59.0321 27.4434 57.764 25.8769 57.764C24.3104 57.764 23.0405 59.0321 23.0405 60.5963C23.0405 62.1606 24.3104 63.4286 25.8769 63.4286Z" fill="#3F3D56"/>
<path d="M50.9316 45.0186C52.4981 45.0186 53.768 43.7505 53.768 42.1863C53.768 40.6221 52.4981 39.354 50.9316 39.354C49.3651 39.354 48.0952 40.6221 48.0952 42.1863C48.0952 43.7505 49.3651 45.0186 50.9316 45.0186Z" fill="#3F3D56"/>
<path d="M75.9868 63.4286C77.5533 63.4286 78.8232 62.1606 78.8232 60.5963C78.8232 59.0321 77.5533 57.764 75.9868 57.764C74.4203 57.764 73.1504 59.0321 73.1504 60.5963C73.1504 62.1606 74.4203 63.4286 75.9868 63.4286Z" fill="#3F3D56"/>
<path d="M101.041 36.0497C102.608 36.0497 103.878 34.7817 103.878 33.2174C103.878 31.6532 102.608 30.3851 101.041 30.3851C99.475 30.3851 98.2051 31.6532 98.2051 33.2174C98.2051 34.7817 99.475 36.0497 101.041 36.0497Z" fill="#3F3D56"/>
<path d="M126.096 25.6646C127.663 25.6646 128.933 24.3965 128.933 22.8323C128.933 21.2681 127.663 20 126.096 20C124.53 20 123.26 21.2681 123.26 22.8323C123.26 24.3965 124.53 25.6646 126.096 25.6646Z" fill="#3F3D56"/>
<path d="M76.046 61.2307L50.9317 42.4469L26.1605 60.974L25.5933 60.2187L50.9317 41.2673L75.9269 59.9619L100.765 32.82L100.864 32.7794L125.919 22.6992L126.273 23.5749L101.318 33.6149L76.046 61.2307Z" fill="#3F3D56"/>
<defs>
<filter id="filter0_b_26_974" x="-86.4127" y="-86.4127" width="332.825" height="273.825" filterUnits="userSpaceOnUse" color-interpolation-filters="sRGB">
<feFlood flood-opacity="0" result="BackgroundImageFix"/>
<feGaussianBlur in="BackgroundImageFix" stdDeviation="43.2064"/>
<feComposite in2="SourceAlpha" operator="in" result="effect1_backgroundBlur_26_974"/>
<feBlend mode="normal" in="SourceGraphic" in2="effect1_backgroundBlur_26_974" result="shape"/>
</filter>
<filter id="filter1_b_26_974" x="-66.4127" y="-66.4127" width="332.825" height="273.825" filterUnits="userSpaceOnUse" color-interpolation-filters="sRGB">
<feFlood flood-opacity="0" result="BackgroundImageFix"/>
<feGaussianBlur in="BackgroundImageFix" stdDeviation="43.2064"/>
<feComposite in2="SourceAlpha" operator="in" result="effect1_backgroundBlur_26_974"/>
<feBlend mode="normal" in="SourceGraphic" in2="effect1_backgroundBlur_26_974" result="shape"/>
</filter>
</defs>
</svg>
