<svg width="152" height="103" viewBox="0 0 152 103" fill="none" xmlns="http://www.w3.org/2000/svg">
<g filter="url(#filter0_b_26_1149)">
<rect width="160" height="101" fill="black" fill-opacity="0.02"/>
</g>
<g filter="url(#filter1_b_26_1149)">
<rect x="20" y="20" width="160" height="101" fill="black" fill-opacity="0.03"/>
</g>
<path d="M119.769 24.4197H31.791V99.5525H119.769V24.4197Z" fill="white"/>
<path d="M119.769 24.4197L31.7907 24.4973L31.8683 24.4197C31.8683 46.6049 31.8683 72.2959 31.8683 99.5424L31.7806 99.4547L119.759 99.4715L119.685 99.5424C119.732 54.2947 119.759 25.0304 119.759 24.4129C119.759 25.0304 119.789 54.2947 119.833 99.5424V99.62H119.759H31.7806H31.6929V99.5255C31.6929 72.279 31.6929 46.588 31.6929 24.4028V24.3218H31.7705L119.769 24.4197Z" fill="#263238"/>
<path d="M79.0089 92.7738H41.7344V75.1639H79.0089V92.7738ZM41.8187 92.6894H78.9144V75.2483H41.7985L41.8187 92.6894Z" fill="#EBEBEB"/>
<path d="M78.9651 89.7708H41.7749V89.8551H78.9651V89.7708Z" fill="#EBEBEB"/>
<path d="M78.9651 86.8488H41.7749V86.9331H78.9651V86.8488Z" fill="#EBEBEB"/>
<path d="M78.9651 83.9267H41.7749V84.0111H78.9651V83.9267Z" fill="#EBEBEB"/>
<path d="M78.9651 81.0046H41.7749V81.089H78.9651V81.0046Z" fill="#EBEBEB"/>
<path d="M78.9651 78.086H41.7749V78.1704H78.9651V78.086Z" fill="#EBEBEB"/>
<path d="M46.5256 80.9777H45.3008V92.8244H46.5256V80.9777Z" fill="#9BB0C6"/>
<path d="M48.7562 78.113H47.2412V92.8244H48.7562V78.113Z" fill="#455A64"/>
<path d="M55.0998 89.4637H53.875V92.8244H55.0998V89.4637Z" fill="#9BB0C6"/>
<path d="M57.0398 82.5399H55.8149V92.8244H57.0398V82.5399Z" fill="#455A64"/>
<path d="M63.0998 75.9164H61.875V92.8244H63.0998V75.9164Z" fill="#9BB0C6"/>
<path d="M65.3269 88.7922H64.1021V92.8244H65.3269V88.7922Z" fill="#455A64"/>
<path d="M71.0964 77.6271H69.8716V92.8244H71.0964V77.6271Z" fill="#9BB0C6"/>
<path d="M73.0368 84.0886H71.812V92.8244H73.0368V84.0886Z" fill="#455A64"/>
<path d="M39.8852 76.716C39.8852 76.8949 39.8322 77.0697 39.7328 77.2184C39.6335 77.3671 39.4922 77.483 39.327 77.5515C39.1618 77.6199 38.9799 77.6378 38.8045 77.603C38.6291 77.5681 38.468 77.4819 38.3415 77.3555C38.2151 77.229 38.1289 77.0679 38.094 76.8925C38.0591 76.717 38.077 76.5352 38.1455 76.37C38.2139 76.2048 38.3298 76.0635 38.4785 75.9642C38.6273 75.8648 38.8021 75.8118 38.9809 75.8118C39.2208 75.8118 39.4508 75.907 39.6204 76.0766C39.7899 76.2462 39.8852 76.4762 39.8852 76.716Z" fill="#E0E0E0"/>
<path d="M39.8852 80.3433C39.8852 80.5222 39.8322 80.697 39.7328 80.8457C39.6335 80.9944 39.4922 81.1103 39.327 81.1788C39.1618 81.2472 38.9799 81.2651 38.8045 81.2302C38.6291 81.1953 38.468 81.1092 38.3415 80.9827C38.2151 80.8563 38.1289 80.6951 38.094 80.5197C38.0591 80.3443 38.077 80.1625 38.1455 79.9973C38.2139 79.832 38.3298 79.6908 38.4785 79.5914C38.6273 79.4921 38.8021 79.439 38.9809 79.439C39.0998 79.4386 39.2176 79.4617 39.3275 79.507C39.4374 79.5522 39.5373 79.6188 39.6214 79.7029C39.7054 79.787 39.772 79.8868 39.8173 79.9967C39.8626 80.1066 39.8857 80.2244 39.8852 80.3433Z" fill="#E0E0E0"/>
<path d="M39.8852 83.9706C39.8852 84.1494 39.8322 84.3243 39.7328 84.473C39.6335 84.6217 39.4922 84.7376 39.327 84.806C39.1618 84.8745 38.9799 84.8924 38.8045 84.8575C38.6291 84.8226 38.468 84.7365 38.3415 84.61C38.2151 84.4835 38.1289 84.3224 38.094 84.147C38.0591 83.9716 38.077 83.7898 38.1455 83.6245C38.2139 83.4593 38.3298 83.3181 38.4785 83.2187C38.6273 83.1193 38.8021 83.0663 38.9809 83.0663C39.0998 83.0658 39.2176 83.0889 39.3275 83.1342C39.4374 83.1795 39.5373 83.2461 39.6214 83.3302C39.7054 83.4142 39.772 83.5141 39.8173 83.624C39.8626 83.7339 39.8857 83.8517 39.8852 83.9706Z" fill="#E0E0E0"/>
<path d="M39.8852 87.5978C39.8852 87.7767 39.8322 87.9515 39.7328 88.1002C39.6335 88.2489 39.4922 88.3648 39.327 88.4333C39.1618 88.5017 38.9799 88.5196 38.8045 88.4847C38.6291 88.4498 38.468 88.3637 38.3415 88.2372C38.2151 88.1108 38.1289 87.9496 38.094 87.7742C38.0591 87.5988 38.077 87.417 38.1455 87.2518C38.2139 87.0865 38.3298 86.9453 38.4785 86.8459C38.6273 86.7466 38.8021 86.6935 38.9809 86.6935C39.2208 86.6935 39.4508 86.7888 39.6204 86.9584C39.7899 87.128 39.8852 87.358 39.8852 87.5978Z" fill="#E0E0E0"/>
<path d="M39.8852 91.225C39.8852 91.4039 39.8322 91.5787 39.7328 91.7274C39.6335 91.8761 39.4922 91.992 39.327 92.0605C39.1618 92.1289 38.9799 92.1468 38.8045 92.1119C38.6291 92.077 38.468 91.9909 38.3415 91.8644C38.2151 91.738 38.1289 91.5768 38.094 91.4014C38.0591 91.226 38.077 91.0442 38.1455 90.879C38.2139 90.7137 38.3298 90.5725 38.4785 90.4731C38.6273 90.3738 38.8021 90.3207 38.9809 90.3207C39.2208 90.3207 39.4508 90.416 39.6204 90.5856C39.7899 90.7552 39.8852 90.9852 39.8852 91.225Z" fill="#E0E0E0"/>
<path d="M47.8114 94.3057H45.2402C44.9905 94.3057 44.7881 94.5081 44.7881 94.7578V94.9231C44.7881 95.1728 44.9905 95.3753 45.2402 95.3753H47.8114C48.0611 95.3753 48.2635 95.1728 48.2635 94.9231V94.7578C48.2635 94.5081 48.0611 94.3057 47.8114 94.3057Z" fill="#E0E0E0"/>
<path d="M55.9769 94.3057H53.4058C53.156 94.3057 52.9536 94.5081 52.9536 94.7578V94.9231C52.9536 95.1728 53.156 95.3753 53.4058 95.3753H55.9769C56.2266 95.3753 56.429 95.1728 56.429 94.9231V94.7578C56.429 94.5081 56.2266 94.3057 55.9769 94.3057Z" fill="#E0E0E0"/>
<path d="M64.699 94.3057H62.1279C61.8782 94.3057 61.6758 94.5081 61.6758 94.7578V94.9231C61.6758 95.1728 61.8782 95.3753 62.1279 95.3753H64.699C64.9488 95.3753 65.1512 95.1728 65.1512 94.9231V94.7578C65.1512 94.5081 64.9488 94.3057 64.699 94.3057Z" fill="#E0E0E0"/>
<path d="M73.0975 94.3057H70.5264C70.2767 94.3057 70.0742 94.5081 70.0742 94.7578V94.9231C70.0742 95.1728 70.2767 95.3753 70.5264 95.3753H73.0975C73.3472 95.3753 73.5496 95.1728 73.5496 94.9231V94.7578C73.5496 94.5081 73.3472 94.3057 73.0975 94.3057Z" fill="#E0E0E0"/>
<path d="M93.5178 74.8063C91.7053 74.8063 89.9334 75.3438 88.4264 76.3507C86.9193 77.3577 85.7447 78.789 85.0511 80.4635C84.3575 82.1381 84.176 83.9807 84.5296 85.7584C84.8832 87.5361 85.756 89.169 87.0377 90.4507C88.3193 91.7323 89.9522 92.6051 91.7299 92.9587C93.5076 93.3123 95.3502 93.1308 97.0248 92.4372C98.6993 91.7436 100.131 90.569 101.138 89.0619C102.145 87.5549 102.682 85.7831 102.682 83.9705C102.683 82.7669 102.446 81.5751 101.985 80.463C101.525 79.3509 100.85 78.3405 99.9989 77.4894C99.1478 76.6384 98.1374 75.9633 97.0253 75.503C95.9133 75.0426 94.7214 74.8058 93.5178 74.8063ZM93.5178 89.0892C92.5046 89.0892 91.5142 88.7887 90.6718 88.2257C89.8294 87.6628 89.1729 86.8626 88.7853 85.9265C88.3978 84.9904 88.2965 83.9603 88.4945 82.9667C88.6924 81.973 89.1805 81.0604 89.8972 80.3442C90.6138 79.628 91.5268 79.1404 92.5206 78.9432C93.5144 78.7459 94.5444 78.8478 95.4802 79.236C96.4161 79.6242 97.2158 80.2812 97.7782 81.124C98.3406 81.9667 98.6405 82.9574 98.6398 83.9705C98.6398 84.643 98.5073 85.3089 98.2498 85.9301C97.9924 86.5514 97.6151 87.1158 97.1394 87.5911C96.6637 88.0665 96.099 88.4435 95.4776 88.7005C94.8562 88.9575 94.1903 89.0896 93.5178 89.0892Z" fill="#9BB0C6"/>
<path d="M93.5179 93.1315C95.9203 93.1318 98.2266 92.1885 99.9402 90.5046C101.654 88.8208 102.637 86.5312 102.679 84.1292H98.6297C98.5955 85.4617 98.0421 86.7282 97.0875 87.6586C96.1329 88.589 94.8526 89.1097 93.5196 89.1097C92.1865 89.1097 90.9062 88.589 89.9516 87.6586C88.997 86.7282 88.4436 85.4617 88.4094 84.1292H84.3604C84.4011 86.5309 85.3838 88.8204 87.0968 90.5044C88.8098 92.1883 91.1158 93.1318 93.5179 93.1315Z" fill="#455A64"/>
<path d="M93.518 74.8063H93.3594V78.8553C93.4134 78.8553 93.464 78.8553 93.518 78.8553C94.8764 78.8553 96.1792 79.3949 97.1398 80.3555C98.1003 81.316 98.64 82.6189 98.64 83.9773C98.64 84.0313 98.64 84.0819 98.64 84.1359H102.689C102.689 84.0819 102.689 84.0313 102.689 83.9773C102.69 82.7727 102.453 81.5797 101.993 80.4666C101.532 79.3536 100.857 78.3422 100.005 77.4904C99.153 76.6386 98.1417 75.9631 97.0286 75.5026C95.9155 75.042 94.7226 74.8054 93.518 74.8063Z" fill="#E0E0E0"/>
<path d="M98.6333 84.1292C98.6119 84.8541 98.4362 85.5661 98.118 86.2177C97.7997 86.8694 97.3462 87.4457 96.7876 87.9082L99.3081 91.0732C100.343 90.2318 101.181 89.1743 101.764 87.9747C102.347 86.7752 102.66 85.4626 102.682 84.1292H98.6333Z" fill="#263238"/>
<path d="M92.5329 84.3552C92.5329 84.5982 92.3508 84.8074 91.9627 84.8074C91.7698 84.8111 91.5807 84.7531 91.4229 84.642L91.5376 84.4328C91.6581 84.5264 91.8068 84.5764 91.9593 84.5746C92.1517 84.5746 92.263 84.4902 92.263 84.3586C92.263 84.227 92.1685 84.1427 91.9526 84.1427H91.821V83.9605L92.1584 83.5724H91.5072V83.3497H92.4857V83.5286L92.1483 83.9436C92.253 83.9496 92.3514 83.9958 92.423 84.0724C92.4946 84.1491 92.534 84.2503 92.5329 84.3552Z" fill="#263238"/>
<path d="M93.761 83.3497V83.5285L93.211 84.7736H92.9242L93.4674 83.5623H92.9006V83.8052H92.6509V83.3362L93.761 83.3497Z" fill="#263238"/>
<path d="M93.9195 83.7276C93.9304 83.6645 93.959 83.6058 94.0021 83.5583C94.0451 83.5109 94.1008 83.4766 94.1626 83.4597C94.2244 83.4427 94.2897 83.4437 94.351 83.4625C94.4122 83.4813 94.4668 83.5171 94.5085 83.5658C94.5501 83.6145 94.577 83.6741 94.586 83.7375C94.5951 83.8009 94.5858 83.8656 94.5594 83.924C94.5331 83.9824 94.4906 84.0321 94.437 84.0672C94.3834 84.1023 94.321 84.1215 94.2569 84.1224C94.2073 84.1231 94.1582 84.1129 94.113 84.0925C94.0678 84.0721 94.0277 84.042 93.9955 84.0043C93.9633 83.9666 93.9397 83.9222 93.9266 83.8744C93.9135 83.8266 93.911 83.7765 93.9195 83.7276ZM94.4391 83.7276C94.4391 83.5691 94.375 83.478 94.2636 83.478C94.1523 83.478 94.0882 83.5691 94.0882 83.7276C94.0882 83.8862 94.1557 83.9807 94.2636 83.9807C94.3716 83.9807 94.4357 83.8896 94.4357 83.7276H94.4391ZM95.1139 83.3497H95.313L94.3446 84.7736H94.1455L95.1139 83.3497ZM94.8507 84.4059C94.8616 84.3427 94.8903 84.284 94.9333 84.2365C94.9764 84.1891 95.0321 84.1549 95.0939 84.1379C95.1556 84.1209 95.221 84.1219 95.2822 84.1407C95.3435 84.1595 95.3981 84.1953 95.4397 84.244C95.4814 84.2927 95.5083 84.3523 95.5173 84.4157C95.5263 84.4791 95.5171 84.5438 95.4907 84.6022C95.4643 84.6606 95.4219 84.7103 95.3683 84.7454C95.3147 84.7805 95.2522 84.7997 95.1882 84.8006C95.1397 84.7994 95.0921 84.7878 95.0486 84.7665C95.0051 84.7452 94.9666 84.7148 94.9359 84.6774C94.9051 84.6399 94.8828 84.5963 94.8705 84.5494C94.8581 84.5026 94.856 84.4536 94.8642 84.4059H94.8507ZM95.3704 84.4059C95.3704 84.2473 95.3029 84.1562 95.1915 84.1562C95.0802 84.1562 95.0161 84.2473 95.0161 84.4059C95.0161 84.5644 95.0836 84.6589 95.1915 84.6589C95.2995 84.6589 95.3839 84.5644 95.3839 84.4059H95.3704Z" fill="#263238"/>
<path d="M106.022 67.5855C105.974 67.802 105.855 67.9964 105.685 68.1389C105.56 68.2367 105.165 68.4358 105.122 68.1389C105.135 67.9617 105.171 67.787 105.23 67.6193C105.327 67.3999 105.432 67.545 105.587 67.572C105.742 67.599 105.908 67.4742 106.022 67.5855Z" fill="#E0E0E0"/>
<path d="M104.953 44.7019C105.007 44.8908 105.048 45.0764 105.092 45.2519C104.94 45.4678 104.64 45.3902 104.417 45.5049C104.312 45.5589 104.285 45.758 104.184 45.7884C104.083 45.8187 104.039 45.7074 103.965 45.7108C103.766 45.7108 103.671 46.0887 103.428 45.9942C103.29 46.0887 103.428 46.4497 103.263 46.4801C103.098 46.5104 103.077 46.3215 103.003 46.2135C102.929 46.1055 102.787 46.0077 102.784 45.8997C102.78 45.7917 102.979 45.5994 103.044 45.5218C103.108 45.4442 103.276 45.2451 103.381 45.2215C103.563 45.1743 103.749 45.2417 103.887 45.1743C104.025 45.1068 104.015 44.8976 104.079 44.8368C104.144 44.7761 104.198 44.8031 104.245 44.7727C104.334 44.6975 104.399 44.5984 104.433 44.4872C104.467 44.3759 104.469 44.2572 104.437 44.1451C104.393 43.9697 104.137 43.7773 104.302 43.5614C104.446 43.5946 104.578 43.6675 104.683 43.7718C104.788 43.8762 104.862 44.0078 104.896 44.1519C104.896 44.2599 104.859 44.3678 104.866 44.4893C104.891 44.5617 104.92 44.6326 104.953 44.7019Z" fill="#E0E0E0"/>
<path d="M105.007 42.9878C104.977 43.0654 104.916 43.0485 104.855 43.0958C104.794 43.143 104.734 43.2847 104.666 43.3016C104.599 43.3184 104.43 43.1767 104.329 43.2071C104.228 43.2375 104.275 43.3556 104.231 43.4905C104.12 43.4635 103.934 43.3184 103.931 43.1767C103.931 43.0856 104.029 43.0283 104.052 42.9237C104.093 42.7448 103.988 42.6537 103.931 42.4817C103.931 42.458 103.931 42.4547 103.931 42.4344C104.062 42.404 104.329 42.6942 104.629 42.7516C104.832 42.7887 104.997 42.7685 105.007 42.9878Z" fill="#E0E0E0"/>
<path d="M104.501 58.9612C104.501 59.0927 104.315 59.0792 104.295 58.9915C104.275 58.9038 104.474 58.8599 104.501 58.9612Z" fill="#E0E0E0"/>
<path d="M103.546 41.6651C103.681 41.7461 104.012 41.935 103.779 42.1037C103.696 42.0673 103.629 42.0043 103.586 41.9247C103.544 41.8452 103.53 41.7537 103.546 41.6651Z" fill="#E0E0E0"/>
<path d="M102.908 58.2694C103.063 58.1716 103.246 57.9556 103.512 58.0636C103.451 58.2593 103.242 58.2559 103.114 58.347C102.986 58.4381 102.868 58.5967 102.699 58.617C102.69 58.5896 102.67 58.5667 102.645 58.5529C102.645 58.3774 102.797 58.3369 102.908 58.2694Z" fill="#E0E0E0"/>
<path d="M102.534 55.3103C102.692 55.3103 102.848 55.2529 102.959 55.3103C102.939 55.7017 102.406 55.4048 102.051 55.4655C101.977 55.4655 101.954 55.5465 101.873 55.5127C101.882 55.4442 101.912 55.3803 101.96 55.3296C102.007 55.2789 102.068 55.2439 102.136 55.2293C102.237 55.2361 102.389 55.3103 102.534 55.3103Z" fill="#E0E0E0"/>
<path d="M102.672 55.7995C102.672 56.0155 102.429 56.0391 102.358 56.2078C102.47 56.4069 102.517 56.6869 102.645 56.8826C102.645 57.0007 102.665 57.1593 102.605 57.22C102.328 57.2808 102.179 56.7105 102.068 56.5115C101.859 56.5553 102.051 57.3314 101.768 57.2335C101.629 57.1863 101.768 56.967 101.741 56.7949C101.714 56.6228 101.586 56.6127 101.575 56.4946C101.565 56.3765 101.667 56.2955 101.697 56.1977C101.727 56.0998 101.714 55.7793 101.862 55.7725C101.936 55.7725 102.034 55.948 102.082 55.9615C102.247 55.9817 102.443 55.7557 102.672 55.7995Z" fill="#E0E0E0"/>
<path d="M102.166 58.1446C102.116 58.2627 101.829 58.2053 101.809 58.0973C101.859 57.9725 102.143 58.0096 102.166 58.1446Z" fill="#E0E0E0"/>
<path d="M101.903 58.5225C101.888 58.545 101.869 58.5655 101.849 58.5832C101.744 58.5461 101.633 58.5157 101.603 58.3943C101.68 58.266 101.899 58.374 101.903 58.5225Z" fill="#E0E0E0"/>
<path d="M101.522 58.1176C101.454 58.2289 101.211 58.1176 101.127 58.2289C100.982 58.2289 100.84 58.2289 100.81 58.0872C100.85 57.9691 100.982 58.0501 101.083 58.04C101.258 58.0299 101.488 57.8983 101.522 58.1176Z" fill="#E0E0E0"/>
<path d="M99.5981 64.154C99.5723 64.0163 99.5397 63.8801 99.5002 63.7457C99.5002 63.6917 99.5002 63.6242 99.5002 63.5568C99.4802 63.4793 99.4666 63.4003 99.4597 63.3206C99.48 63.216 99.5846 63.2059 99.6116 63.1181C99.6554 62.9697 99.5576 62.946 99.5576 62.7807C99.5576 62.6559 99.6386 62.5951 99.6925 62.4433C99.7195 62.3691 99.7195 62.2307 99.7465 62.1767C99.7735 62.1227 99.9355 62.0519 99.9962 62.0215C100.205 61.9 100.374 61.6841 100.587 61.6436C100.641 61.6436 100.712 61.6436 100.752 61.6436C100.877 61.6166 101.032 61.4985 101.204 61.4546C101.355 61.4417 101.504 61.4041 101.643 61.3433C101.808 61.2198 101.94 61.0576 102.027 60.8709C102.092 60.6988 102.071 60.5504 102.193 60.493C102.25 60.466 102.311 60.493 102.372 60.493C102.462 60.4625 102.546 60.4144 102.618 60.3513C102.712 60.2534 102.729 60.0949 102.837 59.9903C102.935 59.9009 103.041 59.8218 103.154 59.7541C103.222 59.7163 103.297 59.6943 103.374 59.69C103.566 59.7102 103.657 60.0274 103.866 59.9599C103.944 59.9363 104.018 59.7541 104.089 59.6427C104.16 59.5314 104.258 59.2682 104.427 59.2209C104.595 59.1737 104.72 59.2817 104.798 59.14C104.798 59.0421 104.734 58.9814 104.798 58.9206C104.96 58.9206 105.23 59.1805 105.473 59.1872C105.604 59.1872 105.847 59.0252 105.874 59.2513C105.874 59.3525 105.776 59.4301 105.749 59.5347C105.722 59.6393 105.776 59.6461 105.749 59.7237C105.638 59.7743 105.52 59.8013 105.516 59.943C105.513 60.0847 105.736 60.2062 105.871 60.3041C106.006 60.4019 106.043 60.4761 106.093 60.5099C106.144 60.5436 106.201 60.5504 106.228 60.574C106.319 60.6381 106.38 60.7899 106.505 60.7933C106.63 60.7967 106.782 60.5942 106.863 60.3985C106.933 60.1576 106.978 59.9099 106.998 59.6596C106.998 59.5786 107.062 59.501 107.082 59.4234C107.133 59.2074 107.207 58.9173 107.369 58.8397C107.536 59.1131 107.604 59.4362 107.561 59.7541C107.672 59.8485 107.865 59.8182 107.899 60.0375C107.899 60.1151 107.865 60.2096 107.872 60.2906C107.878 60.3715 107.966 60.5369 107.98 60.6516C108.007 60.8608 107.949 61.0329 108.034 61.1881C108.118 61.3433 108.351 61.3737 108.489 61.5795C108.494 61.6774 108.516 61.7735 108.557 61.8629C108.557 61.9102 108.557 61.9911 108.557 62.0215C108.6 62.1261 108.718 62.1362 108.762 62.224C108.806 62.3117 108.779 62.3522 108.803 62.4298C108.857 62.5399 108.922 62.6449 108.995 62.7436C109.069 62.8407 109.129 62.9474 109.174 63.0608C109.201 63.216 109.103 63.3239 109.08 63.4522C109.073 63.6264 109.055 63.8 109.026 63.9718C108.925 64.1828 108.812 64.3878 108.688 64.5859C108.591 64.7888 108.461 64.9746 108.303 65.1359C108.216 65.2169 108.114 65.2641 108.027 65.3417C107.899 65.4749 107.78 65.617 107.672 65.7668C107.548 65.9153 107.399 66.03 107.301 66.1616C107.16 66.3472 107.089 66.6509 106.846 66.6813C106.711 66.6808 106.576 66.7013 106.448 66.742C106.245 66.8365 106.11 67.0052 106.009 67.0119C105.908 67.0187 105.807 66.8668 105.709 66.8533C105.611 66.8398 105.51 66.9478 105.351 66.9478C105.284 66.9478 105.253 66.9039 105.159 66.8668C104.963 66.796 104.747 66.7993 104.72 66.553C104.703 66.4181 104.794 66.3607 104.788 66.2392C104.781 66.1178 104.68 66.0874 104.636 65.9862C104.657 65.933 104.661 65.8749 104.649 65.8191C104.637 65.7633 104.609 65.7122 104.568 65.6724C104.561 65.5952 104.58 65.5178 104.622 65.4531C104.527 65.4853 104.436 65.5271 104.349 65.5779C104.248 65.6488 104.177 65.8073 104.059 65.7837C103.941 65.7601 104.035 65.615 104.018 65.5138C103.969 65.3489 103.891 65.1944 103.785 65.0583C103.639 64.9703 103.483 64.9012 103.32 64.8524C102.895 64.7782 102.625 65.038 102.287 65.0751C102.203 65.0751 102.108 65.0751 102.027 65.0751C101.74 65.1666 101.48 65.329 101.272 65.5475C100.984 65.524 100.694 65.5342 100.408 65.5779C100.114 65.6757 99.949 65.9524 99.5002 65.8782C99.4125 65.7905 99.2539 65.7466 99.2539 65.5948C99.2539 65.4429 99.4091 65.3957 99.4597 65.3113C99.5368 65.1745 99.5882 65.0247 99.6116 64.8693C99.6116 64.7647 99.5508 64.6399 99.5542 64.5083C99.5576 64.3767 99.5981 64.2586 99.5981 64.154Z" fill="#E0E0E0"/>
<path d="M99.3656 57.5912C99.4399 57.5912 99.4939 57.517 99.5715 57.5136C99.7301 57.5136 99.8886 57.6486 100.078 57.625C100.118 57.6756 100.078 57.7161 100.078 57.7971C100.24 57.8949 100.503 57.878 100.587 58.0636C100.466 58.2121 100.287 58.1075 100.132 58.0636C99.9764 58.0197 99.8448 58.0636 99.6929 58.0332C99.5411 58.0029 99.3285 57.8848 99.1463 57.8578C99.035 57.8578 98.9202 57.878 98.8089 57.8578C98.6976 57.8375 98.2252 57.6385 98.2184 57.4967C98.2117 57.355 98.4243 57.3112 98.6166 57.3382C98.8831 57.3921 99.0485 57.6418 99.3656 57.5912Z" fill="#E0E0E0"/>
<path d="M99.7334 56.5081C99.6321 56.4744 99.5343 56.5081 99.4871 56.4609C99.4398 56.4136 99.4094 56.2044 99.3791 56.0964C99.3487 55.9885 99.234 55.9311 99.1733 55.7827C99.0822 55.5667 99.045 55.0876 99.2812 55.0437C99.3757 55.0235 99.4769 55.1078 99.541 55.0909C99.676 55.0538 99.6524 54.8548 99.7637 54.7738C99.8245 54.7299 99.9358 54.7502 100.024 54.713C100.115 54.6593 100.191 54.5825 100.243 54.4903C100.3 54.4127 100.344 54.2811 100.422 54.2238C100.499 54.1664 100.587 54.1597 100.655 54.0989C100.833 53.9404 100.84 53.721 100.992 53.5321C101.144 53.3431 101.306 53.6873 101.329 53.8155C101.4 53.9167 101.532 53.9404 101.593 54.0517C101.512 54.3284 101.282 54.352 101.329 54.7265C101.348 54.8181 101.376 54.9075 101.414 54.9931C101.454 55.0876 101.569 55.1854 101.566 55.2462C101.566 55.3643 101.35 55.3575 101.302 55.4824C101.255 55.6072 101.302 55.6038 101.302 55.7827C101.245 55.9109 101.09 55.9412 101.043 56.0964C100.995 56.2517 101.043 56.525 100.918 56.6633C100.827 56.6633 100.729 56.7544 100.617 56.7409C100.506 56.7274 100.381 56.5385 100.192 56.5351C100.118 56.5351 100.03 56.5891 99.9561 56.5823C99.8818 56.5756 99.8346 56.5351 99.7334 56.5081Z" fill="#E0E0E0"/>
<path d="M98.846 56.1572C99.1834 56.1572 99.1834 56.7781 98.846 56.7781C98.5086 56.7781 98.4849 56.1572 98.846 56.1572Z" fill="#E0E0E0"/>
<path d="M98.3329 56.0931C98.4265 56.1765 98.4934 56.2856 98.5253 56.4069C98.5253 56.5182 98.3768 56.5115 98.3329 56.6599C98.2688 56.886 98.3633 57.1391 98.252 57.2572C98.165 57.2907 98.0709 57.3012 97.9787 57.2875C97.7266 57.0787 97.5001 56.8409 97.3038 56.579C97.2206 56.4928 97.1471 56.3977 97.0845 56.2955C97.0136 56.1471 96.9867 55.9817 96.9057 55.84C96.8247 55.6983 96.7032 55.6274 96.6324 55.5026C96.5615 55.3777 96.5683 55.2495 96.5075 55.1416C96.4468 55.0336 96.3557 54.9998 96.2882 54.9222C96.2207 54.8446 96.2207 54.7873 96.1769 54.7333C96.0048 54.4937 95.6741 54.3722 95.6572 54.0247C95.7281 53.9302 95.7989 54.0584 95.9305 54.0888C96.0621 54.1192 96.1161 54.0888 96.1769 54.0888C96.3017 54.136 96.3894 54.3621 96.5143 54.4836C96.5885 54.5511 96.6864 54.5983 96.7606 54.6725C96.8348 54.7468 96.9023 54.8615 96.9664 54.9087C97.0305 54.956 97.1824 55.0133 97.3038 55.0977C97.4253 55.182 97.7458 55.3339 97.7863 55.5701C97.7863 55.6274 97.7593 55.7287 97.7695 55.7725C97.7796 55.8164 97.8808 55.8906 97.9348 55.9615C97.9888 56.0323 98.0158 56.1808 98.1136 56.1977C98.2115 56.2145 98.2283 56.0661 98.3329 56.0931Z" fill="#E0E0E0"/>
<path d="M91.8512 52.7762C91.9693 52.8201 92.3641 53.3701 92.2494 53.6738C92.2228 53.7296 92.1798 53.776 92.1262 53.8068C92.0725 53.8375 92.0107 53.8512 91.9491 53.8459C91.6758 53.7986 91.7298 53.1035 91.8108 52.8336C91.8128 52.8216 91.8175 52.8102 91.8245 52.8003C91.8315 52.7904 91.8406 52.7822 91.8512 52.7762Z" fill="#E0E0E0"/>
<path d="M82.7207 60.7394C82.7385 60.5885 82.8008 60.4464 82.8995 60.3311C83.0244 60.2231 83.1965 60.2332 83.3247 60.159C83.4545 60.0873 83.5691 59.9911 83.6621 59.8756C83.7262 59.7777 83.7296 59.663 83.7836 59.5921C83.8376 59.5213 83.905 59.528 83.9489 59.4639C83.9928 59.3998 83.9793 59.3053 84.0468 59.2446C84.2357 59.1535 84.2931 59.5516 84.3201 59.8283C84.3382 59.9005 84.3517 59.9738 84.3606 60.0476C84.3403 60.1725 84.2222 60.1995 84.1817 60.2838C84.1595 60.6045 84.0807 60.9186 83.9489 61.2117C83.8578 61.458 83.8038 61.7246 83.7296 61.9372C83.7026 62.0148 83.6452 62.0721 83.6216 62.1396C83.5204 62.4096 83.4833 62.8145 83.3044 62.9427C83.1825 62.9987 83.0528 63.0363 82.9198 63.054C82.8348 63.0457 82.7547 63.0109 82.6905 62.9546C82.6264 62.8983 82.5815 62.8234 82.5621 62.7402C82.5568 62.6458 82.5568 62.5512 82.5621 62.4568C82.5238 62.3342 82.5012 62.2072 82.4946 62.0789C82.525 61.7415 82.7949 61.6031 82.8084 61.34C82.7983 61.1544 82.7005 60.9418 82.7207 60.7394Z" fill="#E0E0E0"/>
<path d="M76.1039 38.3449C76.1039 38.6081 75.7496 38.5743 75.7023 38.8004C75.6821 38.9016 75.7462 39.04 75.7327 39.1378C75.7023 39.3032 75.564 39.2559 75.3953 39.3403C75.3042 39.3875 75.2165 39.5495 75.122 39.563C75.0275 39.5765 74.9735 39.5022 74.9128 39.5157C74.8521 39.5292 74.8554 39.6608 74.7205 39.6878C74.5855 39.7148 74.4337 39.5798 74.4202 39.735C74.4202 39.8363 74.5855 39.8903 74.6935 39.8768C74.8014 39.8633 74.8453 39.7992 74.9263 39.7992C75.0916 39.7992 75.1962 39.9375 75.2974 39.9409C75.5336 39.9409 75.7665 39.6912 76.0128 39.7182C76.1241 39.7182 76.1916 39.8228 76.2726 39.8127C76.4076 39.8127 76.5189 39.6237 76.61 39.563C76.5695 39.2964 76.61 38.9455 76.8293 38.932C76.9778 38.932 77.2005 39.2222 77.2275 38.932C77.228 38.8743 77.2073 38.8184 77.1694 38.7749C77.1314 38.7313 77.0789 38.7032 77.0217 38.6958C76.944 38.6958 76.8394 38.8746 76.7753 38.7295C76.7753 38.5845 76.917 38.6216 76.9947 38.5845C77.0723 38.5473 77.0959 38.4866 77.16 38.4596C77.4974 38.328 77.9394 38.5878 78.0643 38.2707C77.7775 37.9872 77.2815 38.3753 76.9542 38.3516C76.8727 38.3416 76.7954 38.3101 76.7302 38.2602C76.6649 38.2104 76.6141 38.1441 76.583 38.0682C76.583 38.0176 76.583 37.9535 76.583 37.8624C76.583 37.7713 76.5256 37.6566 76.529 37.5958C76.529 37.309 77.16 37.2584 77.16 36.9007C77.0743 36.84 76.9704 36.8102 76.8656 36.8163C76.7607 36.8225 76.661 36.8641 76.583 36.9345C76.5425 36.9851 76.5425 37.0863 76.4851 37.1842C76.3637 37.4001 75.9655 37.4271 75.8407 37.6903C75.7965 37.7887 75.7779 37.8966 75.7867 38.0041C75.8036 38.1458 76.0938 38.1863 76.1039 38.3449ZM72.841 53.7311C72.4663 53.7028 72.0918 53.7899 71.7681 53.9808C71.6305 54.0752 71.4775 54.1449 71.3159 54.1867C71.1843 54.1867 71.0561 54.1057 70.9313 54.0922C70.7519 54.0754 70.5711 54.0857 70.3948 54.1225C70.2395 54.1563 70.0945 54.2845 69.9561 54.2946C69.6896 54.3182 69.4365 54.0213 69.2813 53.8695C69.1767 53.7784 69.0755 53.7041 68.9776 53.6198C68.8798 53.5354 68.7414 53.4713 68.6638 53.3836C68.5862 53.2959 68.5558 53.0462 68.4985 52.8943C68.4411 52.7425 68.2285 52.5569 68.0733 52.3916C67.9181 52.2263 67.6887 52.0542 67.6617 51.8888C67.6643 51.7939 67.6733 51.6992 67.6887 51.6054C67.6887 51.4671 67.5908 51.3895 67.5908 51.2916C67.5908 51.1938 67.7359 51.0453 67.7697 50.9272C67.7865 50.8698 67.7696 50.7855 67.7966 50.7079C67.8708 50.5555 67.9089 50.3881 67.908 50.2186C67.8743 50.1213 67.8462 50.0222 67.8236 49.9217C67.8236 49.8373 67.8709 49.7935 67.8675 49.7159C67.8675 49.5809 67.7022 49.5539 67.6887 49.4021C67.6752 49.2502 67.8203 49.1119 67.908 48.9297C67.9451 48.8487 67.9687 48.7239 68.0025 48.6631C68.0801 48.5282 68.2049 48.4641 68.2657 48.3257C68.3264 48.1874 68.323 48.0828 68.3601 48.0085C68.3972 47.9343 68.512 47.8634 68.6065 47.742C68.7009 47.6205 68.7178 47.5193 68.7718 47.4754C68.8503 47.4307 68.9327 47.3935 69.0181 47.3641C69.2715 47.2457 69.4722 47.0378 69.5816 46.7803C69.5477 46.5949 69.5877 46.4036 69.6929 46.2472C69.751 46.0883 69.8499 45.9474 69.9797 45.8389C70.1518 45.7276 70.3172 45.7141 70.4353 45.5015C70.51 45.3809 70.5604 45.2467 70.5837 45.1067C70.5807 45.0256 70.5546 44.947 70.5086 44.8801C70.4626 44.8132 70.3986 44.7607 70.3239 44.7288C70.1991 44.7052 70.0101 44.8368 69.9392 44.6816C69.919 44.631 69.9392 44.5163 69.9392 44.4623C69.9224 44.3577 69.8481 44.2868 69.8448 44.2092C69.8448 44.0607 69.9696 43.9089 70.0067 43.7368C70.0419 43.5133 70.0419 43.2856 70.0067 43.062C70.1991 42.7246 70.6276 42.8865 71.0527 42.9203C71.1168 42.9203 71.1877 42.9 71.2586 42.9203C71.5082 42.9203 71.7073 43.0148 71.7917 42.7617C71.8311 42.5869 71.8459 42.4075 71.8355 42.2286C71.7724 42.0617 71.6734 41.9108 71.5454 41.7866C71.4104 41.6887 71.2079 41.7326 71.1337 41.5504C71.1978 41.2399 71.5015 41.4997 71.6837 41.4255C71.7748 41.3884 71.7647 41.2028 71.849 41.1725C71.9334 41.1421 71.9773 41.2366 72.0549 41.2366C72.1871 41.192 72.3122 41.1284 72.426 41.0476C72.5137 40.9801 72.5407 40.8384 72.6183 40.781C72.696 40.7237 72.7398 40.7439 72.7972 40.7169C72.9283 40.6472 73.0433 40.5507 73.1346 40.4335C73.2493 40.2783 73.2999 40.0961 73.4383 40.0556C73.5766 40.0151 74.0389 40.0961 74.0692 39.8666C74.0996 39.6372 73.9005 39.4752 73.9748 39.2357C74.0321 39.0501 74.1772 39.0838 74.3864 38.9691C74.4843 39.0501 74.4573 39.2829 74.4674 39.4246C74.5956 39.4246 74.8554 39.3841 74.879 39.2525C74.9027 39.1209 74.6935 38.9151 74.6462 38.8274C74.599 38.7397 74.5821 38.5338 74.4809 38.5136C74.2717 38.4664 74.0692 38.851 73.8061 38.851C73.7178 38.8447 73.6333 38.813 73.5626 38.7597C73.492 38.7064 73.4383 38.6338 73.4079 38.5507C73.3994 38.4677 73.3994 38.384 73.4079 38.301C73.3532 38.1643 73.3213 38.0195 73.3134 37.8725C73.418 37.6667 73.6508 37.6329 73.8364 37.5351C73.9039 37.4946 73.9545 37.4102 74.0287 37.3799C74.103 37.3495 74.3324 37.3799 74.4539 37.2989C74.5754 37.2179 74.5079 37.1639 74.5652 37.0627C74.6226 36.9615 74.6833 36.9648 74.7306 36.8906C74.7778 36.8164 74.7643 36.7658 74.7981 36.7185C74.9162 36.5465 75.1355 36.4857 75.2232 36.3103C75.2637 36.2293 75.1557 36.2023 75.1827 36.0876C75.2097 35.9728 75.3987 36.0606 75.4965 36.0403C75.5944 36.0201 75.7597 35.8278 75.9082 35.7906C76.0664 35.7763 76.2233 35.7492 76.3772 35.7097C76.4615 35.6725 76.5425 35.5814 76.6235 35.5679C76.7045 35.5544 76.7348 35.5882 76.7753 35.5679C76.8158 35.5477 76.8833 35.5274 76.9542 35.5207C77.0739 35.5237 77.1933 35.5338 77.3118 35.5511C77.5278 35.5511 77.7336 35.4768 77.9158 35.5511C78.0103 35.5983 78.0002 35.7198 78.1216 35.7704C78.1824 35.7974 78.2633 35.7704 78.3544 35.7704C78.4455 35.7704 78.6278 35.8919 78.8066 35.9121C78.8707 35.9121 78.9348 35.9121 78.9989 35.9121C79.2074 35.9636 79.4099 36.0372 79.6029 36.1314C79.7649 36.1955 80.1056 36.2731 80.1124 36.4486C80.1191 36.6241 79.8155 36.7152 79.6873 36.7152C79.4713 36.7152 79.1845 36.5701 78.9584 36.6511C78.9592 36.7318 78.9764 36.8116 79.0089 36.8856C79.0414 36.9595 79.0886 37.0261 79.1475 37.0813C79.2065 37.1365 79.2761 37.1792 79.352 37.2067C79.428 37.2343 79.5087 37.2461 79.5894 37.2415C79.6164 37.0728 79.4173 37.1673 79.4376 37.0053C79.5759 36.8872 79.7412 37.0863 79.9336 37.0526C80.0078 37.029 79.9977 36.9041 80.0145 36.8164C80.1799 36.7017 80.3823 36.5363 80.632 36.6578C80.6446 36.6323 80.6646 36.6111 80.6894 36.5971C80.7063 36.425 80.524 36.3339 80.6185 36.1719C80.6691 36.0606 80.9256 36.0977 80.9559 36.1719C80.9863 36.2461 80.8918 36.2698 80.902 36.3609C80.9169 36.4062 80.9467 36.4451 80.9865 36.4714C81.0263 36.4977 81.0737 36.5099 81.1213 36.506C81.2562 36.506 81.2832 36.3575 81.4115 36.2833C81.4733 36.2595 81.5363 36.2393 81.6004 36.2225C81.6814 36.1854 81.7455 36.1146 81.8096 36.0943C81.8737 36.0741 81.9243 36.0943 81.9851 36.0943C82.0458 36.0943 82.1538 35.9998 82.2213 36.0032C82.2887 36.0066 82.363 36.1112 82.4676 36.1281C82.5722 36.1449 82.589 36.0909 82.6734 36.0808C82.7578 36.0707 82.8084 36.0808 82.8657 36.0808C82.9973 36.0572 83.085 35.9796 83.2031 35.9863C83.3212 35.9931 83.409 36.1078 83.463 36.0504C83.5169 35.9931 83.3449 35.8716 83.409 35.7805C83.6182 35.8008 83.8409 35.7805 84.0534 35.8278C84.3458 35.9228 84.6432 36.0016 84.9442 36.0639C84.9206 35.8446 84.7013 35.9087 84.6068 35.8143C84.5342 35.713 84.4826 35.5983 84.455 35.4768C84.5041 35.3438 84.5686 35.217 84.6473 35.0989C84.741 35.0308 84.8559 34.9982 84.9714 35.0068C85.087 35.0155 85.1957 35.0649 85.2783 35.1462C85.3559 35.2643 85.3289 35.4465 85.4436 35.4431C85.5583 35.4397 85.5921 35.1664 85.7034 35.1597C85.8148 35.1529 85.8451 35.3351 85.9362 35.3351C86.0273 35.3351 86.1319 35.0888 86.2736 35.0821C86.3546 35.0821 86.3816 35.1293 86.5065 35.1462C86.5942 35.0821 86.4795 34.9977 86.5065 34.91C86.6617 34.7818 87.0126 34.8796 87.2083 34.7986C87.2623 34.7244 87.1374 34.6704 87.2083 34.5928C87.4388 34.4741 87.6917 34.4051 87.9506 34.3904C88.1261 34.3566 88.288 34.2149 88.4297 34.2014C88.5715 34.1879 88.7132 34.2959 88.8414 34.2959C88.9267 34.2897 89.0102 34.268 89.0877 34.2318C89.1653 34.198 89.2193 34.1103 89.2969 34.0901C89.434 34.0816 89.5715 34.0816 89.7086 34.0901C89.8342 34.0553 89.9631 34.0338 90.0932 34.0259C90.1911 34.0462 90.272 34.1677 90.3665 34.1845C90.6503 34.179 90.9342 34.1891 91.2168 34.2149C91.2641 34.2149 91.3113 34.2858 91.3687 34.3094C91.5441 34.3836 91.6656 34.3634 91.7061 34.6097C91.8444 34.667 91.9254 34.8121 92.0907 34.8627C92.2027 34.8773 92.3161 34.8773 92.4281 34.8627C92.5985 34.8604 92.7688 34.8705 92.9376 34.8931C93.0153 34.8931 93.0794 34.9741 93.157 34.9876C93.2346 35.0011 93.2852 34.9876 93.3493 34.9876C93.4258 35.0082 93.5036 35.0239 93.5821 35.0348C93.7272 35.0348 93.8352 34.883 93.9533 34.8627C94.0227 34.8658 94.0917 34.8759 94.1591 34.8931C94.3842 34.8852 94.6095 34.8908 94.8339 34.91C94.9757 34.9717 95.1058 35.0573 95.2186 35.163C95.2996 35.2339 95.3468 35.3452 95.4244 35.3992C95.5244 35.4689 95.6406 35.5119 95.7618 35.5241C95.8496 35.5241 95.8529 35.3959 95.9407 35.352C96.214 35.2811 96.6965 35.4498 96.9158 35.352C97.0002 35.3081 96.9833 35.2035 97.0541 35.1462C97.4658 35.1225 97.8774 35.1664 98.2621 35.1799C98.3942 35.1645 98.5273 35.1588 98.6602 35.163C98.7952 35.19 98.8964 35.3452 99.0314 35.3992C99.1664 35.4532 99.2811 35.3992 99.4161 35.4465C99.551 35.4937 99.5814 35.5308 99.6489 35.5409C99.7913 35.5479 99.934 35.5377 100.074 35.5106C100.421 35.4542 100.776 35.4867 101.107 35.6051C101.268 35.6793 101.339 35.8345 101.515 35.8547C101.771 35.8885 102.163 35.8311 102.422 35.8547C102.477 35.8696 102.532 35.8798 102.588 35.8851C102.676 35.8851 102.726 35.794 102.834 35.794C102.942 35.794 103.188 36.037 103.384 35.9965C103.468 35.9324 103.317 35.8379 103.384 35.7771C103.452 35.7164 103.566 35.7771 103.688 35.7771C103.752 35.7771 103.833 35.74 103.894 35.7468C104.042 35.7468 104.187 35.9155 104.373 35.9661C104.548 36.0092 104.73 36.0195 104.909 35.9965C105.03 35.9627 105.155 35.9468 105.28 35.9492C105.342 35.9726 105.401 35.9997 105.459 36.0302C105.517 36.0302 105.574 36.0302 105.621 36.0302C105.668 36.0302 105.712 36.0943 105.76 36.1078C106.016 36.1922 106.357 36.236 106.627 36.3305C106.77 36.4054 106.922 36.4631 107.079 36.5026C107.143 36.5026 107.2 36.4722 107.285 36.4722C107.7 36.4722 108.189 36.6713 108.148 37.1167C107.663 37.2382 107.258 36.7354 106.748 36.8805C106.702 36.8961 106.661 36.9254 106.632 36.9646C106.602 37.0037 106.585 37.0508 106.583 37.0998C106.603 37.3765 107.207 37.3529 107.258 37.6194C107.156 37.7038 107.048 37.6194 106.967 37.6194C106.821 37.6716 106.689 37.7585 106.583 37.8725C106.492 37.9704 106.407 38.2099 106.31 38.2504C106.212 38.2909 105.999 38.1087 105.814 38.1559C105.746 38.1559 105.682 38.2673 105.621 38.2808C105.469 38.3145 105.284 38.1863 105.183 38.3921C105.233 38.5338 105.203 38.7295 105.307 38.8139C105.412 38.8983 105.456 38.8139 105.54 38.8611C105.625 38.9084 105.689 39.04 105.773 39.1142C105.857 39.1884 105.915 39.1783 105.952 39.2559C105.989 39.3335 105.911 39.3841 105.925 39.4617C105.945 39.5933 106.127 39.6237 106.131 39.7114C106.134 39.7992 106.016 39.8025 105.992 39.9173C105.969 40.032 106.067 40.0084 106.077 40.1062C106.087 40.2041 106.029 40.2378 106.033 40.312C106.036 40.3863 106.114 40.4841 106.104 40.5786C106.097 40.6147 106.082 40.6488 106.061 40.6786C106.039 40.7083 106.011 40.7329 105.979 40.7507C105.716 40.5583 105.479 40.2918 105.196 40.0421C104.913 39.7924 104.447 39.4752 104.4 38.9421C104.4 38.8611 104.552 38.7937 104.579 38.6756C104.579 38.6249 104.562 38.5541 104.579 38.4866C104.579 38.301 104.72 38.1222 104.717 38.0142C104.67 37.853 104.56 37.7171 104.413 37.6363C104.332 37.6836 104.413 37.778 104.413 37.8556C104.402 37.9075 104.377 37.9554 104.341 37.994C104.305 38.0327 104.258 38.0607 104.207 38.075C103.948 38.1019 103.917 37.6937 103.506 37.8084C103.426 37.8481 103.361 37.9127 103.322 37.9925C103.282 38.0723 103.27 38.1629 103.286 38.2504C103.286 38.3179 103.465 38.3921 103.452 38.4866C103.438 38.5811 103.077 38.6013 102.999 38.5946C102.777 38.5743 102.662 38.3854 102.463 38.3921C102.365 38.3921 102.281 38.4832 102.203 38.5001C101.771 38.5912 101.127 38.2572 100.982 38.6891C100.958 38.7498 100.982 38.8308 100.951 38.8949C100.921 38.9705 100.885 39.0438 100.843 39.1142C100.826 39.1648 100.843 39.2593 100.803 39.3335C100.762 39.4078 100.516 39.6709 100.746 39.7452C100.803 39.7452 100.826 39.7182 100.897 39.7452C100.968 39.7722 101.211 39.9814 101.349 39.9814C101.434 39.9814 101.549 39.8734 101.613 39.87C101.738 39.87 101.832 39.9577 101.926 40.0117C102.021 40.0657 102.163 40.1737 102.23 40.1703C102.358 40.1703 102.298 40.059 102.422 40.0117C102.659 40.0927 102.76 40.3829 102.999 40.6123C103.08 40.6933 103.202 40.7642 103.313 40.8789C103.377 40.943 103.566 41.1117 103.576 41.1927C103.587 41.2737 103.522 41.3007 103.506 41.3682C103.489 41.4356 103.536 41.5335 103.479 41.601C103.259 41.5099 103.212 41.2636 103.053 41.051C102.996 40.9734 102.935 40.8789 102.848 40.7675C102.807 40.7169 102.662 40.5415 102.574 40.5786C102.399 40.6562 102.669 40.9531 102.709 41.0206C102.818 41.1595 102.894 41.3209 102.932 41.493C102.932 41.5875 102.878 41.7562 102.875 41.9181C102.875 42.0261 102.898 42.124 102.875 42.2151C102.85 42.3172 102.818 42.4175 102.78 42.5154C102.746 42.6301 102.74 42.7684 102.709 42.8528C102.679 42.929 102.631 42.997 102.569 43.0515C102.508 43.1059 102.434 43.1453 102.355 43.1666C102.24 43.1666 102.19 43.0654 102.078 43.0721C101.91 43.0721 101.879 43.2611 101.778 43.4095C101.778 43.5647 101.829 43.6187 101.805 43.7267C101.768 43.892 101.565 43.9224 101.572 44.0877C101.579 44.2531 101.758 44.2699 101.845 44.3374C102.016 44.4747 102.168 44.6335 102.298 44.8098C102.395 44.9391 102.456 45.0915 102.476 45.2518C102.476 45.407 102.075 45.623 101.913 45.5656C101.751 45.5083 101.812 45.3429 101.778 45.1877C101.744 45.0325 101.667 45.019 101.626 44.9212C101.586 44.8233 101.626 44.7896 101.586 44.7322C101.501 44.5736 101.356 44.6614 101.188 44.5601C101.073 44.4926 101.107 44.3543 101.063 44.2227C101.014 44.1366 100.937 44.0696 100.845 44.0322C100.753 43.9949 100.652 43.9895 100.557 44.0169C100.408 44.0506 100.361 44.1923 100.219 44.2227C100.017 44.0844 100.26 43.7469 100.013 43.72C99.8243 43.6963 99.6961 44.0304 99.5882 44.1282C99.4802 44.2261 99.3756 44.2058 99.3688 44.3003C99.352 44.4758 99.5274 44.4387 99.6691 44.5061C99.8109 44.5736 99.8142 44.7322 99.9289 44.7423C100.044 44.7525 100.094 44.6242 100.192 44.6141C100.342 44.6113 100.488 44.6615 100.604 44.7558C100.533 44.9482 100.165 45.0932 100.165 45.3396C100.165 45.4846 100.31 45.5116 100.425 45.6061C100.54 45.7006 100.648 45.9199 100.783 46.0785C100.84 46.1494 100.934 46.1932 100.961 46.2371C101.026 46.3417 101.015 46.4665 101.083 46.5374C101.083 46.6217 101.049 46.642 101.056 46.723C101.063 46.804 101.241 46.8174 101.275 46.9288C101.248 47.2021 101.346 47.4552 101.154 47.5598C101.122 47.9804 100.952 48.3789 100.671 48.6935C100.395 48.8938 100.082 49.0372 99.7501 49.1153C99.6691 49.1456 99.605 49.2469 99.5308 49.2739C99.3486 49.3447 99.0247 49.3008 99.0112 49.5573C99.0112 49.6821 99.1495 49.7597 99.163 49.8947C99.1702 49.9805 99.1498 50.0663 99.1049 50.1397C99.06 50.2131 98.9929 50.2703 98.9133 50.303C98.8501 50.3068 98.7879 50.2862 98.7395 50.2453C98.6911 50.2045 98.6603 50.1466 98.6535 50.0837C98.6535 49.8947 98.856 49.8205 98.8728 49.7057C98.8789 49.6564 98.874 49.6063 98.8585 49.5591C98.843 49.5119 98.8172 49.4687 98.783 49.4326C98.7488 49.3964 98.7071 49.3683 98.6608 49.3502C98.6145 49.3321 98.5648 49.3245 98.5152 49.3278C98.3701 49.3875 98.2404 49.4791 98.1358 49.596C98.0312 49.7129 97.9544 49.8519 97.9112 50.0027C97.9112 50.1748 98.2081 50.529 98.3093 50.6336C98.694 51.0217 99.1056 51.2545 99.0382 52.206C98.9403 52.4456 98.7007 52.4996 98.5017 52.6312C98.3026 52.7628 98.2824 53.0462 98.036 53.0732C97.9348 53.0327 97.9955 52.8539 97.9652 52.7729C97.9348 52.6919 97.7324 52.6042 97.6109 52.4894C97.5299 52.3816 97.4556 52.2689 97.3882 52.152C97.2937 52.0441 97.1486 52.0204 97.0339 51.9462C96.9192 51.872 96.9023 51.7404 96.8281 51.7438C96.7538 51.7471 96.7471 51.8821 96.7167 52.1048C96.6864 52.3275 96.548 52.4928 96.5919 52.7493C96.6121 52.8572 96.7268 52.9416 96.7842 53.0496C96.8821 53.2284 96.8956 53.4342 96.99 53.5388C97.0845 53.6434 97.1655 53.6198 97.2397 53.6772C97.4211 53.8211 97.5744 53.9972 97.6919 54.1968C97.7173 54.3745 97.7309 54.5537 97.7324 54.7333C97.7796 54.9357 98.009 55.0707 97.8707 55.2833C97.7393 55.2399 97.6178 55.1711 97.513 55.0808C97.3412 54.961 97.2039 54.7981 97.1149 54.6084C97.074 54.5483 97.0379 54.4852 97.0069 54.4195C96.9563 54.2778 96.9664 54.1192 96.9226 53.9471C96.8581 53.7606 96.7559 53.5895 96.6223 53.4443C96.5244 53.3397 96.3523 53.279 96.3456 53.1272C96.3456 52.918 96.4097 52.6683 96.3996 52.4186C96.3898 52.3604 96.3762 52.3029 96.3591 52.2465C96.3591 52.125 96.3591 51.9766 96.3591 51.8686C96.3262 51.771 96.2856 51.6763 96.2376 51.5852C96.2005 51.4941 96.1634 51.403 96.1262 51.2849C96.0723 51.106 96.0082 50.7551 95.8799 50.7349C95.7517 50.7146 95.6066 51.0318 95.4244 51.0352C95.371 51.0311 95.3201 51.0109 95.2785 50.9771C95.2369 50.9433 95.2066 50.8977 95.1916 50.8462C95.1747 50.7484 95.2355 50.6505 95.2355 50.5459C95.2355 50.3367 95.0971 50.2557 94.9993 50.1073C94.9622 50.0465 94.9487 49.9622 94.9183 49.9183C94.8879 49.8745 94.7361 49.7834 94.6585 49.6956C94.5797 49.612 94.5148 49.5163 94.4661 49.4122C94.4122 49.2907 94.3953 49.1321 94.3143 49.1153C94.2333 49.0984 94.1456 49.2266 94.068 49.257C93.9468 49.2938 93.8226 49.3198 93.6968 49.3346C93.4202 49.3582 93.1975 49.2739 93.2278 49.6484C93.1873 49.8205 93.0287 49.8205 92.9275 49.9015C92.7915 50.0488 92.6674 50.2068 92.5564 50.3738C92.4855 50.4548 92.3843 50.5054 92.3235 50.5797C92.2628 50.6539 92.2527 50.7382 92.1987 50.799C92.0536 50.9576 91.8309 50.9711 91.7331 51.1938C91.7331 51.4536 91.841 51.6526 91.8141 51.899C91.8141 52.0137 91.7297 52.1149 91.7196 52.2364C91.7095 52.3579 91.7533 52.4456 91.7196 52.5536C91.6858 52.6615 91.6521 52.6413 91.6082 52.7088C91.5644 52.7763 91.5542 52.8572 91.5272 52.8977C91.5002 52.9382 91.4058 53.0124 91.3619 53.0732C91.318 53.1339 91.2776 53.2351 91.2101 53.2453C90.9098 53.2959 90.8355 52.6379 90.7039 52.3646C90.6398 52.2364 90.515 52.1217 90.4543 51.9698C90.4005 51.7676 90.3363 51.5682 90.2619 51.3726C90.1639 51.2053 90.0771 51.0317 90.0021 50.853C89.9515 50.7011 89.911 50.5156 89.8638 50.3502C89.8119 50.1749 89.7758 49.9954 89.7558 49.8137C89.7558 49.6113 89.7895 49.4763 89.6444 49.4054C89.5129 49.4392 89.4521 49.5944 89.307 49.5944C89.1619 49.5944 88.7672 49.3008 88.8819 49.041C88.7874 48.8858 88.5445 48.8015 88.3623 48.6193C88.2543 48.5113 88.1598 48.2616 87.9776 48.2414C87.9217 48.2463 87.8663 48.2564 87.8123 48.2717C87.6942 48.2717 87.4749 48.2717 87.3601 48.2717C87.1695 48.3031 86.976 48.3133 86.7831 48.3021C86.6482 48.3021 86.4795 48.2549 86.3411 48.2414C86.1591 48.2324 85.9835 48.1715 85.835 48.0659C85.7743 48.0018 85.7506 47.796 85.6427 47.769C85.5347 47.742 85.4436 47.8466 85.3255 47.8769C85.2129 47.8983 85.0968 47.8923 84.987 47.8594C84.8772 47.8265 84.7769 47.7677 84.6945 47.688C84.5731 47.5969 84.4651 47.5496 84.3774 47.4855C84.1715 47.3236 84.131 46.8411 83.8172 46.8377C83.7059 46.8377 83.5304 46.9153 83.5136 47.0604C83.5349 47.1911 83.5869 47.3148 83.6654 47.4214C83.8172 47.6711 84.1007 47.7588 84.185 48.0963C84.2424 48.1199 84.3605 48.0389 84.4212 48.0963C84.4718 48.2414 84.4212 48.5079 84.5427 48.5686C85.1129 48.6766 85.2783 48.319 85.5313 48.0659C85.6798 48.1772 85.6326 48.2751 85.6832 48.4033C85.7256 48.5176 85.8084 48.6124 85.916 48.6699C85.9868 48.7002 86.0746 48.6699 86.1792 48.7171C86.3254 48.8284 86.4414 48.9746 86.5166 49.1423C86.4683 49.3178 86.3895 49.4834 86.2838 49.6315C86.2298 49.7091 86.1454 49.7496 86.1184 49.8205C86.0914 49.8913 86.1184 49.9892 86.0914 50.0229C86.0644 50.0567 85.943 50.168 85.8721 50.2456C85.798 50.317 85.7203 50.3846 85.6393 50.4481C85.5516 50.5257 85.4976 50.6303 85.4065 50.6708C85.2209 50.745 85.0488 50.7146 84.897 50.826C84.7991 50.9002 84.7991 51.0689 84.6777 51.1634C84.5562 51.2579 84.3402 51.2579 84.1547 51.3523C84.0399 51.4131 83.9691 51.5312 83.8679 51.5717C83.8274 51.5717 83.7734 51.5717 83.7295 51.5717C83.6856 51.5717 83.5541 51.6729 83.4697 51.6965C83.3853 51.7201 83.328 51.6965 83.2639 51.7303C83.0513 51.8011 82.859 52.0474 82.6464 51.9023C82.5452 51.6392 82.5283 51.3051 82.4102 51.0689C82.3528 50.9474 82.2348 50.9103 82.1909 50.7855C82.147 50.6606 82.2921 50.7113 82.3022 50.6269C82.2651 50.4582 82.1268 50.3772 82.0424 50.2355C81.9986 50.1646 81.9783 50.0634 81.9311 49.9824C81.7657 49.7091 81.4452 49.5674 81.3811 49.2266C81.3642 49.1355 81.3811 49.0613 81.3811 48.9904C81.3497 48.8678 81.2934 48.753 81.2158 48.653C81.1651 48.5855 81.0572 48.5349 80.9964 48.4337C80.9357 48.3325 80.9492 48.2683 80.9154 48.1975C80.7799 47.914 80.5935 47.6578 80.3655 47.4417C80.2541 47.4619 80.1326 47.4687 80.0787 47.553C80.1342 47.7449 80.2123 47.9296 80.3115 48.103C80.412 48.263 80.4989 48.4312 80.5713 48.6058C80.5915 48.6732 80.5713 48.7576 80.6118 48.8251C80.6995 49.0748 80.9694 49.1625 81.0234 49.4392C81.0605 49.6349 81.0234 49.7766 81.0673 49.9588C81.1112 50.141 81.3507 50.2557 81.4519 50.4312C81.507 50.5913 81.5521 50.7547 81.5869 50.9205C81.6713 51.1229 81.9007 51.2106 82.0694 51.3456C82.2059 51.4844 82.3343 51.6308 82.4541 51.7842C82.5249 51.8618 82.6262 51.8753 82.6464 51.9597C82.6666 52.0441 82.6059 52.1014 82.589 52.1959C82.6936 52.3207 82.7982 52.5536 82.9737 52.5738C83.0479 52.5738 83.139 52.4962 83.2504 52.4793C83.3044 52.4793 83.3685 52.4793 83.4123 52.4793C83.4562 52.4793 83.5507 52.3882 83.635 52.368C83.7734 52.3342 83.9353 52.3477 84.1142 52.3207C84.293 52.2937 84.3976 52.1318 84.5258 52.179C84.6675 52.3579 84.5663 52.5569 84.5258 52.729C84.5258 52.7897 84.5258 52.8539 84.4988 52.9045C84.4246 53.1845 84.2323 53.3904 84.1412 53.6434C84.1142 53.721 84.1175 53.8155 84.0872 53.8931C83.9612 54.1513 83.7987 54.3899 83.6047 54.6017C83.5215 54.714 83.4301 54.82 83.3314 54.9189C83.2335 55.01 83.112 55.0606 82.9939 55.155C82.7604 55.3554 82.557 55.5884 82.39 55.8468C82.3448 55.9441 82.2941 56.0387 82.2381 56.1302C82.1504 56.2449 82.0121 56.3023 81.9378 56.4136C81.8747 56.5463 81.8195 56.6826 81.7725 56.8219C81.6983 57.0007 81.5397 57.1256 81.5667 57.3719C81.5667 57.4697 81.651 57.5271 81.678 57.6249C81.7099 57.7865 81.7099 57.9527 81.678 58.1142C81.7276 58.3298 81.8206 58.533 81.9513 58.7114C81.9682 59.0286 81.9277 59.339 81.9513 59.609C81.9513 59.781 82.0256 59.9059 81.9513 60.0645C81.8632 60.2469 81.7366 60.4081 81.5802 60.5369C81.4519 60.6313 81.2427 60.6583 81.1145 60.7731C80.9863 60.8878 80.9357 60.9924 80.8378 61.0869C80.6759 61.2421 80.4566 61.3872 80.4397 61.5457C80.4551 61.6534 80.4834 61.7587 80.524 61.8595C80.5968 62.1269 80.5968 62.4088 80.524 62.6761C80.4228 62.9494 79.9201 62.892 79.8661 63.1822C79.8458 63.2666 79.8964 63.3374 79.8931 63.4319C79.862 63.5879 79.8157 63.7405 79.7547 63.8874C79.694 64.019 79.5557 64.0764 79.4679 64.1877C79.3802 64.2991 79.2958 64.5251 79.1777 64.677C78.9997 64.8886 78.802 65.0829 78.5873 65.2573C78.3581 65.4413 78.0825 65.5581 77.791 65.5948C77.6256 65.5948 77.4535 65.5509 77.268 65.5948C77.2039 65.5948 77.1364 65.6724 77.0486 65.6892C76.9609 65.7061 76.9508 65.6892 76.9002 65.6892C76.8496 65.6892 76.7315 65.7837 76.6505 65.7837C76.5379 65.7581 76.4368 65.6965 76.3625 65.6082C76.2882 65.5199 76.2448 65.4097 76.2388 65.2945C76.2388 65.2 76.3097 65.1122 76.3097 65.0279C76.3097 64.9435 76.1983 64.8018 76.1174 64.6162C76.0364 64.4307 76.0027 64.2417 75.925 64.1C75.8474 63.9583 75.726 63.8739 75.6618 63.7626C75.559 63.5005 75.4987 63.2237 75.483 62.9426C75.483 62.8482 75.4155 62.7469 75.402 62.6288C75.3885 62.5108 75.402 62.3252 75.402 62.2037C75.3537 62.1 75.2985 61.9997 75.2367 61.9034C75.1389 61.701 75.0714 61.4344 74.9904 61.2758C74.9094 61.1172 74.7576 60.9721 74.7441 60.8034C74.7396 60.6556 74.7487 60.5076 74.7711 60.3614C74.7711 60.2534 74.8554 60.1657 74.879 60.0476C74.9027 59.9295 74.879 59.8823 74.879 59.7979C74.9499 59.4369 75.2974 59.3053 75.2502 58.8666C75.23 58.6811 75.1186 58.59 75.0984 58.3808C75.0984 58.2795 75.1422 58.1952 75.1422 58.0973C75.1142 57.9378 75.063 57.7832 74.9904 57.6384C74.8904 57.3117 74.7475 56.9996 74.5652 56.7105C74.4539 56.5688 74.3122 56.4642 74.2278 56.3326C74.1464 56.2149 74.0902 56.0817 74.0625 55.9412C74.0625 55.8501 74.1232 55.7928 74.1468 55.705C74.1705 55.6173 74.1772 55.3676 74.2143 55.1854C74.2622 55.0485 74.2895 54.9052 74.2953 54.7603C74.2742 54.6688 74.233 54.5831 74.1746 54.5096C74.1163 54.436 74.0422 54.3764 73.9579 54.3351C73.7656 54.2811 73.5665 54.406 73.3235 54.3824C73.1211 54.1833 73.1346 53.7851 72.841 53.7311ZM80.4329 59.3626C80.4971 59.2479 80.578 58.924 80.4329 58.8464H80.406C80.3385 58.9814 80.2642 59.2985 80.4262 59.3694L80.4329 59.3626ZM80.2406 56.0762C80.2879 55.9648 80.3958 55.8501 80.379 55.7118C80.3385 55.4081 79.8458 55.5599 79.7885 55.7759C79.7514 55.921 79.8121 56.0357 79.7615 56.1842C79.8155 56.3023 79.9504 56.3259 80.1191 56.309C80.2035 56.2719 80.1934 56.1808 80.2339 56.0931L80.2406 56.0762ZM79.4038 57.6958C79.4578 57.5811 79.3195 57.5035 79.2958 57.382C79.2722 57.2605 79.3262 57.0648 79.2115 56.9872H79.171C79.0664 57.2538 79.2047 57.6789 79.3971 57.7026L79.4038 57.6958ZM88.7705 42.0666C88.7165 41.9485 88.5681 42.1003 88.6322 42.2083C88.7199 42.2218 88.7537 42.1611 88.7638 42.0734L88.7705 42.0666ZM85.5718 42.7111C85.7911 42.6638 85.5718 42.2556 85.4065 42.3028C85.1804 42.3737 85.4132 42.7516 85.5651 42.7178L85.5718 42.7111ZM84.5596 44.7356C84.6304 44.189 84.2593 44.1485 84.1884 43.7604C84.2221 43.7604 84.2053 43.7132 84.2323 43.7132C84.32 43.6626 84.4583 43.7908 84.5056 43.666C84.5029 43.6189 84.4885 43.5733 84.4637 43.5332C84.4389 43.4932 84.4045 43.4599 84.3637 43.4365C84.3228 43.413 84.2767 43.4001 84.2296 43.399C84.1825 43.3978 84.1359 43.4084 84.0939 43.4298C84.0332 43.3825 84.0264 43.2779 84.0129 43.1767C83.8544 43.0721 83.4697 42.8393 83.4764 42.6267C83.4832 42.4141 83.6755 42.3534 83.9016 42.3602C83.9961 42.2758 83.9353 42.0227 83.8476 41.9654C83.7174 41.9172 83.5763 41.9065 83.4403 41.9346C83.3043 41.9626 83.1789 42.0282 83.0783 42.124C82.9703 42.2117 82.8489 42.2758 82.7881 42.3264C82.7208 42.395 82.6781 42.484 82.6666 42.5795C82.6666 42.6773 82.7949 42.7347 82.8455 42.8629C82.8691 42.9304 82.8623 43.0114 82.886 43.0687C82.9467 43.2206 83.0985 43.3184 83.2234 43.4466C83.3482 43.5749 83.5372 43.7301 83.5406 43.8381C83.5439 43.946 83.4697 43.9494 83.4461 44.0439C83.4115 44.1713 83.3978 44.3035 83.4056 44.4353C83.4326 44.6107 83.5912 44.6141 83.743 44.6883C83.8948 44.7626 84.0231 44.8874 84.1682 44.8942C84.3082 44.897 84.4439 44.8449 84.5461 44.7491L84.5596 44.7356ZM81.3204 43.6086C81.6915 43.531 81.5228 43.17 81.3204 43.0417C81.1179 42.9135 81.0065 42.8595 80.8412 42.7448C80.7434 42.6773 80.3756 42.5491 80.3722 42.4074C80.3688 42.2657 80.6455 42.2117 80.5375 41.9485C80.3486 41.8979 79.9032 41.9789 79.9336 42.2184C79.9504 42.3534 80.0921 42.2792 80.1259 42.4209C79.9909 42.4783 79.829 42.62 79.6873 42.5964C79.5455 42.5727 79.4747 42.3298 79.3836 42.1847C79.252 42.1847 79.1676 42.0396 79.0124 42.0599C78.8572 42.0801 78.7661 42.35 78.675 42.485C78.6311 42.5559 78.5603 42.593 78.5367 42.6571C78.513 42.7212 78.5367 42.7583 78.5367 42.8157C78.4894 42.9911 78.3578 43.0552 78.3713 43.2105C78.3848 43.3657 78.513 43.4062 78.5232 43.5243C78.5333 43.6423 78.3443 43.5816 78.3578 43.7301C78.6041 43.9595 78.6176 43.6187 78.7425 43.5715C78.8673 43.5243 79.0394 43.6019 79.1676 43.5715C79.2958 43.5411 79.3532 43.4332 79.4713 43.3825C79.5536 43.3466 79.6415 43.3249 79.7311 43.3184C80.1664 43.2982 80.4498 43.6255 80.8311 43.6322C80.9946 43.6399 81.1584 43.632 81.3204 43.6086ZM80.4397 45.4678C80.4397 45.2991 80.3857 45.1709 80.3722 44.9313C80.1191 44.7558 79.9302 45.0932 79.6738 45.0561C79.5152 45.0359 79.4004 44.8233 79.2317 44.8537C79.1406 44.8537 79.0934 45.0055 78.9989 45.0258C78.8032 45.0663 78.7121 44.8469 78.5063 44.9313C78.2123 44.6184 78.0369 44.2126 78.0103 43.7841C77.8517 43.5411 77.6054 43.7368 77.4873 43.892C77.4164 43.892 77.3253 43.8482 77.3118 43.9393C77.2578 44.2295 77.6695 44.2767 77.6661 44.4589C77.6661 44.5871 77.5075 44.577 77.4333 44.6647C77.3591 44.7525 77.4097 44.8402 77.3118 44.9009C77.0385 44.938 76.9508 44.766 76.9542 44.4893C76.8361 44.2868 76.6876 44.1518 76.583 43.9696C76.5292 43.8949 76.4914 43.8099 76.4717 43.72C76.4717 43.6457 76.502 43.5512 76.4717 43.4669C76.4447 43.3184 76.1983 43.2037 76.0465 43.1295C75.8767 43.0532 75.716 42.9581 75.5674 42.846C75.4864 42.7651 75.4459 42.6301 75.3751 42.5761C75.3042 42.5221 75.2367 42.5424 75.1827 42.4985C75.1287 42.4546 75.1186 42.3365 75.0174 42.3095C74.9162 42.2826 74.8858 42.3669 74.852 42.4209C74.7846 42.7583 75.0309 42.7853 75.1422 42.9405C75.2536 43.0957 75.257 43.2003 75.3346 43.2779C75.4122 43.3555 75.5303 43.3353 75.6349 43.3859C75.7395 43.4365 75.7563 43.5276 75.8272 43.5749C75.9588 43.666 76.1646 43.6828 76.1849 43.8583C76.1039 43.9224 75.9183 43.7672 75.8474 43.9224C75.8474 44.0236 75.9183 44.0776 75.9183 44.1721C75.9183 44.3273 75.7631 44.5095 75.6281 44.4724C75.6281 44.3813 75.699 44.3037 75.699 44.2058C75.699 44.0034 75.3413 43.6997 75.1625 43.6086C75.0781 43.5647 74.9769 43.5614 74.8993 43.5141C74.7283 43.3956 74.5759 43.2524 74.4472 43.089C74.3493 42.9371 74.2649 42.6638 74.049 42.6773C73.9613 42.6773 73.887 42.7786 73.8162 42.8191C73.7446 42.8569 73.6758 42.8997 73.6104 42.9473C73.5294 43.008 73.4653 43.0687 73.391 43.0721C73.219 43.0721 73.0705 42.9236 72.922 42.9608C72.8627 42.9906 72.8117 43.0346 72.7736 43.089C72.7736 43.1801 72.7972 43.2374 72.7736 43.3387C72.7499 43.4399 72.5947 43.423 72.4969 43.4804C72.3522 43.5948 72.2229 43.7275 72.1122 43.8752C72.038 43.9595 71.9705 44.027 71.9638 44.0945C71.957 44.162 72.0009 44.2463 71.9908 44.3138C71.9442 44.4308 71.8687 44.5341 71.7714 44.6141C71.7208 44.6512 71.6567 44.658 71.6061 44.6917C71.4981 44.766 71.4475 44.8638 71.3598 44.8807C71.1168 44.9347 70.6849 44.8267 70.6849 45.1169C70.6849 45.3126 70.9178 45.3126 71.0561 45.3058C71.2111 45.3162 71.3667 45.3162 71.5217 45.3058C71.596 45.2856 71.677 45.1877 71.7579 45.1472C71.8389 45.1067 71.8558 45.1236 71.8929 45.1C71.93 45.0764 72.0211 44.9785 72.0852 44.9448C72.2421 44.8743 72.4098 44.8309 72.5812 44.8166C72.7668 44.8166 72.9591 44.8402 73.1987 44.8166C73.2831 44.8166 73.3674 44.7457 73.4585 44.739C73.6103 44.739 73.7959 44.8064 73.9275 44.8031C74.0591 44.7997 74.103 44.7052 74.2008 44.7086C74.2541 44.7105 74.3057 44.7278 74.3494 44.7583C74.3931 44.7888 74.427 44.8313 74.4472 44.8807C74.4472 44.9279 74.4235 44.9988 74.4472 45.0696C74.4708 45.1405 74.5484 45.2316 74.545 45.3058C74.5416 45.3801 74.3223 45.5353 74.3527 45.6432C74.383 45.7512 74.5248 45.7951 74.599 45.8457C74.6883 45.913 74.7905 45.9612 74.8993 45.9874C74.9769 45.9874 75.0478 45.9638 75.122 45.9874C75.2598 46.0112 75.3909 46.0641 75.5066 46.1426C75.6349 46.2472 75.6146 46.4159 75.7665 46.48C75.8306 46.507 75.9453 46.48 76.0263 46.5138C76.2253 46.561 76.3637 46.7533 76.5223 46.7331C76.7517 46.7027 76.6471 46.453 76.6741 46.2776C76.7315 45.8727 77.4164 45.8929 77.5514 46.1662C77.6523 46.1762 77.7526 46.1919 77.8517 46.2135C77.9192 46.2371 77.9698 46.3214 78.0305 46.3383C78.0901 46.3417 78.1498 46.3417 78.2094 46.3383C78.4725 46.3721 78.7121 46.5981 78.9382 46.5576C79.0833 46.534 79.1845 46.3788 79.3228 46.3687C79.586 46.3518 79.7547 46.5948 80.0382 46.48C80.244 46.3957 80.2001 46.1426 80.271 45.8997C80.3401 45.7634 80.3966 45.6211 80.4397 45.4745V45.4678ZM95.2456 40.1062C95.2675 40.0109 95.2667 39.9118 95.2432 39.8168C95.2198 39.7219 95.1744 39.6338 95.1106 39.5596C94.952 39.5933 95.0668 39.7823 95.0566 39.897C95.0465 40.0117 94.8947 40.1636 94.9048 40.3222C94.8508 40.393 94.7597 40.4234 94.753 40.5449C94.8407 40.6123 94.8778 40.4875 94.9453 40.4166C95.0128 40.3458 95.2085 40.2344 95.2456 40.1062ZM91.6453 34.6434C91.5336 34.6508 91.4276 34.696 91.345 34.7716C91.2944 34.802 91.1864 34.8189 91.2202 34.9134C91.3518 34.8931 91.615 34.8357 91.6453 34.6434ZM85.8519 36.5802C86.1893 36.6679 86.3276 36.2428 86.1117 36.0133C86.0611 35.9593 85.8924 35.9391 85.8249 35.8109C85.7574 35.6827 85.7506 35.4498 85.5482 35.4937C85.5482 35.514 85.5482 35.5376 85.5482 35.5409C85.5313 35.8784 85.9666 35.9728 85.9598 36.2495C85.943 36.3946 85.8114 36.4115 85.8519 36.5802Z" fill="#E0E0E0"/>
<path d="M81.3341 35.983C81.2936 35.8109 81.577 35.8413 81.5264 35.983C81.5006 36.0079 81.4661 36.0219 81.4302 36.0219C81.3943 36.0219 81.3599 36.0079 81.3341 35.983Z" fill="#E0E0E0"/>
<path d="M79.6436 45.3936C79.6436 45.2653 79.9101 45.2181 79.9607 45.3328C79.9439 45.4577 79.6975 45.5454 79.6436 45.3936Z" fill="#E0E0E0"/>
<path d="M74.9365 44.5433C75.0782 44.4117 75.3954 44.5028 75.6114 44.496C75.5742 44.6175 75.5675 44.7727 75.4865 44.8335C75.3788 44.8301 75.2733 44.8022 75.178 44.7519C75.0827 44.7016 75.0001 44.6303 74.9365 44.5433Z" fill="#E0E0E0"/>
<path d="M73.9309 43.7099C74.1198 43.4838 74.3189 43.6053 74.2481 44.0473C74.2042 44.1789 74.0085 44.351 73.9106 44.1586C73.9369 44.0106 73.9437 43.8597 73.9309 43.7099Z" fill="#E0E0E0"/>
<path d="M74.2076 43.2071C74.2175 43.2517 74.2135 43.2984 74.196 43.3406C74.1785 43.3829 74.1484 43.4187 74.1098 43.4433C73.931 43.4062 74.0693 43.035 74.2076 43.2071Z" fill="#E0E0E0"/>
<path d="M71.5422 40.0118C71.5467 39.9626 71.5378 39.913 71.5164 39.8685C71.495 39.8239 71.462 39.786 71.4207 39.7587C71.3735 39.7317 71.306 39.7587 71.2554 39.7115C71.1204 39.6271 71.0732 39.4517 70.9956 39.4146C70.9956 39.2425 70.9517 39.1176 70.9956 39.0029C71.0679 38.8793 71.1715 38.7769 71.2959 38.706C71.4173 38.6554 71.5422 38.706 71.613 38.5946C71.6237 38.59 71.6352 38.5876 71.6468 38.5876C71.6584 38.5876 71.6699 38.59 71.6805 38.5946C71.6805 38.6925 71.6063 38.7094 71.5996 38.7971C71.6164 38.9422 71.8357 38.8511 71.8594 38.986C71.883 39.121 71.7244 39.1649 71.721 39.2695C71.7176 39.3741 71.8897 39.5428 71.9673 39.6642C72.0449 39.7857 72.136 39.8228 72.19 39.9173C72.244 40.0118 72.2474 40.0961 72.2845 40.1366C72.3216 40.1771 72.5207 40.2277 72.5308 40.3425C72.5409 40.4572 72.3689 40.5517 72.3959 40.7204C72.2069 40.8891 71.8931 40.8013 71.5861 40.8452C71.4443 40.8655 71.2925 41.024 71.144 40.8924C71.1103 40.7878 71.2655 40.771 71.2824 40.6731C71.2992 40.5753 71.1677 40.5921 71.144 40.5145C71.1845 40.3931 71.3094 40.3661 71.2959 40.1771C71.3735 40.1063 71.5219 40.14 71.5422 40.0118Z" fill="#E0E0E0"/>
<path d="M70.5131 39.6339C70.6986 39.5057 71.0158 39.6035 71.036 39.7587C71.0563 39.9139 70.9382 39.8937 70.8977 40.0287C70.8572 40.1636 70.8977 40.2918 70.8572 40.3661C70.8167 40.4403 70.702 40.4336 70.6244 40.4606C70.4489 40.5213 70.1183 40.7541 69.9766 40.4943C69.9968 40.3526 70.1149 40.3256 70.1554 40.2109C70.1959 40.0961 70.0744 40.0691 70.0879 39.9747C70.1014 39.8802 70.1824 39.8971 70.2937 39.8465C70.4051 39.7958 70.4085 39.7081 70.5131 39.6339Z" fill="#E0E0E0"/>
<path d="M57.8629 35.2137C57.8899 35.352 57.5019 35.5511 57.4648 35.3554C57.4277 35.1597 57.7617 35.0315 57.8629 35.2137Z" fill="#E0E0E0"/>
<path d="M57.4075 70.6898H57.2017C57.2676 70.663 57.3415 70.663 57.4075 70.6898Z" fill="#E0E0E0"/>
<path d="M56.79 34.0969C56.7954 34.091 56.8019 34.0864 56.8092 34.0832C56.8165 34.08 56.8243 34.0784 56.8322 34.0784C56.8401 34.0784 56.848 34.08 56.8552 34.0832C56.8625 34.0864 56.869 34.091 56.8744 34.0969C56.8744 34.134 56.8474 34.1745 56.79 34.1576V34.0969Z" fill="#E0E0E0"/>
<path d="M55.5686 36.5971C55.5686 36.6848 55.2952 36.8299 55.2649 36.6612C55.2624 36.6372 55.2664 36.6129 55.2765 36.5909C55.2866 36.569 55.3024 36.5501 55.3222 36.5364C55.3931 36.4857 55.5652 36.5229 55.5686 36.5971Z" fill="#E0E0E0"/>
<path d="M49.8562 51.2208C49.8562 51.2444 49.8359 51.2612 49.8292 51.2849C49.6841 51.2781 49.8157 51.0622 49.8562 51.2208Z" fill="#E0E0E0"/>
<path d="M44.2818 40.2345C44.3762 40.1704 44.4707 40.3323 44.4032 40.4099C44.2986 40.4167 44.2716 40.275 44.2818 40.2345Z" fill="#E0E0E0"/>
<path d="M59.2499 40.8013C59.1858 40.7811 59.0981 40.8013 59.0137 40.771C58.9417 40.7504 58.8685 40.7346 58.7944 40.7237C58.6257 40.7001 58.457 40.7541 58.3422 40.6428C58.5173 40.3892 58.7149 40.152 58.9327 39.9342C58.9968 39.8701 59.1284 39.8262 59.0981 39.698C58.98 39.5833 58.8382 39.698 58.7269 39.779C58.6128 39.8704 58.4822 39.9391 58.3422 39.9814C58.1162 40.0219 57.8125 39.9072 57.6303 40.0455C57.6033 40.1636 57.8395 40.1198 57.8057 40.2986C57.7642 40.3131 57.7195 40.3164 57.6762 40.3081C57.633 40.2998 57.5927 40.2803 57.5594 40.2514C57.4953 40.1839 57.5324 40.086 57.4919 40.0455C57.3503 39.978 57.1913 39.9556 57.0364 39.9814C56.9664 39.9907 56.901 40.0218 56.8496 40.0702C56.7981 40.1186 56.7631 40.182 56.7496 40.2514C56.9217 40.3425 57.2085 40.1535 57.2726 40.3931C57.1748 40.5888 56.9521 40.6967 56.9824 40.9599C56.9918 41.0141 57.0142 41.0651 57.0477 41.1086C57.0812 41.1521 57.1248 41.1868 57.1748 41.2096C57.2524 41.2096 57.2929 41.1388 57.3671 41.1455C57.4413 41.1523 57.4278 41.2569 57.5189 41.2434C57.6505 41.1759 57.7248 40.9633 57.8766 40.9734C58.0588 41.2265 57.7113 41.3513 57.5189 41.4289C57.3266 41.5065 57.0128 41.5707 56.8441 41.6516C56.7564 41.6921 56.4257 42.0599 56.3785 41.7765C56.3447 41.5707 56.5438 41.6314 56.5843 41.4627C56.3717 41.4154 56.1726 41.5673 55.9803 41.6516C55.7036 41.7697 55.238 41.8473 55.1705 42.2016C55.1705 42.2725 55.1975 42.4075 55.1705 42.4547C55.1435 42.5019 54.9411 42.4986 54.8533 42.5323C54.7656 42.566 54.607 42.6943 54.5159 42.7213C54.4248 42.7482 54.3607 42.7212 54.3236 42.7516C54.2122 42.8022 54.1718 42.9709 54.0469 43.089C53.9963 43.1363 53.8816 43.17 53.8411 43.2173C53.8006 43.2645 53.7601 43.5007 53.6353 43.5311C53.5104 43.5614 53.4902 43.4636 53.4159 43.5311C53.4476 43.7549 53.4476 43.9821 53.4159 44.2059C53.2458 44.3539 53.0616 44.485 52.8659 44.5973C52.7512 44.6715 52.65 44.6918 52.5083 44.7727C52.3666 44.8537 52.3193 44.9617 52.208 45.0393C52.0453 45.1129 51.9057 45.2293 51.8041 45.3761C51.7025 45.5229 51.6426 45.6946 51.631 45.8727C51.631 45.9706 51.6749 46.0752 51.685 46.1899C51.685 46.254 51.685 46.3215 51.685 46.3924C51.7019 46.5577 51.8065 46.7669 51.685 46.8816C51.4994 46.7939 51.2666 46.7635 51.135 46.6151C51.1013 46.4565 51.2092 46.3316 51.1924 46.1899C51.1755 46.0482 51.0405 45.8727 50.9562 45.8525C50.8718 45.8322 50.7976 45.9368 50.7098 45.9301C50.6221 45.9233 50.5141 45.758 50.3724 45.7411C50.1767 45.7141 50.035 45.7918 49.8224 45.7411C49.6132 45.866 49.5525 46.0786 49.2994 46.0786C49.2117 46.0786 49.1274 45.9908 49.0261 45.9672C48.8966 45.9292 48.7629 45.9077 48.628 45.9031C48.3918 45.9233 48.2231 46.1157 48.024 46.2405C47.8249 46.3654 47.5955 46.4801 47.5415 46.6994C47.5145 46.8175 47.5415 46.9828 47.501 47.0908C47.4678 47.1615 47.4307 47.2302 47.3897 47.2966C47.1948 47.6688 47.1375 48.0977 47.2277 48.508C47.2877 48.6939 47.3657 48.8736 47.4605 49.0445C47.5674 49.1569 47.7065 49.2335 47.8587 49.2638C47.9657 49.2472 48.0708 49.22 48.1725 49.1828C48.2931 49.1719 48.4127 49.1516 48.5301 49.1221C48.8271 49.0141 48.7697 48.5518 49.0666 48.3966C49.2279 48.3297 49.4015 48.2976 49.5761 48.3021C49.6118 48.3429 49.6386 48.3907 49.6549 48.4424C49.6711 48.4941 49.6765 48.5486 49.6706 48.6024C49.6706 48.6834 49.5964 48.7543 49.5626 48.869C49.5289 48.9837 49.5221 49.0883 49.4918 49.1693C49.4614 49.2503 49.3602 49.3515 49.3264 49.4527C49.2927 49.554 49.3264 49.5978 49.2994 49.6552C49.2724 49.7125 49.1476 49.834 49.205 49.9386C49.4985 50.0736 49.8528 49.9015 50.1092 49.9386C50.2172 49.9622 50.4467 50.1107 50.4467 50.2997C50.4467 50.4886 50.3488 50.5392 50.3353 50.6944C50.3218 50.8496 50.2476 51.1331 50.2408 51.2917C50.2408 51.5548 50.5783 52.0036 50.8178 52.0002C51.0574 51.9969 51.2295 51.7033 51.5466 51.8585C51.6479 51.9091 51.7592 52.1048 51.8841 52.0947C52.0089 52.0846 52.1236 51.8956 52.1877 51.7573C52.2518 51.619 52.2687 51.4604 52.4071 51.3794C52.5454 51.2984 52.6702 51.3355 52.8592 51.2545C52.9436 51.2124 53.0219 51.159 53.092 51.096C53.1595 51.0453 53.2304 50.907 53.3113 51.0015C53.3923 51.096 53.1797 51.1972 53.2708 51.3389C53.4632 51.4536 53.561 51.123 53.696 51.1196C53.7973 51.1548 53.8911 51.2086 53.9727 51.2782C54.0806 51.3558 54.1144 51.4705 54.2325 51.4975C54.3506 51.5245 54.4282 51.4637 54.5362 51.4806C54.6441 51.4975 54.7589 51.6426 54.8736 51.6392C54.9883 51.6358 55.0659 51.4739 55.1773 51.4502C55.2193 51.4342 55.2641 51.4266 55.3091 51.4282C55.3541 51.4297 55.3984 51.4402 55.4392 51.459C55.4801 51.4779 55.5168 51.5047 55.5472 51.538C55.5775 51.5713 55.6009 51.6103 55.6159 51.6527C55.7374 51.6797 55.7408 51.4941 55.8487 51.5616C55.788 51.6966 55.869 51.7607 55.9196 51.8754C55.9702 51.9901 55.9432 52.0002 55.9736 52.034C56.0039 52.0677 56.1659 52.1048 56.2604 52.1723C56.3666 52.2825 56.4595 52.4048 56.5371 52.5367C56.6507 52.7035 56.8209 52.8234 57.0162 52.8742C57.168 52.8742 57.2895 52.8235 57.4143 52.8404C57.6737 52.8915 57.9101 53.0239 58.0892 53.2183C58.1971 53.3162 58.2984 53.3837 58.3355 53.5017C58.3726 53.6198 58.3355 53.6941 58.376 53.7852C58.4367 53.9809 58.6864 54.0754 58.5953 54.4162C58.6358 54.514 58.7303 54.5511 58.8281 54.6186C58.926 54.6861 58.9766 54.7941 59.0609 54.8076C59.116 54.8113 59.1712 54.8113 59.2263 54.8076C59.367 54.8281 59.5023 54.8763 59.6244 54.9493C59.7103 54.9733 59.7939 55.0049 59.8741 55.0437C59.9416 55.0977 59.9517 55.2799 60.0361 55.3272C60.1204 55.3744 60.2183 55.3272 60.3128 55.3272C60.4612 55.3474 60.6502 55.4487 60.7919 55.452C60.9336 55.4554 60.9404 55.4149 61.0112 55.4217C61.3486 55.452 61.541 55.9109 61.8649 56.0493C61.9661 56.0931 62.1247 56.0493 62.2023 56.0965C62.3238 56.1572 62.4284 56.5857 62.4385 56.7713C62.4655 57.3416 62.0808 57.5271 61.8615 57.9051C61.8143 57.9827 61.7873 58.1075 61.7232 58.2189C61.5916 58.4415 61.4431 58.4888 61.4634 58.8937C61.4634 59.005 61.5173 59.113 61.5173 59.2311C61.5178 59.395 61.5043 59.5587 61.4769 59.7204C61.4532 59.825 61.379 59.9093 61.3655 60.0038C61.352 60.0983 61.3891 60.1725 61.3655 60.2535C61.3289 60.3718 61.2779 60.4851 61.2137 60.5909C61.0888 60.8608 61.0618 61.1746 60.802 61.2657C60.6502 61.3298 60.4477 61.2961 60.2824 61.3602C60.2149 61.3872 60.1305 61.4581 60.0462 61.5019C59.81 61.6301 59.4692 61.8022 59.4017 62.0857C59.3343 62.3691 59.4827 62.5378 59.4422 62.8246C59.3947 62.9172 59.3406 63.0063 59.2803 63.0912C59.2195 63.1823 59.1892 63.2869 59.1284 63.3746C59.0677 63.4623 58.9158 63.5467 58.8686 63.712C58.8686 63.766 58.8686 63.8301 58.8382 63.9178C58.8382 63.9482 58.7809 63.9988 58.7573 64.0596C58.7336 64.1203 58.737 64.1878 58.7168 64.2316C58.6527 64.3767 58.4671 64.7074 58.3321 64.7513C58.0453 64.8424 57.745 64.6129 57.5493 64.6568C57.5763 64.8154 57.6775 64.7985 57.7416 64.9098C57.7728 64.9852 57.8089 65.0585 57.8496 65.1292C57.9137 65.2101 57.9677 65.2405 57.9745 65.335C57.9765 65.4215 57.9591 65.5073 57.9234 65.5862C57.8878 65.665 57.8349 65.7349 57.7686 65.7905C57.6448 65.8565 57.5098 65.8988 57.3705 65.9154C57.2692 65.9356 57.0061 65.9356 56.9588 66.0098C56.9116 66.0841 56.9959 66.3911 56.9588 66.4991C56.8542 66.7285 56.5809 66.4991 56.4358 66.5632C56.4286 66.618 56.435 66.6738 56.4544 66.7256C56.4739 66.7773 56.5057 66.8235 56.5472 66.8601C56.6315 66.9175 56.7631 66.8433 56.8205 66.9546C56.7935 67.1132 56.645 67.1334 56.6147 67.292C56.5843 67.4506 56.6585 67.481 56.6416 67.5754C56.6079 67.7779 56.3312 67.7712 56.3414 67.9837C56.3414 68.3211 56.8812 68.1761 56.888 68.4899C56.888 68.6788 56.7395 68.6822 56.6821 68.8678C56.6551 68.9656 56.699 68.9892 56.6821 69.0702C56.6653 69.1512 56.5472 69.2153 56.5472 69.3368C56.5472 69.4582 56.7395 69.6539 56.834 69.7788C56.9268 69.921 57.0405 70.0484 57.1714 70.1567C57.3637 70.2782 57.6505 70.2512 57.7349 70.4705C57.7079 70.6055 57.5965 70.6392 57.4852 70.6763H57.4582C57.3922 70.6495 57.3184 70.6495 57.2524 70.6763H57.0601C56.8778 70.5785 56.6551 70.5177 56.4291 70.4233C56.3481 70.3929 56.257 70.3119 56.1693 70.268C56.0815 70.2242 56.0275 70.2208 55.9769 70.1871C55.8588 70.1162 55.7239 69.8868 55.6058 69.7957C55.4877 69.7046 55.4202 69.7113 55.373 69.6539C55.3312 69.5775 55.294 69.4986 55.2616 69.4178C55.2177 69.3435 55.1368 69.2929 55.0828 69.2119C54.9595 69.0545 54.871 68.8728 54.823 68.6788C54.823 68.5506 54.9276 68.4662 54.8905 68.3414C54.8533 68.2165 54.6475 68.2537 54.6171 68.1187C54.5969 68.0377 54.6779 67.9027 54.6711 67.7813C54.6711 67.7172 54.5598 67.6261 54.6037 67.5316C54.6475 67.4371 54.7454 67.5316 54.823 67.4843C54.7656 67.2549 54.823 66.8905 54.6306 66.8095C54.5294 66.9074 54.7352 67.1267 54.5632 67.1874C54.3944 67.1031 54.4349 66.85 54.3978 66.6678C54.361 66.5496 54.3328 66.429 54.3135 66.3068C54.3186 66.2326 54.3186 66.1582 54.3135 66.0841C54.2865 65.8749 54.0806 65.6994 54.0672 65.4868C54.0823 65.3849 54.106 65.2845 54.138 65.1865C54.138 65.1123 54.138 65.0313 54.138 64.9503C54.138 64.8694 54.1954 64.7614 54.2055 64.6703C54.2192 64.4652 54.2101 64.2593 54.1785 64.0562C54.1088 63.8809 54.0491 63.7017 53.9997 63.5197C53.9997 63.4488 54.0199 63.3274 53.9997 63.2363C53.9794 63.1452 53.9524 63.0675 53.9457 62.9697C53.9471 62.8746 53.9561 62.7799 53.9727 62.6863C53.9727 62.4872 53.9389 62.2679 53.9457 62.0722C53.9457 62.0148 53.9727 61.9709 53.9727 61.9136C53.9727 61.7516 53.9221 61.5762 53.9153 61.4277C53.9324 61.1648 53.9324 60.901 53.9153 60.6381C53.896 60.4088 53.8508 60.1824 53.7803 59.9633C53.6434 59.7691 53.4704 59.603 53.2708 59.474C53.1764 59.4133 53.0617 59.3897 52.9571 59.3323C52.731 59.2075 52.2822 58.9409 52.2012 58.6879C52.1709 58.6136 52.1742 58.5158 52.1439 58.4348C52.0656 58.2756 51.9742 58.1233 51.8706 57.9793C51.7019 57.6824 51.5635 57.3044 51.3914 57.0008C51.3129 56.8438 51.225 56.6917 51.1282 56.5453C51.0743 56.4744 50.8921 56.4035 50.8684 56.2956C50.8149 56.1471 50.7776 55.9932 50.7571 55.8367C50.7773 55.6882 51.0338 55.5667 51.0338 55.4284C51.0338 55.2901 50.8954 55.2428 50.8684 55.145C50.7976 54.9054 50.9089 54.7637 50.9933 54.5612C51.0203 54.4971 51.0473 54.3925 51.0743 54.3419C51.1013 54.2913 51.2261 54.2306 51.2936 54.1395C51.3611 54.0484 51.3543 53.9775 51.4049 53.9033C51.5095 53.7413 51.6782 53.684 51.7187 53.5389C51.76 53.2411 51.76 52.9391 51.7187 52.6413C51.6951 52.53 51.604 52.4355 51.5703 52.3275C51.5062 52.1386 51.4927 51.9294 51.3206 51.9328C51.216 51.9328 51.1417 52.0711 51.0743 52.1555C51.0743 52.2668 51.0743 52.3883 50.9629 52.422C50.8077 52.476 50.747 52.2331 50.5681 52.1689C50.4939 52.1453 50.3792 52.1453 50.3319 52.1217C50.2003 52.0542 50.1565 51.8315 50.0181 51.7438C49.8798 51.6561 49.7988 51.6999 49.728 51.5886C49.7155 51.4832 49.7155 51.3768 49.728 51.2714C49.5795 51.1736 49.4513 50.7957 49.2758 50.7079C49.1577 50.6472 48.9823 50.6539 48.8372 50.5966C48.7749 50.5664 48.7106 50.5405 48.6448 50.519C48.5594 50.5077 48.4755 50.4861 48.3952 50.4549C48.1252 50.2997 47.9768 49.8003 47.6427 49.8104C47.4976 49.8104 47.3593 49.969 47.2311 49.9656C47.0502 49.9301 46.8775 49.8615 46.7216 49.7632C46.5529 49.6721 46.3841 49.6248 46.2256 49.5405C46.067 49.4561 46.0366 49.3549 45.9388 49.3043C45.8409 49.2537 45.7532 49.2604 45.6924 49.2267C45.5906 49.1545 45.4936 49.0756 45.4023 48.9905C45.2924 48.9171 45.2141 48.8051 45.1829 48.6767C45.1829 48.5518 45.2808 48.4472 45.2943 48.3393C45.2861 48.017 45.1586 47.7092 44.9366 47.4755C44.8253 47.3101 44.6903 47.1718 44.579 47.0166C44.5857 46.9436 44.5857 46.8702 44.579 46.7973C44.4885 46.677 44.4062 46.5507 44.3326 46.4193C44.2517 46.2911 44.0931 46.1562 44.0728 46.0111C44.0526 45.866 44.1302 45.6737 44.0728 45.5083C43.975 45.2215 43.6274 45.3497 43.6713 45.7276C43.6713 45.8322 43.813 45.9706 43.8501 46.0651C43.8873 46.1595 43.8839 46.2979 43.921 46.4261C43.9581 46.5543 44.0627 46.6522 44.0998 46.7871C44.1572 47.0031 44.1538 47.2359 44.2078 47.3709C44.2618 47.5058 44.4305 47.6037 44.3326 47.7488C44.2011 47.7791 44.1504 47.6307 44.0728 47.543C43.9952 47.4552 43.8636 47.4046 43.8366 47.2899C43.8097 47.1752 43.8906 47.0739 43.8636 46.9525C43.8198 46.7331 43.4284 46.7264 43.425 46.497C43.425 46.3552 43.5903 46.3384 43.5903 46.1967C43.5903 46.0549 43.4115 45.9166 43.371 45.7884C43.3385 45.6329 43.3204 45.4748 43.317 45.316C43.3181 45.1636 43.308 45.0114 43.2867 44.8605C43.2335 44.7322 43.143 44.6228 43.0268 44.5467C42.9087 44.4691 42.8109 44.4994 42.7535 44.3881C42.7027 44.257 42.6698 44.1197 42.6557 43.9798C42.6354 43.7909 42.6557 43.5817 42.6557 43.3826C42.6388 43.1782 42.6388 42.9728 42.6557 42.7685C42.7232 42.6167 42.848 42.539 42.9189 42.3906C42.9897 42.2421 42.9729 42.1544 43.0268 42.0532C43.1675 41.8423 43.3243 41.6426 43.4959 41.4559C43.6583 41.2505 43.7912 41.0234 43.8906 40.7811C43.9519 40.6587 43.9897 40.526 44.002 40.3897C44.002 40.2379 43.7354 40.113 43.7557 39.9308C43.7557 39.8195 43.9075 39.8228 43.948 39.7115C43.9721 39.6188 43.9857 39.5237 43.9885 39.4281C43.9628 39.2719 43.9493 39.1139 43.948 38.9557C43.9716 38.8173 44.1504 38.7633 44.056 38.6182C43.9615 38.4732 43.8029 38.6992 43.7186 38.6182C43.6342 38.5373 43.7186 38.4192 43.7455 38.2572C43.7455 38.1897 43.7118 38.1155 43.7186 38.0683C43.7253 38.021 43.8434 37.8793 43.813 37.8321C43.7388 37.7241 43.6544 37.4508 43.4959 37.3597C43.3373 37.2686 43.0775 37.3226 42.7974 37.2652C42.6253 37.2281 42.5443 37.0459 42.3858 37.0594C42.2879 37.0594 42.2305 37.1977 42.0956 37.2652C41.9523 37.3057 41.8054 37.3317 41.6569 37.3428C41.5253 37.3766 41.4646 37.4812 41.3195 37.4677C41.1744 37.4542 41.2082 37.3428 41.0732 37.3259C41.0226 37.3259 40.9247 37.3631 40.8404 37.3732C40.572 37.4136 40.299 37.4136 40.0306 37.3732C39.8425 37.3173 39.6623 37.238 39.4941 37.137C39.3321 37.0493 39.0284 36.9413 39.0419 36.7996C39.0554 36.6579 39.3287 36.6174 39.4401 36.5769C39.5757 36.5054 39.7181 36.4478 39.8652 36.4048C39.9192 36.4048 39.9867 36.4419 40.0576 36.4385C40.1284 36.4352 40.2162 36.3575 40.3039 36.3441C40.4962 36.3103 40.7661 36.3441 40.7425 36.1382C40.5974 36.0066 40.0036 36.2361 39.9901 35.9493C39.9901 35.7772 40.2128 35.7232 40.3882 35.6827C40.5611 35.6282 40.7403 35.5965 40.9214 35.5882C41.0799 35.5882 41.2858 35.7974 41.3769 35.5714C41.4207 35.4094 41.3229 35.2744 41.2925 35.1462C41.4106 34.9606 41.6299 34.9843 41.7885 34.9573C41.9689 34.9314 42.1441 34.8779 42.3081 34.7987C42.474 34.7218 42.6502 34.6695 42.8311 34.6435C43.0167 34.6131 43.1989 34.5355 43.3676 34.5152C43.5009 34.5137 43.6339 34.5035 43.7658 34.4849C43.8844 34.4359 44.0094 34.4041 44.1369 34.3904C44.2213 34.3904 44.2955 34.468 44.3833 34.4849C44.471 34.5018 44.5587 34.4849 44.6431 34.4849C44.7274 34.4849 44.7713 34.5524 44.8354 34.5625C44.8995 34.5726 45.0514 34.5625 45.1526 34.5625C45.2538 34.5625 45.3213 34.6435 45.4124 34.657C45.625 34.6873 45.8679 34.657 46.0872 34.6873C46.1648 34.6873 46.2323 34.7481 46.32 34.7683C46.4078 34.7886 46.4888 34.7683 46.5664 34.7683C46.644 34.7683 46.7654 34.9134 46.8835 34.9269C47.112 34.9075 47.3381 34.8657 47.5584 34.8021C47.7243 34.8023 47.89 34.7911 48.0544 34.7683C48.1976 34.7212 48.3443 34.6851 48.493 34.6603C48.5672 34.6603 48.6314 34.684 48.6988 34.6603C48.7663 34.6367 48.854 34.5524 48.9317 34.5659C49.0093 34.5794 49.016 34.7346 49.124 34.7717C49.2421 34.7008 49.3635 34.7717 49.4951 34.7717C49.6212 34.7419 49.7502 34.726 49.8798 34.7244C50.1295 34.7683 50.477 35.0619 50.6761 34.8965C50.7233 34.8594 50.7132 34.7919 50.7571 34.6941C50.8562 34.5502 50.9092 34.3795 50.9089 34.2048C50.6322 34.2048 50.3724 34.3634 50.0586 34.3769C49.7415 34.1508 50.143 34.0091 50.3724 33.9079C50.6019 33.8067 50.7098 33.6312 50.9494 33.5907C51.1624 33.5898 51.3746 33.617 51.5804 33.6717C51.6928 33.6657 51.8054 33.6657 51.9178 33.6717C52.0528 33.7189 52.1236 33.8708 52.235 33.9079C52.2822 33.9079 52.3598 33.9079 52.4273 33.9416C52.5488 33.972 52.6601 34.0462 52.785 33.9416C52.8794 33.9416 52.8929 34.0766 52.9908 34.0968C53.0819 34.0395 53.1494 33.8978 53.2911 33.8607C53.3518 33.8607 53.4159 33.8607 53.4834 33.8607C53.5509 33.8607 53.7432 33.6683 53.8208 33.8303C53.7905 33.9416 53.642 33.9619 53.5577 34.0496C53.468 34.1429 53.4071 34.2601 53.3822 34.387C53.3822 34.5355 53.5948 34.4781 53.6015 34.6705C53.5711 34.7784 53.4598 34.7312 53.3653 34.7784C53.2708 34.8257 53.2506 34.9168 53.1595 34.937C52.9098 34.991 52.704 34.8662 52.4847 34.8729C52.4847 34.9809 52.5926 35.045 52.65 35.0787C52.8446 35.1774 53.066 35.2106 53.281 35.1732C53.4227 35.1732 53.5846 35.2205 53.7061 35.126C53.8276 35.0315 53.7803 34.9336 53.8445 34.8594C53.8913 34.8079 53.9488 34.7671 54.0128 34.7398C54.0768 34.7124 54.146 34.6991 54.2156 34.7008C54.2522 34.7125 54.2852 34.7331 54.3117 34.7608C54.3383 34.7885 54.3574 34.8224 54.3675 34.8594C54.3675 35.0011 54.1886 34.9573 54.1886 35.1091C54.3033 35.1901 54.6104 35.0214 54.6273 34.8898C54.6441 34.7582 54.526 34.7379 54.5294 34.6367C54.5294 34.4748 54.7319 34.4748 54.7083 34.2993C54.6138 34.2149 54.5159 34.3195 54.4214 34.2993C54.327 34.2791 54.165 34.0901 54.1043 33.9619C54.165 33.8775 54.2899 33.9349 54.381 33.9619C54.4462 33.8802 54.5296 33.8149 54.6245 33.771C54.7193 33.7271 54.8231 33.7058 54.9276 33.7088C55.022 33.7088 55.1435 33.6582 55.1908 33.7561C55.238 33.8539 54.9984 33.9956 55.0389 34.1643C55.2245 34.2183 55.2852 33.9315 55.4371 33.8269C55.5189 33.776 55.606 33.7341 55.6969 33.7021C55.7812 33.665 55.8757 33.5739 55.9466 33.5739C56.0174 33.5739 56.0343 33.6481 56.1085 33.6852C56.1828 33.7223 56.2671 33.6616 56.2874 33.7628C56.1288 34.08 55.5349 33.8978 55.3831 34.2183C55.4168 34.4343 55.2886 34.6401 55.3831 34.7852C55.4776 34.9303 55.6294 34.8189 55.6699 34.9269C55.7104 35.0349 55.5046 35.072 55.5619 35.2441C55.707 35.3419 55.8791 35.1462 56.0141 35.0686C56.149 34.991 56.3515 34.8864 56.3515 34.6907C56.2772 34.5321 56.0141 34.657 55.9668 34.4883C55.9693 34.3677 56.0068 34.2504 56.0748 34.1508C56.2081 34.0189 56.3661 33.9147 56.5399 33.844C56.7136 33.7734 56.8995 33.7378 57.087 33.7392C57.1579 33.7392 57.2254 33.7965 57.2929 33.8033C57.5291 33.8303 57.8091 33.6886 57.9947 33.8033C58.1432 33.7054 58.3321 33.8033 58.5312 33.8033C58.6898 33.9146 58.6459 34.1407 58.8889 34.2453C58.953 34.2723 59.0339 34.2453 59.1217 34.2757C59.2094 34.306 59.2533 34.3803 59.3275 34.4174C59.4017 34.4545 59.5097 34.4613 59.5333 34.5456C59.5569 34.63 59.4557 34.6806 59.4625 34.7649C59.5232 34.8223 59.4625 34.9067 59.5063 34.9843C59.5637 35.1327 59.7155 35.1192 59.8438 35.1901C59.972 35.2609 60.1812 35.3892 60.1609 35.5039C60.1407 35.6186 59.9517 35.7198 59.8876 35.7569C59.7785 35.8266 59.6571 35.8747 59.5299 35.8987C59.3984 35.875 59.3477 35.5612 59.1723 35.5849C59.1507 35.5852 59.1294 35.5901 59.1098 35.5991C59.0902 35.6081 59.0726 35.6212 59.0584 35.6374C59.0441 35.6536 59.0333 35.6726 59.0268 35.6932C59.0203 35.7137 59.0181 35.7355 59.0205 35.7569C59.0205 35.9628 59.2229 35.9729 59.2263 36.1517C59.2296 36.3306 59.125 36.3778 58.9665 36.5128C58.8576 36.4426 58.7361 36.3945 58.6088 36.371C58.5211 36.4891 58.7539 36.533 58.6797 36.6848C58.457 36.7388 58.2883 36.614 58.0892 36.5431C58.0251 36.5229 57.934 36.5431 57.8834 36.4959C57.8327 36.4487 57.7821 36.2934 57.718 36.2125C57.6364 36.1003 57.5162 36.0222 57.3806 35.9931C57.2119 35.9931 56.9656 36.2361 56.8306 35.9931C56.9251 35.6321 57.3637 35.8987 57.6539 35.7704C57.7619 35.7232 57.799 35.5916 57.8901 35.5342C58.0656 35.4195 58.3557 35.4027 58.3287 35.1732C58.3287 35.0585 58.1735 35.0585 58.0959 35.0011C58.0183 34.9438 57.9036 34.6367 57.7585 34.6232C57.6775 34.6232 57.6235 34.6907 57.5392 34.7008C57.3604 34.7211 57.1646 34.6198 57.0027 34.7008C56.9285 34.7514 56.9791 34.829 56.9217 34.9201C56.8644 35.0113 56.7597 35.018 56.7159 35.0956C56.672 35.1732 56.672 35.2947 56.6045 35.3622C56.5371 35.4296 56.2671 35.4938 56.1085 35.5511C56.0478 35.5747 55.9668 35.6625 55.9027 35.6625C55.8386 35.6625 55.7408 35.487 55.6159 35.5511C55.6159 35.7198 55.7711 35.7873 55.8757 35.8649C56.0011 35.9348 56.0988 36.0456 56.1524 36.1787C56.0411 36.452 55.8622 36.1787 55.6834 36.1787C55.5046 36.1787 55.2043 36.6039 55.0389 36.2563C55.0794 36.0741 55.2582 36.0438 55.2987 35.8649C55.1064 35.902 54.9377 36.0876 54.7083 36.1483C54.6138 36.172 54.5193 36.1483 54.4349 36.1922C54.2696 36.2496 54.1549 36.3879 53.9828 36.4621C53.9153 36.4891 53.8343 36.4824 53.7635 36.5094C53.5763 36.5872 53.3967 36.6821 53.227 36.7928C53.0559 36.8899 52.8944 37.0029 52.7445 37.1302C52.6516 37.226 52.5813 37.3413 52.5387 37.4677C52.5387 37.5588 52.7006 37.5925 52.704 37.687C52.7074 37.7815 52.6163 37.8692 52.677 37.9535C52.7377 38.0379 52.8457 37.9535 52.9638 37.9873C53.1764 38.0143 53.3012 38.2133 53.4733 38.3247C53.6076 38.4125 53.7559 38.4764 53.9119 38.5136C54.1009 38.5406 54.3135 38.4495 54.3371 38.6216C54.3607 38.7937 54.1616 38.8477 54.1481 38.959C54.2494 39.1143 54.0773 39.1885 54.0773 39.3201C54.0835 39.3832 54.1074 39.4432 54.1462 39.4933C54.185 39.5434 54.2371 39.5816 54.2966 39.6035C54.3851 39.5918 54.4687 39.5565 54.5388 39.5013C54.6089 39.4461 54.6627 39.373 54.6948 39.2897C54.7656 39.1008 54.7352 38.8443 54.8601 38.706C55.5012 38.7296 56.041 38.3686 56.0006 37.6229C55.9829 37.5397 55.9739 37.4549 55.9736 37.3698C55.9938 37.2483 56.176 37.1471 56.1524 36.9919C56.3312 36.9278 56.3211 36.6005 56.5067 36.5499C56.6923 36.4993 56.8441 36.6781 57.0432 36.6612C57.1107 36.6612 57.195 36.587 57.2625 36.5971C57.3975 36.6207 57.4784 36.8097 57.5797 36.8974C57.6809 36.9851 57.7619 36.9514 57.7855 37.056C57.7585 37.2315 57.6505 37.2348 57.6607 37.3934C57.6681 37.4526 57.691 37.5087 57.7271 37.5562C57.7633 37.6036 57.8114 37.6406 57.8665 37.6634C57.9858 37.6659 58.1032 37.633 58.2039 37.5689C58.3895 37.4677 58.5413 37.1674 58.6999 37.2045C58.8585 37.2416 58.9158 37.6769 58.9327 37.8354C58.9496 37.994 58.9125 38.1357 58.9327 38.291C58.9496 38.5575 59.2398 38.5305 59.3849 38.6689C59.4287 38.7127 59.4456 38.8207 59.4827 38.8747C59.5502 38.9793 59.6346 38.9793 59.6447 39.094C59.6717 39.3673 59.4321 39.3909 59.4523 39.6912C59.4051 39.8093 59.2803 39.8026 59.2904 39.9612C59.2904 40.2075 59.6278 40.0185 59.702 40.2109C59.7459 40.3155 59.702 40.3931 59.6582 40.5483C59.7661 40.6934 59.7661 40.9262 59.5772 40.9262C59.395 40.9734 59.3646 40.8351 59.2499 40.8013ZM44.4035 40.3931C44.471 40.3155 44.3765 40.1535 44.282 40.2176C44.2719 40.275 44.2989 40.4167 44.4035 40.3931ZM53.9896 41.8237C53.9322 41.7596 53.7466 41.7799 53.6184 41.7934C53.4902 41.8068 53.4227 41.8237 53.4126 41.9013C53.5543 41.9789 53.9457 42.0329 53.9896 41.8237ZM53.2708 41.5572C53.2955 41.5341 53.3142 41.5054 53.3252 41.4735C53.3361 41.4415 53.3391 41.4074 53.3338 41.3741C53.3284 41.3407 53.315 41.3092 53.2946 41.2823C53.2742 41.2554 53.2475 41.2339 53.2169 41.2197C53.173 41.2197 53.1123 41.2569 53.038 41.2501C52.9638 41.2434 52.8828 41.1624 52.8187 41.1556C52.7697 41.152 52.7204 41.1603 52.6752 41.1796C52.63 41.199 52.5901 41.229 52.5589 41.267C52.5589 41.3615 52.6196 41.375 52.6129 41.4694C52.4779 41.5808 52.5488 41.9452 52.6804 41.9587C52.812 41.9722 52.8929 41.5538 53.0785 41.52C53.1494 41.5133 53.1865 41.5842 53.2708 41.5572ZM53.0785 42.1848C52.8862 42.1071 52.704 42.2387 52.5454 42.2657C52.4476 42.2657 52.2755 42.2421 52.2957 42.4075C52.316 42.5728 52.4948 42.4918 52.5994 42.4547C52.7781 42.4013 52.9429 42.3091 53.0819 42.1848H53.0785ZM52.4745 40.9903C52.7479 40.8553 52.4206 40.4437 52.2957 40.4066C52.073 40.3425 51.7592 40.5955 51.4994 40.6765C51.3543 40.7204 51.2194 40.7237 51.1856 40.8655C51.3138 41.1118 51.5703 40.8115 51.7626 40.8486C51.8571 40.8688 51.9144 41.0173 52.0089 41.0375C52.1664 41.0375 52.3235 41.0216 52.4779 40.9903H52.4745ZM52.2822 41.2434C52.2249 41.1658 51.9178 41.2434 51.8301 41.321C51.7423 41.3986 51.7289 41.4863 51.6647 41.574C51.6006 41.6618 51.5298 41.7326 51.4724 41.8102C51.415 41.8878 51.135 42.34 51.3644 42.3906C51.4555 42.4142 51.6479 42.1915 51.6647 42.1072C51.7022 41.8567 51.8352 41.6306 52.0359 41.4762C52.154 41.3986 52.2586 41.4087 52.2856 41.2467L52.2822 41.2434ZM50.5715 39.4787C50.7233 39.4787 50.8279 38.9523 50.5715 39.0232C50.3994 39.067 50.3556 39.4888 50.5715 39.4787ZM49.8292 51.2883C49.8292 51.2647 49.8494 51.2478 49.8562 51.2242C49.8157 51.0622 49.6841 51.2782 49.8292 51.2849V51.2883ZM44.0189 38.129C44.0189 38.0986 44.0189 38.0953 44.0189 38.0683C44.0189 38.0413 43.9311 38.0683 43.9379 38.1155C43.9434 38.1208 43.95 38.125 43.9573 38.1275C43.9645 38.1301 43.9722 38.1311 43.9799 38.1305C43.9876 38.1299 43.995 38.1276 44.0017 38.1238C44.0084 38.1201 44.0143 38.1149 44.0189 38.1087V38.129ZM58.4536 35.6591C58.5211 35.6591 58.5582 35.6591 58.5481 35.5646C58.5368 35.5594 58.5243 35.5574 58.5119 35.5589C58.4996 35.5603 58.4879 35.5652 58.4781 35.5728C58.4683 35.5805 58.4609 35.5907 58.4566 35.6024C58.4522 35.614 58.4512 35.6267 58.4536 35.6388V35.6591ZM56.8745 34.1171C56.8691 34.1113 56.8626 34.1066 56.8553 34.1034C56.8481 34.1003 56.8402 34.0986 56.8323 34.0986C56.8244 34.0986 56.8165 34.1003 56.8093 34.1034C56.802 34.1066 56.7955 34.1113 56.7901 34.1171V34.161C56.8475 34.161 56.861 34.134 56.8745 34.0968V34.1171ZM51.6546 35.3082C51.7019 35.2744 51.7727 35.2272 51.739 35.1496C51.5871 35.0686 51.3307 35.1327 51.1046 35.1024C50.9798 34.8965 50.7672 34.8662 50.7503 35.1968C51.0034 35.4364 51.3914 35.0855 51.6546 35.3082ZM49.1982 36.9278C49.2758 36.8974 49.3838 36.9278 49.404 36.8198C49.3399 36.7591 49.2724 36.6815 49.1982 36.6781C49.124 36.6747 49.0498 36.7759 48.9485 36.8333C48.8473 36.8907 48.6718 36.921 48.6617 37.0391C48.8478 37.06 49.0358 37.021 49.1982 36.9278ZM49.1274 35.7974C49.2151 35.7772 49.3062 35.8244 49.3635 35.7333C49.2961 35.3959 48.8777 35.5984 48.6347 35.622C48.5674 35.7172 48.5204 35.8251 48.4964 35.9391C48.6853 35.9931 48.9148 35.848 49.1274 35.7974ZM53.2472 51.8821C53.3552 51.8619 53.3248 51.5751 53.1932 51.646C53.0617 51.7168 53.146 51.899 53.2472 51.8821Z" fill="#E0E0E0"/>
<path d="M44.0051 38.048C44.0051 38.075 44.022 38.0783 44.0051 38.1087C44.0005 38.1172 43.9936 38.1242 43.9853 38.1291C43.977 38.134 43.9675 38.1366 43.9579 38.1366C43.9482 38.1366 43.9388 38.134 43.9305 38.1291C43.9222 38.1242 43.9153 38.1172 43.9106 38.1087C43.9174 38.0379 43.9646 38.0446 44.0051 38.048Z" fill="#E0E0E0"/>
<path d="M43.5938 38.9759C43.5782 39.02 43.5528 39.0599 43.5195 39.0926C43.4861 39.1254 43.4458 39.1501 43.4015 39.1649C43.3754 39.141 43.3527 39.1138 43.334 39.0839C43.3407 38.9354 43.5263 38.8274 43.5938 38.9759Z" fill="#E0E0E0"/>
<path d="M52.8829 29.3055H38.2491C37.8354 29.3055 37.5 29.6409 37.5 30.0545V30.3346C37.5 30.7483 37.8354 31.0837 38.2491 31.0837H52.8829C53.2966 31.0837 53.632 30.7483 53.632 30.3346V30.0545C53.632 29.6409 53.2966 29.3055 52.8829 29.3055Z" fill="#9BB0C6"/>
<path d="M55.6026 55.5498C55.6026 55.6757 55.5653 55.7987 55.4956 55.9034C55.4258 56.0082 55.3266 56.0899 55.2104 56.1384C55.0943 56.1868 54.9664 56.1998 54.8429 56.1758C54.7194 56.1517 54.6058 56.0916 54.5163 56.0031C54.4269 55.9146 54.3656 55.8016 54.3402 55.6783C54.3149 55.5551 54.3265 55.4271 54.3738 55.3104C54.421 55.1938 54.5017 55.0937 54.6057 55.0229C54.7097 54.952 54.8323 54.9135 54.9581 54.9121C55.0426 54.9108 55.1264 54.9263 55.2048 54.9578C55.2831 54.9893 55.3544 55.0361 55.4144 55.0955C55.4745 55.1549 55.522 55.2257 55.5543 55.3037C55.5866 55.3817 55.603 55.4654 55.6026 55.5498Z" fill="#455A64"/>
<path d="M73.2056 51.0318C73.5578 51.0318 73.8433 50.7463 73.8433 50.3941C73.8433 50.0419 73.5578 49.7564 73.2056 49.7564C72.8534 49.7564 72.5679 50.0419 72.5679 50.3941C72.5679 50.7463 72.8534 51.0318 73.2056 51.0318Z" fill="#9BB0C6"/>
<path d="M100.992 42.0025C100.992 42.1287 100.954 42.252 100.884 42.3568C100.814 42.4617 100.715 42.5434 100.598 42.5917C100.482 42.64 100.353 42.6526 100.23 42.628C100.106 42.6034 99.9923 42.5426 99.9031 42.4535C99.8139 42.3643 99.7532 42.2506 99.7286 42.1269C99.704 42.0032 99.7166 41.875 99.7649 41.7585C99.8131 41.642 99.8949 41.5424 99.9997 41.4723C100.105 41.4022 100.228 41.3648 100.354 41.3648C100.523 41.3648 100.685 41.432 100.805 41.5516C100.925 41.6712 100.992 41.8334 100.992 42.0025Z" fill="#9BB0C6"/>
<path d="M86.9382 45.6635C86.9382 45.8258 86.89 45.9845 86.7998 46.1194C86.7095 46.2543 86.5813 46.3594 86.4312 46.4213C86.2812 46.4833 86.1162 46.4993 85.9571 46.4674C85.7979 46.4355 85.6518 46.3571 85.5373 46.2421C85.4228 46.1271 85.3449 45.9806 85.3137 45.8214C85.2824 45.6621 85.2991 45.4971 85.3617 45.3474C85.4243 45.1976 85.5299 45.0698 85.6652 44.9801C85.8005 44.8904 85.9593 44.8429 86.1216 44.8436C86.2291 44.8436 86.3356 44.8648 86.4349 44.906C86.5342 44.9473 86.6244 45.0077 86.7002 45.0839C86.7761 45.1601 86.8362 45.2505 86.877 45.35C86.9178 45.4494 86.9386 45.556 86.9382 45.6635Z" fill="#9BB0C6"/>
<path d="M74.4064 41.6347C74.4064 41.7897 74.3604 41.9412 74.2743 42.07C74.1881 42.1988 74.0657 42.2991 73.9224 42.3583C73.7792 42.4174 73.6216 42.4327 73.4697 42.4023C73.3177 42.3718 73.1782 42.2969 73.0689 42.1871C72.9596 42.0773 72.8853 41.9375 72.8555 41.7854C72.8256 41.6333 72.8416 41.4758 72.9014 41.3328C72.9611 41.1899 73.062 41.0678 73.1912 40.9822C73.3204 40.8966 73.472 40.8513 73.627 40.8519C73.7296 40.8519 73.8313 40.8722 73.9261 40.9116C74.0208 40.951 74.1069 41.0087 74.1793 41.0814C74.2518 41.1542 74.3091 41.2405 74.3481 41.3354C74.3871 41.4304 74.4069 41.5321 74.4064 41.6347Z" fill="#9BB0C6"/>
<path d="M47.9194 40.9093C48.01 41.0439 48.0587 41.2023 48.0593 41.3645C48.0598 41.5267 48.0123 41.6854 47.9226 41.8206C47.8329 41.9558 47.7052 42.0613 47.5555 42.1239C47.4058 42.1864 47.241 42.2032 47.0818 42.172C46.9226 42.1408 46.7762 42.0631 46.6612 41.9487C46.5462 41.8343 46.4677 41.6884 46.4356 41.5294C46.4035 41.3704 46.4194 41.2054 46.4811 41.0554C46.5428 40.9054 46.6476 40.777 46.7823 40.6866C46.9627 40.5655 47.1837 40.521 47.3969 40.5627C47.6101 40.6045 47.7981 40.7291 47.9194 40.9093Z" fill="#9BB0C6"/>
<path d="M59.2261 57.8814C59.3167 58.016 59.3654 58.1744 59.3659 58.3366C59.3665 58.4988 59.3189 58.6575 59.2292 58.7927C59.1396 58.9279 59.0118 59.0334 58.8621 59.096C58.7125 59.1585 58.5476 59.1753 58.3884 59.1441C58.2292 59.1129 58.0829 59.0352 57.9678 58.9208C57.8528 58.8065 57.7743 58.6605 57.7422 58.5015C57.7102 58.3425 57.726 58.1775 57.7877 58.0275C57.8495 57.8775 57.9543 57.7492 58.089 57.6587C58.2693 57.5376 58.4904 57.4931 58.7036 57.5348C58.9168 57.5766 59.1047 57.7012 59.2261 57.8814Z" fill="#9BB0C6"/>
<path d="M85.6631 39.4516C85.6631 39.5779 85.6256 39.7013 85.5554 39.8063C85.4852 39.9112 85.3854 39.993 85.2687 40.0411C85.1519 40.0893 85.0236 40.1017 84.8998 40.0768C84.776 40.052 84.6623 39.9909 84.5733 39.9014C84.4842 39.8118 84.4238 39.6979 84.3995 39.574C84.3753 39.45 84.3884 39.3217 84.4372 39.2052C84.486 39.0888 84.5683 38.9894 84.6736 38.9197C84.7789 38.8501 84.9025 38.8132 85.0288 38.8139C85.1124 38.8139 85.1951 38.8304 85.2723 38.8625C85.3495 38.8946 85.4196 38.9416 85.4785 39.0009C85.5375 39.0602 85.5841 39.1305 85.6158 39.2078C85.6475 39.2852 85.6636 39.368 85.6631 39.4516Z" fill="#9BB0C6"/>
<path d="M91.2134 42.9642C91.5656 42.9642 91.8511 42.6786 91.8511 42.3264C91.8511 41.9742 91.5656 41.6887 91.2134 41.6887C90.8612 41.6887 90.5757 41.9742 90.5757 42.3264C90.5757 42.6786 90.8612 42.9642 91.2134 42.9642Z" fill="#455A64"/>
<path d="M98.0697 38.1559C98.0697 38.2355 98.046 38.3133 98.0017 38.3794C97.9575 38.4455 97.8946 38.4969 97.821 38.5272C97.7474 38.5575 97.6665 38.5653 97.5885 38.5495C97.5106 38.5337 97.439 38.4951 97.383 38.4386C97.327 38.3822 97.289 38.3103 97.2739 38.2322C97.2588 38.1541 97.2672 38.0732 97.2981 37.9999C97.3291 37.9266 97.381 37.8641 97.4475 37.8204C97.514 37.7767 97.5919 37.7537 97.6715 37.7544C97.7774 37.7553 97.8787 37.798 97.9532 37.8732C98.0278 37.9484 98.0697 38.05 98.0697 38.1559Z" fill="#455A64"/>
<path d="M77.6662 52.7695C77.8879 52.7695 78.0677 52.5898 78.0677 52.368C78.0677 52.1463 77.8879 51.9665 77.6662 51.9665C77.4444 51.9665 77.2646 52.1463 77.2646 52.368C77.2646 52.5898 77.4444 52.7695 77.6662 52.7695Z" fill="#455A64"/>
<path d="M75.2635 38.0446C75.2635 38.1511 75.2212 38.2532 75.1459 38.3285C75.0706 38.4038 74.9685 38.4461 74.862 38.4461C74.7555 38.4461 74.6534 38.4038 74.5781 38.3285C74.5028 38.2532 74.4604 38.1511 74.4604 38.0446C74.4604 37.9381 74.5028 37.836 74.5781 37.7607C74.6534 37.6854 74.7555 37.6431 74.862 37.6431C74.9685 37.6431 75.0706 37.6854 75.1459 37.7607C75.2212 37.836 75.2635 37.9381 75.2635 38.0446Z" fill="#455A64"/>
<path d="M76.1815 41.3648C76.1815 41.4713 76.1392 41.5734 76.0639 41.6487C75.9886 41.724 75.8864 41.7663 75.7799 41.7663C75.6735 41.7663 75.5713 41.724 75.496 41.6487C75.4207 41.5734 75.3784 41.4713 75.3784 41.3648C75.3784 41.2583 75.4207 41.1562 75.496 41.0809C75.5713 41.0056 75.6735 40.9633 75.7799 40.9633C75.8864 40.9633 75.9886 41.0056 76.0639 41.0809C76.1392 41.1562 76.1815 41.2583 76.1815 41.3648Z" fill="#455A64"/>
<path d="M46.6741 46.1022C46.6741 46.1816 46.6506 46.2592 46.6065 46.3252C46.5624 46.3913 46.4996 46.4427 46.4263 46.4731C46.3529 46.5035 46.2722 46.5115 46.1943 46.496C46.1164 46.4805 46.0449 46.4422 45.9887 46.3861C45.9325 46.3299 45.8943 46.2584 45.8788 46.1805C45.8633 46.1026 45.8713 46.0219 45.9017 45.9485C45.932 45.8751 45.9835 45.8124 46.0495 45.7683C46.1156 45.7242 46.1932 45.7006 46.2726 45.7006C46.3791 45.7006 46.4812 45.7429 46.5565 45.8182C46.6318 45.8935 46.6741 45.9957 46.6741 46.1022Z" fill="#455A64"/>
<path d="M71.4373 43.8212C71.4373 43.9006 71.4138 43.9783 71.3697 44.0443C71.3255 44.1103 71.2628 44.1618 71.1895 44.1922C71.1161 44.2226 71.0354 44.2305 70.9575 44.215C70.8796 44.1995 70.808 44.1613 70.7519 44.1051C70.6957 44.049 70.6575 43.9774 70.642 43.8995C70.6265 43.8217 70.6345 43.7409 70.6648 43.6675C70.6952 43.5942 70.7467 43.5315 70.8127 43.4873C70.8788 43.4432 70.9564 43.4197 71.0358 43.4197C71.1423 43.4197 71.2444 43.462 71.3197 43.5373C71.395 43.6126 71.4373 43.7147 71.4373 43.8212Z" fill="#455A64"/>
<path d="M51.0809 44.4724C51.0809 44.5519 51.0573 44.6295 51.0132 44.6955C50.9691 44.7616 50.9064 44.813 50.833 44.8434C50.7596 44.8738 50.6789 44.8818 50.601 44.8663C50.5231 44.8508 50.4516 44.8125 50.3954 44.7564C50.3393 44.7002 50.301 44.6287 50.2855 44.5508C50.2701 44.4729 50.278 44.3922 50.3084 44.3188C50.3388 44.2454 50.3903 44.1827 50.4563 44.1386C50.5223 44.0945 50.5999 44.0709 50.6794 44.0709C50.7859 44.0709 50.888 44.1132 50.9633 44.1885C51.0386 44.2638 51.0809 44.366 51.0809 44.4724Z" fill="#455A64"/>
<path d="M104.208 63.496C104.748 63.496 105.186 63.0579 105.186 62.5175C105.186 61.9771 104.748 61.539 104.208 61.539C103.667 61.539 103.229 61.9771 103.229 62.5175C103.229 63.0579 103.667 63.496 104.208 63.496Z" fill="#9BB0C6"/>
<path d="M57.8936 63.054C57.8936 63.1803 57.8561 63.3037 57.7859 63.4087C57.7157 63.5136 57.6159 63.5954 57.4991 63.6435C57.3824 63.6917 57.254 63.7041 57.1302 63.6793C57.0064 63.6544 56.8928 63.5933 56.8038 63.5038C56.7147 63.4143 56.6542 63.3003 56.63 63.1764C56.6058 63.0525 56.6189 62.9241 56.6677 62.8077C56.7165 62.6912 56.7987 62.5918 56.904 62.5222C57.0094 62.4525 57.133 62.4157 57.2593 62.4163C57.4278 62.4172 57.5891 62.4848 57.708 62.6043C57.8269 62.7238 57.8936 62.8855 57.8936 63.054Z" fill="#263238"/>
<path d="M106.775 30.5404C106.775 30.5877 96.0282 30.6282 82.7744 30.6282C69.5206 30.6282 58.7705 30.5877 58.7705 30.5404C58.7705 30.4932 69.5173 30.4493 82.7744 30.4493C96.0316 30.4493 106.775 30.4898 106.775 30.5404Z" fill="#263238"/>
<path d="M107.028 79.3513C107.027 79.5126 106.979 79.6702 106.889 79.804C106.799 79.9379 106.671 80.042 106.522 80.1033C106.372 80.1646 106.208 80.1803 106.05 80.1484C105.892 80.1165 105.747 80.0385 105.633 79.9241C105.519 79.8098 105.442 79.6643 105.41 79.506C105.379 79.3477 105.396 79.1837 105.458 79.0347C105.519 78.8857 105.624 78.7583 105.758 78.6688C105.892 78.5792 106.05 78.5314 106.212 78.5314C106.319 78.5314 106.426 78.5526 106.525 78.5939C106.624 78.6351 106.714 78.6955 106.79 78.7717C106.866 78.8479 106.926 78.9383 106.967 79.0378C107.008 79.1372 107.029 79.2438 107.028 79.3513Z" fill="#9BB0C6"/>
<path d="M106.212 83.8525C106.663 83.8525 107.028 83.4869 107.028 83.0359C107.028 82.5849 106.663 82.2194 106.212 82.2194C105.761 82.2194 105.395 82.5849 105.395 83.0359C105.395 83.4869 105.761 83.8525 106.212 83.8525Z" fill="#E0E0E0"/>
<path d="M107.028 86.653C107.028 86.8145 106.98 86.9724 106.891 87.1067C106.801 87.241 106.673 87.3456 106.524 87.4074C106.375 87.4692 106.211 87.4854 106.052 87.4539C105.894 87.4224 105.748 87.3446 105.634 87.2304C105.52 87.1162 105.442 86.9707 105.411 86.8123C105.379 86.6539 105.395 86.4898 105.457 86.3406C105.519 86.1914 105.624 86.0638 105.758 85.9741C105.892 85.8844 106.05 85.8365 106.212 85.8365C106.428 85.8365 106.636 85.9225 106.789 86.0756C106.942 86.2288 107.028 86.4365 107.028 86.653Z" fill="#455A64"/>
<path d="M107.028 90.2229C107.027 90.3842 106.979 90.5418 106.889 90.6756C106.799 90.8094 106.671 90.9136 106.522 90.9749C106.372 91.0361 106.208 91.0518 106.05 91.02C105.892 90.9881 105.747 90.91 105.633 90.7957C105.519 90.6814 105.442 90.5359 105.41 90.3776C105.379 90.2193 105.396 90.0553 105.458 89.9062C105.519 89.7572 105.624 89.6299 105.758 89.5403C105.892 89.4508 106.05 89.403 106.212 89.403C106.319 89.403 106.426 89.4242 106.525 89.4654C106.624 89.5067 106.714 89.5671 106.79 89.6433C106.866 89.7195 106.926 89.8099 106.967 89.9094C107.008 90.0088 107.029 90.1154 107.028 90.2229Z" fill="#263238"/>
<path d="M113.749 79.3985C112.268 79.5155 110.78 79.5155 109.299 79.3985C110.78 79.2815 112.268 79.2815 113.749 79.3985Z" fill="#263238"/>
<path d="M113.749 83.0359C112.268 83.1529 110.78 83.1529 109.299 83.0359C110.78 82.9189 112.268 82.9189 113.749 83.0359Z" fill="#263238"/>
<path d="M113.749 86.6733C112.268 86.7903 110.78 86.7903 109.299 86.6733C110.78 86.5563 112.268 86.5563 113.749 86.6733Z" fill="#263238"/>
<path d="M113.749 90.3106C112.268 90.4276 110.78 90.4276 109.299 90.3106C110.78 90.1937 112.268 90.1937 113.749 90.3106Z" fill="#263238"/>
<path d="M120.896 25.6917H30.6638C30.5277 25.6922 30.3928 25.6657 30.2669 25.6138C30.141 25.5619 30.0266 25.4856 29.9303 25.3893C29.8341 25.2931 29.7578 25.1787 29.7059 25.0528C29.654 24.9269 29.6275 24.792 29.6279 24.6559C29.6275 24.5197 29.654 24.3848 29.7059 24.2589C29.7578 24.1331 29.8341 24.0187 29.9303 23.9224C30.0266 23.8261 30.141 23.7498 30.2669 23.6979C30.3928 23.646 30.5277 23.6196 30.6638 23.62H120.896C121.032 23.62 121.167 23.6468 121.293 23.6989C121.418 23.7509 121.532 23.8272 121.629 23.9234C121.725 24.0196 121.801 24.1338 121.853 24.2595C121.905 24.3851 121.932 24.5198 121.932 24.6559C121.932 24.9306 121.823 25.1941 121.629 25.3883C121.434 25.5826 121.171 25.6917 120.896 25.6917Z" fill="#263238"/>
<defs>
<filter id="filter0_b_26_1149" x="-86.4127" y="-86.4127" width="332.825" height="273.825" filterUnits="userSpaceOnUse" color-interpolation-filters="sRGB">
<feFlood flood-opacity="0" result="BackgroundImageFix"/>
<feGaussianBlur in="BackgroundImageFix" stdDeviation="43.2064"/>
<feComposite in2="SourceAlpha" operator="in" result="effect1_backgroundBlur_26_1149"/>
<feBlend mode="normal" in="SourceGraphic" in2="effect1_backgroundBlur_26_1149" result="shape"/>
</filter>
<filter id="filter1_b_26_1149" x="-66.4127" y="-66.4127" width="332.825" height="273.825" filterUnits="userSpaceOnUse" color-interpolation-filters="sRGB">
<feFlood flood-opacity="0" result="BackgroundImageFix"/>
<feGaussianBlur in="BackgroundImageFix" stdDeviation="43.2064"/>
<feComposite in2="SourceAlpha" operator="in" result="effect1_backgroundBlur_26_1149"/>
<feBlend mode="normal" in="SourceGraphic" in2="effect1_backgroundBlur_26_1149" result="shape"/>
</filter>
</defs>
</svg>
