<svg xmlns="http://www.w3.org/2000/svg" width="80" height="80" viewBox="0 0 80 80" fill="none" transform="matrix(1, 0, 0, 1, 0, 0)">
<path d="M55.111 24.9447L54.6851 25.3706L40.2036 39.8521L39.5184 40.5373L31.2221 48.8336C31.2036 48.8521 31.1851 48.8706 31.1851 48.8706C30.9814 48.7039 30.5184 48.3891 30.648 48.2595L31.4258 47.4817L39.2962 39.6113L39.9814 38.9262L54.111 24.7965L54.5369 24.3706C54.7036 24.2039 54.9628 24.2039 55.111 24.3706C55.2591 24.5373 55.2591 24.7965 55.111 24.9447Z" fill="#ffffff"/>
<path d="M31.2032 49.3708L30.8513 49.093C30.4995 48.8153 30.2588 48.6116 30.2402 48.3338C30.2402 48.2042 30.2773 48.0745 30.3699 47.9819L54.2588 24.093C54.5736 23.7782 55.0736 23.7782 55.3884 24.093C55.5365 24.2412 55.6291 24.4449 55.6291 24.6486C55.6291 24.8708 55.555 25.056 55.3884 25.2042L31.4995 49.093C31.481 49.1116 31.4625 49.1301 31.4439 49.1486L31.2032 49.3708ZM31.1106 48.3153C31.1291 48.3338 31.1291 48.3338 31.1476 48.3523L54.8143 24.6856C54.8328 24.6671 54.8328 24.6671 54.8143 24.6486C54.7958 24.6301 54.7773 24.6301 54.7773 24.6486L31.1106 48.3153Z" fill="#ffffff"/>
<path d="M58.2591 21.2227L55.3887 28.056L54.5554 24.9264L51.4258 24.093L58.2591 21.2227Z" fill="#ffffff"/>
<path d="M55.3143 29.241L54.2588 25.2225L50.2402 24.1669L58.981 20.5002L55.3143 29.241ZM52.6106 24.0002L54.8699 24.5928L55.4625 26.8521L57.5365 21.9262L52.6106 24.0002Z" fill="#ffffff"/>
<path d="M27.2969 39.963C27.1673 39.963 27.0562 39.9445 26.9265 39.9445C26.6858 39.9259 26.4265 39.8704 26.1673 39.7963L26.1117 39.7778C24.5006 39.3333 23.6673 38.2778 23.834 36.963L25.3154 37.3704C25.334 37.9074 25.5932 38.3519 26.0562 38.6111C26.1858 38.6852 26.334 38.7408 26.5006 38.7778C26.6488 38.8148 26.7969 38.8519 26.9451 38.8519C26.9821 38.8519 27.0006 38.8519 27.0377 38.8519C27.5932 38.8704 27.9636 38.5926 28.1117 38.0741C28.2784 37.4815 28.0562 37.0741 27.334 36.5741C27.2228 36.5 27.0747 36.4074 26.9265 36.3148C26.7969 36.2408 26.6858 36.1667 26.5747 36.0926C24.9265 35 24.7414 34.1667 25.0006 33.2408C25.2784 32.2222 26.1488 31.6296 27.3154 31.6667C27.6117 31.6667 27.908 31.7222 28.2043 31.7963C28.2414 31.7963 28.3525 31.8333 28.3525 31.8333C28.6303 31.9074 28.8895 32.0185 29.1117 32.1296C30.334 32.7408 30.5191 33.7037 30.4265 34.4445L28.9451 34.037C28.9451 33.7778 28.908 33.4074 28.5562 33.1296C28.3895 33 28.1858 32.8889 27.908 32.8148C27.8525 32.7963 27.7784 32.7778 27.7228 32.7778C27.6488 32.7593 27.5562 32.7593 27.4821 32.7593C26.9821 32.7593 26.6303 33.0185 26.5006 33.4815C26.3895 33.9074 26.5006 34.2222 26.9265 34.5741C27.0932 34.7037 27.3154 34.8704 27.6488 35.0741L27.7043 35.1111C27.7599 35.1482 27.7969 35.1667 27.8525 35.2037C29.4636 36.1482 29.9451 37.0185 29.6117 38.2778C29.2599 39.6852 28.1673 39.963 27.2969 39.963Z" fill="#ffffff"/>
<path d="M27.371 39.9999C27.3525 39.9999 27.334 39.9999 27.297 39.9999C27.1673 39.9999 27.0377 39.9813 26.9081 39.9813C26.6673 39.9628 26.4081 39.9073 26.1488 39.8332L26.1118 39.8147C24.4821 39.3517 23.6303 38.2776 23.797 36.9443V36.8887L25.371 37.3147V37.3517C25.3895 37.8702 25.6303 38.2962 26.0933 38.5554C26.2229 38.6295 26.371 38.685 26.5192 38.7221C26.6673 38.7591 26.8155 38.7962 26.9451 38.7962C26.9821 38.7962 27.0007 38.7962 27.0377 38.7962C27.5562 38.8147 27.9266 38.5369 28.0562 38.0554C28.2044 37.4813 28.0007 37.0924 27.297 36.611C27.1673 36.5184 27.0377 36.4443 26.8895 36.3517C26.7599 36.2776 26.6488 36.2036 26.5377 36.1295C24.8525 35.0184 24.6858 34.1665 24.9266 33.2221C25.2044 32.185 26.0933 31.5739 27.297 31.611C27.5933 31.611 27.8895 31.6665 28.2044 31.7406C28.2414 31.7406 28.3525 31.7776 28.3525 31.7776C28.6303 31.8517 28.8895 31.9628 29.1303 32.0739C30.4081 32.7221 30.5747 33.7221 30.4821 34.4443V34.4999L28.9081 34.0739V34.0369C28.9081 33.7962 28.871 33.4258 28.5377 33.1665C28.3895 33.0369 28.1673 32.9258 27.9081 32.8517C27.8525 32.8332 27.797 32.8147 27.7414 32.8147C27.6673 32.7962 27.5933 32.7962 27.5192 32.7962H27.5007C27.0377 32.7962 26.7044 33.0554 26.5933 33.4813C26.4821 33.9073 26.5933 34.185 27.0007 34.5184C27.1673 34.648 27.3895 34.8147 27.7229 35.0184L27.7784 35.0554C27.834 35.0925 27.871 35.111 27.9266 35.148C29.5562 36.111 30.0562 36.9813 29.7229 38.2776C29.3155 39.7036 28.2414 39.9999 27.371 39.9999ZM27.3155 39.9073C28.1488 39.9258 29.2229 39.648 29.6118 38.2776C29.9451 37.0554 29.4451 36.2036 27.871 35.2776C27.8155 35.2406 27.7784 35.2221 27.7229 35.185L27.6673 35.148C27.334 34.9443 27.1118 34.7776 26.9451 34.648C26.5007 34.2776 26.3895 33.9443 26.5007 33.4999C26.6303 33.0184 27.0007 32.7406 27.5192 32.7406H27.5377C27.6118 32.7406 27.7044 32.7591 27.7784 32.7591C27.8525 32.7776 27.9081 32.7776 27.9636 32.7962C28.2414 32.8702 28.4636 32.9813 28.6303 33.1295C28.9636 33.4073 29.0192 33.7776 29.0377 34.0369L30.4266 34.4073C30.5007 33.7221 30.3155 32.8147 29.1303 32.2036C28.9081 32.0924 28.6488 31.9813 28.371 31.9073C28.371 31.9073 28.2414 31.8702 28.2229 31.8702C27.9266 31.7962 27.6303 31.7406 27.334 31.7406C27.3155 31.7406 27.297 31.7406 27.2784 31.7406C26.1488 31.7406 25.334 32.3147 25.0747 33.2776C24.834 34.185 25.0007 34.9999 26.6303 36.0739C26.7414 36.148 26.8525 36.2221 26.9821 36.2962C27.1118 36.3702 27.2599 36.4628 27.3895 36.5554C28.1488 37.0739 28.3525 37.4999 28.1858 38.111C28.0377 38.648 27.6488 38.9443 27.0747 38.9258C27.0377 38.9258 27.0007 38.9258 26.9821 38.9258C26.834 38.9258 26.6858 38.8887 26.5377 38.8517C26.371 38.8147 26.2229 38.7406 26.0933 38.6665C25.6118 38.4073 25.3525 37.9628 25.3155 37.4258L23.9266 37.0554C23.797 38.3147 24.6303 39.3147 26.1673 39.7406L26.2229 39.7591C26.4821 39.8332 26.7229 39.8702 26.9636 39.9073C27.0562 39.8887 27.1858 39.9073 27.3155 39.9073Z" fill="#ffffff"/>
<path d="M31.5185 29.0182C31.5 29.0367 31.4815 29.0367 31.4815 29.0552C31.4074 29.1293 31.3518 29.1849 31.2778 29.2589L30.9444 28.9256L30.7407 28.7219C30.8148 28.6478 30.8889 28.5923 30.9444 28.5182C30.9629 28.4997 30.9815 28.4812 31 28.4626L31.5185 29.0182Z" fill="#ffffff" stroke="#ffffff" stroke-width="0.226481" stroke-miterlimit="10"/>
<path d="M31.0001 28.0742L30.7964 28.2594C30.7779 28.2779 30.7593 28.2964 30.7408 28.315C30.6667 28.3705 30.6112 28.4446 30.5371 28.5187L30.7408 28.7224L30.9445 28.9261C30.963 28.9076 30.9816 28.889 30.9816 28.889L31.1112 29.0372C31.0927 29.0557 31.0741 29.0557 31.0741 29.0742L31.2779 29.2779L31.4816 29.4816C31.5556 29.4076 31.6297 29.352 31.6853 29.2779C31.7038 29.2594 31.7038 29.2594 31.7223 29.2409L31.9445 29.0372L31.0001 28.0742Z" fill="#ffffff" stroke="#ffffff" stroke-width="0.226481" stroke-miterlimit="10"/>
<path d="M32.0649 28.9306L31.0566 27.9224L30.7031 28.2759L31.7114 29.2842L32.0649 28.9306Z" fill="#ffffff" stroke="#ffffff" stroke-width="0.226481" stroke-miterlimit="10"/>
<path d="M31.6107 48.6484L30.6663 49.5928L30.4626 49.3891C30.3885 49.3151 30.3144 49.2595 30.2589 49.1854C30.2033 49.1299 30.1478 49.0743 30.0737 49.0002C27.4811 46.2965 26.0552 42.7225 26.0552 38.9817C26.0552 35.4632 27.333 32.0743 29.6478 29.4262C29.907 29.1299 30.2218 28.7965 30.5367 28.5002L30.7404 28.7039L30.9441 28.9077L31.2774 29.241L31.4811 29.4447C31.1663 29.741 30.87 30.0558 30.6478 30.3151C28.5552 32.7225 27.407 35.778 27.407 38.9632C27.407 42.2595 28.6293 45.4077 30.8515 47.8521C30.9441 47.9632 31.0367 48.0558 31.1293 48.1484C31.2218 48.241 31.3144 48.3336 31.407 48.4262L31.6107 48.6484Z" fill="#ffffff" stroke="#ffffff" stroke-width="0.226481" stroke-miterlimit="10"/>
<path d="M32.4626 28.9262L31.7033 29.6855L31.4811 29.4632L31.2774 29.2595L30.9255 28.9262L30.7218 28.7225L30.5181 28.5188L30.2959 28.2781L31.0552 27.5188L32.4626 28.9262Z" fill="#ffffff" stroke="#ffffff" stroke-width="0.226481" stroke-miterlimit="10"/>
<path d="M51.2576 48.63C51.2206 48.6671 51.1835 48.7041 51.1465 48.7411C51.0724 48.8152 51.0169 48.8893 50.9428 48.9448L50.4058 48.4078C50.4798 48.3337 50.5354 48.2596 50.6095 48.2041C50.6465 48.1671 50.6835 48.1115 50.7206 48.0745L51.2576 48.63Z" fill="#ffffff" stroke="#ffffff" stroke-width="0.226481" stroke-miterlimit="10"/>
<path d="M50.7202 47.6484L50.5165 47.8892C50.4794 47.9262 50.4424 47.9633 50.4054 48.0003C50.3498 48.0744 50.2757 48.1484 50.2017 48.204L50.6091 48.6114C50.6461 48.5744 50.6831 48.5373 50.7202 48.5003L50.8498 48.6484C50.8128 48.6855 50.7757 48.7225 50.7387 48.7595L51.1461 49.167C51.2202 49.0929 51.2757 49.0373 51.3498 48.9633C51.3868 48.9262 51.4239 48.8892 51.4609 48.8336L51.6461 48.6299L50.7202 47.6484Z" fill="#ffffff" stroke="#ffffff" stroke-width="0.226481" stroke-miterlimit="10"/>
<path d="M50.3853 47.9646L51.3936 48.9729L51.7471 48.6193L50.7388 47.6111L50.3853 47.9646Z" fill="#ffffff" stroke="#ffffff" stroke-width="0.226481" stroke-miterlimit="10"/>
<path d="M51.1646 49.1668C50.9239 49.426 50.6461 49.6853 50.3868 49.9075C47.7757 52.2594 44.4054 53.5742 40.8868 53.6297C40.8128 53.6297 40.7572 53.6297 40.6831 53.6297C37.0165 53.6297 33.5165 52.2594 30.8128 49.7409C30.7572 49.6853 30.6831 49.6297 30.6091 49.5557C30.5535 49.5001 30.4794 49.426 30.4054 49.352L30.2017 49.1483L31.1461 48.1853L31.3498 48.389C31.4424 48.4816 31.535 48.5742 31.6276 48.6668C31.7202 48.7594 31.8313 48.852 31.9239 48.9446C34.3498 51.0927 37.4424 52.2779 40.6646 52.2779C40.7202 52.2779 40.7943 52.2779 40.8498 52.2779C44.035 52.2409 47.072 51.0372 49.4424 48.926C49.7017 48.7038 49.9424 48.4631 50.1831 48.2038L51.1646 49.1668Z" fill="#ffffff" stroke="#ffffff" stroke-width="0.226481" stroke-miterlimit="10"/>
<path d="M52.1642 48.6298L51.4049 49.3891L49.979 47.9817L50.7383 47.2224L52.1642 48.6298Z" fill="#ffffff" stroke="#ffffff" stroke-width="0.226481" stroke-miterlimit="10"/>
<path d="M44.256 30.5252C45.4999 29.2813 45.8282 27.5929 44.9893 26.754C44.1504 25.9151 42.4619 26.2434 41.2181 27.4873C39.9742 28.7311 39.6459 30.4196 40.4848 31.2585C41.3237 32.0974 43.0121 31.769 44.256 30.5252Z" fill="#ffffff"/>
<path d="M41.722 31.815C41.2035 31.815 40.7405 31.6484 40.4257 31.315C39.9998 30.8891 39.8331 30.2409 39.9813 29.5002C40.1294 28.778 40.5368 28.0372 41.1479 27.4076C42.4257 26.1298 44.185 25.7965 45.0553 26.6854C45.9257 27.5558 45.6109 29.315 44.3331 30.5928C43.722 31.2039 42.9813 31.6298 42.2405 31.7595C42.0739 31.7965 41.8887 31.815 41.722 31.815ZM43.759 26.3891C42.9813 26.3891 42.0553 26.7965 41.2961 27.5558C40.7035 28.1484 40.3146 28.8521 40.185 29.5372C40.0553 30.2224 40.185 30.7965 40.5739 31.1854C40.9627 31.5743 41.5368 31.7039 42.222 31.5743C42.9072 31.4446 43.6294 31.0372 44.2035 30.4632C45.4072 29.2595 45.7405 27.6298 44.9257 26.8335C44.6294 26.5372 44.222 26.3891 43.759 26.3891Z" fill="#ffffff"/>
<path d="M51.9781 38.2471C53.222 37.0032 53.5503 35.3148 52.7114 34.4759C51.8725 33.637 50.1841 33.9653 48.9402 35.2092C47.6964 36.4531 47.368 38.1415 48.2069 38.9804C49.0458 39.8193 50.7343 39.491 51.9781 38.2471Z" fill="#ffffff"/>
<path d="M49.4626 39.5372C48.9441 39.5372 48.4996 39.3705 48.1663 39.0372C47.2959 38.1668 47.6107 36.4076 48.8885 35.1298C50.1663 33.852 51.9255 33.5187 52.7959 34.4076C53.2218 34.8335 53.3885 35.4816 53.2404 36.2224C53.0922 36.9446 52.6848 37.6853 52.0737 38.315C51.2589 39.1113 50.2959 39.5372 49.4626 39.5372ZM49.0181 35.2779C47.8144 36.4816 47.4811 38.1113 48.2959 38.9076C49.0922 39.7039 50.7218 39.389 51.9255 38.1853C52.5181 37.5927 52.907 36.889 53.0367 36.2039C53.1663 35.5187 53.0367 34.9446 52.6478 34.5557C51.8515 33.7409 50.2218 34.0742 49.0181 35.2779Z" fill="#ffffff"/>
<path d="M19.4814 61.7222C19.4814 62.7592 19.2037 63.537 18.6481 64.0555C18.0926 64.574 17.2963 64.8333 16.2777 64.8333H14.1481C14.0926 64.8333 14.037 64.8148 14.0185 64.7963C14 64.7777 13.9814 64.7222 13.9814 64.6481V64.2037C13.9814 64.074 14.037 64 14.1296 64C14.3148 64 14.4444 63.9815 14.5185 63.9259C14.5926 63.8889 14.6111 63.7778 14.6296 63.6296V59.8703C14.6296 59.7222 14.6111 59.6296 14.574 59.5555C14.537 59.5 14.4629 59.4629 14.3518 59.4444C14.3148 59.4444 14.2407 59.4444 14.1481 59.4444C14.0926 59.4444 14.037 59.4259 14.0185 59.4074C14 59.3889 13.9814 59.3333 13.9814 59.2778V58.7963C13.9814 58.7222 14 58.6666 14.0185 58.6481C14.037 58.6296 14.0926 58.6111 14.1481 58.6111H16.2963C17.3703 58.6111 18.1666 58.8703 18.6851 59.3889C19.2037 59.8889 19.4814 60.6666 19.4814 61.7222ZM15.8148 59.4629V63.9074H16.2592C16.9444 63.9074 17.4259 63.7407 17.7407 63.3889C18.0555 63.0555 18.2037 62.4815 18.2037 61.7037C18.2037 60.8889 18.037 60.2963 17.7037 59.9629C17.3703 59.6296 16.8703 59.4444 16.1851 59.4444H15.8148V59.4629Z" fill="#ffffff"/>
<path d="M19.9077 62.5185C19.9077 61.8148 20.0744 61.2407 20.4262 60.7963C20.7781 60.3519 21.2966 60.1296 22.0003 60.1296C22.704 60.1296 23.241 60.3519 23.5929 60.7963C23.9448 61.2407 24.1114 61.8148 24.1114 62.5185C24.1114 62.963 24.0373 63.3704 23.9077 63.7222C23.7781 64.0741 23.5373 64.3519 23.2225 64.5926C22.8892 64.8148 22.5003 64.9259 22.0188 64.9259C21.3151 64.9259 20.7781 64.7037 20.4448 64.2407C20.0929 63.7963 19.9077 63.2222 19.9077 62.5185ZM22.0188 60.9445C21.7225 60.9445 21.5003 61.0741 21.3522 61.3519C21.204 61.6296 21.1299 62.0185 21.1299 62.5185C21.1299 63.0185 21.204 63.4074 21.3522 63.6852C21.5003 63.963 21.7225 64.0926 22.0188 64.0926C22.6299 64.0926 22.9262 63.5741 22.9262 62.5185C22.9262 61.4815 22.6299 60.9445 22.0188 60.9445Z" fill="#ffffff"/>
<path d="M25.0739 59.5185C25.0739 59.3889 25.0554 59.2963 25.0184 59.2593C24.9813 59.2037 24.9073 59.1852 24.8147 59.1667H24.6665C24.5554 59.1667 24.4999 59.0926 24.4999 58.963V58.5185C24.4999 58.4445 24.5184 58.3889 24.5369 58.3704C24.5554 58.3519 24.611 58.3334 24.6665 58.3334L26.0184 58.2593C26.0924 58.2593 26.1295 58.2778 26.1665 58.3148C26.185 58.3519 26.2036 58.4074 26.2036 58.5V63.5556C26.2036 63.7408 26.2221 63.8519 26.2776 63.9074C26.3332 63.963 26.4443 63.9815 26.5925 63.9815H26.685C26.7406 63.9815 26.7962 64 26.8147 64.0185C26.8332 64.0371 26.8517 64.0741 26.8517 64.1296V64.6296C26.8517 64.7037 26.8332 64.7408 26.8147 64.7778C26.7962 64.7963 26.7406 64.8148 26.685 64.8148H24.5924C24.5184 64.8148 24.4813 64.7963 24.4628 64.7778C24.4443 64.7593 24.4258 64.7037 24.4258 64.6296V64.1296C24.4258 64.0741 24.4443 64.0371 24.4628 64.0185C24.4813 64 24.5369 63.9815 24.5924 63.9815H24.6665C24.8147 63.9815 24.9258 63.963 24.9813 63.9074C25.0369 63.8519 25.0554 63.7408 25.0554 63.5556V59.5185H25.0739Z" fill="#ffffff"/>
<path d="M27.6853 59.5185C27.6853 59.3889 27.6667 59.2963 27.6297 59.2593C27.5927 59.2037 27.5186 59.1852 27.426 59.1667H27.2779C27.1667 59.1667 27.1112 59.0926 27.1112 58.963V58.5185C27.1112 58.4445 27.1297 58.3889 27.1482 58.3704C27.1667 58.3519 27.2223 58.3334 27.2779 58.3334L28.6297 58.2593C28.7038 58.2593 28.7408 58.2778 28.7778 58.3148C28.7964 58.3519 28.8149 58.4074 28.8149 58.5V63.5556C28.8149 63.7408 28.8334 63.8519 28.889 63.9074C28.9445 63.963 29.0556 63.9815 29.2038 63.9815H29.2964C29.3519 63.9815 29.4075 64 29.426 64.0185C29.4445 64.0371 29.463 64.0741 29.463 64.1296V64.6296C29.463 64.7037 29.4445 64.7408 29.426 64.7778C29.4075 64.7963 29.3519 64.8148 29.2964 64.8148H27.2038C27.1297 64.8148 27.0927 64.7963 27.0741 64.7778C27.0556 64.7593 27.0371 64.7037 27.0371 64.6296V64.1296C27.0371 64.0741 27.0556 64.0371 27.0741 64.0185C27.0927 64 27.1482 63.9815 27.2038 63.9815H27.2779C27.426 63.9815 27.5371 63.963 27.5927 63.9074C27.6482 63.8519 27.6667 63.7408 27.6667 63.5556V59.5185H27.6853Z" fill="#ffffff"/>
<path d="M29.963 61.2966C29.963 60.8892 30.1111 60.5929 30.3889 60.4262C30.6667 60.241 31.1111 60.1484 31.6852 60.1484C32.2963 60.1484 32.7593 60.2781 33.0371 60.5188C33.3334 60.7595 33.463 61.204 33.463 61.8707V63.667C33.4815 63.9077 33.5556 64.0373 33.6852 64.0373C33.7408 64.0373 33.7778 64.0373 33.8334 64.0188C33.8704 64.0003 33.9074 64.0003 33.9445 64.0003C33.9815 64.0003 34 64.0003 34 64.0003C34.0185 64.0188 34.0185 64.0373 34.0185 64.0744V64.5929C34.0185 64.704 33.9815 64.7781 33.8889 64.7966C33.7778 64.8521 33.5556 64.8892 33.2408 64.8892C32.8148 64.8892 32.5371 64.7225 32.4074 64.3892C32.1111 64.7225 31.6852 64.8892 31.1111 64.8892C30.2037 64.8892 29.7593 64.4633 29.7593 63.5929C29.7593 63.0188 29.963 62.6114 30.3519 62.3892C30.7593 62.167 31.3334 62.0558 32.0741 62.0558H32.3148V61.8151C32.3148 61.5373 32.2593 61.3336 32.1667 61.204C32.0741 61.0744 31.8889 61.0188 31.6482 61.0188C31.5 61.0188 31.3334 61.0373 31.1667 61.0929C31.1852 61.167 31.1852 61.2225 31.1852 61.241C31.1852 61.4447 31.1296 61.6114 31 61.741C30.8704 61.8707 30.7222 61.9262 30.5371 61.9262C30.3704 61.9262 30.2222 61.8707 30.1111 61.741C30.0185 61.6484 29.963 61.4818 29.963 61.2966ZM30.8889 63.5373C30.8889 63.8707 31.0556 64.0373 31.4074 64.0373C31.6852 64.0373 31.9259 63.9447 32.0741 63.741C32.2222 63.5373 32.3148 63.2596 32.3148 62.9077V62.8151H32.0741C31.2963 62.8151 30.8889 63.0558 30.8889 63.5373Z" fill="#ffffff"/>
<path d="M34.9266 61.5003C34.9266 61.3521 34.9081 61.2596 34.8525 61.2225C34.7969 61.1855 34.6858 61.1484 34.5007 61.1484C34.4081 61.1484 34.371 61.0929 34.371 60.9633V60.4818C34.371 60.4077 34.3895 60.3707 34.4081 60.3521C34.4266 60.3336 34.4636 60.3151 34.5377 60.3151L35.8895 60.241C35.9636 60.241 36.0007 60.2596 36.0377 60.2966C36.0562 60.3336 36.0747 60.3892 36.0747 60.4818V61.3336C36.1118 61.204 36.1488 61.0929 36.2044 60.9633C36.2599 60.8336 36.334 60.7225 36.4451 60.5929C36.5377 60.4633 36.6673 60.3521 36.834 60.2781C37.0007 60.204 37.1673 60.1484 37.371 60.1484C37.9081 60.1484 38.1858 60.4447 38.1858 61.0558C38.1858 61.2596 38.1303 61.4262 38.0007 61.5558C37.871 61.6855 37.7229 61.741 37.5377 61.741C37.371 61.741 37.2229 61.6855 37.1118 61.5558C37.0007 61.4447 36.9451 61.2781 36.9451 61.0929V61.0373C36.6858 61.1484 36.4821 61.4262 36.3155 61.8336C36.1488 62.241 36.0747 62.6855 36.0747 63.1484V63.6484C36.0747 63.7966 36.1118 63.8892 36.1673 63.9262C36.2229 63.9633 36.3155 63.9818 36.4821 63.9818H36.7229C36.7969 63.9818 36.834 64.0003 36.8525 64.0188C36.871 64.0373 36.8895 64.0744 36.8895 64.1299V64.6484C36.8895 64.7225 36.871 64.7595 36.8525 64.7781C36.834 64.7966 36.7784 64.8151 36.7229 64.8151H34.5007C34.4266 64.8151 34.3895 64.7966 34.371 64.7781C34.3525 64.7595 34.334 64.704 34.334 64.6299V64.1299C34.334 64.0744 34.3525 64.0373 34.371 64.0188C34.3895 64.0003 34.4451 63.9818 34.5007 63.9818H34.5747C34.7229 63.9818 34.834 63.9633 34.8895 63.9077C34.9451 63.8521 34.9821 63.741 34.9821 63.5558V61.5003H34.9266Z" fill="#ffffff"/>
<path d="M38.445 64.8148C38.3894 64.8148 38.3338 64.7963 38.3153 64.7777C38.2968 64.7592 38.2783 64.7037 38.2783 64.6296V64.1296C38.2783 64.037 38.3338 63.9815 38.445 63.9815H38.519C38.6672 63.9815 38.7783 63.9444 38.8338 63.8889C38.8894 63.8333 38.9264 63.7037 38.9264 63.537V59.8703C38.9264 59.7222 38.9079 59.6296 38.8709 59.5555C38.8338 59.4815 38.7598 59.4629 38.6487 59.4444C38.6116 59.4444 38.5375 59.4444 38.4264 59.4444C38.3709 59.4444 38.3153 59.4259 38.2968 59.4074C38.2783 59.3889 38.2598 59.3333 38.2598 59.2778V58.7963C38.2598 58.7222 38.2783 58.6666 38.2968 58.6481C38.3153 58.6296 38.3709 58.6111 38.4264 58.6111H42.3524C42.5005 58.6111 42.5931 58.6296 42.6301 58.6666C42.6672 58.7037 42.6857 58.8148 42.7042 59.0185L42.7598 60.1296C42.7598 60.2037 42.7598 60.2592 42.7412 60.2963C42.7227 60.3333 42.6857 60.3333 42.6116 60.3333H42.1116C42.0561 60.3333 42.0005 60.3148 41.982 60.2963C41.9635 60.2778 41.9449 60.2222 41.9264 60.1481L41.8894 59.8333C41.8524 59.6481 41.7783 59.537 41.6672 59.4815C41.5375 59.4444 41.2783 59.4259 40.8524 59.4259H40.1116V61.4259H40.6487C40.8153 61.4259 40.9079 61.3518 40.9264 61.1852L40.9635 60.9444C40.982 60.8703 41.0005 60.8148 41.019 60.7963C41.0375 60.7777 41.0746 60.7592 41.1487 60.7592H41.6116C41.6487 60.7592 41.6857 60.7592 41.7042 60.7778C41.7227 60.7963 41.7412 60.8148 41.7412 60.8333C41.7412 60.8518 41.7412 60.8889 41.7412 60.9444V62.7037C41.7412 62.7778 41.7412 62.8333 41.7227 62.8518C41.7042 62.8703 41.6672 62.8889 41.6116 62.8889H41.1487C41.0931 62.8889 41.0561 62.8703 41.019 62.8518C41.0005 62.8333 40.982 62.7778 40.9635 62.7222L40.9264 62.4815C40.8894 62.3333 40.7968 62.2407 40.6487 62.2407H40.1116V63.6296C40.1116 63.7778 40.1487 63.8703 40.2042 63.9259C40.2598 63.9629 40.3524 64 40.5005 64H40.5746C40.6487 64 40.7042 64.0185 40.7227 64.037C40.7412 64.0555 40.7598 64.0926 40.7598 64.1481V64.6481C40.7598 64.7222 40.7412 64.7777 40.7227 64.7963C40.7042 64.8148 40.6487 64.8333 40.5931 64.8333H38.445V64.8148Z" fill="#ffffff"/>
<path d="M43.1485 61.2966C43.1485 60.8892 43.2967 60.5929 43.5745 60.4262C43.8522 60.241 44.2967 60.1484 44.8708 60.1484C45.4819 60.1484 45.9448 60.2781 46.2226 60.5188C46.5189 60.7595 46.6485 61.204 46.6485 61.8707V63.667C46.667 63.9077 46.7411 64.0373 46.8708 64.0373C46.9263 64.0373 46.9633 64.0373 47.0189 64.0188C47.0559 64.0003 47.093 64.0003 47.13 64.0003C47.167 64.0003 47.1856 64.0003 47.1856 64.0003C47.2041 64.0188 47.2041 64.0373 47.2041 64.0744V64.5929C47.2041 64.704 47.167 64.7781 47.0745 64.7966C46.9633 64.8521 46.7411 64.8892 46.4263 64.8892C46.0004 64.8892 45.7226 64.7225 45.593 64.3892C45.2967 64.7225 44.8708 64.8892 44.2967 64.8892C43.3893 64.8892 42.9448 64.4633 42.9448 63.5929C42.9448 63.0188 43.1485 62.6114 43.5374 62.3892C43.9263 62.167 44.5189 62.0558 45.2596 62.0558H45.5004V61.8151C45.5004 61.5373 45.4448 61.3336 45.3522 61.204C45.2596 61.0744 45.0745 61.0188 44.8337 61.0188C44.6856 61.0188 44.5189 61.0373 44.3522 61.0929C44.3708 61.167 44.3708 61.2225 44.3708 61.241C44.3708 61.4447 44.3152 61.6114 44.1856 61.741C44.0559 61.8707 43.9078 61.9262 43.7226 61.9262C43.5559 61.9262 43.4078 61.8707 43.2967 61.741C43.2041 61.6484 43.1485 61.4818 43.1485 61.2966ZM44.0745 63.5373C44.0745 63.8707 44.2411 64.0373 44.593 64.0373C44.8708 64.0373 45.1115 63.9447 45.2782 63.741C45.4448 63.5373 45.5189 63.2596 45.5189 62.9077V62.8151H45.2782C44.4633 62.8151 44.0745 63.0558 44.0745 63.5373Z" fill="#ffffff"/>
<path d="M48.1111 61.5003C48.1111 61.3521 48.0926 61.2596 48.0371 61.2225C47.9815 61.1855 47.8704 61.1484 47.6852 61.1484C47.5926 61.1484 47.5556 61.0929 47.5556 60.9633V60.4818C47.5556 60.4077 47.5741 60.3707 47.5926 60.3521C47.6111 60.3336 47.6482 60.3151 47.7223 60.3151L49.0741 60.241C49.1482 60.241 49.1852 60.2596 49.2223 60.2966C49.2408 60.3336 49.2593 60.3892 49.2593 60.4818V61.3336C49.2963 61.204 49.3334 61.0929 49.3889 60.9633C49.4445 60.8336 49.5186 60.7225 49.6297 60.5929C49.7223 60.4633 49.8519 60.3521 50.0186 60.2781C50.1852 60.204 50.3519 60.1484 50.5556 60.1484C51.0926 60.1484 51.3704 60.4447 51.3704 61.0558C51.3704 61.2596 51.3148 61.4262 51.1852 61.5558C51.0556 61.6855 50.9074 61.741 50.7223 61.741C50.5556 61.741 50.4074 61.6855 50.2963 61.5558C50.1852 61.4447 50.1297 61.2781 50.1297 61.0929V61.0373C49.8704 61.1484 49.6667 61.4262 49.5 61.8336C49.3334 62.241 49.2593 62.6855 49.2593 63.1484V63.6484C49.2593 63.7966 49.2963 63.8892 49.3519 63.9262C49.4074 63.9633 49.5 63.9818 49.6667 63.9818H49.9074C49.9815 63.9818 50.0186 64.0003 50.0371 64.0188C50.0556 64.0373 50.0741 64.0744 50.0741 64.1299V64.6484C50.0741 64.7225 50.0556 64.7595 50.0371 64.7781C50.0186 64.7966 49.963 64.8151 49.9074 64.8151H47.6852C47.6111 64.8151 47.5741 64.7966 47.5556 64.7781C47.5371 64.7595 47.5186 64.704 47.5186 64.6299V64.1299C47.5186 64.0744 47.5371 64.0373 47.5556 64.0188C47.5741 64.0003 47.6297 63.9818 47.6852 63.9818H47.7593C47.9074 63.9818 48.0186 63.9633 48.0741 63.9077C48.1297 63.8521 48.1667 63.741 48.1667 63.5558V61.5003H48.1111Z" fill="#ffffff"/>
<path d="M51.2969 64.1852C51.2969 63.963 51.371 63.7593 51.5191 63.6111C51.6672 63.463 51.8339 63.3889 52.0376 63.3889C52.2228 63.3889 52.371 63.463 52.5191 63.5926C52.6487 63.7223 52.7228 63.9074 52.7228 64.1297C52.7228 64.3519 52.6487 64.5556 52.5006 64.6852C52.3524 64.8334 52.1858 64.9074 51.9821 64.9074C51.7969 64.9074 51.6302 64.8334 51.5006 64.7037C51.371 64.5741 51.2969 64.3889 51.2969 64.1852Z" fill="#ffffff"/>
<path d="M54.4078 62.4816C54.4078 62.9816 54.5004 63.3334 54.7226 63.5742C54.9263 63.8149 55.2597 63.926 55.7041 63.926C56.056 63.926 56.4448 63.852 56.8893 63.6853C57.0004 63.6483 57.0745 63.6297 57.1115 63.6483C57.1485 63.6668 57.1671 63.7223 57.1671 63.8149V64.3705C57.1671 64.4816 57.13 64.5742 57.0374 64.6112C56.9078 64.6668 56.7226 64.7409 56.4448 64.8149C56.1671 64.889 55.8708 64.926 55.5189 64.926C54.7411 64.926 54.1671 64.7223 53.7782 64.3334C53.3893 63.9446 53.2041 63.3705 53.2041 62.6297C53.2041 61.8335 53.4078 61.2223 53.8152 60.8149C54.2226 60.4075 54.7597 60.1853 55.4448 60.1853C56.0004 60.1853 56.4263 60.3149 56.6856 60.5742C56.9448 60.8335 57.093 61.1112 57.093 61.4446C57.093 61.6668 57.0374 61.8335 56.9078 61.9816C56.7782 62.1112 56.6115 62.1853 56.4078 62.1853C56.2041 62.1853 56.0374 62.1112 55.9078 61.9816C55.7782 61.852 55.7226 61.6853 55.7226 61.4631C55.7226 61.3334 55.7411 61.2038 55.7967 61.0927C55.6856 61.0742 55.5745 61.0742 55.4448 61.0742C54.7597 61.0186 54.4078 61.5001 54.4078 62.4816Z" fill="#ffffff"/>
<path d="M57.5371 62.5185C57.5371 61.8148 57.7038 61.2407 58.0556 60.7963C58.4075 60.3519 58.926 60.1296 59.6297 60.1296C60.3334 60.1296 60.8704 60.3519 61.2223 60.7963C61.5741 61.2407 61.7408 61.8148 61.7408 62.5185C61.7408 62.963 61.6667 63.3704 61.5371 63.7222C61.4075 64.0741 61.1667 64.3519 60.8519 64.5926C60.5186 64.8148 60.1297 64.9259 59.6482 64.9259C58.9445 64.9259 58.4075 64.7037 58.0741 64.2407C57.7038 63.7963 57.5371 63.2222 57.5371 62.5185ZM59.6297 60.9445C59.3334 60.9445 59.1112 61.0741 58.963 61.3519C58.8149 61.6296 58.7408 62.0185 58.7408 62.5185C58.7408 63.0185 58.8149 63.4074 58.963 63.6852C59.1112 63.963 59.3334 64.0926 59.6297 64.0926C60.2408 64.0926 60.5371 63.5741 60.5371 62.5185C60.5556 61.4815 60.2408 60.9445 59.6297 60.9445Z" fill="#ffffff"/>
<path d="M64.7596 61.0926C64.1855 61.0926 63.8892 61.6852 63.8892 62.8519V63.5556C63.8892 63.7407 63.9077 63.8519 63.9448 63.9074C63.9818 63.963 64.0374 63.9815 64.1485 63.9815H64.204C64.2596 63.9815 64.3151 64 64.3337 64.0185C64.3522 64.037 64.3707 64.0741 64.3707 64.1296V64.6296C64.3707 64.7037 64.3522 64.7593 64.3337 64.7778C64.3151 64.7963 64.2781 64.8148 64.204 64.8148H62.3337C62.2781 64.8148 62.2225 64.7963 62.204 64.7778C62.1855 64.7593 62.167 64.7037 62.167 64.6296V64.1296C62.167 64.037 62.2225 63.9815 62.3337 63.9815H62.3892C62.5374 63.9815 62.63 63.9445 62.6855 63.8889C62.7411 63.8333 62.7596 63.7222 62.7596 63.537V61.4815C62.7596 61.3333 62.7411 61.2407 62.6855 61.2037C62.63 61.1667 62.5188 61.1296 62.3337 61.1296C62.2225 61.1296 62.1855 61.0741 62.1855 60.9445V60.463C62.1855 60.3519 62.2411 60.2963 62.3522 60.2778L63.704 60.2037C63.7781 60.2037 63.8151 60.2222 63.8522 60.2593C63.8892 60.2963 63.8892 60.3519 63.8892 60.4445V60.8148C64.1114 60.3519 64.5374 60.1296 65.1855 60.1296C65.7781 60.1296 66.13 60.4074 66.2966 60.9815C66.5003 60.4074 66.9448 60.1296 67.667 60.1296C68.4633 60.1296 68.8522 60.6296 68.8522 61.6296V63.5926C68.8522 63.8519 68.9262 63.9815 69.0929 63.9815C69.1485 63.9815 69.1855 63.9815 69.2411 63.963C69.2781 63.9444 69.3151 63.9444 69.3337 63.9444C69.3707 63.9444 69.3892 63.9444 69.3892 63.9444C69.3892 63.963 69.4077 63.9815 69.4077 64.0185V64.537C69.4077 64.6482 69.3707 64.7222 69.2966 64.7407C69.167 64.7963 68.9448 64.8333 68.63 64.8333C68.0188 64.8333 67.7225 64.5 67.7225 63.8519V61.7593C67.7225 61.2963 67.5559 61.0556 67.2411 61.0556C66.667 61.0556 66.3892 61.6111 66.3707 62.7407V63.5185C66.3707 63.7037 66.3892 63.8148 66.4448 63.8704C66.5003 63.9259 66.5929 63.9444 66.7596 63.9444H66.8151C66.8707 63.9444 66.9262 63.963 66.9448 63.9815C66.9633 64 66.9818 64.037 66.9818 64.0926V64.5926C66.9818 64.6667 66.9633 64.7222 66.9448 64.7407C66.9262 64.7593 66.8707 64.7778 66.8151 64.7778H64.9448C64.8707 64.7778 64.8337 64.7593 64.8151 64.7407C64.7966 64.7222 64.7781 64.6667 64.7781 64.5926V64.0926C64.7781 64.037 64.7966 64 64.8151 63.9815C64.8337 63.963 64.8892 63.9444 64.9448 63.9444H65.0003C65.0744 63.9444 65.1485 63.9259 65.1855 63.8889C65.2225 63.8519 65.2411 63.7593 65.2596 63.6296V61.7593C65.2411 61.3333 65.0929 61.0926 64.7596 61.0926Z" fill="#ffffff"/>
</svg>