<svg width="153" height="103" viewBox="0 0 153 103" fill="none" xmlns="http://www.w3.org/2000/svg">
<g filter="url(#filter0_b_26_1123)">
<rect x="1" width="160" height="101" fill="black" fill-opacity="0.02"/>
</g>
<g filter="url(#filter1_b_26_1123)">
<rect x="21" y="20" width="160" height="101" fill="black" fill-opacity="0.03"/>
</g>
<path d="M76.8902 102.28C119.154 102.28 153.415 100.28 153.415 97.8122C153.415 95.3447 119.154 93.3444 76.8902 93.3444C34.6266 93.3444 0.365234 95.3447 0.365234 97.8122C0.365234 100.28 34.6266 102.28 76.8902 102.28Z" fill="#F5F5F5"/>
<path d="M79.136 26.28H53.0791V94.8482H79.136V26.28Z" fill="#9BB0C6"/>
<path opacity="0.5" d="M79.2188 26.28H59.7886V94.8482H79.2188V26.28Z" fill="black"/>
<path d="M113.178 49.657H87.1206V94.8442H113.178V49.657Z" fill="#9BB0C6"/>
<path opacity="0.3" d="M113.177 49.5505H93.7471V94.8481H113.177V49.5505Z" fill="black"/>
<path d="M44.929 38.5073H18.8721V94.8442H44.929V38.5073Z" fill="#9BB0C6"/>
<path opacity="0.4" d="M44.9292 38.3691H25.499V94.8442H44.9292V38.3691Z" fill="black"/>
<path d="M31.6322 98.6058C31.5967 99.4465 34.2529 100.24 37.5524 100.382C40.852 100.524 43.5792 99.9556 43.6147 99.1149C43.6503 98.2743 40.994 97.4849 37.6945 97.3428C34.395 97.2007 31.6677 97.7691 31.6322 98.6058Z" fill="#9BB0C6"/>
<path d="M31.6968 97.0827L31.6323 98.6009L43.6278 99.1099L43.6922 97.5918L31.6968 97.0827Z" fill="#9BB0C6"/>
<path d="M31.6952 97.0863C31.6597 97.927 34.3159 98.7203 37.6154 98.8623C40.915 99.0044 43.6422 98.4361 43.6777 97.5954C43.7132 96.7547 41.057 95.9654 37.7575 95.8233C34.458 95.6812 31.7307 96.2496 31.6952 97.0863Z" fill="#9BB0C6"/>
<path opacity="0.4" d="M31.6952 97.0863C31.6597 97.927 34.3159 98.7203 37.6154 98.8623C40.915 99.0044 43.6422 98.4361 43.6777 97.5954C43.7132 96.7547 41.057 95.9654 37.7575 95.8233C34.458 95.6812 31.7307 96.2496 31.6952 97.0863Z" fill="white"/>
<path d="M32.4609 97.0626C32.4609 97.1169 32.479 97.1696 32.5122 97.2125C32.9069 96.7192 35.1053 96.4232 37.726 96.5376C40.3467 96.6521 42.5135 97.1257 42.8569 97.6507C42.896 97.612 42.9186 97.5596 42.92 97.5046C42.9437 96.9363 40.623 96.3679 37.7299 96.2456C34.8369 96.1232 32.4846 96.4942 32.4609 97.0626Z" fill="#9BB0C6"/>
<path opacity="0.4" d="M32.4609 97.0626C32.4609 97.1169 32.479 97.1696 32.5122 97.2125C32.9069 96.7192 35.1053 96.4232 37.726 96.5376C40.3467 96.6521 42.5135 97.1257 42.8569 97.6507C42.896 97.612 42.9186 97.5596 42.92 97.5046C42.9437 96.9363 40.623 96.3679 37.7299 96.2456C34.8369 96.1232 32.4846 96.4942 32.4609 97.0626Z" fill="#9BB0C6"/>
<path opacity="0.4" d="M32.5122 97.2126C32.8714 97.7375 35.0303 98.2111 37.6431 98.3216C40.2559 98.4322 42.4621 98.144 42.8568 97.6507C42.5056 97.1258 40.3466 96.6521 37.726 96.5377C35.1053 96.4232 32.9148 96.7192 32.5122 97.2126Z" fill="#9BB0C6"/>
<path d="M30.3573 96.3048C30.3218 97.1455 32.978 97.9388 36.2775 98.0809C39.5771 98.2229 42.3043 97.6546 42.3398 96.8179C42.3754 95.9811 39.7191 95.1839 36.4196 95.0418C33.1201 94.8997 30.4086 95.4681 30.3573 96.3048Z" fill="#9BB0C6"/>
<path d="M30.4375 94.7896L30.373 96.3077L42.3685 96.8168L42.4329 95.2986L30.4375 94.7896Z" fill="#9BB0C6"/>
<path d="M30.4359 94.7892C30.4004 95.626 33.0566 96.4193 36.3561 96.5614C39.6557 96.7035 42.3829 96.1351 42.4184 95.2984C42.454 94.4617 39.7978 93.6644 36.4982 93.5223C33.1987 93.3802 30.4714 93.9486 30.4359 94.7892Z" fill="#9BB0C6"/>
<path opacity="0.4" d="M30.4359 94.7892C30.4004 95.626 33.0566 96.4193 36.3561 96.5614C39.6557 96.7035 42.3829 96.1351 42.4184 95.2984C42.454 94.4617 39.7978 93.6644 36.4982 93.5223C33.1987 93.3802 30.4714 93.9486 30.4359 94.7892Z" fill="white"/>
<path d="M31.2018 94.7616C31.2001 94.8162 31.2183 94.8695 31.2531 94.9116C31.6478 94.4182 33.8461 94.1222 36.4668 94.2406C39.0875 94.359 41.2543 94.8248 41.5977 95.3497C41.6336 95.3105 41.6558 95.2606 41.6608 95.2076C41.6845 94.6393 39.3638 94.067 36.4708 93.9446C33.5778 93.8223 31.2254 94.1933 31.2018 94.7616Z" fill="#9BB0C6"/>
<path opacity="0.4" d="M31.2018 94.7616C31.2001 94.8162 31.2183 94.8695 31.2531 94.9116C31.6478 94.4182 33.8461 94.1222 36.4668 94.2406C39.0875 94.359 41.2543 94.8248 41.5977 95.3497C41.6336 95.3105 41.6558 95.2606 41.6608 95.2076C41.6845 94.6393 39.3638 94.067 36.4708 93.9446C33.5778 93.8223 31.2254 94.1933 31.2018 94.7616Z" fill="#9BB0C6"/>
<path opacity="0.4" d="M31.2529 94.9116C31.6081 95.4365 33.771 95.9101 36.3838 96.0206C38.9966 96.1312 41.2029 95.843 41.5975 95.3497C41.2463 94.8248 39.0874 94.3511 36.4667 94.2406C33.846 94.1301 31.6516 94.4182 31.2529 94.9116Z" fill="#9BB0C6"/>
<path d="M30.535 93.5342C30.4995 94.3748 33.1557 95.1681 36.4553 95.3102C39.7548 95.4523 42.482 94.884 42.5176 94.0433C42.5531 93.2026 39.8969 92.4133 36.5973 92.2712C33.2978 92.1291 30.5705 92.6974 30.535 93.5342Z" fill="#9BB0C6"/>
<path d="M30.6006 92.0161L30.5361 93.5342L42.5316 94.0433L42.596 92.5251L30.6006 92.0161Z" fill="#9BB0C6"/>
<path d="M30.598 92.0146C30.5625 92.8553 33.2187 93.6486 36.5182 93.7907C39.8178 93.9328 42.5411 93.3644 42.5766 92.5277C42.6121 91.691 39.9559 90.8937 36.6564 90.7516C33.3568 90.6095 30.6335 91.1779 30.598 92.0146Z" fill="#9BB0C6"/>
<path opacity="0.4" d="M30.598 92.0146C30.5625 92.8553 33.2187 93.6486 36.5182 93.7907C39.8178 93.9328 42.5411 93.3644 42.5766 92.5277C42.6121 91.691 39.9559 90.8937 36.6564 90.7516C33.3568 90.6095 30.6335 91.1779 30.598 92.0146Z" fill="white"/>
<path d="M31.3638 91.9909C31.3638 92.0452 31.3818 92.098 31.4151 92.1409C31.8098 91.6476 34.0081 91.3515 36.6288 91.4699C39.2495 91.5883 41.4163 92.0541 41.7597 92.579C41.7986 92.5418 41.8212 92.4907 41.8228 92.4369C41.8465 91.8686 39.5258 91.2963 36.6328 91.1739C33.7398 91.0516 31.3875 91.4226 31.3638 91.9909Z" fill="#9BB0C6"/>
<path opacity="0.4" d="M31.3638 91.9909C31.3638 92.0452 31.3818 92.098 31.4151 92.1409C31.8098 91.6476 34.0081 91.3515 36.6288 91.4699C39.2495 91.5883 41.4163 92.0541 41.7597 92.579C41.7986 92.5418 41.8212 92.4907 41.8228 92.4369C41.8465 91.8686 39.5258 91.2963 36.6328 91.1739C33.7398 91.0516 31.3875 91.4226 31.3638 91.9909Z" fill="#9BB0C6"/>
<path opacity="0.4" d="M31.415 92.1409C31.7742 92.6658 33.9331 93.1395 36.5459 93.25C39.1587 93.3605 41.365 93.0724 41.7597 92.579C41.4084 92.0541 39.2495 91.5805 36.6288 91.4699C34.0081 91.3594 31.8176 91.6555 31.415 92.1409Z" fill="#9BB0C6"/>
<path d="M29.2757 91.2371C29.2402 92.0738 31.8964 92.8671 35.196 93.0092C38.4955 93.1513 41.2228 92.5829 41.2583 91.7462C41.2938 90.9095 38.6376 90.1122 35.3381 89.9701C32.0385 89.8281 29.3113 90.3964 29.2757 91.2371Z" fill="#9BB0C6"/>
<path d="M29.3379 89.7071L29.2734 91.2253L41.2689 91.7343L41.3333 90.2162L29.3379 89.7071Z" fill="#9BB0C6"/>
<path d="M29.3387 89.7176C29.3032 90.5543 31.9594 91.3476 35.259 91.4897C38.5585 91.6318 41.2858 91.0634 41.3213 90.2267C41.3568 89.39 38.7006 88.5927 35.401 88.4506C32.1015 88.3086 29.3743 88.8927 29.3387 89.7176Z" fill="#9BB0C6"/>
<path opacity="0.4" d="M29.3387 89.7176C29.3032 90.5543 31.9594 91.3476 35.259 91.4897C38.5585 91.6318 41.2858 91.0634 41.3213 90.2267C41.3568 89.39 38.7006 88.5927 35.401 88.4506C32.1015 88.3086 29.3743 88.8927 29.3387 89.7176Z" fill="white"/>
<path d="M30.1047 89.6821C30.1023 89.7367 30.1206 89.7903 30.156 89.832C30.5507 89.3387 32.7491 89.0427 35.3698 89.1611C37.9905 89.2795 40.1573 89.7452 40.5006 90.2701C40.5366 90.2309 40.5587 90.181 40.5638 90.128C40.5875 89.5597 38.2667 88.9874 35.3737 88.8651C32.4807 88.7427 30.1284 89.1216 30.1047 89.6821Z" fill="#9BB0C6"/>
<path opacity="0.4" d="M30.1047 89.6821C30.1023 89.7367 30.1206 89.7903 30.156 89.832C30.5507 89.3387 32.7491 89.0427 35.3698 89.1611C37.9905 89.2795 40.1573 89.7452 40.5006 90.2701C40.5366 90.2309 40.5587 90.181 40.5638 90.128C40.5875 89.5597 38.2667 88.9874 35.3737 88.8651C32.4807 88.7427 30.1284 89.1216 30.1047 89.6821Z" fill="#9BB0C6"/>
<path opacity="0.4" d="M30.1558 89.8399C30.511 90.3648 32.6738 90.8385 35.2866 90.949C37.8994 91.0595 40.1057 90.7714 40.5004 90.278C40.1491 89.7531 37.9902 89.2795 35.3695 89.169C32.7488 89.0585 30.5544 89.3466 30.1558 89.8399Z" fill="#9BB0C6"/>
<path d="M31.1981 89.2874C31.1626 90.1241 33.8188 90.9174 37.1183 91.0595C40.4179 91.2016 43.1451 90.6332 43.1807 89.7965C43.2162 88.9598 40.56 88.1625 37.2604 88.0204C33.9609 87.8783 31.2336 88.4467 31.1981 89.2874Z" fill="#9BB0C6"/>
<path d="M31.2641 87.7672L31.1997 89.2854L43.1951 89.7944L43.2596 88.2763L31.2641 87.7672Z" fill="#9BB0C6"/>
<path d="M31.265 87.7678C31.2295 88.6045 33.8857 89.3979 37.1852 89.5399C40.4848 89.682 43.212 89.1137 43.2476 88.277C43.2831 87.4402 40.6269 86.643 37.3273 86.5009C34.0278 86.3588 31.3005 86.9192 31.265 87.7678Z" fill="#9BB0C6"/>
<path opacity="0.4" d="M31.265 87.7678C31.2295 88.6045 33.8857 89.3979 37.1852 89.5399C40.4848 89.682 43.212 89.1137 43.2476 88.277C43.2831 87.4402 40.6269 86.643 37.3273 86.5009C34.0278 86.3588 31.3005 86.9192 31.265 87.7678Z" fill="white"/>
<path d="M32.0269 87.7402C32.0282 87.7942 32.0461 87.8466 32.0782 87.8902C32.4728 87.3968 34.6752 87.1008 37.2919 87.2192C39.9087 87.3376 42.0834 87.8033 42.4228 88.3283C42.4612 88.2903 42.485 88.24 42.4899 88.1862C42.5136 87.6178 40.1928 87.0455 37.2998 86.9232C34.4068 86.8008 32.0545 87.1718 32.0269 87.7402Z" fill="#9BB0C6"/>
<path opacity="0.4" d="M32.0269 87.7402C32.0282 87.7942 32.0461 87.8466 32.0782 87.8902C32.4728 87.3968 34.6752 87.1008 37.2919 87.2192C39.9087 87.3376 42.0834 87.8033 42.4228 88.3283C42.4612 88.2903 42.485 88.24 42.4899 88.1862C42.5136 87.6178 40.1928 87.0455 37.2998 86.9232C34.4068 86.8008 32.0545 87.1718 32.0269 87.7402Z" fill="#9BB0C6"/>
<path opacity="0.4" d="M32.0781 87.8902C32.4373 88.4151 34.5962 88.8887 37.209 88.9992C39.8218 89.1097 42.032 88.8216 42.4227 88.3283C42.0754 87.8033 39.9126 87.3297 37.2919 87.2192C34.6712 87.1087 32.4807 87.3968 32.0781 87.8902Z" fill="#9BB0C6"/>
<path d="M29.9388 86.9864C29.9033 87.8231 32.5595 88.6204 35.8591 88.7585C39.1586 88.8966 41.8859 88.3322 41.9214 87.4955C41.9569 86.6588 39.3007 85.8615 36.0011 85.7194C32.7016 85.5774 29.9625 86.1299 29.9388 86.9864Z" fill="#9BB0C6"/>
<path d="M30.0009 85.4623L29.9365 86.9805L41.932 87.4895L41.9964 85.9714L30.0009 85.4623Z" fill="#9BB0C6"/>
<path d="M30.0018 85.4668C29.9663 86.3035 32.6225 87.1008 35.922 87.2389C39.2216 87.3771 41.9488 86.8166 41.9844 85.9759C42.0199 85.1353 39.3637 84.342 36.0641 84.1999C32.7646 84.0578 30.0373 84.6261 30.0018 85.4668Z" fill="#9BB0C6"/>
<path opacity="0.4" d="M30.0018 85.4668C29.9663 86.3035 32.6225 87.1008 35.922 87.2389C39.2216 87.3771 41.9488 86.8166 41.9844 85.9759C42.0199 85.1353 39.3637 84.342 36.0641 84.1999C32.7646 84.0578 30.0373 84.6261 30.0018 85.4668Z" fill="white"/>
<path d="M30.752 85.4392C30.7507 85.4937 30.7689 85.5469 30.8033 85.5892C31.198 85.0959 33.3964 84.7998 36.0171 84.9183C38.6378 85.0367 40.8046 85.5024 41.1479 86.0313C41.1864 85.9921 41.2089 85.9401 41.2111 85.8852C41.2348 85.3169 38.914 84.7485 36.021 84.6222C33.128 84.4959 30.7915 84.8709 30.752 85.4392Z" fill="#9BB0C6"/>
<path opacity="0.4" d="M30.752 85.4392C30.7507 85.4937 30.7689 85.5469 30.8033 85.5892C31.198 85.0959 33.3964 84.7998 36.0171 84.9183C38.6378 85.0367 40.8046 85.5024 41.1479 86.0313C41.1864 85.9921 41.2089 85.9401 41.2111 85.8852C41.2348 85.3169 38.914 84.7485 36.021 84.6222C33.128 84.4959 30.7915 84.8709 30.752 85.4392Z" fill="#9BB0C6"/>
<path opacity="0.4" d="M30.8188 85.5892C31.178 86.1141 33.3369 86.5877 35.9497 86.7022C38.5625 86.8167 40.7688 86.5246 41.1635 86.0312C40.8122 85.5024 38.6533 85.0287 36.0326 84.9182C33.4119 84.8077 31.2214 85.0958 30.8188 85.5892Z" fill="#9BB0C6"/>
<path d="M13.7451 97.8717C13.7056 98.7123 16.3618 99.5056 19.6653 99.6438C22.9688 99.7819 25.6881 99.2215 25.7237 98.3808C25.7592 97.5401 23.1069 96.7468 19.8034 96.6087C16.4999 96.4705 13.7806 97.031 13.7451 97.8717Z" fill="#9BB0C6"/>
<path d="M13.8056 96.3446L13.7412 97.8628L25.7366 98.3718L25.8011 96.8537L13.8056 96.3446Z" fill="#9BB0C6"/>
<path d="M13.808 96.3522C13.7724 97.1929 16.4287 97.9862 19.7282 98.1283C23.0277 98.2703 25.755 97.702 25.7905 96.8613C25.826 96.0207 23.1698 95.2273 19.8703 95.0892C16.5707 94.9511 13.8435 95.5115 13.808 96.3522Z" fill="#9BB0C6"/>
<path opacity="0.4" d="M13.808 96.3522C13.7724 97.1929 16.4287 97.9862 19.7282 98.1283C23.0277 98.2703 25.755 97.702 25.7905 96.8613C25.826 96.0207 23.1698 95.2273 19.8703 95.0892C16.5707 94.9511 13.8435 95.5115 13.808 96.3522Z" fill="white"/>
<path d="M14.5697 96.3246C14.5665 96.3793 14.5849 96.4332 14.621 96.4745C15.0157 95.9812 17.2141 95.6852 19.8348 95.8036C22.4554 95.922 24.6223 96.3917 24.9656 96.9166C25.0016 96.8758 25.0237 96.8247 25.0288 96.7706C25.0525 96.2022 22.7317 95.6339 19.8387 95.5115C16.9457 95.3892 14.5973 95.7562 14.5697 96.3246Z" fill="#9BB0C6"/>
<path opacity="0.4" d="M14.5697 96.3246C14.5665 96.3793 14.5849 96.4332 14.621 96.4745C15.0157 95.9812 17.2141 95.6852 19.8348 95.8036C22.4554 95.922 24.6223 96.3917 24.9656 96.9166C25.0016 96.8758 25.0237 96.8247 25.0288 96.7706C25.0525 96.2022 22.7317 95.6339 19.8387 95.5115C16.9457 95.3892 14.5973 95.7562 14.5697 96.3246Z" fill="#9BB0C6"/>
<path opacity="0.4" d="M14.625 96.4745C14.9802 96.9995 17.1431 97.477 19.7559 97.5876C22.3687 97.6981 24.5749 97.4099 24.9696 96.9166C24.6184 96.3917 22.4594 95.9141 19.8388 95.8036C17.2181 95.6931 15.0236 95.997 14.625 96.4745Z" fill="#9BB0C6"/>
<path d="M18.9628 96.3916C18.7654 97.2086 21.2243 98.4913 24.4488 99.257C27.6734 100.023 30.448 99.9832 30.6414 99.1662C30.8348 98.3492 28.3759 97.0665 25.1514 96.3008C21.9268 95.5351 19.1561 95.5746 18.9628 96.3916Z" fill="#9BB0C6"/>
<path d="M19.3131 94.921L18.9614 96.3992L30.6418 99.1776L30.9934 97.6993L19.3131 94.921Z" fill="#9BB0C6"/>
<path d="M19.306 94.9116C19.1087 95.7286 21.5675 97.0113 24.7921 97.7809C28.0166 98.5505 30.7913 98.5071 30.9847 97.6901C31.1781 96.8731 28.731 95.6023 25.5025 94.8129C22.274 94.0235 19.5073 94.0946 19.306 94.9116Z" fill="#9BB0C6"/>
<path opacity="0.4" d="M19.306 94.9116C19.1087 95.7286 21.5675 97.0113 24.7921 97.7809C28.0166 98.5505 30.7913 98.5071 30.9847 97.6901C31.1781 96.8731 28.731 95.6023 25.5025 94.8129C22.274 94.0235 19.5073 94.0946 19.306 94.9116Z" fill="white"/>
<path d="M20.0676 95.03C20.056 95.0837 20.0644 95.1399 20.0913 95.1879C20.5768 94.7932 22.787 94.9116 25.3366 95.5194C27.8863 96.1272 29.9268 97.0034 30.1715 97.5836C30.2161 97.5522 30.2482 97.5061 30.2623 97.4534C30.3925 96.9008 28.2218 95.9023 25.4037 95.2313C22.5857 94.5603 20.2018 94.4774 20.0676 95.03Z" fill="#9BB0C6"/>
<path opacity="0.4" d="M20.0676 95.03C20.056 95.0837 20.0644 95.1399 20.0913 95.1879C20.5768 94.7932 22.787 94.9116 25.3366 95.5194C27.8863 96.1272 29.9268 97.0034 30.1715 97.5836C30.2161 97.5522 30.2482 97.5061 30.2623 97.4534C30.3925 96.9008 28.2218 95.9023 25.4037 95.2313C22.5857 94.5603 20.2018 94.4774 20.0676 95.03Z" fill="#9BB0C6"/>
<path opacity="0.4" d="M20.0952 95.2076C20.3478 95.7917 22.3765 96.6679 24.9301 97.2718C27.4837 97.8756 29.6939 98.0138 30.1754 97.6033C29.9307 97.0231 27.8981 96.1469 25.3405 95.5391C22.783 94.9313 20.5767 94.7774 20.0952 95.2076Z" fill="#9BB0C6"/>
<path d="M34.1855 86.4851C37.1717 86.4851 39.5926 84.0643 39.5926 81.078C39.5926 78.0917 37.1717 75.6708 34.1855 75.6708C31.1992 75.6708 28.7783 78.0917 28.7783 81.078C28.7783 84.0643 31.1992 86.4851 34.1855 86.4851Z" fill="#9BB0C6"/>
<path d="M34.8329 86.4851C37.8192 86.4851 40.2401 84.0643 40.2401 81.078C40.2401 78.0917 37.8192 75.6708 34.8329 75.6708C31.8466 75.6708 29.4258 78.0917 29.4258 81.078C29.4258 84.0643 31.8466 86.4851 34.8329 86.4851Z" fill="#9BB0C6"/>
<path opacity="0.5" d="M34.8329 86.4851C37.8192 86.4851 40.2401 84.0643 40.2401 81.078C40.2401 78.0917 37.8192 75.6708 34.8329 75.6708C31.8466 75.6708 29.4258 78.0917 29.4258 81.078C29.4258 84.0643 31.8466 86.4851 34.8329 86.4851Z" fill="white"/>
<path d="M37.6966 83.941C39.278 82.3596 39.278 79.7957 37.6966 78.2143C36.1152 76.6328 33.5512 76.6328 31.9698 78.2143C30.3884 79.7957 30.3884 82.3596 31.9698 83.941C33.5512 85.5224 36.1152 85.5224 37.6966 83.941Z" fill="#9BB0C6"/>
<path d="M110.584 99.3478C110.552 100.185 107.845 100.769 104.53 100.65C101.214 100.532 98.558 99.7544 98.5857 98.9176C98.6133 98.0809 101.329 97.4928 104.64 97.6112C107.951 97.7296 110.616 98.5072 110.584 99.3478Z" fill="#9BB0C6"/>
<path d="M98.6354 97.3851L98.5811 98.9037L110.58 99.3332L110.634 97.8146L98.6354 97.3851Z" fill="#9BB0C6"/>
<path d="M110.64 97.8283C110.608 98.665 107.901 99.2492 104.585 99.1308C101.27 99.0124 98.6137 98.2348 98.6413 97.3981C98.669 96.5614 101.38 95.9733 104.696 96.0917C108.011 96.2101 110.671 96.9876 110.64 97.8283Z" fill="#9BB0C6"/>
<path opacity="0.4" d="M110.64 97.8283C110.608 98.665 107.901 99.2492 104.585 99.1308C101.27 99.0124 98.6137 98.2348 98.6413 97.3981C98.669 96.5614 101.38 95.9733 104.696 96.0917C108.011 96.2101 110.671 96.9876 110.64 97.8283Z" fill="white"/>
<path d="M109.878 97.7415C109.875 97.7963 109.853 97.8484 109.814 97.8875C109.455 97.3626 107.292 96.9008 104.684 96.81C102.075 96.7192 99.8644 97.0192 99.4737 97.5126C99.439 97.4717 99.4195 97.4201 99.4185 97.3665C99.4421 96.7982 101.787 96.4114 104.691 96.514C107.596 96.6166 109.897 97.181 109.878 97.7415Z" fill="#9BB0C6"/>
<path opacity="0.4" d="M109.878 97.7415C109.875 97.7963 109.853 97.8484 109.814 97.8875C109.455 97.3626 107.292 96.9008 104.684 96.81C102.075 96.7192 99.8644 97.0192 99.4737 97.5126C99.439 97.4717 99.4195 97.4201 99.4185 97.3665C99.4421 96.7982 101.787 96.4114 104.691 96.514C107.596 96.6166 109.897 97.181 109.878 97.7415Z" fill="#9BB0C6"/>
<path opacity="0.4" d="M109.815 97.8875C109.42 98.3808 107.226 98.6768 104.605 98.59C101.984 98.5032 99.8135 98.0374 99.4741 97.5125C99.8688 97.0192 102.055 96.7231 104.684 96.81C107.313 96.8968 109.456 97.3625 109.815 97.8875Z" fill="#9BB0C6"/>
<path d="M112.021 97.1534C111.989 97.9901 109.282 98.5742 105.967 98.4558C102.651 98.3374 99.995 97.5599 100.023 96.7192C100.05 95.8785 102.766 95.2984 106.077 95.4168C109.388 95.5352 112.057 96.3127 112.021 97.1534Z" fill="#9BB0C6"/>
<path d="M100.084 95.2122L100.03 96.7308L112.028 97.1624L112.083 95.6438L100.084 95.2122Z" fill="#9BB0C6"/>
<path d="M112.076 95.6338C112.045 96.4706 109.337 97.0547 106.022 96.9363C102.706 96.8179 100.046 96.0404 100.078 95.1997C100.109 94.359 102.817 93.7788 106.132 93.8972C109.448 94.0156 112.104 94.8129 112.076 95.6338Z" fill="#9BB0C6"/>
<path opacity="0.4" d="M112.076 95.6338C112.045 96.4706 109.337 97.0547 106.022 96.9363C102.706 96.8179 100.046 96.0404 100.078 95.1997C100.109 94.359 102.817 93.7788 106.132 93.8972C109.448 94.0156 112.104 94.8129 112.076 95.6338Z" fill="white"/>
<path d="M111.315 95.547C111.313 95.6008 111.29 95.6519 111.251 95.6891C110.892 95.1681 108.729 94.7063 106.121 94.6156C103.512 94.5248 101.298 94.8247 100.911 95.3181C100.876 95.2772 100.857 95.2257 100.855 95.1721C100.879 94.6037 103.224 94.2169 106.128 94.3196C109.033 94.4222 111.334 94.9787 111.315 95.547Z" fill="#9BB0C6"/>
<path opacity="0.4" d="M111.315 95.547C111.313 95.6008 111.29 95.6519 111.251 95.6891C110.892 95.1681 108.729 94.7063 106.121 94.6156C103.512 94.5248 101.298 94.8247 100.911 95.3181C100.876 95.2772 100.857 95.2257 100.855 95.1721C100.879 94.6037 103.224 94.2169 106.128 94.3196C109.033 94.4222 111.334 94.9787 111.315 95.547Z" fill="#9BB0C6"/>
<path opacity="0.4" d="M111.267 95.6891C110.872 96.1864 108.678 96.4785 106.057 96.3956C103.436 96.3127 101.266 95.843 100.926 95.3181C101.321 94.8248 103.507 94.5287 106.136 94.6156C108.765 94.7024 110.892 95.1681 111.267 95.6891Z" fill="#9BB0C6"/>
<path d="M112.076 94.3748C112.045 95.2155 109.333 95.7996 106.022 95.6812C102.71 95.5628 100.046 94.7853 100.078 93.9446C100.109 93.1039 102.817 92.5238 106.132 92.6422C109.448 92.7606 112.104 93.5381 112.076 94.3748Z" fill="#9BB0C6"/>
<path d="M100.136 92.4364L100.081 93.955L112.08 94.3865L112.134 92.868L100.136 92.4364Z" fill="#9BB0C6"/>
<path d="M112.131 92.8395C112.1 93.6802 109.388 94.2643 106.077 94.1459C102.766 94.0275 100.102 93.25 100.133 92.4093C100.165 91.5686 102.872 90.9884 106.184 91.1068C109.495 91.2252 112.159 92.0185 112.131 92.8395Z" fill="#9BB0C6"/>
<path opacity="0.4" d="M112.131 92.8395C112.1 93.6802 109.388 94.2643 106.077 94.1459C102.766 94.0275 100.102 93.25 100.133 92.4093C100.165 91.5686 102.872 90.9884 106.184 91.1068C109.495 91.2252 112.159 92.0185 112.131 92.8395Z" fill="white"/>
<path d="M111.37 92.7724C111.365 92.8254 111.343 92.8753 111.307 92.9145C110.943 92.3935 108.781 91.9317 106.176 91.837C103.571 91.7423 101.357 92.0462 100.966 92.5435C100.932 92.5012 100.913 92.448 100.915 92.3935C100.915 91.8252 103.283 91.4423 106.188 91.545C109.092 91.6476 111.389 92.2041 111.37 92.7724Z" fill="#9BB0C6"/>
<path opacity="0.4" d="M111.37 92.7724C111.365 92.8254 111.343 92.8753 111.307 92.9145C110.943 92.3935 108.781 91.9317 106.176 91.837C103.571 91.7423 101.357 92.0462 100.966 92.5435C100.932 92.5012 100.913 92.448 100.915 92.3935C100.915 91.8252 103.283 91.4423 106.188 91.545C109.092 91.6476 111.389 92.2041 111.37 92.7724Z" fill="#9BB0C6"/>
<path opacity="0.4" d="M111.306 92.9145C110.912 93.4118 108.717 93.7038 106.097 93.6209C103.476 93.5381 101.305 93.0684 100.966 92.5435C101.361 92.0462 103.547 91.7541 106.176 91.837C108.804 91.9199 110.943 92.3935 111.306 92.9145Z" fill="#9BB0C6"/>
<path d="M113.513 92.1804C113.481 93.021 110.77 93.6052 107.458 93.4868C104.147 93.3684 101.483 92.5908 101.514 91.7501C101.546 90.9095 104.254 90.3293 107.569 90.4477C110.884 90.5661 113.54 91.3436 113.513 92.1804Z" fill="#9BB0C6"/>
<path d="M101.559 90.2237L101.504 91.7422L113.503 92.1717L113.557 90.6532L101.559 90.2237Z" fill="#9BB0C6"/>
<path d="M113.564 90.6608C113.536 91.5015 110.825 92.0856 107.514 91.9672C104.202 91.8488 101.538 91.0713 101.57 90.2306C101.601 89.39 104.309 88.8098 107.62 88.9282C110.931 89.0466 113.596 89.8241 113.564 90.6608Z" fill="#9BB0C6"/>
<path opacity="0.4" d="M113.564 90.6608C113.536 91.5015 110.825 92.0856 107.514 91.9672C104.202 91.8488 101.538 91.0713 101.57 90.2306C101.601 89.39 104.309 88.8098 107.62 88.9282C110.931 89.0466 113.596 89.8241 113.564 90.6608Z" fill="white"/>
<path d="M112.806 90.578C112.801 90.6309 112.779 90.6808 112.743 90.7201C112.38 90.1991 110.217 89.7373 107.612 89.6426C105.007 89.5478 102.793 89.8517 102.402 90.349C102.368 90.3068 102.35 90.2536 102.351 90.1991C102.371 89.6307 104.719 89.2479 107.624 89.3505C110.529 89.4531 112.846 90.0096 112.806 90.578Z" fill="#9BB0C6"/>
<path opacity="0.4" d="M112.806 90.578C112.801 90.6309 112.779 90.6808 112.743 90.7201C112.38 90.1991 110.217 89.7373 107.612 89.6426C105.007 89.5478 102.793 89.8517 102.402 90.349C102.368 90.3068 102.35 90.2536 102.351 90.1991C102.371 89.6307 104.719 89.2479 107.624 89.3505C110.529 89.4531 112.846 90.0096 112.806 90.578Z" fill="#9BB0C6"/>
<path opacity="0.4" d="M112.743 90.7201C112.348 91.2174 110.154 91.5094 107.533 91.4266C104.913 91.3437 102.742 90.874 102.402 90.3491C102.797 89.8518 104.984 89.5597 107.612 89.6426C110.241 89.7255 112.38 90.1991 112.743 90.7201Z" fill="#9BB0C6"/>
<path d="M65.8788 97.6585C65.8432 98.4992 68.4955 99.2925 71.799 99.4346C75.1025 99.5767 77.8219 99.0083 77.8574 98.1677C77.8929 97.327 75.2406 96.5337 71.9371 96.3956C68.6337 96.2574 65.9025 96.8218 65.8788 97.6585Z" fill="#9BB0C6"/>
<path d="M65.9233 96.1338L65.8589 97.652L77.8543 98.161L77.9188 96.6429L65.9233 96.1338Z" fill="#9BB0C6"/>
<path d="M65.93 96.139C65.8945 96.9797 68.5507 97.773 71.8503 97.9151C75.1498 98.0572 77.8771 97.4888 77.9126 96.6481C77.9481 95.8075 75.2919 95.0142 71.9924 94.876C68.6928 94.7379 65.9656 95.3023 65.93 96.139Z" fill="#9BB0C6"/>
<path opacity="0.4" d="M65.93 96.139C65.8945 96.9797 68.5507 97.773 71.8503 97.9151C75.1498 98.0572 77.8771 97.4888 77.9126 96.6481C77.9481 95.8075 75.2919 95.0142 71.9924 94.876C68.6928 94.7379 65.9656 95.3023 65.93 96.139Z" fill="white"/>
<path d="M66.6955 96.1154C66.6933 96.1688 66.7116 96.2211 66.7468 96.2614C67.1415 95.7681 69.3399 95.472 71.9605 95.5904C74.5812 95.7088 76.748 96.1785 77.0914 96.7034C77.1274 96.6627 77.1495 96.6116 77.1546 96.5574C77.1782 95.9891 74.8575 95.4207 71.9645 95.2984C69.0715 95.176 66.7192 95.547 66.6955 96.1154Z" fill="#9BB0C6"/>
<path opacity="0.4" d="M66.6955 96.1154C66.6933 96.1688 66.7116 96.2211 66.7468 96.2614C67.1415 95.7681 69.3399 95.472 71.9605 95.5904C74.5812 95.7088 76.748 96.1785 77.0914 96.7034C77.1274 96.6627 77.1495 96.6116 77.1546 96.5574C77.1782 95.9891 74.8575 95.4207 71.9645 95.2984C69.0715 95.176 66.7192 95.547 66.6955 96.1154Z" fill="#9BB0C6"/>
<path opacity="0.4" d="M66.7471 96.2614C67.1023 96.7903 69.2651 97.2639 71.8779 97.3744C74.4907 97.4849 76.697 97.1968 77.0917 96.7035C76.7404 96.1785 74.5815 95.7049 71.9608 95.5904C69.3401 95.476 67.1457 95.7681 66.7471 96.2614Z" fill="#9BB0C6"/>
<path d="M64.6039 95.3576C64.5683 96.1983 67.2246 96.9916 70.5241 97.1336C73.8236 97.2757 76.5509 96.7074 76.5864 95.8667C76.6219 95.026 73.9657 94.2327 70.6662 94.0946C67.3666 93.9565 64.6394 94.5209 64.6039 95.3576Z" fill="#9BB0C6"/>
<path d="M64.6679 93.8446L64.6035 95.3628L76.5989 95.8718L76.6634 94.3537L64.6679 93.8446Z" fill="#9BB0C6"/>
<path d="M64.6708 93.838C64.6352 94.6787 67.2915 95.472 70.591 95.6141C73.8905 95.7562 76.6178 95.1879 76.6533 94.3472C76.6888 93.5065 74.0326 92.7171 70.7331 92.5751C67.4335 92.433 64.6944 93.0013 64.6708 93.838Z" fill="#9BB0C6"/>
<path opacity="0.4" d="M64.6708 93.838C64.6352 94.6787 67.2915 95.472 70.591 95.6141C73.8905 95.7562 76.6178 95.1879 76.6533 94.3472C76.6888 93.5065 74.0326 92.7171 70.7331 92.5751C67.4335 92.433 64.6944 93.0013 64.6708 93.838Z" fill="white"/>
<path d="M65.4326 93.8144C65.4347 93.8683 65.4525 93.9205 65.4839 93.9644C65.8786 93.471 68.0809 93.175 70.6977 93.2895C73.3144 93.4039 75.4891 93.8775 75.8285 94.4025C75.8672 94.3631 75.891 94.3114 75.8956 94.2564C75.9193 93.6881 73.5986 93.1197 70.7056 92.9974C67.8126 92.875 65.4602 93.2342 65.4326 93.8144Z" fill="#9BB0C6"/>
<path opacity="0.4" d="M65.4326 93.8144C65.4347 93.8683 65.4525 93.9205 65.4839 93.9644C65.8786 93.471 68.0809 93.175 70.6977 93.2895C73.3144 93.4039 75.4891 93.8775 75.8285 94.4025C75.8672 94.3631 75.891 94.3114 75.8956 94.2564C75.9193 93.6881 73.5986 93.1197 70.7056 92.9974C67.8126 92.875 65.4602 93.2342 65.4326 93.8144Z" fill="#9BB0C6"/>
<path opacity="0.4" d="M65.4839 93.9643C65.843 94.4893 68.002 94.9629 70.6148 95.0734C73.2275 95.1839 75.4378 94.8958 75.8285 94.4024C75.4812 93.8775 73.3183 93.4039 70.6976 93.2894C68.077 93.175 65.8786 93.471 65.4839 93.9643Z" fill="#9BB0C6"/>
<path d="M64.7694 92.5869C64.7339 93.4275 67.3901 94.2209 70.6896 94.3629C73.9892 94.505 76.7164 93.9367 76.7519 93.096C76.7875 92.2553 74.1313 91.462 70.8317 91.3239C67.5322 91.1858 64.8049 91.7502 64.7694 92.5869Z" fill="#9BB0C6"/>
<path d="M64.8315 91.0672L64.7671 92.5853L76.7625 93.0944L76.827 91.5762L64.8315 91.0672Z" fill="#9BB0C6"/>
<path d="M64.8329 91.0674C64.7974 91.908 67.4536 92.7013 70.7531 92.8434C74.0526 92.9855 76.7799 92.4172 76.8154 91.5765C76.8509 90.7358 74.1947 89.9425 70.8952 89.8044C67.5956 89.6662 64.8684 90.2306 64.8329 91.0674Z" fill="#9BB0C6"/>
<path opacity="0.4" d="M64.8329 91.0674C64.7974 91.908 67.4536 92.7013 70.7531 92.8434C74.0526 92.9855 76.7799 92.4172 76.8154 91.5765C76.8509 90.7358 74.1947 89.9425 70.8952 89.8044C67.5956 89.6662 64.8684 90.2306 64.8329 91.0674Z" fill="white"/>
<path d="M65.5983 91.0437C65.5961 91.0972 65.6145 91.1494 65.6496 91.1897C66.0443 90.7003 68.2427 90.4004 70.8634 90.5188C73.4841 90.6372 75.6509 91.1069 75.9943 91.6318C76.0302 91.591 76.0524 91.5399 76.0574 91.4858C76.0811 90.9174 73.7604 90.3491 70.8673 90.2267C67.9743 90.1044 65.622 90.4714 65.5983 91.0437Z" fill="#9BB0C6"/>
<path opacity="0.4" d="M65.5983 91.0437C65.5961 91.0972 65.6145 91.1494 65.6496 91.1897C66.0443 90.7003 68.2427 90.4004 70.8634 90.5188C73.4841 90.6372 75.6509 91.1069 75.9943 91.6318C76.0302 91.591 76.0524 91.5399 76.0574 91.4858C76.0811 90.9174 73.7604 90.3491 70.8673 90.2267C67.9743 90.1044 65.622 90.4714 65.5983 91.0437Z" fill="#9BB0C6"/>
<path opacity="0.4" d="M65.6499 91.1897C66.0051 91.7186 68.168 92.1922 70.7808 92.3027C73.3936 92.4132 75.5998 92.1251 75.9945 91.6318C75.6433 91.1068 73.4843 90.6332 70.8637 90.5188C68.243 90.4043 66.0485 90.7003 65.6499 91.1897Z" fill="#9BB0C6"/>
<path d="M63.5106 90.2859C63.4751 91.1266 66.1313 91.9199 69.4308 92.062C72.7304 92.2041 75.4576 91.6357 75.4931 90.7951C75.5287 89.9544 72.8725 89.165 69.5729 89.0229C66.2734 88.8809 63.5422 89.4492 63.5106 90.2859Z" fill="#9BB0C6"/>
<path d="M63.5683 88.7624L63.5039 90.2805L75.4993 90.7896L75.5638 89.2714L63.5683 88.7624Z" fill="#9BB0C6"/>
<path d="M63.5736 88.7664C63.5381 89.6071 66.1943 90.4004 69.4938 90.5425C72.7934 90.6845 75.5206 90.1162 75.5561 89.2755C75.5917 88.4349 72.9355 87.6455 69.6359 87.5034C66.3364 87.3613 63.6091 87.9297 63.5736 88.7664Z" fill="#9BB0C6"/>
<path opacity="0.4" d="M63.5736 88.7664C63.5381 89.6071 66.1943 90.4004 69.4938 90.5425C72.7934 90.6845 75.5206 90.1162 75.5561 89.2755C75.5917 88.4349 72.9355 87.6455 69.6359 87.5034C66.3364 87.3613 63.6091 87.9297 63.5736 88.7664Z" fill="white"/>
<path d="M64.3394 88.7427C64.338 88.7966 64.3547 88.8494 64.3868 88.8927C64.7815 88.3993 66.9838 88.1033 69.6045 88.2217C72.2252 88.3401 74.392 88.8058 74.7354 89.3308C74.7721 89.2905 74.7943 89.2391 74.7985 89.1847C74.8222 88.6203 72.5015 88.0481 69.6084 87.9257C66.7154 87.8033 64.3631 88.1744 64.3394 88.7427Z" fill="#9BB0C6"/>
<path opacity="0.4" d="M64.3394 88.7427C64.338 88.7966 64.3547 88.8494 64.3868 88.8927C64.7815 88.3993 66.9838 88.1033 69.6045 88.2217C72.2252 88.3401 74.392 88.8058 74.7354 89.3308C74.7721 89.2905 74.7943 89.2391 74.7985 89.1847C74.8222 88.6203 72.5015 88.0481 69.6084 87.9257C66.7154 87.8033 64.3631 88.1744 64.3394 88.7427Z" fill="#9BB0C6"/>
<path opacity="0.4" d="M64.3867 88.8927C64.7459 89.4176 66.9048 89.8912 69.5176 90.0017C72.1304 90.1122 74.3406 89.8241 74.7353 89.3308C74.384 88.8058 72.2212 88.3322 69.6044 88.2217C66.9877 88.1112 64.7893 88.3993 64.3867 88.8927Z" fill="#9BB0C6"/>
<path d="M65.4325 88.3361C65.397 89.1768 68.0532 89.9701 71.3527 90.1122C74.6523 90.2543 77.3795 89.686 77.415 88.8453C77.4506 88.0046 74.7943 87.2153 71.4948 87.0732C68.1953 86.9311 65.4838 87.4994 65.4325 88.3361Z" fill="#9BB0C6"/>
<path d="M65.499 86.8185L65.4346 88.3367L77.43 88.8457L77.4944 87.3276L65.499 86.8185Z" fill="#9BB0C6"/>
<path d="M65.4838 86.8166C65.4482 87.6573 68.1044 88.4506 71.404 88.5927C74.7035 88.7348 77.4308 88.1664 77.4663 87.3258C77.5018 86.4851 74.8456 85.6957 71.5461 85.5536C68.2465 85.4116 65.5311 85.9799 65.4838 86.8166Z" fill="#9BB0C6"/>
<path opacity="0.4" d="M65.4838 86.8166C65.4482 87.6573 68.1044 88.4506 71.404 88.5927C74.7035 88.7348 77.4308 88.1664 77.4663 87.3258C77.5018 86.4851 74.8456 85.6957 71.5461 85.5536C68.2465 85.4116 65.5311 85.9799 65.4838 86.8166Z" fill="white"/>
<path d="M66.2734 86.793C66.2734 86.8473 66.2915 86.9001 66.3247 86.943C66.7194 86.4496 68.9178 86.1536 71.5385 86.272C74.1592 86.3904 76.326 86.8561 76.6694 87.3811C76.6891 87.3622 76.7048 87.3395 76.7157 87.3144C76.7265 87.2893 76.7322 87.2623 76.7325 87.235C76.7562 86.6706 74.4355 86.0983 71.5424 85.976C68.6494 85.8536 66.2734 86.2246 66.2734 86.793Z" fill="#9BB0C6"/>
<path opacity="0.4" d="M66.2734 86.793C66.2734 86.8473 66.2915 86.9001 66.3247 86.943C66.7194 86.4496 68.9178 86.1536 71.5385 86.272C74.1592 86.3904 76.326 86.8561 76.6694 87.3811C76.6891 87.3622 76.7048 87.3395 76.7157 87.3144C76.7265 87.2893 76.7322 87.2623 76.7325 87.235C76.7562 86.6706 74.4355 86.0983 71.5424 85.976C68.6494 85.8536 66.2734 86.2246 66.2734 86.793Z" fill="#9BB0C6"/>
<path opacity="0.4" d="M66.3125 86.943C66.6717 87.4679 68.8306 87.9415 71.4434 88.052C74.0562 88.1625 76.2624 87.8744 76.6571 87.3811C76.3058 86.8561 74.1469 86.3825 71.5262 86.272C68.9056 86.1615 66.7151 86.4496 66.3125 86.943Z" fill="#9BB0C6"/>
<path d="M64.1737 86.0391C64.1382 86.8759 66.7944 87.6692 70.0939 87.8113C73.3935 87.9533 76.1168 87.385 76.1562 86.5483C76.1957 85.7115 73.5356 84.9143 70.236 84.7722C66.9365 84.6301 64.2092 85.1985 64.1737 86.0391Z" fill="#9BB0C6"/>
<path d="M64.2319 84.5136L64.1675 86.0317L76.1629 86.5408L76.2273 85.0226L64.2319 84.5136Z" fill="#9BB0C6"/>
<path d="M64.2367 84.5196C64.2012 85.3563 66.8574 86.1496 70.1569 86.2917C73.4565 86.4338 76.1837 85.8655 76.2192 85.0287C76.2548 84.192 73.5985 83.3948 70.299 83.2527C66.9995 83.1106 64.2722 83.6789 64.2367 84.5196Z" fill="#9BB0C6"/>
<path opacity="0.4" d="M64.2367 84.5196C64.2012 85.3563 66.8574 86.1496 70.1569 86.2917C73.4565 86.4338 76.1837 85.8655 76.2192 85.0287C76.2548 84.192 73.5985 83.3948 70.299 83.2527C66.9995 83.1106 64.2722 83.6789 64.2367 84.5196Z" fill="white"/>
<path d="M65.0022 84.492C64.9998 84.5466 65.0181 84.6002 65.0535 84.6419C65.4482 84.1486 67.6465 83.8526 70.2672 83.971C72.8879 84.0894 75.0547 84.5551 75.3981 85.08C75.434 85.0408 75.4562 84.9909 75.4612 84.938C75.4849 84.3696 73.1642 83.7973 70.2712 83.675C67.3782 83.5526 65.0258 83.9236 65.0022 84.492Z" fill="#9BB0C6"/>
<path opacity="0.4" d="M65.0022 84.492C64.9998 84.5466 65.0181 84.6002 65.0535 84.6419C65.4482 84.1486 67.6465 83.8526 70.2672 83.971C72.8879 84.0894 75.0547 84.5551 75.3981 85.08C75.434 85.0408 75.4562 84.9909 75.4612 84.938C75.4849 84.3696 73.1642 83.7973 70.2712 83.675C67.3782 83.5526 65.0258 83.9236 65.0022 84.492Z" fill="#9BB0C6"/>
<path opacity="0.4" d="M65.0537 84.6419C65.4089 85.1669 67.5718 85.6405 70.1846 85.751C72.7974 85.8615 75.0036 85.5734 75.3983 85.08C75.0471 84.5551 72.8881 84.0815 70.2675 83.971C67.6468 83.8605 65.4523 84.1565 65.0537 84.6419Z" fill="#9BB0C6"/>
<path d="M77.423 84.4052C77.4585 85.2419 74.8023 86.0391 71.5027 86.1773C68.2032 86.3154 65.4838 85.7352 65.4286 84.9143C65.3733 84.0934 68.0453 83.2803 71.3488 83.1382C74.6523 82.9961 77.3835 83.5645 77.423 84.4052Z" fill="#9BB0C6"/>
<path d="M77.0902 83.2814L65.084 83.7617L65.1448 85.2812L77.151 84.8009L77.0902 83.2814Z" fill="#9BB0C6"/>
<path d="M77.3559 82.8856C77.3915 83.7223 74.7353 84.5196 71.4357 84.6577C68.1362 84.7959 65.4089 84.2354 65.3734 83.3948C65.3379 82.5541 67.9941 81.7608 71.2936 81.6187C74.5932 81.4766 77.3244 82.0449 77.3559 82.8856Z" fill="#9BB0C6"/>
<path opacity="0.4" d="M77.3559 82.8856C77.3915 83.7223 74.7353 84.5196 71.4357 84.6577C68.1362 84.7959 65.4089 84.2354 65.3734 83.3948C65.3379 82.5541 67.9941 81.7608 71.2936 81.6187C74.5932 81.4766 77.3244 82.0449 77.3559 82.8856Z" fill="white"/>
<path d="M76.5901 82.858C76.5934 82.9128 76.5749 82.9667 76.5388 83.008C76.1441 82.5146 73.9457 82.2186 71.3251 82.337C68.7044 82.4554 66.5376 82.9212 66.1942 83.45C66.1589 83.4089 66.1368 83.3579 66.131 83.304C66.1074 82.7357 68.4281 82.1673 71.3211 82.045C74.2141 81.9226 76.5664 82.2897 76.5901 82.858Z" fill="#9BB0C6"/>
<path opacity="0.4" d="M76.5901 82.858C76.5934 82.9128 76.5749 82.9667 76.5388 83.008C76.1441 82.5146 73.9457 82.2186 71.3251 82.337C68.7044 82.4554 66.5376 82.9212 66.1942 83.45C66.1589 83.4089 66.1368 83.3579 66.131 83.304C66.1074 82.7357 68.4281 82.1673 71.3211 82.045C74.2141 81.9226 76.5664 82.2897 76.5901 82.858Z" fill="#9BB0C6"/>
<path opacity="0.4" d="M76.5351 83.0079C76.1798 83.5329 74.017 84.0065 71.4042 84.121C68.7914 84.2354 66.5851 83.9433 66.1904 83.45C66.5417 82.9211 68.7006 82.4475 71.3213 82.337C73.942 82.2265 76.1404 82.5146 76.5351 83.0079Z" fill="#9BB0C6"/>
<path d="M78.6821 82.1041C78.7176 82.9448 76.0614 83.7381 72.7619 83.8763C69.4623 84.0144 66.7351 83.454 66.6996 82.6133C66.664 81.7726 69.3203 80.9793 72.6198 80.8412C75.9193 80.703 78.6466 81.2635 78.6821 82.1041Z" fill="#9BB0C6"/>
<path d="M78.618 80.5809L66.6226 81.0899L66.687 82.6081L78.6824 82.099L78.618 80.5809Z" fill="#9BB0C6"/>
<path d="M78.6152 80.6043C78.6507 81.445 75.9984 82.2383 72.695 82.3804C69.3915 82.5225 66.6721 81.9542 66.6366 81.1135C66.6011 80.2728 69.2533 79.4795 72.5568 79.3414C75.8603 79.2032 78.5797 79.7439 78.6152 80.6043Z" fill="#9BB0C6"/>
<path opacity="0.4" d="M78.6152 80.6043C78.6507 81.445 75.9984 82.2383 72.695 82.3804C69.3915 82.5225 66.6721 81.9542 66.6366 81.1135C66.6011 80.2728 69.2533 79.4795 72.5568 79.3414C75.8603 79.2032 78.5797 79.7439 78.6152 80.6043Z" fill="white"/>
<path d="M77.8534 80.557C77.8525 80.6111 77.8346 80.6636 77.8021 80.707C77.4074 80.2136 75.205 79.9176 72.5883 80.036C69.9716 80.1544 67.7969 80.6241 67.4574 81.149C67.4183 81.1103 67.3957 81.058 67.3943 81.003C67.3667 80.4346 69.6913 79.8663 72.5804 79.7439C75.4695 79.6216 77.8257 79.9886 77.8534 80.557Z" fill="#9BB0C6"/>
<path opacity="0.4" d="M77.8534 80.557C77.8525 80.6111 77.8346 80.6636 77.8021 80.707C77.4074 80.2136 75.205 79.9176 72.5883 80.036C69.9716 80.1544 67.7969 80.6241 67.4574 81.149C67.4183 81.1103 67.3957 81.058 67.3943 81.003C67.3667 80.4346 69.6913 79.8663 72.5804 79.7439C75.4695 79.6216 77.8257 79.9886 77.8534 80.557Z" fill="#9BB0C6"/>
<path opacity="0.4" d="M77.8021 80.707C77.443 81.2319 75.2841 81.7094 72.6713 81.82C70.0585 81.9305 67.8483 81.6424 67.4575 81.149C67.8048 80.6241 69.9677 80.1465 72.5884 80.036C75.2091 79.9255 77.3996 80.2097 77.8021 80.707Z" fill="#9BB0C6"/>
<path d="M78.5083 79.3335C78.5438 80.1702 75.8915 80.9675 72.588 81.1056C69.2845 81.2438 66.5652 80.6833 66.5296 79.8426C66.4941 79.002 69.1464 78.2087 72.4499 78.0666C75.7534 77.9245 78.4806 78.4928 78.5083 79.3335Z" fill="#9BB0C6"/>
<path d="M78.453 77.8156L66.4575 78.3246L66.5219 79.8428L78.5174 79.3338L78.453 77.8156Z" fill="#9BB0C6"/>
<path d="M78.4531 77.814C78.4886 78.6546 75.8324 79.448 72.5329 79.5861C69.2333 79.7242 66.5061 79.1638 66.4706 78.3231C66.435 77.4824 69.0913 76.6891 72.3908 76.551C75.6903 76.4129 78.4176 76.9733 78.4531 77.814Z" fill="#9BB0C6"/>
<path opacity="0.4" d="M78.4531 77.814C78.4886 78.6546 75.8324 79.448 72.5329 79.5861C69.2333 79.7242 66.5061 79.1638 66.4706 78.3231C66.435 77.4824 69.0913 76.6891 72.3908 76.551C75.6903 76.4129 78.4176 76.9733 78.4531 77.814Z" fill="white"/>
<path d="M77.6873 77.7863C77.6905 77.8411 77.6721 77.8949 77.636 77.9363C77.2413 77.4429 75.0429 77.1469 72.4222 77.2653C69.8015 77.3837 67.6347 77.8534 67.2914 78.3783C67.256 78.3371 67.234 78.2862 67.2282 78.2323C67.2045 77.6639 69.5253 77.0956 72.4183 76.9732C75.3113 76.8509 77.6636 77.2179 77.6873 77.7863Z" fill="#9BB0C6"/>
<path opacity="0.4" d="M77.6873 77.7863C77.6905 77.8411 77.6721 77.8949 77.636 77.9363C77.2413 77.4429 75.0429 77.1469 72.4222 77.2653C69.8015 77.3837 67.6347 77.8534 67.2914 78.3783C67.256 78.3371 67.234 78.2862 67.2282 78.2323C67.2045 77.6639 69.5253 77.0956 72.4183 76.9732C75.3113 76.8509 77.6636 77.2179 77.6873 77.7863Z" fill="#9BB0C6"/>
<path opacity="0.4" d="M77.6361 77.9363C77.2809 78.4612 75.1181 78.9388 72.5053 79.0493C69.8925 79.1598 67.6862 78.8717 67.2915 78.3783C67.6428 77.8534 69.8017 77.3758 72.4224 77.2653C75.0431 77.1548 77.2375 77.4469 77.6361 77.9363Z" fill="#9BB0C6"/>
<path d="M79.7793 77.0522C79.8148 77.8929 77.1586 78.6862 73.8591 78.8283C70.5595 78.9704 67.8323 78.402 67.7967 77.5614C67.7612 76.7207 70.4174 75.9274 73.717 75.7892C77.0165 75.6511 79.7438 76.1918 79.7793 77.0522Z" fill="#9BB0C6"/>
<path d="M79.7044 75.5185L67.709 76.0276L67.7734 77.5458L79.7688 77.0367L79.7044 75.5185Z" fill="#9BB0C6"/>
<path d="M79.7124 75.5129C79.7479 76.3536 77.0917 77.1469 73.7922 77.289C70.4926 77.4311 67.7654 76.8628 67.7298 76.0221C67.6943 75.1814 70.3505 74.3881 73.6501 74.25C76.9496 74.1118 79.6927 74.6841 79.7124 75.5129Z" fill="#9BB0C6"/>
<path opacity="0.4" d="M79.7124 75.5129C79.7479 76.3536 77.0917 77.1469 73.7922 77.289C70.4926 77.4311 67.7654 76.8628 67.7298 76.0221C67.6943 75.1814 70.3505 74.3881 73.6501 74.25C76.9496 74.1118 79.6927 74.6841 79.7124 75.5129Z" fill="white"/>
<path d="M78.9505 75.4735C78.9491 75.5263 78.9312 75.5774 78.8992 75.6195C78.5045 75.1261 76.3022 74.8301 73.6854 74.9485C71.0687 75.067 68.894 75.5366 68.5546 76.0615C68.5159 76.0222 68.4921 75.9705 68.4875 75.9155C68.4638 75.3472 70.7845 74.7788 73.6776 74.6565C76.5706 74.5341 78.9229 74.9209 78.9505 75.4735Z" fill="#9BB0C6"/>
<path opacity="0.4" d="M78.9505 75.4735C78.9491 75.5263 78.9312 75.5774 78.8992 75.6195C78.5045 75.1261 76.3022 74.8301 73.6854 74.9485C71.0687 75.067 68.894 75.5366 68.5546 76.0615C68.5159 76.0222 68.4921 75.9705 68.4875 75.9155C68.4638 75.3472 70.7845 74.7788 73.6776 74.6565C76.5706 74.5341 78.9229 74.9209 78.9505 75.4735Z" fill="#9BB0C6"/>
<path opacity="0.4" d="M78.9032 75.6353C78.5441 76.1642 76.3851 76.6378 73.7723 76.7483C71.1596 76.8588 68.9493 76.5707 68.5586 76.0773C68.9059 75.5524 71.0688 75.0748 73.6895 74.9643C76.3102 74.8538 78.5085 75.1419 78.9032 75.6353Z" fill="#9BB0C6"/>
<path d="M77.8531 75.0788C77.8886 75.9195 75.2324 76.7128 71.9328 76.8549C68.6333 76.9969 65.8784 76.4325 65.8784 75.5919C65.8784 74.7512 68.4991 73.9579 71.7986 73.8198C75.0982 73.6816 77.8176 74.246 77.8531 75.0788Z" fill="#9BB0C6"/>
<path d="M77.7918 73.5613L65.7964 74.0703L65.8608 75.5885L77.8562 75.0794L77.7918 73.5613Z" fill="#9BB0C6"/>
<path d="M77.79 73.5632C77.8255 74.4039 75.1693 75.1972 71.8698 75.3393C68.5703 75.4814 65.843 74.913 65.8075 74.0724C65.772 73.2317 68.4282 72.4384 71.7277 72.3002C75.0273 72.1621 77.7545 72.7107 77.79 73.5632Z" fill="#9BB0C6"/>
<path opacity="0.4" d="M77.79 73.5632C77.8255 74.4039 75.1693 75.1972 71.8698 75.3393C68.5703 75.4814 65.843 74.913 65.8075 74.0724C65.772 73.2317 68.4282 72.4384 71.7277 72.3002C75.0273 72.1621 77.7545 72.7107 77.79 73.5632Z" fill="white"/>
<path d="M77.0242 73.5396C77.0264 73.593 77.008 73.6453 76.9729 73.6856C76.5782 73.1922 74.3798 72.8962 71.7591 73.0146C69.1384 73.133 66.9716 73.6027 66.6283 74.1276C66.5907 74.0879 66.5684 74.0362 66.5651 73.9816C66.5414 73.4133 68.8622 72.8449 71.7552 72.7226C74.6482 72.6002 77.0005 72.9712 77.0242 73.5396Z" fill="#9BB0C6"/>
<path opacity="0.4" d="M77.0242 73.5396C77.0264 73.593 77.008 73.6453 76.9729 73.6856C76.5782 73.1922 74.3798 72.8962 71.7591 73.0146C69.1384 73.133 66.9716 73.6027 66.6283 74.1276C66.5907 74.0879 66.5684 74.0362 66.5651 73.9816C66.5414 73.4133 68.8622 72.8449 71.7552 72.7226C74.6482 72.6002 77.0005 72.9712 77.0242 73.5396Z" fill="#9BB0C6"/>
<path opacity="0.4" d="M76.973 73.6855C76.6139 74.2144 74.455 74.688 71.8422 74.7986C69.2294 74.9091 67.0231 74.6209 66.6284 74.1276C66.9797 73.6027 69.1386 73.129 71.7593 73.0146C74.38 72.9001 76.5705 73.1922 76.973 73.6855Z" fill="#9BB0C6"/>
<path d="M79.1162 72.7818C79.1517 73.6224 76.4955 74.4157 73.1959 74.5578C69.8964 74.6999 67.1731 74.1316 67.1376 73.2909C67.102 72.4502 69.7543 71.6569 73.0578 71.5188C76.3613 71.3806 79.0767 71.945 79.1162 72.7818Z" fill="#9BB0C6"/>
<path d="M79.0472 71.2682L67.0518 71.7772L67.1162 73.2954L79.1116 72.7863L79.0472 71.2682Z" fill="#9BB0C6"/>
<path d="M79.0493 71.2622C79.0848 72.1029 76.4286 72.8962 73.1291 73.0383C69.8295 73.1804 67.1023 72.612 67.0668 71.7714C67.0312 70.9307 69.6875 70.1413 72.987 69.9993C76.2865 69.8572 79.0138 70.4255 79.0493 71.2622Z" fill="#9BB0C6"/>
<path opacity="0.4" d="M79.0493 71.2622C79.0848 72.1029 76.4286 72.8962 73.1291 73.0383C69.8295 73.1804 67.1023 72.612 67.0668 71.7714C67.0312 70.9307 69.6875 70.1413 72.987 69.9993C76.2865 69.8572 79.0138 70.4255 79.0493 71.2622Z" fill="white"/>
<path d="M78.2835 71.2385C78.2851 71.2931 78.2669 71.3464 78.2322 71.3885C77.8375 70.8952 75.6391 70.5992 73.0184 70.7136C70.3977 70.8281 68.2309 71.3017 67.8875 71.8266C67.8516 71.7859 67.8294 71.7347 67.8244 71.6806C67.8007 71.1122 70.1214 70.5439 73.0145 70.4215C75.9075 70.2992 78.2598 70.6702 78.2835 71.2385Z" fill="#9BB0C6"/>
<path opacity="0.4" d="M78.2835 71.2385C78.2851 71.2931 78.2669 71.3464 78.2322 71.3885C77.8375 70.8952 75.6391 70.5992 73.0184 70.7136C70.3977 70.8281 68.2309 71.3017 67.8875 71.8266C67.8516 71.7859 67.8294 71.7347 67.8244 71.6806C67.8007 71.1122 70.1214 70.5439 73.0145 70.4215C75.9075 70.2992 78.2598 70.6702 78.2835 71.2385Z" fill="#9BB0C6"/>
<path opacity="0.4" d="M78.2323 71.3885C77.8771 71.9135 75.7142 72.3871 73.1014 72.4976C70.4886 72.6081 68.2824 72.32 67.8877 71.8266C68.239 71.3017 70.3979 70.8281 73.0186 70.7136C75.6393 70.5992 77.8337 70.8952 78.2323 71.3885Z" fill="#9BB0C6"/>
<path d="M74.1174 71.0621C76.9137 70.0138 78.3307 66.8972 77.2825 64.101C76.2342 61.3047 73.1176 59.8877 70.3214 60.9359C67.5251 61.9842 66.1081 65.1008 67.1563 67.8971C68.2046 70.6933 71.3212 72.1103 74.1174 71.0621Z" fill="#9BB0C6"/>
<path d="M76.9333 69.7707C78.8688 67.4965 78.5942 64.0839 76.3201 62.1484C74.0459 60.213 70.6333 60.4875 68.6978 62.7617C66.7624 65.0359 67.0369 68.4485 69.3111 70.3839C71.5853 72.3194 74.9979 72.0448 76.9333 69.7707Z" fill="#9BB0C6"/>
<path opacity="0.4" d="M76.9333 69.7707C78.8688 67.4965 78.5942 64.0839 76.3201 62.1484C74.0459 60.213 70.6333 60.4875 68.6978 62.7617C66.7624 65.0359 67.0369 68.4485 69.3111 70.3839C71.5853 72.3194 74.9979 72.0448 76.9333 69.7707Z" fill="white"/>
<path d="M76.4993 67.9311C76.1678 68.6592 75.6279 69.2726 74.9478 69.6938C74.2678 70.1151 73.4781 70.3253 72.6786 70.2978C71.8791 70.2704 71.1057 70.0065 70.4562 69.5396C69.8066 69.0727 69.3101 68.4237 69.0293 67.6746C68.7486 66.9255 68.6962 66.11 68.8788 65.3312C69.0614 64.5523 69.4709 63.8451 70.0553 63.299C70.6398 62.7528 71.3731 62.3921 72.1625 62.2626C72.9519 62.1331 73.762 62.2405 74.4904 62.5713C75.4671 63.0161 76.2274 63.8304 76.6041 64.8354C76.9808 65.8404 76.9431 66.9539 76.4993 67.9311Z" fill="#9BB0C6"/>
<path d="M123.779 96.8732C123.656 97.3665 121.983 97.3705 120.041 96.8732C118.099 96.3759 116.623 95.5904 116.745 95.101C116.868 94.6116 118.545 94.6037 120.487 95.101C122.429 95.5983 123.897 96.3916 123.779 96.8732Z" fill="#9BB0C6"/>
<path d="M116.973 94.2243L116.75 95.1163L123.783 96.8777L124.006 95.9857L116.973 94.2243Z" fill="#9BB0C6"/>
<path d="M124.003 95.9969C123.877 96.4903 122.203 96.4942 120.262 95.9969C118.32 95.4996 116.848 94.7182 116.97 94.2248C117.092 93.7315 118.766 93.7275 120.708 94.2248C122.649 94.7221 124.126 95.4918 124.003 95.9969Z" fill="#9BB0C6"/>
<path opacity="0.4" d="M124.003 95.9969C123.877 96.4903 122.203 96.4942 120.262 95.9969C118.32 95.4996 116.848 94.7182 116.97 94.2248C117.092 93.7315 118.766 93.7275 120.708 94.2248C122.649 94.7221 124.126 95.4918 124.003 95.9969Z" fill="white"/>
<path d="M123.561 95.8351C123.558 95.8513 123.551 95.8667 123.542 95.8803C123.532 95.8938 123.52 95.9053 123.506 95.9141C123.36 95.5589 122.14 95.0142 120.605 94.6314C119.07 94.2485 117.732 94.1498 117.448 94.3945C117.44 94.3634 117.44 94.3309 117.448 94.2998C117.534 93.9643 118.975 94.0354 120.672 94.4577C122.369 94.88 123.648 95.5036 123.561 95.8351Z" fill="#9BB0C6"/>
<path opacity="0.4" d="M123.561 95.8351C123.558 95.8513 123.551 95.8667 123.542 95.8803C123.532 95.8938 123.52 95.9053 123.506 95.9141C123.36 95.5589 122.14 95.0142 120.605 94.6314C119.07 94.2485 117.732 94.1498 117.448 94.3945C117.44 94.3634 117.44 94.3309 117.448 94.2998C117.534 93.9643 118.975 94.0354 120.672 94.4577C122.369 94.88 123.648 95.5036 123.561 95.8351Z" fill="#9BB0C6"/>
<path opacity="0.4" d="M123.502 95.9141C123.206 96.1548 121.876 96.0601 120.345 95.6773C118.813 95.2944 117.582 94.7458 117.44 94.3946C117.736 94.1499 119.066 94.2446 120.597 94.6314C122.129 95.0182 123.36 95.5589 123.502 95.9141Z" fill="#9BB0C6"/>
<path d="M127.157 98.4914C127.181 98.9966 125.578 99.4781 123.573 99.561C121.568 99.6438 119.934 99.3044 119.915 98.7992C119.895 98.294 121.493 97.8125 123.498 97.7257C125.503 97.6389 127.137 97.9704 127.157 98.4914Z" fill="#9BB0C6"/>
<path d="M127.11 97.581L119.866 97.8884L119.905 98.8071L127.149 98.4997L127.11 97.581Z" fill="#9BB0C6"/>
<path d="M127.118 97.5757C127.141 98.0848 125.539 98.5624 123.538 98.6492C121.537 98.7361 119.899 98.3927 119.875 97.8835C119.852 97.3744 121.454 96.8968 123.459 96.814C125.464 96.7311 127.098 97.0665 127.118 97.5757Z" fill="#9BB0C6"/>
<path opacity="0.4" d="M127.118 97.5757C127.141 98.0848 125.539 98.5624 123.538 98.6492C121.537 98.7361 119.899 98.3927 119.875 97.8835C119.852 97.3744 121.454 96.8968 123.459 96.814C125.464 96.7311 127.098 97.0665 127.118 97.5757Z" fill="white"/>
<path d="M126.66 97.5757C126.661 97.5922 126.659 97.6089 126.654 97.6246C126.649 97.6402 126.64 97.6545 126.628 97.6665C126.387 97.3705 125.05 97.1929 123.471 97.2718C121.892 97.3507 120.578 97.627 120.365 97.9427C120.343 97.919 120.33 97.8882 120.329 97.8559C120.329 97.5125 121.714 97.1692 123.463 97.0942C125.211 97.0192 126.66 97.2126 126.66 97.5757Z" fill="#9BB0C6"/>
<path opacity="0.4" d="M126.66 97.5757C126.661 97.5922 126.659 97.6089 126.654 97.6246C126.649 97.6402 126.64 97.6545 126.628 97.6665C126.387 97.3705 125.05 97.1929 123.471 97.2718C121.892 97.3507 120.578 97.627 120.365 97.9427C120.343 97.919 120.33 97.8882 120.329 97.8559C120.329 97.5125 121.714 97.1692 123.463 97.0942C125.211 97.0192 126.66 97.2126 126.66 97.5757Z" fill="#9BB0C6"/>
<path opacity="0.4" d="M126.624 97.6467C126.411 97.9624 125.104 98.2506 123.522 98.3177C121.939 98.3847 120.613 98.2111 120.364 97.923C120.577 97.6072 121.884 97.3191 123.47 97.252C125.057 97.1849 126.383 97.3507 126.624 97.6467Z" fill="#9BB0C6"/>
<path d="M123.345 96.6828C124.984 94.1863 124.288 90.834 121.792 89.1954C119.295 87.5567 115.943 88.2521 114.304 90.7487C112.666 93.2452 113.361 96.5974 115.858 98.2361C118.354 99.8748 121.707 99.1793 123.345 96.6828Z" fill="#9BB0C6"/>
<path d="M123.352 97.7651C122.641 98.5636 121.708 99.1331 120.673 99.4016C119.638 99.6701 118.546 99.6256 117.536 99.2737C116.526 98.9218 115.643 98.2783 114.999 97.4245C114.355 96.5708 113.978 95.5452 113.917 94.4775C113.856 93.4097 114.113 92.3478 114.655 91.426C115.197 90.5042 116.001 89.7638 116.964 89.2987C117.927 88.8335 119.006 88.6644 120.065 88.8128C121.124 88.9611 122.116 89.4202 122.914 90.132C123.984 91.0862 124.631 92.4264 124.714 93.8578C124.796 95.2893 124.306 96.6947 123.352 97.7651Z" fill="#9BB0C6"/>
<path opacity="0.4" d="M123.352 97.7651C122.641 98.5636 121.708 99.1331 120.673 99.4016C119.638 99.6701 118.546 99.6256 117.536 99.2737C116.526 98.9218 115.643 98.2783 114.999 97.4245C114.355 96.5708 113.978 95.5452 113.917 94.4775C113.856 93.4097 114.113 92.3478 114.655 91.426C115.197 90.5042 116.001 89.7638 116.964 89.2987C117.927 88.8335 119.006 88.6644 120.065 88.8128C121.124 88.9611 122.116 89.4202 122.914 90.132C123.984 91.0862 124.631 92.4264 124.714 93.8578C124.796 95.2893 124.306 96.6947 123.352 97.7651Z" fill="white"/>
<path d="M122.318 96.8613C121.785 97.4594 121.087 97.8861 120.312 98.0873C119.536 98.2885 118.719 98.2553 117.962 97.9917C117.206 97.7282 116.545 97.2462 116.062 96.6068C115.58 95.9674 115.298 95.1992 115.252 94.3995C115.206 93.5997 115.398 92.8044 115.805 92.114C116.211 91.4236 116.813 90.8692 117.534 90.521C118.256 90.1727 119.064 90.0463 119.857 90.1576C120.651 90.2689 121.393 90.613 121.991 91.1463C122.388 91.4999 122.711 91.9282 122.942 92.4069C123.174 92.8856 123.309 93.4051 123.339 93.9359C123.369 94.4667 123.295 94.9982 123.12 95.5002C122.945 96.0021 122.672 96.4647 122.318 96.8613Z" fill="#9BB0C6"/>
<path d="M52.3727 98.9926C52.353 99.4978 53.9515 99.9793 55.9565 100.062C57.9614 100.145 59.5954 99.8057 59.6152 99.3005C59.6349 98.7953 58.0364 98.3138 56.0354 98.2269C54.0344 98.1401 52.3964 98.4835 52.3727 98.9926Z" fill="#9BB0C6"/>
<path d="M52.4145 98.0769L52.3755 98.9957L59.6193 99.3031L59.6583 98.3843L52.4145 98.0769Z" fill="#9BB0C6"/>
<path d="M52.4119 98.073C52.3882 98.5821 53.9906 99.0597 55.9956 99.1465C58.0006 99.2334 59.6346 98.89 59.6543 98.3808C59.674 97.8717 58.0756 97.3941 56.0706 97.3113C54.0656 97.2284 52.4316 97.5757 52.4119 98.073Z" fill="#9BB0C6"/>
<path opacity="0.4" d="M52.4119 98.073C52.3882 98.5821 53.9906 99.0597 55.9956 99.1465C58.0006 99.2334 59.6346 98.89 59.6543 98.3808C59.674 97.8717 58.0756 97.3941 56.0706 97.3113C54.0656 97.2284 52.4316 97.5757 52.4119 98.073Z" fill="white"/>
<path d="M52.874 98.0572C52.8743 98.0901 52.8854 98.122 52.9056 98.148C53.1464 97.852 54.4843 97.6743 56.0631 97.7533C57.6418 97.8322 58.9521 98.1085 59.1653 98.4282C59.1878 98.4029 59.2016 98.3711 59.2047 98.3374C59.2047 97.994 57.8154 97.6507 56.0709 97.5796C54.3264 97.5086 52.8898 97.7138 52.874 98.0572Z" fill="#9BB0C6"/>
<path opacity="0.4" d="M52.874 98.0572C52.8743 98.0901 52.8854 98.122 52.9056 98.148C53.1464 97.852 54.4843 97.6743 56.0631 97.7533C57.6418 97.8322 58.9521 98.1085 59.1653 98.4282C59.1878 98.4029 59.2016 98.3711 59.2047 98.3374C59.2047 97.994 57.8154 97.6507 56.0709 97.5796C54.3264 97.5086 52.8898 97.7138 52.874 98.0572Z" fill="#9BB0C6"/>
<path opacity="0.4" d="M52.9053 98.148C53.1223 98.4676 54.4248 98.7518 56.0075 98.8189C57.5902 98.886 58.9202 98.7123 59.1649 98.4242C58.9518 98.1045 57.6494 97.8204 56.0627 97.7493C54.4761 97.6783 53.146 97.8519 52.9053 98.148Z" fill="#9BB0C6"/>
<path d="M51.6108 97.6033C51.6108 98.1085 53.1896 98.59 55.1945 98.6729C57.1995 98.7558 58.8335 98.4164 58.8533 97.9112C58.873 97.406 57.2745 96.9245 55.2735 96.8377C53.2725 96.7508 51.6345 97.0981 51.6108 97.6033Z" fill="#9BB0C6"/>
<path d="M51.6454 96.6755L51.6064 97.5942L58.8502 97.9016L58.8892 96.9829L51.6454 96.6755Z" fill="#9BB0C6"/>
<path d="M51.6699 96.6837C51.6699 97.1928 53.2487 97.6704 55.2536 97.7572C57.2586 97.844 58.8926 97.5007 58.9123 96.9915C58.9321 96.4824 57.3336 96.0048 55.3326 95.9219C53.3315 95.8391 51.6699 96.1785 51.6699 96.6837Z" fill="#9BB0C6"/>
<path opacity="0.4" d="M51.6699 96.6837C51.6699 97.1928 53.2487 97.6704 55.2536 97.7572C57.2586 97.844 58.8926 97.5007 58.9123 96.9915C58.9321 96.4824 57.3336 96.0048 55.3326 95.9219C53.3315 95.8391 51.6699 96.1785 51.6699 96.6837Z" fill="white"/>
<path d="M52.1123 96.6679C52.1126 96.7008 52.1237 96.7327 52.1439 96.7587C52.3846 96.4627 53.7226 96.289 55.3013 96.364C56.8801 96.439 58.1904 96.7153 58.4035 97.035C58.4261 97.0097 58.4399 96.9779 58.443 96.9442C58.443 96.6048 57.0537 96.2575 55.3092 96.1864C53.5647 96.1154 52.1281 96.3246 52.1123 96.6679Z" fill="#9BB0C6"/>
<path opacity="0.4" d="M52.1123 96.6679C52.1126 96.7008 52.1237 96.7327 52.1439 96.7587C52.3846 96.4627 53.7226 96.289 55.3013 96.364C56.8801 96.439 58.1904 96.7153 58.4035 97.035C58.4261 97.0097 58.4399 96.9779 58.443 96.9442C58.443 96.6048 57.0537 96.2575 55.3092 96.1864C53.5647 96.1154 52.1281 96.3246 52.1123 96.6679Z" fill="#9BB0C6"/>
<path opacity="0.4" d="M52.1436 96.7587C52.3606 97.0784 53.6631 97.3626 55.2458 97.4297C56.8284 97.4967 58.1585 97.3231 58.4032 97.035C58.1901 96.7153 56.8876 96.4311 55.301 96.364C53.7144 96.2969 52.3843 96.4627 52.1436 96.7587Z" fill="#9BB0C6"/>
<path d="M51.7095 95.9299C51.7095 96.4351 53.2882 96.9166 55.2932 96.9995C57.2982 97.0823 58.9322 96.7429 58.9519 96.2377C58.9716 95.7325 57.3732 95.251 55.3721 95.1642C53.3711 95.0774 51.7332 95.4247 51.7095 95.9299Z" fill="#9BB0C6"/>
<path d="M51.7416 95.0022L51.7026 95.921L58.9464 96.2284L58.9854 95.3096L51.7416 95.0022Z" fill="#9BB0C6"/>
<path d="M51.749 95.0103C51.749 95.5194 53.3278 95.997 55.3327 96.0838C57.3377 96.1706 58.9717 95.8273 58.9914 95.3181C59.0112 94.809 57.4127 94.3314 55.4117 94.2485C53.4106 94.1657 51.7727 94.5051 51.749 95.0103Z" fill="#9BB0C6"/>
<path opacity="0.4" d="M51.749 95.0103C51.749 95.5194 53.3278 95.997 55.3327 96.0838C57.3377 96.1706 58.9717 95.8273 58.9914 95.3181C59.0112 94.809 57.4127 94.3314 55.4117 94.2485C53.4106 94.1657 51.7727 94.5051 51.749 95.0103Z" fill="white"/>
<path d="M52.2109 94.9944C52.2112 95.0273 52.2223 95.0592 52.2425 95.0852C52.4833 94.7892 53.8212 94.6155 55.4 94.6905C56.9787 94.7655 58.289 95.0418 58.5022 95.3615C58.5247 95.3362 58.5386 95.3044 58.5416 95.2707C58.5416 94.9313 57.1524 94.584 55.4079 94.5129C53.6634 94.4419 52.2267 94.655 52.2109 94.9944Z" fill="#9BB0C6"/>
<path opacity="0.4" d="M52.2109 94.9944C52.2112 95.0273 52.2223 95.0592 52.2425 95.0852C52.4833 94.7892 53.8212 94.6155 55.4 94.6905C56.9787 94.7655 58.289 95.0418 58.5022 95.3615C58.5247 95.3362 58.5386 95.3044 58.5416 95.2707C58.5416 94.9313 57.1524 94.584 55.4079 94.5129C53.6634 94.4419 52.2267 94.655 52.2109 94.9944Z" fill="#9BB0C6"/>
<path opacity="0.4" d="M52.2422 95.0852C52.4593 95.4049 53.7617 95.6891 55.3444 95.7562C56.9271 95.8233 58.2571 95.6496 58.5018 95.3615C58.2887 95.0418 56.9863 94.7576 55.3996 94.6905C53.813 94.6234 52.4829 94.7892 52.2422 95.0852Z" fill="#9BB0C6"/>
<path d="M50.9478 94.5406C50.9478 95.0458 52.5265 95.5273 54.5315 95.6102C56.5365 95.693 58.1704 95.3536 58.1941 94.8484C58.2178 94.3432 56.6154 93.8617 54.6104 93.7749C52.6054 93.6881 50.9714 94.0235 50.9478 94.5406Z" fill="#9BB0C6"/>
<path d="M50.9848 93.6165L50.9458 94.5353L58.1896 94.8427L58.2286 93.9239L50.9848 93.6165Z" fill="#9BB0C6"/>
<path d="M50.987 93.6289C50.9673 94.138 52.5657 94.6156 54.5707 94.7024C56.5757 94.7892 58.2097 94.4458 58.2294 93.9367C58.2491 93.4276 56.6507 92.954 54.6496 92.8671C52.6486 92.7803 51.0107 93.1158 50.987 93.6289Z" fill="#9BB0C6"/>
<path opacity="0.4" d="M50.987 93.6289C50.9673 94.138 52.5657 94.6156 54.5707 94.7024C56.5757 94.7892 58.2097 94.4458 58.2294 93.9367C58.2491 93.4276 56.6507 92.954 54.6496 92.8671C52.6486 92.7803 51.0107 93.1158 50.987 93.6289Z" fill="white"/>
<path d="M51.4492 93.6052C51.4495 93.6381 51.4606 93.67 51.4808 93.696C51.7255 93.4 53.0595 93.2263 54.6383 93.3013C56.217 93.3763 57.5313 93.6526 57.7405 93.9723C57.7638 93.9491 57.7778 93.9182 57.7799 93.8854C57.7799 93.5421 56.3906 93.1947 54.6461 93.1237C52.9016 93.0526 51.465 93.2658 51.4492 93.6052Z" fill="#9BB0C6"/>
<path opacity="0.4" d="M51.4492 93.6052C51.4495 93.6381 51.4606 93.67 51.4808 93.696C51.7255 93.4 53.0595 93.2263 54.6383 93.3013C56.217 93.3763 57.5313 93.6526 57.7405 93.9723C57.7638 93.9491 57.7778 93.9182 57.7799 93.8854C57.7799 93.5421 56.3906 93.1947 54.6461 93.1237C52.9016 93.0526 51.465 93.2658 51.4492 93.6052Z" fill="#9BB0C6"/>
<path opacity="0.4" d="M51.4805 93.6959C51.6975 94.0156 53 94.2998 54.5827 94.3669C56.1653 94.434 57.4954 94.2603 57.7401 93.9722C57.5309 93.6525 56.2245 93.3684 54.6379 93.3013C53.0513 93.2342 51.7252 93.3999 51.4805 93.6959Z" fill="#9BB0C6"/>
<path d="M52.1121 93.3644C52.0884 93.8696 53.6908 94.3511 55.6958 94.434C57.7008 94.5169 59.3348 94.1775 59.3545 93.6723C59.3742 93.1671 57.7758 92.6856 55.7708 92.5987C53.7658 92.5119 52.1318 92.8395 52.1121 93.3644Z" fill="#9BB0C6"/>
<path d="M52.144 92.4349L52.105 93.3537L59.3488 93.6611L59.3878 92.7423L52.144 92.4349Z" fill="#9BB0C6"/>
<path d="M52.1516 92.4448C52.1279 92.954 53.7304 93.4315 55.7314 93.5184C57.7324 93.6052 59.3704 93.2618 59.394 92.7527C59.4177 92.2436 57.8153 91.766 55.8103 91.6831C53.8053 91.6002 52.1714 91.9396 52.1516 92.4448Z" fill="#9BB0C6"/>
<path opacity="0.4" d="M52.1516 92.4448C52.1279 92.954 53.7304 93.4315 55.7314 93.5184C57.7324 93.6052 59.3704 93.2618 59.394 92.7527C59.4177 92.2436 57.8153 91.766 55.8103 91.6831C53.8053 91.6002 52.1714 91.9396 52.1516 92.4448Z" fill="white"/>
<path d="M52.6133 92.4448C52.6117 92.4613 52.6137 92.478 52.6191 92.4937C52.6246 92.5094 52.6334 92.5237 52.6449 92.5356C52.8857 92.2396 54.2237 92.062 55.8024 92.1409C57.3811 92.2198 58.6954 92.4961 58.9085 92.8119C58.9304 92.7881 58.943 92.7573 58.944 92.725C58.944 92.3817 57.5587 92.0383 55.8103 91.9633C54.0618 91.8883 52.6252 92.0856 52.6133 92.4448Z" fill="#9BB0C6"/>
<path opacity="0.4" d="M52.6133 92.4448C52.6117 92.4613 52.6137 92.478 52.6191 92.4937C52.6246 92.5094 52.6334 92.5237 52.6449 92.5356C52.8857 92.2396 54.2237 92.062 55.8024 92.1409C57.3811 92.2198 58.6954 92.4961 58.9085 92.8119C58.9304 92.7881 58.943 92.7573 58.944 92.725C58.944 92.3817 57.5587 92.0383 55.8103 91.9633C54.0618 91.8883 52.6252 92.0856 52.6133 92.4448Z" fill="#9BB0C6"/>
<path opacity="0.4" d="M52.645 92.5198C52.8581 92.8355 54.1645 93.1237 55.7472 93.1908C57.3299 93.2579 58.656 93.0842 58.9047 92.7961C58.6916 92.4803 57.3852 92.1922 55.7985 92.1251C54.2119 92.058 52.8858 92.2238 52.645 92.5198Z" fill="#9BB0C6"/>
<path d="M47.0046 98.9097C47.127 99.4031 48.8044 99.407 50.7462 98.9097C52.6881 98.4124 54.1602 97.631 54.0379 97.1376C53.9155 96.6443 52.2421 96.6403 50.3002 97.1376C48.3584 97.6349 46.8823 98.4203 47.0046 98.9097Z" fill="#9BB0C6"/>
<path d="M53.8163 96.2567L46.7832 98.0181L47.0066 98.9101L54.0397 97.1488L53.8163 96.2567Z" fill="#9BB0C6"/>
<path d="M46.7839 98.0217C46.9063 98.5111 48.5797 98.519 50.5215 98.0217C52.4634 97.5244 53.9395 96.7429 53.8132 96.2535C53.6869 95.7641 52.0174 95.7562 50.0756 96.2535C48.1337 96.7508 46.6576 97.5283 46.7839 98.0217Z" fill="#9BB0C6"/>
<path opacity="0.4" d="M46.7839 98.0217C46.9063 98.5111 48.5797 98.519 50.5215 98.0217C52.4634 97.5244 53.9395 96.7429 53.8132 96.2535C53.6869 95.7641 52.0174 95.7562 50.0756 96.2535C48.1337 96.7508 46.6576 97.5283 46.7839 98.0217Z" fill="white"/>
<path d="M47.2221 97.8756C47.2306 97.9066 47.2503 97.9333 47.2773 97.9506C47.4233 97.5994 48.6429 97.0547 50.1822 96.6679C51.7214 96.2811 53.0515 96.1864 53.3396 96.4311C53.3515 96.4007 53.3515 96.3668 53.3396 96.3364C53.2567 96.0048 51.8122 96.0719 50.119 96.4982C48.4258 96.9245 47.1392 97.5402 47.2221 97.8756Z" fill="#9BB0C6"/>
<path opacity="0.4" d="M47.2221 97.8756C47.2306 97.9066 47.2503 97.9333 47.2773 97.9506C47.4233 97.5994 48.6429 97.0547 50.1822 96.6679C51.7214 96.2811 53.0515 96.1864 53.3396 96.4311C53.3515 96.4007 53.3515 96.3668 53.3396 96.3364C53.2567 96.0048 51.8122 96.0719 50.119 96.4982C48.4258 96.9245 47.1392 97.5402 47.2221 97.8756Z" fill="#9BB0C6"/>
<path opacity="0.4" d="M47.2773 97.9704C47.5734 98.2151 48.9074 98.1204 50.4348 97.7336C51.9622 97.3468 53.1976 96.8061 53.3397 96.4509C53.0436 96.2062 51.7136 96.3048 50.1822 96.6877C48.6508 97.0705 47.4234 97.5994 47.2773 97.9704Z" fill="#9BB0C6"/>
<path d="M43.646 98.9926C43.646 99.4978 45.2247 99.9793 47.2297 100.062C49.2347 100.145 50.8687 99.8057 50.8884 99.3005C50.9081 98.7953 49.3097 98.3138 47.3086 98.2269C45.3076 98.1401 43.6697 98.4835 43.646 98.9926Z" fill="#9BB0C6"/>
<path d="M43.6811 98.0652L43.6421 98.9839L50.8859 99.2914L50.9249 98.3726L43.6811 98.0652Z" fill="#9BB0C6"/>
<path d="M43.6857 98.073C43.666 98.5821 45.2645 99.0597 47.2694 99.1465C49.2744 99.2334 50.9084 98.89 50.9281 98.3808C50.9479 97.8717 49.3494 97.3941 47.3484 97.3113C45.3473 97.2284 43.7094 97.5757 43.6857 98.073Z" fill="#9BB0C6"/>
<path opacity="0.4" d="M43.6857 98.073C43.666 98.5821 45.2645 99.0597 47.2694 99.1465C49.2744 99.2334 50.9084 98.89 50.9281 98.3808C50.9479 97.8717 49.3494 97.3941 47.3484 97.3113C45.3473 97.2284 43.7094 97.5757 43.6857 98.073Z" fill="white"/>
<path d="M44.1475 98.0572C44.1477 98.0901 44.1588 98.122 44.179 98.148C44.4198 97.852 45.7578 97.6743 47.3365 97.7533C48.9152 97.8322 50.2256 98.1085 50.4387 98.4282C50.4612 98.4029 50.4751 98.3711 50.4782 98.3374C50.4782 97.994 49.0889 97.6507 47.3444 97.5796C45.5999 97.5086 44.1711 97.7138 44.1475 98.0572Z" fill="#9BB0C6"/>
<path opacity="0.4" d="M44.1475 98.0572C44.1477 98.0901 44.1588 98.122 44.179 98.148C44.4198 97.852 45.7578 97.6743 47.3365 97.7533C48.9152 97.8322 50.2256 98.1085 50.4387 98.4282C50.4612 98.4029 50.4751 98.3711 50.4782 98.3374C50.4782 97.994 49.0889 97.6507 47.3444 97.5796C45.5999 97.5086 44.1711 97.7138 44.1475 98.0572Z" fill="#9BB0C6"/>
<path opacity="0.4" d="M44.1709 98.148C44.388 98.4676 45.6904 98.7518 47.2731 98.8189C48.8558 98.886 50.1859 98.7123 50.4306 98.4242C50.2174 98.1045 48.915 97.8204 47.3284 97.7493C45.7417 97.6783 44.4195 97.8519 44.1709 98.148Z" fill="#9BB0C6"/>
<path d="M81.0579 98.9492C81.0342 99.4701 82.684 99.9635 84.7403 100.05C86.7966 100.137 88.4818 99.7859 88.5055 99.261C88.5292 98.736 86.8755 98.2506 84.8192 98.1598C82.7629 98.069 81.0776 98.4282 81.0579 98.9492Z" fill="#9BB0C6"/>
<path d="M81.0898 97.9939L81.0498 98.9363L88.4987 99.2524L88.5386 98.31L81.0898 97.9939Z" fill="#9BB0C6"/>
<path d="M81.0974 98.0059C81.0737 98.5268 82.7235 99.0202 84.7798 99.107C86.8361 99.1939 88.5214 98.8426 88.5451 98.3177C88.5688 97.7927 86.919 97.3073 84.8587 97.2165C82.7985 97.1257 81.1172 97.4849 81.0974 98.0059Z" fill="#9BB0C6"/>
<path opacity="0.4" d="M81.0974 98.0059C81.0737 98.5268 82.7235 99.0202 84.7798 99.107C86.8361 99.1939 88.5214 98.8426 88.5451 98.3177C88.5688 97.7927 86.919 97.3073 84.8587 97.2165C82.7985 97.1257 81.1172 97.4849 81.0974 98.0059Z" fill="white"/>
<path d="M81.5713 97.9901C81.5721 98.0241 81.5831 98.0571 81.6029 98.0848C81.8515 97.777 83.2132 97.5994 84.8432 97.6665C86.4732 97.7336 87.8152 98.0296 88.0322 98.3572C88.0565 98.333 88.0706 98.3006 88.0717 98.2664C88.0717 97.9151 86.6469 97.5599 84.8511 97.477C83.0553 97.3941 81.5871 97.6388 81.5713 97.9901Z" fill="#9BB0C6"/>
<path opacity="0.4" d="M81.5713 97.9901C81.5721 98.0241 81.5831 98.0571 81.6029 98.0848C81.8515 97.777 83.2132 97.5994 84.8432 97.6665C86.4732 97.7336 87.8152 98.0296 88.0322 98.3572C88.0565 98.333 88.0706 98.3006 88.0717 98.2664C88.0717 97.9151 86.6469 97.5599 84.8511 97.477C83.0553 97.3941 81.5871 97.6388 81.5713 97.9901Z" fill="#9BB0C6"/>
<path opacity="0.4" d="M81.6025 98.0848C81.8275 98.4085 83.1813 98.7045 84.7955 98.7755C86.4098 98.8466 87.7872 98.665 88.0319 98.3572C87.8148 98.0296 86.4729 97.7375 84.8429 97.6665C83.2128 97.5954 81.8512 97.777 81.6025 98.0848Z" fill="#9BB0C6"/>
<path d="M80.2726 97.5205C80.2529 98.0414 81.9027 98.5348 83.959 98.6256C86.0153 98.7163 87.7006 98.3611 87.7203 97.8362C87.74 97.3113 86.0942 96.8219 84.0379 96.7311C81.9816 96.6403 80.2963 96.9995 80.2726 97.5205Z" fill="#9BB0C6"/>
<path d="M80.3115 96.5749L80.2715 97.5173L87.7203 97.8334L87.7603 96.891L80.3115 96.5749Z" fill="#9BB0C6"/>
<path d="M80.3162 96.5772C80.2925 97.0981 81.9423 97.5915 83.9986 97.6823C86.0549 97.773 87.7401 97.4178 87.7638 96.8929C87.7875 96.368 86.1338 95.8786 84.0775 95.7878C82.0212 95.697 80.3359 96.0562 80.3162 96.5772Z" fill="#9BB0C6"/>
<path opacity="0.4" d="M80.3162 96.5772C80.2925 97.0981 81.9423 97.5915 83.9986 97.6823C86.0549 97.773 87.7401 97.4178 87.7638 96.8929C87.7875 96.368 86.1338 95.8786 84.0775 95.7878C82.0212 95.697 80.3359 96.0562 80.3162 96.5772Z" fill="white"/>
<path d="M80.7896 96.5613C80.7903 96.5954 80.8013 96.6284 80.8211 96.6561C81.0698 96.3482 82.4314 96.1706 84.0575 96.2377C85.6836 96.3048 87.0334 96.6008 87.2505 96.9284C87.273 96.9031 87.2869 96.8713 87.29 96.8376C87.29 96.4863 85.8612 96.1311 84.0654 96.0483C82.2696 95.9654 80.8053 96.2101 80.7896 96.5613Z" fill="#9BB0C6"/>
<path opacity="0.4" d="M80.7896 96.5613C80.7903 96.5954 80.8013 96.6284 80.8211 96.6561C81.0698 96.3482 82.4314 96.1706 84.0575 96.2377C85.6836 96.3048 87.0334 96.6008 87.2505 96.9284C87.273 96.9031 87.2869 96.8713 87.29 96.8376C87.29 96.4863 85.8612 96.1311 84.0654 96.0483C82.2696 95.9654 80.8053 96.2101 80.7896 96.5613Z" fill="#9BB0C6"/>
<path opacity="0.4" d="M80.8213 96.6561C81.0423 96.9797 82.4 97.2757 84.0103 97.3468C85.6206 97.4178 87.006 97.2363 87.2507 96.9284C87.0336 96.6008 85.6917 96.3087 84.0577 96.2377C82.4237 96.1667 81.0699 96.3482 80.8213 96.6561Z" fill="#9BB0C6"/>
<path d="M81.9539 96.4666C81.9302 96.9836 83.58 97.477 85.6362 97.5678C87.6925 97.6586 89.3778 97.3033 89.4015 96.7784C89.4252 96.2535 87.7715 95.7641 85.7152 95.6773C83.6589 95.5904 81.9736 95.9456 81.9539 96.4666Z" fill="#9BB0C6"/>
<path d="M81.9863 95.5133L81.9463 96.4557L89.3951 96.7719L89.4351 95.8294L81.9863 95.5133Z" fill="#9BB0C6"/>
<path d="M81.9934 95.5194C81.9697 96.0404 83.6195 96.5337 85.6758 96.6245C87.7321 96.7153 89.4174 96.3601 89.4411 95.8351C89.4648 95.3102 87.811 94.8208 85.7547 94.734C83.6984 94.6471 82.0131 95.0023 81.9934 95.5194Z" fill="#9BB0C6"/>
<path opacity="0.4" d="M81.9934 95.5194C81.9697 96.0404 83.6195 96.5337 85.6758 96.6245C87.7321 96.7153 89.4174 96.3601 89.4411 95.8351C89.4648 95.3102 87.811 94.8208 85.7547 94.734C83.6984 94.6471 82.0131 95.0023 81.9934 95.5194Z" fill="white"/>
<path d="M82.4551 95.5036C82.4559 95.5376 82.4669 95.5706 82.4866 95.5983C82.7353 95.2905 84.097 95.1129 85.723 95.18C87.3491 95.247 88.6989 95.5431 88.916 95.8706C88.9386 95.8454 88.9524 95.8136 88.9555 95.7799C88.9555 95.4286 87.5267 95.0734 85.7309 94.9905C83.9351 94.9076 82.4827 95.1523 82.4551 95.5036Z" fill="#9BB0C6"/>
<path opacity="0.4" d="M82.4551 95.5036C82.4559 95.5376 82.4669 95.5706 82.4866 95.5983C82.7353 95.2905 84.097 95.1129 85.723 95.18C87.3491 95.247 88.6989 95.5431 88.916 95.8706C88.9386 95.8454 88.9524 95.8136 88.9555 95.7799C88.9555 95.4286 87.5267 95.0734 85.7309 94.9905C83.9351 94.9076 82.4827 95.1523 82.4551 95.5036Z" fill="#9BB0C6"/>
<path opacity="0.4" d="M82.4985 95.6023C82.7196 95.9299 84.0773 96.2219 85.6876 96.293C87.2979 96.364 88.6832 96.1825 88.9279 95.8746C88.7108 95.547 87.3689 95.255 85.7349 95.1839C84.1009 95.1129 82.7472 95.2905 82.4985 95.6023Z" fill="#9BB0C6"/>
<path d="M81.9739 95.0379C81.9502 95.5589 83.6 96.0522 85.6563 96.1391C87.7126 96.2259 89.3979 95.8746 89.4215 95.3497C89.4452 94.8248 87.7915 94.3354 85.7352 94.2485C83.6789 94.1617 81.9936 94.5169 81.9739 95.0379Z" fill="#9BB0C6"/>
<path d="M81.8703 93.6065L81.8325 94.5497L89.2881 94.848L89.3258 93.9047L81.8703 93.6065Z" fill="#9BB0C6"/>
<path d="M82.0129 94.0946C81.9893 94.6156 83.639 95.1089 85.6953 95.1958C87.7516 95.2826 89.4369 94.9313 89.4606 94.4064C89.4843 93.8815 87.8306 93.3921 85.7743 93.3052C83.718 93.2184 82.0327 93.5736 82.0129 94.0946Z" fill="#9BB0C6"/>
<path opacity="0.4" d="M82.0129 94.0946C81.9893 94.6156 83.639 95.1089 85.6953 95.1958C87.7516 95.2826 89.4369 94.9313 89.4606 94.4064C89.4843 93.8815 87.8306 93.3921 85.7743 93.3052C83.718 93.2184 82.0327 93.5736 82.0129 94.0946Z" fill="white"/>
<path d="M82.4868 94.0788C82.4877 94.1116 82.4987 94.1433 82.5184 94.1695C82.767 93.8617 84.1287 93.6841 85.7548 93.7512C87.3809 93.8183 88.7307 94.1182 88.9478 94.4419C88.972 94.4178 88.9861 94.3853 88.9872 94.3511C88.9872 93.9998 87.5624 93.6446 85.7627 93.5617C83.9629 93.4788 82.5026 93.7236 82.4868 94.0788Z" fill="#9BB0C6"/>
<path opacity="0.4" d="M82.4868 94.0788C82.4877 94.1116 82.4987 94.1433 82.5184 94.1695C82.767 93.8617 84.1287 93.6841 85.7548 93.7512C87.3809 93.8183 88.7307 94.1182 88.9478 94.4419C88.972 94.4178 88.9861 94.3853 88.9872 94.3511C88.9872 93.9998 87.5624 93.6446 85.7627 93.5617C83.9629 93.4788 82.5026 93.7236 82.4868 94.0788Z" fill="#9BB0C6"/>
<path opacity="0.4" d="M82.5186 94.1696C82.7396 94.4971 84.0973 94.7892 85.7115 94.8603C87.3258 94.9313 88.7032 94.7497 88.9479 94.4419C88.7309 94.1183 87.3889 93.8222 85.7549 93.7512C84.121 93.6802 82.7672 93.8617 82.5186 94.1696Z" fill="#9BB0C6"/>
<path d="M80.4421 93.8696C80.4185 94.3906 82.0682 94.884 84.1245 94.9708C86.1808 95.0576 87.8661 94.7064 87.8898 94.1814C87.9135 93.6565 86.2637 93.1671 84.2074 93.0803C82.1511 92.9934 80.4816 93.3487 80.4421 93.8696Z" fill="#9BB0C6"/>
<path d="M80.4869 92.9354L80.4468 93.8779L87.8956 94.1953L87.9357 93.2528L80.4869 92.9354Z" fill="#9BB0C6"/>
<path d="M80.4817 92.9263C80.458 93.4473 82.1078 93.9407 84.1641 94.0275C86.2204 94.1143 87.9057 93.7631 87.9293 93.2381C87.953 92.7132 86.3033 92.2238 84.247 92.137C82.1907 92.0501 80.5054 92.4054 80.4817 92.9263Z" fill="#9BB0C6"/>
<path opacity="0.4" d="M80.4817 92.9263C80.458 93.4473 82.1078 93.9407 84.1641 94.0275C86.2204 94.1143 87.9057 93.7631 87.9293 93.2381C87.953 92.7132 86.3033 92.2238 84.247 92.137C82.1907 92.0501 80.5054 92.4054 80.4817 92.9263Z" fill="white"/>
<path d="M80.9556 92.9105C80.9564 92.9433 80.9674 92.9751 80.9871 93.0013C81.2397 92.6974 82.6014 92.5158 84.2275 92.5869C85.8536 92.6579 87.1994 92.95 87.4165 93.2736C87.4405 93.251 87.4547 93.2198 87.456 93.1868C87.456 92.8316 86.0312 92.4803 84.2354 92.3974C82.4396 92.3145 80.9714 92.5553 80.9556 92.9105Z" fill="#9BB0C6"/>
<path opacity="0.4" d="M80.9556 92.9105C80.9564 92.9433 80.9674 92.9751 80.9871 93.0013C81.2397 92.6974 82.6014 92.5158 84.2275 92.5869C85.8536 92.6579 87.1994 92.95 87.4165 93.2736C87.4405 93.251 87.4547 93.2198 87.456 93.1868C87.456 92.8316 86.0312 92.4803 84.2354 92.3974C82.4396 92.3145 80.9714 92.5553 80.9556 92.9105Z" fill="#9BB0C6"/>
<path opacity="0.4" d="M80.9868 93.0013C81.2118 93.3289 82.5655 93.6249 84.1798 93.692C85.794 93.7591 87.1715 93.5815 87.4162 93.2736C87.1991 92.95 85.8572 92.654 84.2272 92.5869C82.5971 92.5198 81.2394 92.6974 80.9868 93.0013Z" fill="#9BB0C6"/>
<path d="M90.057 96.7114C89.8399 97.1731 91.1344 98.2348 92.946 99.0794C94.7576 99.9241 96.4035 100.263 96.6166 99.7899C96.8297 99.3162 95.5391 98.2703 93.7275 97.4218C91.9159 96.5732 90.2701 96.2535 90.057 96.7114Z" fill="#9BB0C6"/>
<path d="M90.4487 95.894L90.0576 96.7263L96.6195 99.8099L97.0106 98.9776L90.4487 95.894Z" fill="#9BB0C6"/>
<path d="M90.4476 95.8825C90.2305 96.3403 91.5251 97.402 93.3367 98.2506C95.1483 99.0991 96.7941 99.4346 97.0072 98.961C97.2203 98.4874 95.9297 97.4375 94.1181 96.5929C92.3065 95.7483 90.6607 95.4207 90.4476 95.8825Z" fill="#9BB0C6"/>
<path opacity="0.4" d="M90.4476 95.8825C90.2305 96.3403 91.5251 97.402 93.3367 98.2506C95.1483 99.0991 96.7941 99.4346 97.0072 98.961C97.2203 98.4874 95.9297 97.4375 94.1181 96.5929C92.3065 95.7483 90.6607 95.4207 90.4476 95.8825Z" fill="white"/>
<path d="M90.8776 96.0443C90.8657 96.0748 90.8657 96.1086 90.8776 96.1391C91.213 95.9614 92.5037 96.3088 93.9364 96.9837C95.3691 97.6586 96.4663 98.4282 96.5413 98.8032C96.5708 98.7894 96.5946 98.7657 96.6083 98.7361C96.7544 98.4243 95.594 97.552 94.0113 96.8219C92.4287 96.0917 91.0236 95.7365 90.8776 96.0443Z" fill="#9BB0C6"/>
<path opacity="0.4" d="M90.8776 96.0443C90.8657 96.0748 90.8657 96.1086 90.8776 96.1391C91.213 95.9614 92.5037 96.3088 93.9364 96.9837C95.3691 97.6586 96.4663 98.4282 96.5413 98.8032C96.5708 98.7894 96.5946 98.7657 96.6083 98.7361C96.7544 98.4243 95.594 97.552 94.0113 96.8219C92.4287 96.0917 91.0236 95.7365 90.8776 96.0443Z" fill="#9BB0C6"/>
<path opacity="0.4" d="M90.874 96.139C90.949 96.5337 92.0581 97.2836 93.475 97.9585C94.8919 98.6334 96.2022 98.9847 96.5377 98.8031C96.4627 98.4282 95.3537 97.6586 93.9328 96.9837C92.512 96.3087 91.2095 95.9614 90.874 96.139Z" fill="#9BB0C6"/>
<path d="M86.2482 98.3414C86.2285 98.8466 87.827 99.3241 89.8319 99.411C91.8369 99.4978 93.4709 99.1544 93.4946 98.6492C93.5183 98.144 91.9159 97.6625 89.9109 97.5757C87.9059 97.4889 86.2719 97.8322 86.2482 98.3414Z" fill="#9BB0C6"/>
<path d="M86.2826 97.4088L86.2437 98.3276L93.4874 98.635L93.5264 97.7163L86.2826 97.4088Z" fill="#9BB0C6"/>
<path d="M86.2876 97.4218C86.2876 97.927 87.8663 98.4085 89.8713 98.4953C91.8763 98.5821 93.5103 98.2348 93.53 97.7296C93.5498 97.2244 91.9513 96.7429 89.9502 96.66C87.9492 96.5772 86.3113 96.9166 86.2876 97.4218Z" fill="#9BB0C6"/>
<path opacity="0.4" d="M86.2876 97.4218C86.2876 97.927 87.8663 98.4085 89.8713 98.4953C91.8763 98.5821 93.5103 98.2348 93.53 97.7296C93.5498 97.2244 91.9513 96.7429 89.9502 96.66C87.9492 96.5772 86.3113 96.9166 86.2876 97.4218Z" fill="white"/>
<path d="M86.7495 97.4059C86.7498 97.4388 86.7609 97.4707 86.7811 97.4967C87.0258 97.1968 88.3598 97.0231 89.9385 97.102C91.5173 97.181 92.8316 97.4572 93.0407 97.773C93.0647 97.7503 93.0789 97.7192 93.0802 97.6862C93.0802 97.3428 91.6909 96.9994 89.9464 96.9244C88.2019 96.8494 86.7653 97.0626 86.7495 97.4059Z" fill="#9BB0C6"/>
<path opacity="0.4" d="M86.7495 97.4059C86.7498 97.4388 86.7609 97.4707 86.7811 97.4967C87.0258 97.1968 88.3598 97.0231 89.9385 97.102C91.5173 97.181 92.8316 97.4572 93.0407 97.773C93.0647 97.7503 93.0789 97.7192 93.0802 97.6862C93.0802 97.3428 91.6909 96.9994 89.9464 96.9244C88.2019 96.8494 86.7653 97.0626 86.7495 97.4059Z" fill="#9BB0C6"/>
<path opacity="0.4" d="M86.7969 97.4968C87.014 97.8125 88.3164 98.1006 89.8991 98.1677C91.4817 98.2348 92.8118 98.0612 93.0565 97.773C92.8473 97.4573 91.541 97.1692 89.9543 97.1021C88.3677 97.035 87.0258 97.181 86.7969 97.4968Z" fill="#9BB0C6"/>
<path d="M102.335 72.5094H53.1006V80.4331H102.335V72.5094Z" fill="#9BB0C6"/>
<path opacity="0.8" d="M102.335 72.5094H53.1006V80.4331H102.335V72.5094Z" fill="white"/>
<path opacity="0.2" d="M102.335 74.6052V73.9606L68.6274 74.2284L102.335 74.6052Z" fill="black"/>
<path opacity="0.2" d="M102.335 77.382V76.8828L87.2017 77.4249L102.335 77.382Z" fill="black"/>
<path opacity="0.2" d="M102.335 79.2398V78.5952L77.936 78.9688L102.335 79.2398Z" fill="black"/>
<path opacity="0.2" d="M64.1083 72.5094L63.4009 78.4166L64.2438 77.5175C64.5271 78.5959 65.0567 79.5939 65.7909 80.4331C66.3175 79.7432 66.7365 78.9775 67.0338 78.1621L90.0281 77.8977L67.252 77.3985C67.3227 77.0726 67.3593 76.7403 67.3611 76.4068C67.3599 76.1306 67.3333 75.855 67.2817 75.5837L101.019 75.4977L67.2024 75.2333C67.0834 74.7882 66.9172 74.3571 66.7066 73.9474C67.1929 73.5184 67.82 73.2831 68.4685 73.2862H102.335V72.5094H64.1083Z" fill="black"/>
<path d="M64.8688 76.4267C64.8714 77.3765 65.2503 78.2866 65.9226 78.9576C66.5948 79.6286 67.5056 80.0058 68.4554 80.0067H102.904C102.939 80.0067 102.973 80.0135 103.005 80.0268C103.037 80.0401 103.066 80.0596 103.091 80.0842C103.115 80.1087 103.135 80.1379 103.148 80.17C103.162 80.202 103.168 80.2364 103.168 80.2712V80.5554C103.168 80.6256 103.14 80.6928 103.091 80.7424C103.041 80.792 102.974 80.8199 102.904 80.8199H52.0163C51.4359 80.8199 50.8612 80.705 50.3254 80.4818C49.7896 80.2586 49.3033 79.9315 48.8946 79.5193C48.4858 79.1072 48.1627 78.6183 47.944 78.0806C47.7252 77.543 47.615 76.9674 47.6198 76.387C47.6484 75.2138 48.1373 74.0989 48.9809 73.2831C49.8245 72.4673 50.9552 72.016 52.1287 72.0268H102.904C102.974 72.0268 103.041 72.0547 103.091 72.1043C103.14 72.1539 103.168 72.2211 103.168 72.2912V72.5722C103.168 72.6424 103.14 72.7096 103.091 72.7592C103.041 72.8088 102.974 72.8367 102.904 72.8367H68.5612C67.5989 72.8346 66.674 73.209 65.984 73.8798C65.2941 74.5506 64.8938 75.4647 64.8688 76.4267Z" fill="#9BB0C6"/>
<path opacity="0.4" d="M64.8688 76.4267C64.8714 77.3765 65.2503 78.2866 65.9226 78.9576C66.5948 79.6286 67.5056 80.0058 68.4554 80.0067H102.904C102.939 80.0067 102.973 80.0135 103.005 80.0268C103.037 80.0401 103.066 80.0596 103.091 80.0842C103.115 80.1087 103.135 80.1379 103.148 80.17C103.162 80.202 103.168 80.2364 103.168 80.2712V80.5554C103.168 80.6256 103.14 80.6928 103.091 80.7424C103.041 80.792 102.974 80.8199 102.904 80.8199H52.0163C51.4359 80.8199 50.8612 80.705 50.3254 80.4818C49.7896 80.2586 49.3033 79.9315 48.8946 79.5193C48.4858 79.1072 48.1627 78.6183 47.944 78.0806C47.7252 77.543 47.615 76.9674 47.6198 76.387C47.6484 75.2138 48.1373 74.0989 48.9809 73.2831C49.8245 72.4673 50.9552 72.016 52.1287 72.0268H102.904C102.974 72.0268 103.041 72.0547 103.091 72.1043C103.14 72.1539 103.168 72.2211 103.168 72.2912V72.5722C103.168 72.6424 103.14 72.7096 103.091 72.7592C103.041 72.8088 102.974 72.8367 102.904 72.8367H68.5612C67.5989 72.8346 66.674 73.209 65.984 73.8798C65.2941 74.5506 64.8938 75.4647 64.8688 76.4267Z" fill="white"/>
<path d="M64.8686 76.4267C64.8712 77.3765 65.2501 78.2866 65.9224 78.9576C66.5946 79.6286 67.5054 80.0059 68.4552 80.0067H102.904C102.938 80.0067 102.973 80.0136 103.005 80.0269C103.037 80.0401 103.066 80.0596 103.091 80.0842C103.115 80.1087 103.135 80.1379 103.148 80.17C103.161 80.2021 103.168 80.2364 103.168 80.2712V80.5555C103.168 80.6256 103.14 80.6929 103.091 80.7425C103.041 80.7921 102.974 80.8199 102.904 80.8199H68.2569C67.6764 80.8195 67.1018 80.7043 66.566 80.481C66.0302 80.2576 65.5439 79.9306 65.135 79.5186C64.726 79.1066 64.4026 78.6178 64.1833 78.0804C63.964 77.543 63.8531 76.9675 63.857 76.387C63.8873 75.2155 64.3758 74.1026 65.2177 73.2873C66.0595 72.4721 67.1875 72.0195 68.3594 72.0268H102.904C102.974 72.0268 103.041 72.0547 103.091 72.1043C103.14 72.1539 103.168 72.2211 103.168 72.2913V72.5723C103.168 72.6424 103.14 72.7097 103.091 72.7593C103.041 72.8089 102.974 72.8367 102.904 72.8367H68.561C67.5987 72.8347 66.6738 73.209 65.9838 73.8798C65.2938 74.5507 64.8936 75.4647 64.8686 76.4267Z" fill="#9BB0C6"/>
<path d="M71.3545 74.2912V77.4679L72.5049 76.3176L73.6189 77.4316V74.2912H71.3545Z" fill="#263238"/>
<path opacity="0.6" d="M64.8686 76.4267C64.8712 77.3765 65.2501 78.2866 65.9224 78.9576C66.5946 79.6286 67.5054 80.0059 68.4552 80.0067H102.904C102.938 80.0067 102.973 80.0136 103.005 80.0269C103.037 80.0401 103.066 80.0596 103.091 80.0842C103.115 80.1087 103.135 80.1379 103.148 80.17C103.161 80.2021 103.168 80.2364 103.168 80.2712V80.5555C103.168 80.6256 103.14 80.6929 103.091 80.7425C103.041 80.7921 102.974 80.8199 102.904 80.8199H68.2569C67.6764 80.8195 67.1018 80.7043 66.566 80.481C66.0302 80.2576 65.5439 79.9306 65.135 79.5186C64.726 79.1066 64.4026 78.6178 64.1833 78.0804C63.964 77.543 63.8531 76.9675 63.857 76.387C63.8873 75.2155 64.3758 74.1026 65.2177 73.2873C66.0595 72.4721 67.1875 72.0195 68.3594 72.0268H102.904C102.974 72.0268 103.041 72.0547 103.091 72.1043C103.14 72.1539 103.168 72.2211 103.168 72.2913V72.5723C103.168 72.6424 103.14 72.7097 103.091 72.7593C103.041 72.8089 102.974 72.8367 102.904 72.8367H68.561C67.5987 72.8347 66.6738 73.209 65.9838 73.8798C65.2938 74.5507 64.8936 75.4647 64.8686 76.4267Z" fill="white"/>
<path d="M104.712 89.97H55.4775V97.8937H104.712V89.97Z" fill="#9BB0C6"/>
<path opacity="0.7" d="M104.712 89.97H55.4775V97.8937H104.712V89.97Z" fill="white"/>
<path opacity="0.2" d="M104.712 92.0625V91.4179L71.0039 91.689L104.712 92.0625Z" fill="black"/>
<path opacity="0.2" d="M104.712 94.8393V94.3434L89.5786 94.8823L104.712 94.8393Z" fill="black"/>
<path opacity="0.2" d="M104.712 96.697V96.0557L80.313 96.426L104.712 96.697Z" fill="black"/>
<path opacity="0.2" d="M66.485 89.97L65.771 95.8773L66.6139 94.9781C66.9003 96.056 67.4308 97.0536 68.1643 97.8937C68.6886 97.2017 69.1064 96.4351 69.4039 95.6194L92.3982 95.355L69.6221 94.8591C69.6935 94.5333 69.7312 94.201 69.7345 93.8674C69.7322 93.5911 69.7046 93.3156 69.6519 93.0443L103.399 92.9683L69.5791 92.7038C69.4601 92.2598 69.2939 91.8298 69.0833 91.4212C69.5672 90.9863 70.1945 90.745 70.8452 90.7436H104.722V89.97H66.485Z" fill="black"/>
<path d="M67.2455 93.8839C67.2438 94.3558 67.3353 94.8235 67.5148 95.26C67.6943 95.6965 67.9583 96.0932 68.2915 96.4274C68.6248 96.7616 69.0208 97.0267 69.4568 97.2074C69.8928 97.3881 70.3602 97.4809 70.8322 97.4805H105.281C105.351 97.4805 105.418 97.5083 105.468 97.5579C105.517 97.6075 105.545 97.6748 105.545 97.7449V98.0292C105.545 98.0993 105.517 98.1666 105.468 98.2162C105.418 98.2658 105.351 98.2937 105.281 98.2937H51.6857C51.1058 98.2928 50.5318 98.1774 49.9966 97.9541C49.4614 97.7307 48.9756 97.4039 48.5671 96.9923C48.1586 96.5807 47.8354 96.0925 47.6161 95.5557C47.3968 95.0188 47.2857 94.4439 47.2891 93.8641C47.3169 92.6894 47.8058 91.5728 48.6501 90.7557C49.4945 89.9386 50.6264 89.4865 51.8014 89.4973H105.281C105.351 89.4973 105.418 89.5251 105.468 89.5747C105.517 89.6243 105.545 89.6916 105.545 89.7617V90.046C105.545 90.1161 105.517 90.1834 105.468 90.233C105.418 90.2826 105.351 90.3105 105.281 90.3105H70.9379C69.9784 90.3083 69.0559 90.6804 68.3664 91.3477C67.6769 92.0149 67.2748 92.9248 67.2455 93.8839Z" fill="#263238"/>
<path opacity="0.2" d="M67.2455 93.8839C67.2438 94.3558 67.3353 94.8235 67.5148 95.26C67.6943 95.6965 67.9583 96.0932 68.2915 96.4274C68.6248 96.7616 69.0208 97.0267 69.4568 97.2074C69.8928 97.3881 70.3602 97.4809 70.8322 97.4805H105.281C105.351 97.4805 105.418 97.5083 105.468 97.5579C105.517 97.6075 105.545 97.6748 105.545 97.7449V98.0292C105.545 98.0993 105.517 98.1666 105.468 98.2162C105.418 98.2658 105.351 98.2937 105.281 98.2937H51.6857C51.1058 98.2928 50.5318 98.1774 49.9966 97.9541C49.4614 97.7307 48.9756 97.4039 48.5671 96.9923C48.1586 96.5807 47.8354 96.0925 47.6161 95.5557C47.3968 95.0188 47.2857 94.4439 47.2891 93.8641C47.3169 92.6894 47.8058 91.5728 48.6501 90.7557C49.4945 89.9386 50.6264 89.4865 51.8014 89.4973H105.281C105.351 89.4973 105.418 89.5251 105.468 89.5747C105.517 89.6243 105.545 89.6916 105.545 89.7617V90.046C105.545 90.1161 105.517 90.1834 105.468 90.233C105.418 90.2826 105.351 90.3105 105.281 90.3105H70.9379C69.9784 90.3083 69.0559 90.6804 68.3664 91.3477C67.6769 92.0149 67.2748 92.9248 67.2455 93.8839Z" fill="white"/>
<path d="M67.2457 93.8839C67.2439 94.3558 67.3354 94.8235 67.5149 95.26C67.6944 95.6965 67.9584 96.0932 68.2917 96.4274C68.6249 96.7616 69.021 97.0267 69.457 97.2074C69.893 97.3881 70.3604 97.4809 70.8323 97.4805H105.281C105.351 97.4805 105.418 97.5083 105.468 97.5579C105.517 97.6075 105.545 97.6748 105.545 97.7449V98.0292C105.545 98.0993 105.517 98.1666 105.468 98.2162C105.418 98.2658 105.351 98.2937 105.281 98.2937H70.634C70.0538 98.2937 69.4794 98.1789 68.9438 97.9559C68.4082 97.7328 67.9221 97.406 67.5134 96.9943C67.1047 96.5825 66.7816 96.0939 66.5626 95.5567C66.3436 95.0195 66.2331 94.4442 66.2374 93.8641C66.2643 92.6897 66.7525 91.5731 67.5963 90.7559C68.4401 89.9387 69.5717 89.4865 70.7464 89.4973H105.281C105.351 89.4973 105.418 89.5251 105.468 89.5747C105.517 89.6243 105.545 89.6916 105.545 89.7617V90.046C105.545 90.1161 105.517 90.1834 105.468 90.233C105.418 90.2826 105.351 90.3105 105.281 90.3105H70.9381C69.9786 90.3083 69.056 90.6804 68.3665 91.3477C67.677 92.0149 67.2749 92.9248 67.2457 93.8839Z" fill="#263238"/>
<path d="M71.0039 92.879V96.0558L72.151 94.9054L73.265 96.0194V92.879H71.0039Z" fill="#9BB0C6"/>
<path opacity="0.4" d="M67.2457 93.8839C67.2439 94.3558 67.3354 94.8235 67.5149 95.26C67.6944 95.6965 67.9584 96.0932 68.2917 96.4274C68.6249 96.7616 69.021 97.0267 69.457 97.2074C69.893 97.3881 70.3604 97.4809 70.8323 97.4805H105.281C105.351 97.4805 105.418 97.5083 105.468 97.5579C105.517 97.6075 105.545 97.6748 105.545 97.7449V98.0292C105.545 98.0993 105.517 98.1666 105.468 98.2162C105.418 98.2658 105.351 98.2937 105.281 98.2937H70.634C70.0538 98.2937 69.4794 98.1789 68.9438 97.9559C68.4082 97.7328 67.9221 97.406 67.5134 96.9943C67.1047 96.5825 66.7816 96.0939 66.5626 95.5567C66.3436 95.0195 66.2331 94.4442 66.2374 93.8641C66.2643 92.6897 66.7525 91.5731 67.5963 90.7559C68.4401 89.9387 69.5717 89.4865 70.7464 89.4973H105.281C105.351 89.4973 105.418 89.5251 105.468 89.5747C105.517 89.6243 105.545 89.6916 105.545 89.7617V90.046C105.545 90.1161 105.517 90.1834 105.468 90.233C105.418 90.2826 105.351 90.3105 105.281 90.3105H70.9381C69.9786 90.3083 69.056 90.6804 68.3665 91.3477C67.677 92.0149 67.2749 92.9248 67.2457 93.8839Z" fill="white"/>
<path d="M51.0479 89.1502H69.2886V81.2364H51.0479V89.1502Z" fill="#9BB0C6"/>
<path opacity="0.8" d="M51.0479 89.1502H69.2886V81.2364H51.0479V89.1502Z" fill="white"/>
<path opacity="0.2" d="M67.8275 82.0133H51.0479V81.2397H67.8076L67.8275 82.0133Z" fill="black"/>
<path opacity="0.2" d="M67.8271 82.6876L52.6904 83.0116L67.8271 83.3322V82.6876Z" fill="black"/>
<path opacity="0.2" d="M67.8271 85.6132L51.7979 85.8842L67.8271 86.1123V85.6132Z" fill="black"/>
<path opacity="0.2" d="M67.8275 87.3255L51.9404 87.6462L67.8275 87.9668V87.3255Z" fill="black"/>
<path opacity="0.2" d="M51.0479 83.8148L66.4159 84.2776L51.0479 84.6016V83.8148Z" fill="black"/>
<path d="M91.7605 85.1536C91.7588 86.104 91.3802 87.015 90.7079 87.6867C90.0355 88.3584 89.1243 88.7361 88.1739 88.737H50.2049C50.1347 88.737 50.0675 88.7649 50.0179 88.8145C49.9683 88.864 49.9404 88.9313 49.9404 89.0015V89.2824C49.9404 89.3526 49.9683 89.4198 50.0179 89.4694C50.0675 89.519 50.1347 89.5469 50.2049 89.5469H88.3722C88.9526 89.5478 89.5274 89.4336 90.0634 89.2109C90.5994 88.9882 91.0859 88.6614 91.4948 88.2495C91.9036 87.8375 92.2268 87.3486 92.4454 86.811C92.6641 86.2733 92.774 85.6977 92.7688 85.1173C92.7419 83.9429 92.2537 82.8263 91.4099 82.0091C90.5661 81.1919 89.4345 80.7398 88.2598 80.7505H50.2049C50.1347 80.7505 50.0675 80.7784 50.0179 80.8279C49.9683 80.8775 49.9404 80.9448 49.9404 81.0149V81.2992C49.9404 81.3694 49.9683 81.4366 50.0179 81.4862C50.0675 81.5358 50.1347 81.5637 50.2049 81.5637H88.0681C89.0304 81.5616 89.9553 81.936 90.6453 82.6068C91.3353 83.2776 91.7355 84.1917 91.7605 85.1536Z" fill="#263238"/>
<path opacity="0.4" d="M91.7605 85.1536C91.7588 86.104 91.3802 87.015 90.7079 87.6867C90.0355 88.3584 89.1243 88.7361 88.1739 88.737H50.2049C50.1347 88.737 50.0675 88.7649 50.0179 88.8145C49.9683 88.864 49.9404 88.9313 49.9404 89.0015V89.2824C49.9404 89.3526 49.9683 89.4198 50.0179 89.4694C50.0675 89.519 50.1347 89.5469 50.2049 89.5469H88.3722C88.9526 89.5478 89.5274 89.4336 90.0634 89.2109C90.5994 88.9882 91.0859 88.6614 91.4948 88.2495C91.9036 87.8375 92.2268 87.3486 92.4454 86.811C92.6641 86.2733 92.774 85.6977 92.7688 85.1173C92.7419 83.9429 92.2537 82.8263 91.4099 82.0091C90.5661 81.1919 89.4345 80.7398 88.2598 80.7505H50.2049C50.1347 80.7505 50.0675 80.7784 50.0179 80.8279C49.9683 80.8775 49.9404 80.9448 49.9404 81.0149V81.2992C49.9404 81.3694 49.9683 81.4366 50.0179 81.4862C50.0675 81.5358 50.1347 81.5637 50.2049 81.5637H88.0681C89.0304 81.5616 89.9553 81.936 90.6453 82.6068C91.3353 83.2776 91.7355 84.1917 91.7605 85.1536Z" fill="white"/>
<path d="M105.608 85.1999C105.608 86.252 105.19 87.2609 104.446 88.0049C103.702 88.7488 102.693 89.1667 101.641 89.1667H67.8271V81.2331H101.644C102.696 81.234 103.704 81.6523 104.447 82.3961C105.19 83.1399 105.608 84.1484 105.608 85.1999Z" fill="#9BB0C6"/>
<path opacity="0.7" d="M67.8271 81.2397V89.1734H101.648C102.7 89.1734 103.709 88.7554 104.452 88.0115C105.196 87.2676 105.614 86.2586 105.614 85.2066C105.614 84.1545 105.196 83.1455 104.452 82.4016C103.709 81.6577 102.7 81.2397 101.648 81.2397H67.8271Z" fill="white"/>
<path opacity="0.2" d="M67.8271 83.3322V82.6876L101.535 82.9587L67.8271 83.3322Z" fill="black"/>
<path opacity="0.2" d="M67.8271 86.1123V85.6132L82.9605 86.1553L67.8271 86.1123Z" fill="black"/>
<path opacity="0.2" d="M67.8271 87.9668V87.3255L92.2263 87.6957L67.8271 87.9668Z" fill="black"/>
<path opacity="0.2" d="M101.7 82.0132C102.351 82.0147 102.978 82.2559 103.462 82.6909C103.252 83.101 103.084 83.5319 102.963 83.9768L69.1461 84.2413L102.887 84.3239C102.834 84.5963 102.807 84.8729 102.805 85.1503C102.805 85.4842 102.844 85.817 102.92 86.142L80.1408 86.6379L103.132 86.9056C103.331 87.4542 103.587 87.9804 103.895 88.4758C104.587 87.9943 105.108 87.3048 105.382 86.5073C105.655 85.7099 105.668 84.846 105.417 84.0409C105.167 83.2359 104.666 82.5317 103.988 82.0303C103.311 81.529 102.491 81.2567 101.648 81.2529H67.8271V82.0265L101.7 82.0132Z" fill="black"/>
<path d="M105.294 85.1536C105.292 86.104 104.913 87.015 104.241 87.6867C103.569 88.3584 102.657 88.7361 101.707 88.737H67.2586C67.1885 88.737 67.1212 88.7649 67.0716 88.8145C67.022 88.864 66.9941 88.9313 66.9941 89.0015V89.2824C66.9941 89.3526 67.022 89.4198 67.0716 89.4694C67.1212 89.519 67.1885 89.5469 67.2586 89.5469H101.905C102.486 89.5478 103.061 89.4336 103.597 89.2109C104.133 88.9882 104.619 88.6614 105.028 88.2495C105.437 87.8375 105.76 87.3486 105.979 86.811C106.197 86.2733 106.307 85.6977 106.302 85.1173C106.275 83.9429 105.787 82.8263 104.943 82.0091C104.099 81.1919 102.968 80.7398 101.793 80.7505H67.2586C67.1885 80.7505 67.1212 80.7784 67.0716 80.8279C67.022 80.8775 66.9941 80.9448 66.9941 81.0149V81.2992C66.9941 81.3694 67.022 81.4366 67.0716 81.4862C67.1212 81.5358 67.1885 81.5637 67.2586 81.5637H101.601C102.564 81.5616 103.489 81.936 104.178 82.6068C104.868 83.2776 105.269 84.1917 105.294 85.1536Z" fill="#263238"/>
<defs>
<filter id="filter0_b_26_1123" x="-85.4127" y="-86.4127" width="332.825" height="273.825" filterUnits="userSpaceOnUse" color-interpolation-filters="sRGB">
<feFlood flood-opacity="0" result="BackgroundImageFix"/>
<feGaussianBlur in="BackgroundImageFix" stdDeviation="43.2064"/>
<feComposite in2="SourceAlpha" operator="in" result="effect1_backgroundBlur_26_1123"/>
<feBlend mode="normal" in="SourceGraphic" in2="effect1_backgroundBlur_26_1123" result="shape"/>
</filter>
<filter id="filter1_b_26_1123" x="-65.4127" y="-66.4127" width="332.825" height="273.825" filterUnits="userSpaceOnUse" color-interpolation-filters="sRGB">
<feFlood flood-opacity="0" result="BackgroundImageFix"/>
<feGaussianBlur in="BackgroundImageFix" stdDeviation="43.2064"/>
<feComposite in2="SourceAlpha" operator="in" result="effect1_backgroundBlur_26_1123"/>
<feBlend mode="normal" in="SourceGraphic" in2="effect1_backgroundBlur_26_1123" result="shape"/>
</filter>
</defs>
</svg>
