<svg width="152" height="103" viewBox="0 0 152 103" fill="none" xmlns="http://www.w3.org/2000/svg">
<g filter="url(#filter0_b_26_1332)">
<rect width="160" height="101" fill="black" fill-opacity="0.02"/>
</g>
<g filter="url(#filter1_b_26_1332)">
<rect x="20" y="20" width="160" height="101" fill="black" fill-opacity="0.03"/>
</g>
<path d="M112.698 98.4287H47.0601C45.2747 98.4287 43.8222 96.8218 43.8222 94.8467V46.035C43.8146 45.6627 43.9106 45.2955 44.0994 44.9745C44.2882 44.6535 44.5624 44.3912 44.8915 44.2169L69.6952 29.2015C71.0548 28.5267 72.5518 28.1748 74.0697 28.1732C75.5876 28.1717 77.0853 28.5206 78.4463 29.1927L114.86 44.2154C115.191 44.3891 115.466 44.6514 115.656 44.9731C115.847 45.2948 115.943 45.663 115.936 46.0366V94.8467C115.936 96.8218 114.483 98.4287 112.698 98.4287Z" fill="#F2F2F2"/>
<path d="M103.005 98.3758H46.6406C45.1011 98.3758 43.8486 97.2416 43.8486 95.8474V61.7277C43.8559 61.4433 43.9485 61.1677 44.1144 60.9367C44.2803 60.7056 44.5119 60.5298 44.779 60.4321L71.0236 49.9338C73.4352 48.9797 76.1193 48.9784 78.5318 49.9301L104.865 60.4326C105.133 60.5301 105.365 60.7058 105.531 60.937C105.697 61.1682 105.79 61.4441 105.797 61.7287V95.8474C105.797 97.2416 104.545 98.3758 103.005 98.3758Z" fill="#DFE4EA"/>
<path d="M61.6627 74.9283V71.3994C61.6627 70.9392 61.4798 70.4978 61.1544 70.1723C60.829 69.8469 60.3876 69.6641 59.9273 69.6641H51.0225C50.5622 69.6641 50.1208 69.8469 49.7954 70.1723C49.4699 70.4978 49.2871 70.9392 49.2871 71.3994V74.9283H61.6627Z" fill="white"/>
<path d="M49.2871 75.4824V80.9507C49.2871 81.411 49.4699 81.8524 49.7954 82.1778C50.1208 82.5033 50.5622 82.6861 51.0225 82.6861H59.9273C60.3876 82.6861 60.829 82.5033 61.1544 82.1778C61.4798 81.8524 61.6627 81.411 61.6627 80.9507V75.4824H49.2871Z" fill="white"/>
<path d="M103.654 65.2423L76.919 55.4419C75.294 54.8462 73.5105 54.8462 71.8856 55.4419L45.1506 65.2423C44.5871 65.4488 43.9821 65.5163 43.387 65.439C42.7918 65.3617 42.2242 65.1419 41.7322 64.7982C41.2402 64.4546 40.8384 63.9972 40.561 63.465C40.2835 62.9329 40.1387 62.3416 40.1387 61.7415C40.1387 60.9777 40.3732 60.2324 40.8105 59.6063C41.2479 58.9802 41.8669 58.5035 42.584 58.2406L71.8856 47.4994C73.5105 46.9037 75.294 46.9037 76.919 47.4994L106.221 58.2406C106.938 58.5035 107.557 58.9802 107.994 59.6063C108.431 60.2324 108.666 60.9777 108.666 61.7415C108.666 62.3416 108.521 62.9329 108.244 63.465C107.966 63.9972 107.564 64.4546 107.072 64.7982C106.58 65.1419 106.013 65.3617 105.418 65.439C104.822 65.5163 104.217 65.4488 103.654 65.2423Z" fill="#3F3D56"/>
<path d="M78.719 98.5392H71.5736C70.8153 98.5383 70.0883 98.2367 69.5521 97.7005C69.0159 97.1643 68.7142 96.4373 68.7134 95.679V78.3745C68.7142 77.6162 69.0159 76.8892 69.5521 76.353C70.0883 75.8168 70.8153 75.5151 71.5736 75.5143H78.719C79.4773 75.5151 80.2043 75.8168 80.7405 76.353C81.2768 76.8892 81.5784 77.6162 81.5792 78.3745V95.679C81.5784 96.4373 81.2768 97.1643 80.7405 97.7005C80.2043 98.2367 79.4773 98.5383 78.719 98.5392ZM71.5736 76.0046C70.9453 76.0053 70.3429 76.2552 69.8986 76.6995C69.4543 77.1438 69.2044 77.7462 69.2037 78.3745V95.679C69.2044 96.3073 69.4543 96.9096 69.8986 97.3539C70.3429 97.7982 70.9453 98.0481 71.5736 98.0489H78.719C79.3473 98.0481 79.9497 97.7982 80.394 97.3539C80.8383 96.9096 81.0882 96.3073 81.0889 95.679V78.3745C81.0882 77.7462 80.8383 77.1438 80.394 76.6995C79.9497 76.2552 79.3473 76.0053 78.719 76.0046H71.5736Z" fill="#3F3D56"/>
<path d="M79.4123 38.7103C79.2972 37.4239 78.7048 36.227 77.7517 35.3553C76.7986 34.4836 75.5537 34.0002 74.2621 34.0002C72.9705 34.0002 71.7256 34.4836 70.7724 35.3553C69.8193 36.227 69.2269 37.4239 69.1118 38.7103H79.4123Z" fill="white"/>
<path d="M69.0923 39.2644C69.1161 40.6197 69.6712 41.9115 70.6381 42.8615C71.605 43.8115 72.9063 44.3439 74.2618 44.3439C75.6173 44.3439 76.9186 43.8115 77.8855 42.8615C78.8524 41.9115 79.4075 40.6197 79.4313 39.2644H69.0923Z" fill="white"/>
<path d="M78.6026 44.9799H69.9212C69.5076 44.9799 69.111 44.8156 68.8186 44.5231C68.5261 44.2307 68.3618 43.8341 68.3618 43.4205C68.3618 43.0069 68.5261 42.6103 68.8186 42.3178C69.111 42.0254 69.5076 41.8611 69.9212 41.8611H78.6026C79.0161 41.8611 79.4128 42.0254 79.7052 42.3178C79.9977 42.6103 80.162 43.0069 80.162 43.4205C80.162 43.8341 79.9977 44.2307 79.7052 44.5231C79.4128 44.8156 79.0161 44.9799 78.6026 44.9799Z" fill="#CCCCCC"/>
<path d="M49.3793 80.9207C49.0091 80.9207 48.6541 81.0677 48.3923 81.3295C48.1305 81.5913 47.9834 81.9464 47.9834 82.3166C47.9834 82.6868 48.1305 83.0419 48.3923 83.3037C48.6541 83.5655 49.0091 83.7126 49.3793 83.7126H61.5702C61.9404 83.7126 62.2955 83.5655 62.5573 83.3037C62.8191 83.0419 62.9661 82.6868 62.9661 82.3166C62.9661 81.9464 62.8191 81.5913 62.5573 81.3295C62.2955 81.0677 61.9404 80.9207 61.5702 80.9207H49.3793Z" fill="#CCCCCC"/>
<path d="M87.2451 75.4824V80.9507C87.2451 81.411 87.428 81.8524 87.7534 82.1778C88.0788 82.5033 88.5202 82.6861 88.9805 82.6861H97.8853C98.3456 82.6861 98.787 82.5033 99.1124 82.1778C99.4379 81.8524 99.6207 81.411 99.6207 80.9507V75.4824H87.2451Z" fill="white"/>
<path d="M99.6207 74.9283V71.3994C99.6207 70.9392 99.4379 70.4978 99.1124 70.1723C98.787 69.8469 98.3456 69.6641 97.8853 69.6641H88.9805C88.5202 69.6641 88.0788 69.8469 87.7534 70.1723C87.428 70.4978 87.2451 70.9392 87.2451 71.3994V74.9283H99.6207Z" fill="white"/>
<path d="M79.3948 87.5809C79.9559 87.5809 80.4107 87.126 80.4107 86.565C80.4107 86.0039 79.9559 85.5491 79.3948 85.5491C78.8337 85.5491 78.3789 86.0039 78.3789 86.565C78.3789 87.126 78.8337 87.5809 79.3948 87.5809Z" fill="#3F3D56"/>
<path d="M45.2706 87.2189L41.269 80.9944L41.4542 80.8752L45.2513 86.7818L48.3454 80.8837L48.5402 80.9859L45.2706 87.2189Z" fill="#3F3D56"/>
<path d="M48.5291 78.9539H39.0099V78.7888C39.0099 78.5215 38.9572 78.2567 38.8549 78.0097C38.7526 77.7627 38.6026 77.5383 38.4136 77.3492C38.2245 77.1602 38.0001 77.0102 37.7531 76.9079C37.5061 76.8056 37.2414 76.7529 36.974 76.7529C36.7066 76.7529 36.4419 76.8056 36.1949 76.9079C35.9479 77.0102 35.7235 77.1602 35.5344 77.3492C35.3454 77.5383 35.1954 77.7627 35.0931 78.0097C34.9908 78.2567 34.9381 78.5215 34.9381 78.7888V78.9539H34.0027C33.4627 78.9539 32.9449 79.1684 32.5631 79.5502C32.1813 79.932 31.9668 80.4499 31.9668 80.9898C31.9668 81.5298 32.1813 82.0476 32.5631 82.4294C32.9449 82.8112 33.4627 83.0257 34.0027 83.0257H34.9381V98.4113C38.9948 98.33 34.9087 98.4934 39.0099 98.4113V83.0257H48.5291C49.069 83.0257 49.5869 82.8112 49.9687 82.4294C50.3505 82.0476 50.565 81.5298 50.565 80.9898C50.565 80.4499 50.3505 79.932 49.9687 79.5502C49.5869 79.1684 49.069 78.9539 48.5291 78.9539Z" fill="#3F3D56"/>
<path d="M36.9188 81.7051C37.3442 81.7051 37.6891 81.3602 37.6891 80.9348C37.6891 80.5093 37.3442 80.1644 36.9188 80.1644C36.4933 80.1644 36.1484 80.5093 36.1484 80.9348C36.1484 81.3602 36.4933 81.7051 36.9188 81.7051Z" fill="white"/>
<path d="M49.7386 91.1409H40.9363C40.5205 91.1404 40.122 90.9751 39.828 90.6811C39.534 90.3871 39.3686 89.9885 39.3682 89.5727V86.713C39.3686 86.2972 39.534 85.8987 39.828 85.6047C40.122 85.3107 40.5206 85.1454 40.9363 85.1449H49.7386C50.1544 85.1454 50.553 85.3107 50.8469 85.6047C51.1409 85.8987 51.3063 86.2972 51.3068 86.713V89.5727C51.3063 89.9885 51.1409 90.3871 50.847 90.6811C50.553 90.9751 50.1544 91.1404 49.7386 91.1409Z" fill="#CCCCCC"/>
<path d="M48.0888 87.4276H42.4764C42.1421 87.4276 41.8711 87.6986 41.8711 88.0329C41.8711 88.3672 42.1421 88.6381 42.4764 88.6381H48.0888C48.4231 88.6381 48.6941 88.3672 48.6941 88.0329C48.6941 87.6986 48.4231 87.4276 48.0888 87.4276Z" fill="#DFE4EA"/>
<path d="M127.085 98.5H34.8841C34.8651 98.5 34.8469 98.4914 34.8335 98.4761C34.82 98.4607 34.8125 98.4399 34.8125 98.4183C34.8125 98.3966 34.82 98.3758 34.8335 98.3605C34.8469 98.3452 34.8651 98.3365 34.8841 98.3365H127.085C127.104 98.3365 127.122 98.3452 127.136 98.3605C127.149 98.3758 127.157 98.3966 127.157 98.4183C127.157 98.4399 127.149 98.4607 127.136 98.4761C127.122 98.4914 127.104 98.5 127.085 98.5Z" fill="#CCCCCC"/>
<path d="M99.4358 83.876H87.2449C86.8314 83.876 86.4347 83.7117 86.1423 83.4192C85.8498 83.1268 85.6855 82.7302 85.6855 82.3166C85.6855 81.903 85.8498 81.5064 86.1423 81.2139C86.4347 80.9215 86.8314 80.7572 87.2449 80.7572H99.4358C99.8493 80.7572 100.246 80.9215 100.538 81.2139C100.831 81.5064 100.995 81.903 100.995 82.3166C100.995 82.7302 100.831 83.1268 100.538 83.4192C100.246 83.7117 99.8493 83.876 99.4358 83.876Z" fill="#CCCCCC"/>
<path d="M115.812 47.6633C115.812 47.6633 112.856 47.4535 106.823 47.1729C99.6314 34.588 76.2588 31.5545 76.2588 22.5L104.986 22.5C107.86 22.5 110.617 23.6418 112.649 25.6742C114.682 27.7066 115.823 30.4631 115.823 33.3374L115.812 47.6633Z" fill="#CCCCCC"/>
<path d="M90.896 25.8086C90.831 25.8087 90.7687 25.8345 90.7228 25.8805C90.6768 25.9264 90.6509 25.9888 90.6509 26.0538V34.2389C90.6509 34.3039 90.6768 34.3662 90.7228 34.4122C90.7687 34.4581 90.831 34.484 90.896 34.484H95.9946C96.0596 34.484 96.1219 34.4581 96.1679 34.4122C96.2138 34.3662 96.2397 34.3039 96.2398 34.2389V26.0538C96.2397 25.9888 96.2138 25.9264 96.1679 25.8805C96.1219 25.8345 96.0596 25.8087 95.9946 25.8086H90.896Z" fill="#F2F2F2"/>
<path d="M105.057 47.0032L78.3218 30.8893C76.6969 30.2936 74.9133 30.2936 73.2884 30.8893L46.5534 47.0032C45.99 47.2097 45.385 47.2772 44.7898 47.1999C44.1947 47.1226 43.627 46.9028 43.135 46.5591C42.643 46.2155 42.2412 45.7581 41.9638 45.226C41.6864 44.6938 41.5415 44.1025 41.5415 43.5024C41.5415 42.7386 41.776 41.9933 42.2134 41.3672C42.6507 40.7411 43.2697 40.2644 43.9868 40.0016L73.2884 22.9467C74.9133 22.3511 76.6969 22.3511 78.3218 22.9467L107.623 40.0016C108.34 40.2644 108.96 40.7411 109.397 41.3672C109.834 41.9933 110.069 42.7386 110.069 43.5024C110.069 44.1025 109.924 44.6938 109.646 45.226C109.369 45.7581 108.967 46.2155 108.475 46.5591C107.983 46.9028 107.416 47.1226 106.82 47.1999C106.225 47.2772 105.62 47.2097 105.057 47.0032Z" fill="#CCCCCC"/>
<defs>
<filter id="filter0_b_26_1332" x="-86.4127" y="-86.4127" width="332.825" height="273.825" filterUnits="userSpaceOnUse" color-interpolation-filters="sRGB">
<feFlood flood-opacity="0" result="BackgroundImageFix"/>
<feGaussianBlur in="BackgroundImageFix" stdDeviation="43.2064"/>
<feComposite in2="SourceAlpha" operator="in" result="effect1_backgroundBlur_26_1332"/>
<feBlend mode="normal" in="SourceGraphic" in2="effect1_backgroundBlur_26_1332" result="shape"/>
</filter>
<filter id="filter1_b_26_1332" x="-66.4127" y="-66.4127" width="332.825" height="273.825" filterUnits="userSpaceOnUse" color-interpolation-filters="sRGB">
<feFlood flood-opacity="0" result="BackgroundImageFix"/>
<feGaussianBlur in="BackgroundImageFix" stdDeviation="43.2064"/>
<feComposite in2="SourceAlpha" operator="in" result="effect1_backgroundBlur_26_1332"/>
<feBlend mode="normal" in="SourceGraphic" in2="effect1_backgroundBlur_26_1332" result="shape"/>
</filter>
</defs>
</svg>
