<svg width="152" height="103" viewBox="0 0 152 103" fill="none" xmlns="http://www.w3.org/2000/svg">
<g filter="url(#filter0_b_83_1693)">
<rect width="160" height="101" fill="white" fill-opacity="0.05"/>
</g>
<g filter="url(#filter1_b_83_1693)">
<rect x="20" y="20" width="160" height="101" fill="white" fill-opacity="0.1"/>
</g>
<path d="M151.527 96.0001H0.472732C0.347356 96.0001 0.227107 95.9503 0.138452 95.8618C0.049798 95.7733 0 95.6532 0 95.528V23.2321C0 23.1069 0.049798 22.9868 0.138452 22.8983C0.227107 22.8098 0.347356 22.76 0.472732 22.76C0.598108 22.76 0.718342 22.8098 0.806997 22.8983C0.895651 22.9868 0.945464 23.1069 0.945464 23.2321V95.056H151.527C151.653 95.056 151.773 95.1057 151.862 95.1943C151.95 95.2828 152 95.4028 152 95.528C152 95.6532 151.95 95.7733 151.862 95.8618C151.773 95.9503 151.653 96.0001 151.527 96.0001Z" fill="#CDCDCD"/>
<path d="M32.7466 90.8075H19.0076C18.6355 90.8071 18.2788 90.6594 18.0158 90.3967C17.7527 90.134 17.6047 89.7779 17.6042 89.4064V70.4944C17.6047 70.1229 17.7527 69.7668 18.0158 69.5041C18.2788 69.2414 18.6355 69.0937 19.0076 69.0933H32.7466C33.1186 69.0937 33.4753 69.2414 33.7383 69.5041C34.0014 69.7668 34.1494 70.1229 34.1499 70.4944V89.4064C34.1494 89.7779 34.0014 90.134 33.7383 90.3967C33.4753 90.6594 33.1186 90.8071 32.7466 90.8075Z" fill="#E7E7E7"/>
<path d="M57.8012 90.8074H44.0622C43.6902 90.807 43.3335 90.6593 43.0705 90.3966C42.8074 90.1339 42.6594 89.7778 42.6589 89.4063V52.5564C42.6594 52.1849 42.8074 51.8288 43.0705 51.5661C43.3335 51.3034 43.6902 51.1557 44.0622 51.1553H57.8012C58.1733 51.1557 58.53 51.3034 58.793 51.5661C59.0561 51.8288 59.2041 52.1849 59.2045 52.5564V89.4063C59.2041 89.7778 59.0561 90.1339 58.793 90.3966C58.53 90.6593 58.1733 90.807 57.8012 90.8074Z" fill="#E7E7E7"/>
<path d="M82.8562 90.8075H69.1172C68.7451 90.8071 68.3885 90.6594 68.1254 90.3967C67.8623 90.134 67.7143 89.7779 67.7139 89.4064V70.4944C67.7143 70.1229 67.8623 69.7668 68.1254 69.5041C68.3885 69.2414 68.7451 69.0937 69.1172 69.0933H82.8562C83.2282 69.0937 83.5849 69.2414 83.848 69.5041C84.111 69.7668 84.259 70.1229 84.2595 70.4944V89.4064C84.259 89.7779 84.111 90.134 83.848 90.3967C83.5849 90.6594 83.2282 90.8071 82.8562 90.8075Z" fill="#E7E7E7"/>
<path d="M107.911 90.8075H94.1719C93.8083 90.8153 93.4565 90.6789 93.1934 90.4281C92.9304 90.1774 92.7776 89.8328 92.7686 89.4698V45.4122C92.7776 45.0492 92.9304 44.7046 93.1934 44.4539C93.4565 44.2031 93.8083 44.0667 94.1719 44.0745H107.911C108.274 44.0667 108.626 44.2031 108.889 44.4539C109.152 44.7046 109.305 45.0492 109.314 45.4122V89.4698C109.305 89.8328 109.152 90.1774 108.889 90.4281C108.626 90.6789 108.274 90.8153 107.911 90.8075Z" fill="#E7E7E7"/>
<path d="M132.966 90.8074H119.227C118.855 90.807 118.498 90.6592 118.235 90.3965C117.972 90.1339 117.824 89.7777 117.823 89.4062V32.7303C117.824 32.3588 117.972 32.0026 118.235 31.7399C118.498 31.4773 118.855 31.3295 119.227 31.3291H132.966C133.338 31.3295 133.694 31.4773 133.957 31.7399C134.22 32.0026 134.368 32.3588 134.369 32.7303V89.4062C134.368 89.7777 134.22 90.1339 133.957 90.3965C133.694 90.6592 133.338 90.807 132.966 90.8074Z" fill="#E7E7E7"/>
<path d="M25.8772 63.4285C27.4437 63.4285 28.7136 62.1604 28.7136 60.5962C28.7136 59.032 27.4437 57.7639 25.8772 57.7639C24.3107 57.7639 23.0408 59.032 23.0408 60.5962C23.0408 62.1604 24.3107 63.4285 25.8772 63.4285Z" fill="#CDCDCD"/>
<path d="M50.9318 45.0186C52.4983 45.0186 53.7682 43.7505 53.7682 42.1863C53.7682 40.6221 52.4983 39.354 50.9318 39.354C49.3654 39.354 48.0955 40.6221 48.0955 42.1863C48.0955 43.7505 49.3654 45.0186 50.9318 45.0186Z" fill="#CDCDCD"/>
<path d="M75.9865 63.4285C77.553 63.4285 78.8229 62.1604 78.8229 60.5962C78.8229 59.032 77.553 57.7639 75.9865 57.7639C74.42 57.7639 73.1501 59.032 73.1501 60.5962C73.1501 62.1604 74.42 63.4285 75.9865 63.4285Z" fill="#CDCDCD"/>
<path d="M101.041 36.0496C102.608 36.0496 103.878 34.7815 103.878 33.2173C103.878 31.6531 102.608 30.385 101.041 30.385C99.475 30.385 98.2051 31.6531 98.2051 33.2173C98.2051 34.7815 99.475 36.0496 101.041 36.0496Z" fill="#CDCDCD"/>
<path d="M126.096 25.6646C127.663 25.6646 128.933 24.3965 128.933 22.8323C128.933 21.2681 127.663 20 126.096 20C124.53 20 123.26 21.2681 123.26 22.8323C123.26 24.3965 124.53 25.6646 126.096 25.6646Z" fill="#CDCDCD"/>
<path d="M76.046 61.2307L50.9317 42.4469L26.1605 60.974L25.5933 60.2187L50.9317 41.2673L75.9269 59.9619L100.765 32.82L100.864 32.7794L125.919 22.6992L126.273 23.5749L101.318 33.6149L76.046 61.2307Z" fill="#CDCDCD"/>
<defs>
<filter id="filter0_b_83_1693" x="-86.4127" y="-86.4127" width="332.825" height="273.825" filterUnits="userSpaceOnUse" color-interpolation-filters="sRGB">
<feFlood flood-opacity="0" result="BackgroundImageFix"/>
<feGaussianBlur in="BackgroundImageFix" stdDeviation="43.2064"/>
<feComposite in2="SourceAlpha" operator="in" result="effect1_backgroundBlur_83_1693"/>
<feBlend mode="normal" in="SourceGraphic" in2="effect1_backgroundBlur_83_1693" result="shape"/>
</filter>
<filter id="filter1_b_83_1693" x="-66.4127" y="-66.4127" width="332.825" height="273.825" filterUnits="userSpaceOnUse" color-interpolation-filters="sRGB">
<feFlood flood-opacity="0" result="BackgroundImageFix"/>
<feGaussianBlur in="BackgroundImageFix" stdDeviation="43.2064"/>
<feComposite in2="SourceAlpha" operator="in" result="effect1_backgroundBlur_83_1693"/>
<feBlend mode="normal" in="SourceGraphic" in2="effect1_backgroundBlur_83_1693" result="shape"/>
</filter>
</defs>
</svg>
